<?xml version="1.0" encoding="UTF-8"?>
<svg width="612px" height="166px" viewBox="0 0 612 166" version="1.1" xmlns="http://www.w3.org/2000/svg" xmlns:xlink="http://www.w3.org/1999/xlink">
    <!-- Generator: Sketch 45.1 (43504) - http://www.bohemiancoding.com/sketch -->
    <title>Group 2</title>
    <desc>Created with Sketch.</desc>
    <defs>
        <polygon id="path-1" points="0.410495131 0.0796119403 8.8078722 0.0796119403 8.8078722 8.47839573 0.410495131 8.47839573 0.410495131 0.0796119403"></polygon>
        <polygon id="path-3" points="0.767597308 0.0796119403 9.16183396 0.0796119403 9.16183396 8.47826679 0.767597308 8.47826679 0.767597308 0.0796119403"></polygon>
    </defs>
    <g id="FF---Desktop" stroke="none" stroke-width="1" fill="none" fill-rule="evenodd">
        <g id="HOME-" transform="translate(-594.000000, -835.000000)">
            <g id="MISSION" transform="translate(-2.000000, 84.000000)">
                <g id="BIG-CREST" transform="translate(533.000000, 224.000000)">
                    <g id="Group-2" transform="translate(63.000000, 524.000000)">
                        <g id="Ornate---Bottom" transform="translate(0.000000, 19.000000)">
                            <g id="Group-3" transform="translate(1.143657, 0.064045)">
                                <mask id="mask-2" fill="white">
                                    <use xlink:href="#path-1"></use>
                                </mask>
                                <g id="Clip-2"></g>
                                <path d="M8.8078722,4.27660336 C8.8078722,6.96190933 6.28954011,9.05937575 3.48758116,8.33315373 C2.07745243,7.96832724 0.924646455,6.81552127 0.557532649,5.40653619 C-0.173263993,2.60114627 1.92077146,0.079383209 4.60836474,0.079383209 C6.9265569,0.079383209 8.8078722,1.95955485 8.8078722,4.27660336" id="Fill-1" fill="#92683C" mask="url(#mask-2)"></path>
                            </g>
                            <g id="Group-6" transform="translate(602.707090, 0.064045)">
                                <mask id="mask-4" fill="white">
                                    <use xlink:href="#path-3"></use>
                                </mask>
                                <g id="Clip-5"></g>
                                <path d="M9.16194832,4.27660336 C9.16194832,6.95276007 6.6630584,9.04565187 3.86681772,8.34001567 C2.45325802,7.98319478 1.29359011,6.83381978 0.919614366,5.4248347 C0.173950187,2.61258284 2.27484757,0.079383209 4.96244086,0.079383209 C7.28406399,0.079383209 9.16194832,1.95955485 9.16194832,4.27660336" id="Fill-4" fill="#92683C" mask="url(#mask-4)"></path>
                            </g>
                            <path d="M300.898255,145.826881 C300.898255,143.137 303.433742,141.036103 306.242563,141.77948 C307.650404,142.153455 308.798636,143.31198 309.157744,144.724396 C309.867955,147.524067 307.776207,150.026388 305.097762,150.026388 C302.780714,150.026388 300.898255,148.148504 300.898255,145.826881" id="Fill-7" fill="#92683C"></path>
                            <path d="M485.115162,81.4347761 C485.115162,78.7448955 487.649506,76.6439981 490.457183,77.3850877 C491.865024,77.7567761 493.012112,78.9130131 493.374651,80.3231418 C494.09058,83.1239571 491.997688,85.6319963 489.316957,85.6319963 C486.997621,85.6319963 485.115162,83.7541119 485.115162,81.4347761" id="Fill-9" fill="#92683C"></path>
                            <path d="M411.851941,61.8351304 C411.851941,59.1452498 414.388572,57.0432088 417.197393,57.7877293 C418.606378,58.1605614 419.753465,59.3213729 420.11143,60.7349326 C420.819354,63.532317 418.731036,66.0346379 416.052592,66.0346379 C413.7344,66.0346379 411.851941,64.1567535 411.851941,61.8351304" id="Fill-11" fill="#92683C"></path>
                            <path d="M315.760188,146.929251 C314.291733,146.929251 313.483168,146.880074 313.420267,146.874356 L313.572373,144.780321 C314.072151,144.805481 364.14716,147.84189 414.625881,101.483765 C451.726104,67.4119437 479.08466,61.4855146 492.322487,67.2987216 C497.441494,69.5494381 500.379549,73.6803261 500.379549,78.6335034 C500.379549,84.8161116 496.244086,87.5837608 492.14522,87.5837608 C488.16072,87.5837608 485.15519,85.0905892 485.15519,81.7842776 L487.256088,81.7842776 C487.256088,84.1871004 489.775563,85.4828634 492.14522,85.4828634 C493.757776,85.4828634 495.241099,84.9236153 496.321854,83.9103354 C497.601606,82.7094959 498.278651,80.8853634 498.278651,78.6335034 C498.278651,74.4923224 495.863248,71.1494138 491.477325,69.2234959 C479.428901,63.929509 452.444321,69.6066209 416.047446,103.028845 C371.09945,144.310278 326.347019,146.929251 315.760188,146.929251" id="Fill-13" fill="#92683C"></path>
                            <path d="M412.869338,106.205466 L411.504956,104.608921 C411.717676,104.425936 432.836441,86.1445832 432.836441,67.6104825 C432.836441,56.0366765 426.476566,54.3086112 422.686487,54.3086112 C417.259836,54.3086112 413.939801,59.2663631 413.939801,61.9665366 L411.838904,61.9665366 C411.838904,58.0815347 416.165357,52.2077138 422.686487,52.2077138 C425.560497,52.2077138 434.937338,53.3182045 434.937338,67.6104825 C434.937338,87.1189787 413.77054,105.434641 412.869338,106.205466" id="Fill-15" fill="#92683C"></path>
                            <path d="M124.189912,81.4347761 C124.189912,78.7426082 121.653281,76.6417108 118.84446,77.387375 C117.437762,77.7602071 116.290675,78.9187313 115.931566,80.3288601 C115.220212,83.1262444 117.308529,85.6319963 119.990404,85.6319963 C122.307453,85.6319963 124.189912,83.7541119 124.189912,81.4347761" id="Fill-17" fill="#92683C"></path>
                            <path d="M197.373877,61.8351304 C197.373877,59.1555427 194.861263,57.0580763 192.055874,57.7797237 C190.640026,58.1434065 189.484933,59.3019308 189.12125,60.7177778 C188.399603,63.5231677 190.491351,66.0346379 193.172082,66.0346379 C195.493706,66.0346379 197.373877,64.1567535 197.373877,61.8351304" id="Fill-19" fill="#92683C"></path>
                            <path d="M293.384087,146.929251 C282.801832,146.929251 238.047113,144.312565 193.09683,103.028845 C156.703386,69.6077646 129.722237,63.9272216 117.666951,69.2234959 C113.281028,71.1494138 110.864481,74.4923224 110.864481,78.6335034 C110.864481,83.6896097 114.169649,85.4828634 116.999056,85.4828634 C119.369856,85.4828634 121.889332,84.1871004 121.889332,81.7842776 L123.990229,81.7842776 C123.990229,85.0905892 120.984699,87.5837608 116.999056,87.5837608 C114.851268,87.5837608 112.856731,86.8232291 111.384845,85.4428354 C109.670503,83.8348541 108.764727,81.4800649 108.764727,78.6335034 C108.764727,73.6803261 111.702781,69.5494381 116.821789,67.2987216 C130.059615,61.4866582 157.418171,67.4130873 194.518395,101.483765 C245.044005,147.886492 295.075556,144.823779 295.571903,144.780321 L295.725153,146.874356 C295.662251,146.880074 294.851399,146.929251 293.384087,146.929251" id="Fill-21" fill="#92683C"></path>
                            <path d="M196.274938,106.205466 C195.373736,105.434641 174.206938,87.1189787 174.206938,67.6104825 C174.206938,53.3182045 183.582635,52.2077138 186.456645,52.2077138 C192.978919,52.2077138 197.305372,58.0815347 197.305372,61.9665366 L195.204475,61.9665366 C195.204475,59.2663631 191.884439,54.3086112 186.456645,54.3086112 C182.666566,54.3086112 176.307835,56.0366765 176.307835,67.6104825 C176.307835,86.1445832 197.4266,104.425936 197.63932,104.608921 L196.274938,106.205466 Z" id="Fill-23" fill="#92683C"></path>
                            <path d="M305.797909,78.6325884 C273.184251,78.6325884 246.652558,64.1882041 246.652558,46.4340772 L248.753456,46.4340772 C248.753456,63.0296799 274.342775,76.5328347 305.797909,76.5328347 C337.2519,76.5328347 362.841219,63.0296799 362.841219,46.4340772 L364.942116,46.4340772 C364.942116,64.1882041 338.40928,78.6325884 305.797909,78.6325884" id="Fill-25" fill="#92683C"></path>
                            <path d="M254.997821,46.8234924 C254.997821,44.142761 252.477202,42.0395763 249.670668,42.7703729 C248.257109,43.1374868 247.105446,44.2971547 246.742907,45.711858 C246.026978,48.5149606 248.117583,51.0218562 250.796027,51.0218562 C253.116506,51.0218562 254.997821,49.1439718 254.997821,46.8234924" id="Fill-27" fill="#92683C"></path>
                            <path d="M365.01451,46.8234924 C365.01451,44.1404737 362.489316,42.0361453 359.682782,42.7715166 C358.27151,43.1409177 357.119847,44.3005856 356.759596,45.715289 C356.045954,48.5161043 358.135415,51.0218562 360.813859,51.0218562 C363.133194,51.0218562 365.01451,49.1439718 365.01451,46.8234924" id="Fill-29" fill="#92683C"></path>
                            <path d="M157.63295,62.9921679 C148.972038,51.7671772 130.212637,40.4038041 111.115857,40.4038041 C100.852681,40.4038041 90.4476925,42.486403 79.431991,44.6913731 C66.4320451,47.2931922 52.9883604,49.9842164 37.3557168,49.9842164 C20.1047989,49.9842164 8.59275037,41.560041 3.57209739,33.674528 C-0.349501493,27.5170802 -1.07915448,20.7329086 1.56841082,15.0615149 L3.4714556,15.9501362 C1.13382127,20.9570653 1.81658433,27.0070093 5.34362164,32.5480261 C10.0646366,39.9600653 20.9533922,47.883319 37.3557168,47.883319 C52.7802149,47.883319 66.1198269,45.2140243 79.0202746,42.6305037 C90.1400489,40.4060914 100.644536,38.3029067 111.115857,38.3029067 C130.890825,38.3029067 150.320409,50.0779963 159.295827,61.7089851 L157.63295,62.9921679 Z" id="Fill-31" fill="#92683C"></path>
                            <path d="M453.622173,62.9921679 L451.958152,61.7089851 C460.93357,50.0779963 480.364298,38.3029067 500.138123,38.3029067 C510.609443,38.3029067 521.112787,40.4060914 532.233705,42.6305037 C545.135296,45.2140243 558.474908,47.883319 573.90055,47.883319 C590.300587,47.883319 601.188199,39.961209 605.909214,32.5480261 C609.437395,27.0070093 610.120158,20.9570653 607.782524,15.9501362 L609.686712,15.0615149 C612.333134,20.7340522 611.602337,27.5170802 607.680738,33.6768153 C602.661229,41.560041 591.151468,49.9842164 573.90055,49.9842164 C558.266763,49.9842164 544.823078,47.2931922 531.821988,44.6913731 C520.805143,42.486403 510.400154,40.4038041 500.138123,40.4038041 C481.042486,40.4038041 462.281942,51.7671772 453.622173,62.9921679" id="Fill-33" fill="#92683C"></path>
                            <path d="M231.10283,75.4975966 L230.333149,76.0271097 L229.495992,75.2402739 L226.220559,77.1776284 C225.527503,77.5859138 224.872188,77.871828 224.252326,78.0353709 C223.632464,78.1977701 223.049199,78.2172123 222.502531,78.0936974 C222.078235,77.9964866 221.687104,77.8089269 221.326852,77.528731 C220.9666,77.2508224 220.640658,76.8642664 220.349026,76.3713504 C220.100852,75.9516284 219.905287,75.5353373 219.76233,75.1236209 C219.618229,74.7119045 219.517587,74.2544418 219.456974,73.7535201 L222.00161,72.3536843 L222.544847,73.1496694 L221.050087,74.4660183 C221.059237,74.6604399 221.086684,74.8548616 221.137005,75.0481396 C221.186182,75.2425612 221.266238,75.4312646 221.374886,75.6165369 C221.714552,76.189509 222.153716,76.5314623 222.691235,76.6412534 C223.363705,76.7784922 224.200862,76.5531918 225.200418,75.9619213 L228.69772,73.8941899 L228.282572,72.5595425 L229.117442,72.1398205 L231.10283,75.4975966 Z" id="Fill-35" fill="#92683C"></path>
                            <path d="M231.10283,75.4975966 L230.333149,76.0271097 L229.495992,75.2402739 L226.220559,77.1776284 C225.527503,77.5859138 224.872188,77.871828 224.252326,78.0353709 C223.632464,78.1977701 223.049199,78.2172123 222.502531,78.0936974 C222.078235,77.9964866 221.687104,77.8089269 221.326852,77.528731 C220.9666,77.2508224 220.640658,76.8642664 220.349026,76.3713504 C220.100852,75.9516284 219.905287,75.5353373 219.76233,75.1236209 C219.618229,74.7119045 219.517587,74.2544418 219.456974,73.7535201 L222.00161,72.3536843 L222.544847,73.1496694 L221.050087,74.4660183 C221.059237,74.6604399 221.086684,74.8548616 221.137005,75.0481396 C221.186182,75.2425612 221.266238,75.4312646 221.374886,75.6165369 C221.714552,76.189509 222.153716,76.5314623 222.691235,76.6412534 C223.363705,76.7784922 224.200862,76.5531918 225.200418,75.9619213 L228.69772,73.8941899 L228.282572,72.5595425 L229.117442,72.1398205 L231.10283,75.4975966 Z" id="Stroke-37" stroke="#92683C" stroke-width="0.75"></path>
                            <path d="M237.559344,82.461208 L236.988659,83.2000103 L235.845002,82.6133144 L232.961844,85.8567248 C232.637045,86.2215513 232.408314,86.5829468 232.273362,86.9409114 C232.139555,87.2977323 232.083515,87.6396856 232.106389,87.9667715 C232.130405,88.2961446 232.226473,88.6049319 232.39459,88.8988517 C232.563851,89.1916278 232.785721,89.4603871 233.060198,89.7051297 C233.323239,89.937292 233.603435,90.1054095 233.90193,90.2060513 C234.19928,90.3078368 234.513786,90.3352845 234.843159,90.2872509 C235.171389,90.2392174 235.50648,90.1099841 235.846146,89.9018386 C236.186956,89.6925494 236.530053,89.394055 236.874293,89.0063554 L239.614495,85.9230569 L238.906571,84.9052024 L239.573323,84.2498871 L242.191154,86.5783722 L241.620469,87.3171744 L240.611764,86.8093909 L237.972204,89.7783237 C237.472426,90.3421465 236.956637,90.7652994 236.423693,91.0489263 C235.890749,91.3314095 235.369241,91.4972397 234.856883,91.546417 C234.343381,91.5944506 233.851609,91.5315494 233.378135,91.3554263 C232.904661,91.1804468 232.476933,90.9219804 232.092665,90.5823144 C231.651213,90.1900401 231.305829,89.7600252 231.056512,89.2934132 C230.808338,88.8268013 230.673387,88.3361726 230.651657,87.8192397 C230.629928,87.3023069 230.728282,86.7670756 230.947864,86.2112584 C231.166303,85.6565849 231.526555,85.0973368 232.026333,84.533514 L234.665892,81.5645812 L233.93967,80.4895438 L234.606422,79.8353722 L237.559344,82.461208 Z" id="Fill-39" fill="#92683C"></path>
                            <path d="M237.559344,82.461208 L236.988659,83.2000103 L235.845002,82.6133144 L232.961844,85.8567248 C232.637045,86.2215513 232.408314,86.5829468 232.273362,86.9409114 C232.139555,87.2977323 232.083515,87.6396856 232.106389,87.9667715 C232.130405,88.2961446 232.226473,88.6049319 232.39459,88.8988517 C232.563851,89.1916278 232.785721,89.4603871 233.060198,89.7051297 C233.323239,89.937292 233.603435,90.1054095 233.90193,90.2060513 C234.19928,90.3078368 234.513786,90.3352845 234.843159,90.2872509 C235.171389,90.2392174 235.50648,90.1099841 235.846146,89.9018386 C236.186956,89.6925494 236.530053,89.394055 236.874293,89.0063554 L239.614495,85.9230569 L238.906571,84.9052024 L239.573323,84.2498871 L242.191154,86.5783722 L241.620469,87.3171744 L240.611764,86.8093909 L237.972204,89.7783237 C237.472426,90.3421465 236.956637,90.7652994 236.423693,91.0489263 C235.890749,91.3314095 235.369241,91.4972397 234.856883,91.546417 C234.343381,91.5944506 233.851609,91.5315494 233.378135,91.3554263 C232.904661,91.1804468 232.476933,90.9219804 232.092665,90.5823144 C231.651213,90.1900401 231.305829,89.7600252 231.056512,89.2934132 C230.808338,88.8268013 230.673387,88.3361726 230.651657,87.8192397 C230.629928,87.3023069 230.728282,86.7670756 230.947864,86.2112584 C231.166303,85.6565849 231.526555,85.0973368 232.026333,84.533514 L234.665892,81.5645812 L233.93967,80.4895438 L234.606422,79.8353722 L237.559344,82.461208 Z" id="Stroke-41" stroke="#92683C" stroke-width="0.75"></path>
                            <polygon id="Fill-43" fill="#92683C" points="250.526009 91.7232263 250.12916 92.5683886 248.884862 92.2447338 245.592274 98.1757375 249.259981 100.21259 250.881687 98.5611498 251.67081 99.1226853 249.870694 102.019568 242.53528 97.9447188 242.930985 97.0995565 244.198157 97.4357916 247.505612 91.4784838 246.550659 90.5818569 247.060729 89.7984521"></polygon>
                            <polygon id="Stroke-45" stroke="#92683C" stroke-width="0.75" points="250.526009 91.7232263 250.12916 92.5683886 248.884862 92.2447338 245.592274 98.1757375 249.259981 100.21259 250.881687 98.5611498 251.67081 99.1226853 249.870694 102.019568 242.53528 97.9447188 242.930985 97.0995565 244.198157 97.4357916 247.505612 91.4784838 246.550659 90.5818569 247.060729 89.7984521"></polygon>
                            <polygon id="Fill-47" fill="#92683C" points="262.05304 97.1232302 261.785424 98.0175698 260.644055 97.8814746 261.474349 102.340592 261.582997 102.381764 264.986519 99.5981034 263.801691 98.7769578 264.190534 97.9272209 267.900557 99.3236257 267.632941 100.217965 266.342896 100.076152 261.634461 103.77245 261.037473 105.359846 262.101073 106.103223 261.71223 106.95296 258.014788 105.561129 258.282404 104.665646 259.572448 104.808603 260.17973 103.192616 258.716993 97.1735511 257.70257 96.4804951 258.091413 95.6319019"></polygon>
                            <polygon id="Stroke-49" stroke="#92683C" stroke-width="0.75" points="262.05304 97.1232302 261.785424 98.0175698 260.644055 97.8814746 261.474349 102.340592 261.582997 102.381764 264.986519 99.5981034 263.801691 98.7769578 264.190534 97.9272209 267.900557 99.3236257 267.632941 100.217965 266.342896 100.076152 261.634461 103.77245 261.037473 105.359846 262.101073 106.103223 261.71223 106.95296 258.014788 105.561129 258.282404 104.665646 259.572448 104.808603 260.17973 103.192616 258.716993 97.1735511 257.70257 96.4804951 258.091413 95.6319019"></polygon>
                            <path d="M286.456272,104.335816 C284.653869,104.069344 283.567396,105.188984 283.195707,107.698166 C282.824019,110.207349 283.539948,111.595749 285.341207,111.861077 C287.144754,112.127549 288.231228,111.007909 288.602916,108.498726 C288.973461,105.989543 288.257532,104.601144 286.456272,104.335816 M286.63697,103.110959 C287.280849,103.207026 287.845815,103.412885 288.3353,103.733109 C288.823642,104.052189 289.221634,104.458187 289.529278,104.952247 C289.836922,105.446306 290.048498,106.015847 290.165151,106.659726 C290.281804,107.305892 290.285235,107.995517 290.176588,108.732032 C290.065653,109.476553 289.862082,110.13873 289.564731,110.718564 C289.266237,111.297254 288.899123,111.778734 288.462246,112.161859 C288.025369,112.544984 287.526735,112.818318 286.9652,112.983004 C286.405951,113.146547 285.804388,113.180857 285.160509,113.085933 C284.517774,112.989866 283.952808,112.784008 283.463323,112.463784 C282.973838,112.144704 282.573558,111.737562 282.262483,111.243502 C281.951409,110.749443 281.738688,110.182189 281.625466,109.544028 C281.513388,108.903581 281.512244,108.211668 281.622035,107.46486 C281.730683,106.730633 281.93311,106.070743 282.22703,105.485191 C282.52095,104.900782 282.888063,104.417015 283.330659,104.03389 C283.770966,103.651909 284.271888,103.378575 284.83228,103.215032 C285.392672,103.050346 285.994235,103.016036 286.63697,103.110959" id="Fill-51" fill="#92683C"></path>
                            <path d="M286.456272,104.335816 C284.653869,104.069344 283.567396,105.188984 283.195707,107.698166 C282.824019,110.207349 283.539948,111.595749 285.341207,111.861077 C287.144754,112.127549 288.231228,111.007909 288.602916,108.498726 C288.973461,105.989543 288.257532,104.601144 286.456272,104.335816 Z M286.63697,103.110959 C287.280849,103.207026 287.845815,103.412885 288.3353,103.733109 C288.823642,104.052189 289.221634,104.458187 289.529278,104.952247 C289.836922,105.446306 290.048498,106.015847 290.165151,106.659726 C290.281804,107.305892 290.285235,107.995517 290.176588,108.732032 C290.065653,109.476553 289.862082,110.13873 289.564731,110.718564 C289.266237,111.297254 288.899123,111.778734 288.462246,112.161859 C288.025369,112.544984 287.526735,112.818318 286.9652,112.983004 C286.405951,113.146547 285.804388,113.180857 285.160509,113.085933 C284.517774,112.989866 283.952808,112.784008 283.463323,112.463784 C282.973838,112.144704 282.573558,111.737562 282.262483,111.243502 C281.951409,110.749443 281.738688,110.182189 281.625466,109.544028 C281.513388,108.903581 281.512244,108.211668 281.622035,107.46486 C281.730683,106.730633 281.93311,106.070743 282.22703,105.485191 C282.52095,104.900782 282.888063,104.417015 283.330659,104.03389 C283.770966,103.651909 284.271888,103.378575 284.83228,103.215032 C285.392672,103.050346 285.994235,103.016036 286.63697,103.110959 Z" id="Stroke-53" stroke="#92683C" stroke-width="0.75"></path>
                            <path d="M302.190473,110.806854 L302.216777,110.013156 L302.500404,106.597054 L302.438646,106.581043 L298.818973,110.690201 L302.190473,110.806854 Z M302.77145,104.711164 L303.980296,105.013089 L303.781299,110.860606 L305.165124,110.90864 L305.183422,111.856731 L303.736697,112.158656 L303.706962,112.9981 L304.825458,113.327474 L304.793435,114.259554 L300.689995,114.118884 L300.723161,113.186804 L302.117279,112.944349 L302.148157,112.059158 L296.839303,111.877317 L296.712357,111.092768 L302.77145,104.711164 Z" id="Fill-55" fill="#92683C"></path>
                            <path d="M302.190473,110.806854 L302.216777,110.013156 L302.500404,106.597054 L302.438646,106.581043 L298.818973,110.690201 L302.190473,110.806854 Z M302.77145,104.711164 L303.980296,105.013089 L303.781299,110.860606 L305.165124,110.90864 L305.183422,111.856731 L303.736697,112.158656 L303.706962,112.9981 L304.825458,113.327474 L304.793435,114.259554 L300.689995,114.118884 L300.723161,113.186804 L302.117279,112.944349 L302.148157,112.059158 L296.839303,111.877317 L296.712357,111.092768 L302.77145,104.711164 Z" id="Stroke-57" stroke="#92683C" stroke-width="0.75"></path>
                            <polygon id="Fill-59" fill="#92683C" points="316.576645 103.394357 318.180052 103.193074 318.297848 103.220522 318.580332 105.825772 317.915867 105.974447 317.425238 104.265824 315.617117 104.432798 315.957927 109.476324 316.914024 109.663884 316.893438 110.364945 313.990837 110.561654 313.877615 109.869742 314.808552 109.555236 314.467742 104.51171 312.644753 104.588335 312.397723 106.347279 311.709242 106.290096 311.639479 103.669979 311.751557 103.628807 313.002718 103.635669"></polygon>
                            <polygon id="Stroke-61" stroke="#92683C" stroke-width="0.75" points="316.576645 103.394357 318.180052 103.193074 318.297848 103.220522 318.580332 105.825772 317.915867 105.974447 317.425238 104.265824 315.617117 104.432798 315.957927 109.476324 316.914024 109.663884 316.893438 110.364945 313.990837 110.561654 313.877615 109.869742 314.808552 109.555236 314.467742 104.51171 312.644753 104.588335 312.397723 106.347279 311.709242 106.290096 311.639479 103.669979 311.751557 103.628807 313.002718 103.635669"></polygon>
                            <polygon id="Fill-63" fill="#92683C" points="325.376283 105.35996 328.827839 104.80643 328.509902 102.830192 327.543512 102.74213 327.480611 102.046787 330.40151 101.576744 330.558191 102.258363 329.667283 102.644919 330.475848 107.68044 331.443382 107.768501 331.506283 108.464988 328.586527 108.933888 328.427559 108.252268 329.318468 107.865712 328.981089 105.765958 325.530676 106.320632 325.868055 108.420386 326.834445 108.508447 326.89849 109.204934 323.977591 109.67269 323.819766 108.993358 324.710675 108.606802 323.902109 103.570138 322.934576 103.482076 322.872818 102.785589 325.792574 102.31669 325.950399 102.998309 325.05949 103.383721"></polygon>
                            <polygon id="Stroke-65" stroke="#92683C" stroke-width="0.75" points="325.376283 105.35996 328.827839 104.80643 328.509902 102.830192 327.543512 102.74213 327.480611 102.046787 330.40151 101.576744 330.558191 102.258363 329.667283 102.644919 330.475848 107.68044 331.443382 107.768501 331.506283 108.464988 328.586527 108.933888 328.427559 108.252268 329.318468 107.865712 328.981089 105.765958 325.530676 106.320632 325.868055 108.420386 326.834445 108.508447 326.89849 109.204934 323.977591 109.67269 323.819766 108.993358 324.710675 108.606802 323.902109 103.570138 322.934576 103.482076 322.872818 102.785589 325.792574 102.31669 325.950399 102.998309 325.05949 103.383721"></polygon>
                            <path d="M338.651164,110.566801 C338.350382,110.598823 338.10564,110.551933 337.915793,110.426131 C337.725946,110.300329 337.584132,110.049868 337.491496,109.673605 C337.39886,109.298485 337.437744,108.988554 337.612724,108.746099 C337.785416,108.503644 338.025584,108.345819 338.333227,108.268051 C338.648876,108.190282 338.939365,108.21773 339.205837,108.351537 C339.473453,108.485345 339.653007,108.739237 339.745643,109.114357 C339.846285,109.520355 339.865727,109.984679 339.807401,110.508474 C339.746787,111.032269 339.609548,111.604097 339.392253,112.223959 L338.702628,112.159914 L338.651164,110.566801 Z" id="Fill-67" fill="#92683C"></path>
                            <path d="M338.651164,110.566801 C338.350382,110.598823 338.10564,110.551933 337.915793,110.426131 C337.725946,110.300329 337.584132,110.049868 337.491496,109.673605 C337.39886,109.298485 337.437744,108.988554 337.612724,108.746099 C337.785416,108.503644 338.025584,108.345819 338.333227,108.268051 C338.648876,108.190282 338.939365,108.21773 339.205837,108.351537 C339.473453,108.485345 339.653007,108.739237 339.745643,109.114357 C339.846285,109.520355 339.865727,109.984679 339.807401,110.508474 C339.746787,111.032269 339.609548,111.604097 339.392253,112.223959 L338.702628,112.159914 L338.651164,110.566801 Z" id="Stroke-69" stroke="#92683C" stroke-width="0.75"></path>
                            <path d="M352.911191,96.7836785 C353.157077,96.3422271 353.507036,95.8813334 353.962211,95.4021412 C354.417387,94.9240927 354.982353,94.5249565 355.653679,94.2081636 C356.784756,93.6763632 357.744284,93.510533 358.53112,93.707242 C359.319099,93.9039509 359.912657,94.4266021 360.311793,95.2751953 C360.446745,95.5611095 360.533663,95.8321562 360.573691,96.0894789 C360.614862,96.345658 360.620581,96.5984062 360.591989,96.848867 C360.562254,97.0981841 360.499353,97.345214 360.400999,97.5888129 C360.303788,97.8324118 360.18256,98.0828726 360.039603,98.341339 L357.850644,102.276662 L357.920407,102.362436 L361.529788,100.391915 L361.227862,98.8788576 L362.116484,98.5963744 L363.177797,101.389184 L356.456526,104.554826 L355.840096,103.544977 L358.561999,98.1251879 C358.678651,97.8907382 358.775862,97.6757308 358.854775,97.4801655 C358.933687,97.2857438 358.986295,97.0981841 359.013743,96.9163427 C359.041191,96.7345013 359.040047,96.5549472 359.009168,96.3788241 C358.97829,96.2015573 358.914245,96.0117103 358.819321,95.8081394 C358.605457,95.3575386 358.264648,95.1242326 357.794605,95.1093651 C357.323418,95.0933539 356.783612,95.2317364 356.1729,95.5187942 C355.762327,95.7120722 355.430666,95.9385162 355.179062,96.1969826 C354.928601,96.4565927 354.741041,96.7447942 354.615239,97.0615871 L355.116161,98.9371841 L354.268711,99.3363203 L352.911191,96.7836785 Z" id="Fill-71" fill="#92683C"></path>
                            <path d="M352.911191,96.7836785 C353.157077,96.3422271 353.507036,95.8813334 353.962211,95.4021412 C354.417387,94.9240927 354.982353,94.5249565 355.653679,94.2081636 C356.784756,93.6763632 357.744284,93.510533 358.53112,93.707242 C359.319099,93.9039509 359.912657,94.4266021 360.311793,95.2751953 C360.446745,95.5611095 360.533663,95.8321562 360.573691,96.0894789 C360.614862,96.345658 360.620581,96.5984062 360.591989,96.848867 C360.562254,97.0981841 360.499353,97.345214 360.400999,97.5888129 C360.303788,97.8324118 360.18256,98.0828726 360.039603,98.341339 L357.850644,102.276662 L357.920407,102.362436 L361.529788,100.391915 L361.227862,98.8788576 L362.116484,98.5963744 L363.177797,101.389184 L356.456526,104.554826 L355.840096,103.544977 L358.561999,98.1251879 C358.678651,97.8907382 358.775862,97.6757308 358.854775,97.4801655 C358.933687,97.2857438 358.986295,97.0981841 359.013743,96.9163427 C359.041191,96.7345013 359.040047,96.5549472 359.009168,96.3788241 C358.97829,96.2015573 358.914245,96.0117103 358.819321,95.8081394 C358.605457,95.3575386 358.264648,95.1242326 357.794605,95.1093651 C357.323418,95.0933539 356.783612,95.2317364 356.1729,95.5187942 C355.762327,95.7120722 355.430666,95.9385162 355.179062,96.1969826 C354.928601,96.4565927 354.741041,96.7447942 354.615239,97.0615871 L355.116161,98.9371841 L354.268711,99.3363203 L352.911191,96.7836785 Z" id="Stroke-73" stroke="#92683C" stroke-width="0.75"></path>
                            <path d="M368.633154,88.1347746 C367.148687,89.1903698 367.140682,90.7503175 368.609137,92.8180489 C370.078736,94.8846366 371.55634,95.3912765 373.040807,94.3356813 C374.525273,93.2800862 374.533279,91.7201384 373.064824,89.6524071 C371.595225,87.5858194 370.118764,87.0791795 368.633154,88.1347746 M367.916081,87.1249257 C368.446738,86.7486627 368.99798,86.5062075 369.572096,86.3987037 C370.145068,86.2912 370.713465,86.3083549 371.278432,86.4513119 C371.841111,86.594269 372.387779,86.8595974 372.918436,87.243866 C373.450236,87.6292784 373.930572,88.1244817 374.36173,88.7306198 C374.798607,89.3459071 375.109682,89.9646254 375.294954,90.5879183 C375.48137,91.2112112 375.54999,91.8127746 375.499669,92.3926086 C375.449348,92.9712989 375.280087,93.5133922 374.988454,94.0200321 C374.697965,94.526672 374.287393,94.9681235 373.756736,95.3455302 C373.228367,95.7217933 372.67598,95.9642485 372.101865,96.0706086 C371.527749,96.179256 370.958208,96.1632448 370.390954,96.0214313 C369.823701,95.8807616 369.278176,95.6200078 368.753238,95.2368828 C368.229443,94.8526142 367.750251,94.3539799 367.313374,93.7398362 C366.882215,93.1336981 366.569997,92.5184108 366.377863,91.8928306 C366.184585,91.2672504 366.115965,90.6633996 366.169717,90.082422 C366.223469,89.5003007 366.395018,88.9570638 366.685507,88.4492802 C366.977139,87.943784 367.386568,87.5023325 367.916081,87.1249257" id="Fill-75" fill="#92683C"></path>
                            <path d="M368.633154,88.1347746 C367.148687,89.1903698 367.140682,90.7503175 368.609137,92.8180489 C370.078736,94.8846366 371.55634,95.3912765 373.040807,94.3356813 C374.525273,93.2800862 374.533279,91.7201384 373.064824,89.6524071 C371.595225,87.5858194 370.118764,87.0791795 368.633154,88.1347746 Z M367.916081,87.1249257 C368.446738,86.7486627 368.99798,86.5062075 369.572096,86.3987037 C370.145068,86.2912 370.713465,86.3083549 371.278432,86.4513119 C371.841111,86.594269 372.387779,86.8595974 372.918436,87.243866 C373.450236,87.6292784 373.930572,88.1244817 374.36173,88.7306198 C374.798607,89.3459071 375.109682,89.9646254 375.294954,90.5879183 C375.48137,91.2112112 375.54999,91.8127746 375.499669,92.3926086 C375.449348,92.9712989 375.280087,93.5133922 374.988454,94.0200321 C374.697965,94.526672 374.287393,94.9681235 373.756736,95.3455302 C373.228367,95.7217933 372.67598,95.9642485 372.101865,96.0706086 C371.527749,96.179256 370.958208,96.1632448 370.390954,96.0214313 C369.823701,95.8807616 369.278176,95.6200078 368.753238,95.2368828 C368.229443,94.8526142 367.750251,94.3539799 367.313374,93.7398362 C366.882215,93.1336981 366.569997,92.5184108 366.377863,91.8928306 C366.184585,91.2672504 366.115965,90.6633996 366.169717,90.082422 C366.223469,89.5003007 366.395018,88.9570638 366.685507,88.4492802 C366.977139,87.943784 367.386568,87.5023325 367.916081,87.1249257 Z" id="Stroke-77" stroke="#92683C" stroke-width="0.75"></path>
                            <path d="M384.059024,84.0157806 L385.049431,83.4084989 L385.737913,84.0375101 L382.99428,87.0407526 L382.306942,86.4117414 L383.003429,85.1720175 L378.785623,81.3178944 C378.682694,81.5363328 378.568329,81.7364728 378.44367,81.9183142 C378.319011,82.1001556 378.147463,82.3105884 377.929024,82.5507563 L377.162774,82.0075194 C377.434965,81.5729299 377.591646,81.1223291 377.631674,80.6557172 C377.671702,80.1879616 377.623668,79.6893272 377.487573,79.1598142 L378.17148,78.6371631 L384.059024,84.0157806 Z" id="Fill-79" fill="#92683C"></path>
                            <path d="M384.059024,84.0157806 L385.049431,83.4084989 L385.737913,84.0375101 L382.99428,87.0407526 L382.306942,86.4117414 L383.003429,85.1720175 L378.785623,81.3178944 C378.682694,81.5363328 378.568329,81.7364728 378.44367,81.9183142 C378.319011,82.1001556 378.147463,82.3105884 377.929024,82.5507563 L377.162774,82.0075194 C377.434965,81.5729299 377.591646,81.1223291 377.631674,80.6557172 C377.671702,80.1879616 377.623668,79.6893272 377.487573,79.1598142 L378.17148,78.6371631 L384.059024,84.0157806 Z" id="Stroke-81" stroke="#92683C" stroke-width="0.75"></path>
                            <path d="M390.907584,74.049041 L391.71958,73.2187463 L392.539582,73.6613414 L390.610233,77.2409869 L389.789088,76.7983918 L390.165351,75.4271474 L385.134405,72.716681 C385.087515,72.9534179 385.025757,73.1752873 384.950276,73.3811455 C384.873651,73.5881474 384.758142,73.8351772 384.603748,74.1199478 L383.728851,73.7802817 C383.886675,73.293084 383.928991,72.8173228 383.854653,72.3552854 C383.780315,71.8909608 383.612198,71.4197743 383.351444,70.9382948 L383.886675,70.2658246 L390.907584,74.049041 Z" id="Fill-83" fill="#92683C"></path>
                            <path d="M390.907584,74.049041 L391.71958,73.2187463 L392.539582,73.6613414 L390.610233,77.2409869 L389.789088,76.7983918 L390.165351,75.4271474 L385.134405,72.716681 C385.087515,72.9534179 385.025757,73.1752873 384.950276,73.3811455 C384.873651,73.5881474 384.758142,73.8351772 384.603748,74.1199478 L383.728851,73.7802817 C383.886675,73.293084 383.928991,72.8173228 383.854653,72.3552854 C383.780315,71.8909608 383.612198,71.4197743 383.351444,70.9382948 L383.886675,70.2658246 L390.907584,74.049041 Z" id="Stroke-85" stroke="#92683C" stroke-width="0.75"></path>
                        </g>
                        <g id="Services" transform="translate(36.000000, 0.000000)">
                            <text id="BRANDING" font-family="Montserrat-Bold, Montserrat" font-size="14" font-weight="bold" letter-spacing="4" fill="#92683C">
                                <tspan x="1.79131469" y="14">BRANDING</tspan>
                            </text>
                            <text id="WEBSITES" font-family="Montserrat-Bold, Montserrat" font-size="14" font-weight="bold" letter-spacing="4" fill="#92683C">
                                <tspan x="147.045492" y="14">WEBSITES</tspan>
                            </text>
                            <text id="ILLUSTRATION" font-family="Montserrat-Bold, Montserrat" font-size="14" font-weight="bold" letter-spacing="4" fill="#92683C">
                                <tspan x="287.593193" y="14">ILLUSTRATION</tspan>
                            </text>
                            <text id="PRINT" font-family="Montserrat-Bold, Montserrat" font-size="14" font-weight="bold" letter-spacing="4" fill="#92683C">
                                <tspan x="474.446455" y="14">PRINT</tspan>
                            </text>
                            <ellipse id="Oval-2" fill="#FCFBF8" cx="129.753613" cy="9.09816754" rx="3.0965035" ry="3.09816754"></ellipse>
                            <ellipse id="Oval-2-Copy" fill="#FCFBF8" cx="268.529371" cy="9.09816754" rx="3.0965035" ry="3.09816754"></ellipse>
                            <path d="M456.817016,12.1963351 C458.527168,12.1963351 459.91352,10.8092382 459.91352,9.09816754 C459.91352,7.38709686 458.527168,6 456.817016,6 C455.106865,6 453.720513,7.38709686 453.720513,9.09816754 C453.720513,10.8092382 455.106865,12.1963351 456.817016,12.1963351 Z" id="Oval-2-Copy-2" fill="#FCFBF8"></path>
                        </g>
                    </g>
                </g>
            </g>
        </g>
    </g>
</svg>