<svg xmlns="http://www.w3.org/2000/svg" viewBox="0 0 715 342.04"><defs><style>.a{fill:none;}.b{fill:#fcfbf8;}.c{fill:#92683c;}</style></defs><title>crest-top</title><path class="a" d="M516.81,256.28l-4.63-.11h0a1.56,1.56,0,0,0-.89.29c-.48.47-.8,1.79-.77,5.47l.14,22.44a16.39,16.39,0,0,1,2.52-4.26c.93-1.11,1.85-2.21,2.75-3.32s1.81-2.24,2.74-3.39a15,15,0,0,0,2.77-8.37C521.37,259.21,519.87,256.35,516.81,256.28Z" transform="translate(0 0)"/><path class="a" d="M544.55,258.41h-.12c-1.92,0-3.21,1.41-3.93,4.31h0c-.81,3.18-1.2,8.62-1.15,16.16s.5,13,1.36,16.24,2.22,4.81,4.17,5,3.23-1.18,4-4.16c.86-3.14,1.26-8.64,1.22-16.36s-.5-13.17-1.36-16.46C547.91,260,546.55,258.47,544.55,258.41Z" transform="translate(0 0)"/><path class="a" d="M282.08,242.78h0a4.6,4.6,0,0,0-2.73.55,1.25,1.25,0,0,0-.24.27c-.14.55-.27,1.11-.42,1.66,0,.05,0,.1,0,.15l-.16,43.7q0,2.44,0,3.91a12.45,12.45,0,0,0,.12,1.82c.38,2.31,1.43,3.42,3.19,3.33,3.56-.13,6.12-1.87,7.83-5.32,2.09-4.39,3.17-12,3.21-22.75,0-13-1.82-21.42-5.52-25.12A7.24,7.24,0,0,0,282.08,242.78Z" transform="translate(0 0)"/><path class="a" d="M352.75,255.2a3.92,3.92,0,0,0-2.75-.84h0a3.92,3.92,0,0,0-3.14,1.36,5.68,5.68,0,0,0-1.2,3.82c0,2.37,1.66,4.92,4.94,7.58,2-4.47,3-7.62,3-9.37A3.35,3.35,0,0,0,352.75,255.2Z" transform="translate(0 0)"/><path class="a" d="M693.41,263.33l-4.62-.27h0a.61.61,0,0,0-.44.19c-.56.53-1.23,2.31-1.22,7.73l0,30.55a23.9,23.9,0,0,1,2.49-5.55c.93-1.46,1.85-2.91,2.75-4.38s1.82-3,2.74-4.5A25.77,25.77,0,0,0,698,275.6C697.95,267.62,696.42,263.49,693.41,263.33Z" transform="translate(0 0)"/><path class="b" d="M409.67,277.11l-9.53-.16c-1.14,0-1.48.09-1.67.27l-.15.18v.17c0,.37.3.58,1.44,1,1.3.39,1.93,1.38,1.93,3v6.23a4,4,0,0,1-1.27,2.94,4.82,4.82,0,0,1-3.76,1.48c-1.66,0-2.95-1.23-4-3.65-1.12-2.67-1.7-6.49-1.7-11.35a50.51,50.51,0,0,1,2.3-16.38c1.34-3.94,2.86-6,4.4-6h0a2.19,2.19,0,0,1,1.77.87,3.49,3.49,0,0,1,.74,2.28,13.28,13.28,0,0,1-1,4.43q-.32.81-.63,1.56t-.64,1.57l-3.67,9.38a20.09,20.09,0,0,0-1.48,7.1,5.83,5.83,0,0,0,1,3.42,3,3,0,0,0,2.37,1.46,2.92,2.92,0,0,0,2.12-.68,2.49,2.49,0,0,0,.66-1.85c0-.91-.48-2-2.77-2-.16,0-.16-.52-.16-.58a17.73,17.73,0,0,1,1.11-4.78,21.86,21.86,0,0,1,1.37-3.42q5.09-9.76,10.17-19.58c.29-.54.56-1,.82-1.48s.49-.87.7-1.26l.6-1.1-1.14.52-.5.18c-.28.1-.66.24-1.13.44a9.25,9.25,0,0,1-1.3.43,14.47,14.47,0,0,1-3.92-1.11,15.37,15.37,0,0,0-5-1.16h0c-3.89,0-7.1,2.27-9.52,6.73s-3.72,10.81-3.7,18.6c0,15.43,4.13,23.34,12.22,23.52h.37a10.73,10.73,0,0,0,4.12-.7,9.09,9.09,0,0,1,3.71-.69,12.07,12.07,0,0,1,3.21,1.16l.22.1.2-.14c.4-.29.41-.9,0-2.13a19.17,19.17,0,0,1-.43-5.18l0-9c0-1.63.62-2.59,1.93-2.95,1.12-.38,1.43-.59,1.43-1C411.48,277.19,410.7,277.13,409.67,277.11Z" transform="translate(0 0)"/><path class="b" d="M477.54,236.49h-1.69a74.75,74.75,0,0,1-16-1.13,12.92,12.92,0,0,1-1.64-.47,2.5,2.5,0,0,0-4.47-2.24,2.44,2.44,0,0,0-.24,1.14c-.23,1.91,1.07,3.54,3.88,4.86a6.18,6.18,0,0,0,1,.3c2.54.81,9,3.17,9,6.27h0l.09,18.08a12.23,12.23,0,0,1-.52,4.61c-.31.61-1.11.91-2.45.86a3.92,3.92,0,0,1-.73-.27.74.74,0,0,0-.67.08.6.6,0,0,0-.22.49,4.88,4.88,0,0,0,2.48,4.23h0a3.89,3.89,0,0,1,2.17,3.54l.12,23.89c0,2.63-.85,4.08-2.59,4.43-.5,0-2,.2-2,1.19,0,.62.84.79,2.39.89q7,.43,14,.93c.41,0,.75,0,1,0,.77,0,1.07-.1,1.24-.27l.18-.22v-.18c0-.3-.16-.51-1.84-1.39-1.95-.62-2.9-2.22-2.91-4.9L477,275.52l2.1.08c2.67.1,4.27,1,4.88,2.77.16.9.44,1.94,1.22,2a.65.65,0,0,0,.46-.18c.22-.21.42-.62.42-2.17L486,265.53c0-1.41-.16-2.35-.87-2.38h0c-.89,0-1.12,1.39-1.2,1.86-.54,1.79-2.1,2.63-4.83,2.54l-2.14-.07-.11-20.7c0-2.31,1.25-2.93,2.11-3.1.25,0,.51,0,.8-.05,3.36,0,5.74,1.61,7.27,4.87a18.65,18.65,0,0,1,1,2.95c.44,1.57,1,3.73,1.66,6.4.85,3.59,2.21,5.44,4.05,5.49a3.49,3.49,0,0,0,2.58-.77,2.75,2.75,0,0,0,.74-2.07c0-1.28-.62-2.79-3.4-2.91-.32-4,1.13-10.73,4.42-20.48l.19-.56H477.41Z" transform="translate(0 0)"/><path class="b" d="M529.45,303a6.67,6.67,0,0,1-2-1.52,45.09,45.09,0,0,1-1.35-5.12h0q-2.1-9.61-4.19-19.11c4.33-4.13,6.5-8.77,6.47-13.78,0-4.33-1.25-7.51-3.64-9.44-2.06-1.69-5.31-2.59-9.66-2.67l-12.88-.23c-1.14,0-1.48.14-1.65.31a.56.56,0,0,0-.17.41c0,.64.8.87,1.45,1,1.21.35,1.8,1.42,1.81,3.3l.09,14.58a8.66,8.66,0,0,1-.35,3.3c-.19.39-.74.58-1.58.53a3,3,0,0,1-.5-.2.62.62,0,0,0-.58.08.54.54,0,0,0-.21.45,3.75,3.75,0,0,0,1.8,3.2,2.8,2.8,0,0,1,1.47,2.5l.1,17.36c0,2.75-1.3,3-1.69,3.08s-1.53.14-1.52,1c0,.54.63.68,1.79.77l9.78.77c1.13.09,1.49,0,1.68-.18l.17-.2V303c0-.29-.18-.47-1.37-1.12-1.31-.44-1.95-1.58-2-3.47l-.06-9.19a2.87,2.87,0,0,0,2.54,1.67,2.17,2.17,0,0,0,1.54-.51,2.06,2.06,0,0,0,.8-1.77c0-.84-.44-1.91-2.41-2.4.15-1.21,1.14-2.63,2.94-4.23q2.28,10.93,4.56,22l.06.31.31,0,8.89.79c.15,0,.33,0,.52,0,.44,0,.9-.09,1-.51l.07-.3-.26-.16Zm-10.81-29.64q-1.38,1.73-2.74,3.39c-.9,1.1-1.81,2.2-2.75,3.32a16.39,16.39,0,0,0-2.52,4.26l-.14-22.44c0-3.68.29-5,.77-5.47a1.56,1.56,0,0,1,.89-.29h0l4.63.11c3.06.07,4.56,2.93,4.59,8.74A15,15,0,0,1,518.64,273.39Z" transform="translate(0 0)"/><path class="b" d="M441.51,296.14c-.16-.36-.29-.69-.41-1a4.34,4.34,0,0,1-.27-1,6.32,6.32,0,0,1-.06-1.1L440.62,255c0-1.73.59-2.72,1.78-3,.45-.07,1.5-.22,1.5-.94s-.9-.72-1.81-.73l-9.27-.09c-1.11,0-1.46.12-1.65.31l-.17.22v.18c0,.34.24.5,1.44.94s1.93,1.39,1.94,3.06l.07,18.06q-5-11.37-9.94-22.59l-.11-.25-8.65-.07c-1.07,0-1.46.12-1.65.31l-.17.22v.17c0,.71,1,.88,1.46.94,1.2.31,1.79,1.3,1.79,3l0,13.55c0,2.57-.4,3.15-.61,3.31s-.48.26-1.4.27a3.25,3.25,0,0,1-.51-.18.64.64,0,0,0-.57.09.54.54,0,0,0-.2.43,3.45,3.45,0,0,0,1.88,3,2.44,2.44,0,0,1,1.44,2.25l.05,16.13c0,1.7-.57,2.66-1.72,2.92-.41.05-1.51.19-1.51,1,0,.6.78.67,1.81.7l9.28.31c1.15,0,1.48-.06,1.68-.24l.16-.19v-.18c0-.31-.17-.46-1.45-1-1.25-.35-1.86-1.36-1.87-3.09l-.1-30.14c4.25,10.39,8.21,20.12,12.07,29.68a22.23,22.23,0,0,0,2.55,5.11,4.39,4.39,0,0,0,3.51,2h.2a2.11,2.11,0,0,0,2.33-2.36,1.87,1.87,0,0,0-.62-1.51A2.61,2.61,0,0,0,441.51,296.14Z" transform="translate(0 0)"/><path class="b" d="M544.53,251.38h-.18c-3.89,0-6.91,2.68-9,8-1.93,4.7-2.88,11.16-2.83,19.19s1.08,14.59,3.07,19.65c2.17,5.59,5.27,8.62,9.22,9a8.13,8.13,0,0,0,.83,0c3.61,0,6.45-2.51,8.44-7.48s2.88-11.5,2.82-19.8-1.09-15.09-3.07-20C551.65,254.34,548.51,251.46,544.53,251.38Zm4.3,44.57c-.73,3-2,4.34-4,4.16s-3.35-1.86-4.17-5-1.31-8.66-1.36-16.24.34-13,1.15-16.16h0c.72-2.9,2-4.31,3.93-4.31h.12c2,.06,3.36,1.6,4.14,4.72.85,3.29,1.31,8.83,1.36,16.46S549.69,292.81,548.83,295.95Z" transform="translate(0 0)"/><path class="b" d="M642.66,317.29c-1.33-.64-2-2.12-2-4.53l-.21-51.92c0-2.37.61-3.69,2-4.09,1.16-.63,1.3-.75,1.29-1,0-.8-1.22-.84-1.8-.87l-9.76-.35c-.88,0-1.38.06-1.64.31a.63.63,0,0,0-.19.45c0,.79,1.1,1.06,1.42,1.13,1.21.44,1.83,1.85,1.84,4.18l.08,17.91a12.76,12.76,0,0,1-.36,4.1c-.12.31-.43.73-1.53.61a2.78,2.78,0,0,1-.49-.26.61.61,0,0,0-.59,0,.56.56,0,0,0-.23.49,5,5,0,0,0,1.74,3.86h0a3.92,3.92,0,0,1,1.5,3.25l.09,21.32c0,3.45-1.29,3.68-1.67,3.75-1.27.07-1.54.59-1.53,1s.67.77,1.75.94q4.87.76,9.74,1.55a6.28,6.28,0,0,0,1,.1,1,1,0,0,0,.7-.18.55.55,0,0,0,.19-.43C644,318.38,643.85,318.17,642.66,317.29Z" transform="translate(0 0)"/><path class="b" d="M670.47,304.79a21.64,21.64,0,0,1,.22-3.13,1.86,1.86,0,0,0,.37.11,1.61,1.61,0,0,0,1.34-.34,2.49,2.49,0,0,0,.64-2c0-2.18-1.17-2.78-2.14-2.9-2-.26-3.36,1.52-4.12,5.27-.29,1.68-.57,3.32-.84,4.93s-.55,3.25-.83,4.87c-.9,3.2-2.35,4.59-4.44,4.25a2.66,2.66,0,0,1-2.19-1.51,13.35,13.35,0,0,1-.64-4.92l-.06-17.8,1.3.15a3.47,3.47,0,0,1,3.31,2.76c.12.95.32,1.84.94,1.91h.28l.14-.13c.23-.21.37-.61.37-2.06l0-11.6c0-1.42-.12-2.2-.7-2.25-.82,0-.95,1.18-1,1.75-.37,1.62-1.4,2.3-3.21,2.1l-1.4-.14-.07-21.36c.24-.46.86-.67,1.9-.61,2.28.11,3.9,1.65,5,4.71a23.48,23.48,0,0,1,.69,2.79q.45,2.17,1.15,6c.6,3.44,1.56,5.17,2.92,5.3a2.22,2.22,0,0,0,1.76-.48,2.72,2.72,0,0,0,.71-2.09,2.54,2.54,0,0,0-2.37-2.84c-.21-3.78.82-10,3.13-19l.13-.5-.52,0q-11.38-.47-22.75-.91c-.87,0-1.37.06-1.63.31a.62.62,0,0,0-.2.46c0,.8,1.1,1.08,1.41,1.16,1.21.46,1.83,1.92,1.84,4.34l.06,18.53a13.73,13.73,0,0,1-.37,4.26c-.13.32-.43.74-1.53.63a3.11,3.11,0,0,1-.49-.28.61.61,0,0,0-.59,0,.57.57,0,0,0-.24.49,5.19,5.19,0,0,0,1.75,4,4.16,4.16,0,0,1,1.5,3.38l.08,22.06c0,2.38-.57,3.68-1.67,3.88-1.27.06-1.54.59-1.54,1s.67.79,1.74,1c7.85,1.32,15.68,2.7,23.3,4.11l.62.12-.14-.62C671.42,315.13,670.48,308.85,670.47,304.79Z" transform="translate(0 0)"/><path class="b" d="M588.31,308c-.16-.46-.31-.88-.43-1.26a6.3,6.3,0,0,1-.28-1.22,9.06,9.06,0,0,1-.07-1.36l-.27-45.53c0-2.12.58-3.32,1.78-3.64.37-.06,1.5-.24,1.49-1s-1.17-.8-1.8-.82l-9.26-.26c-.9,0-1.39.06-1.64.31a.6.6,0,0,0-.18.42c0,.31.2.51,1.42,1.06s2,1.72,2,3.76l.13,21.47c-3.25-8.92-6.61-18-10-27l-.1-.26-8.66-.22c-.9,0-1.4.07-1.65.31a.58.58,0,0,0-.18.42c0,.75,1.08,1,1.44,1,1.22.39,1.81,1.57,1.83,3.63l.1,15.84c0,3-.4,3.72-.62,3.91s-.47.3-1.35.24a3.25,3.25,0,0,1-.5-.23.62.62,0,0,0-.58.06.55.55,0,0,0-.21.46,4.27,4.27,0,0,0,1.85,3.46,3.21,3.21,0,0,1,1.48,2.79l.12,18.86c0,3-1.3,3.25-1.68,3.33-1,.07-1.53.4-1.53,1s.65.72,1.77.85q4.63.51,9.26,1c1.13.13,1.48,0,1.68-.14l.18-.21v-.19c0-.27-.12-.45-1.41-1.22-1.28-.52-1.91-1.79-1.92-3.87l-.22-35.43c4.06,11.73,8.14,23.73,12.13,35.71a31.27,31.27,0,0,0,2.54,6.24,4.69,4.69,0,0,0,3.49,2.6l.45,0a2,2,0,0,0,1.37-.46,2.72,2.72,0,0,0,.73-2.15,2.36,2.36,0,0,0-.72-1.88A2.55,2.55,0,0,0,588.31,308Z" transform="translate(0 0)"/><path class="b" d="M594.13,253.27l-.6,0,.18.57c2.64,8.06,4,14,4,17.55v.71a3.39,3.39,0,0,1,0,.49c-.17.43-.39.47-.59.47a2.25,2.25,0,0,0-1.74.48,1.93,1.93,0,0,0-.54,1.48,2.21,2.21,0,0,0,2.24,2.42c1.14.09,2.13-.74,2.87-2.44a15.12,15.12,0,0,0,1-6v-1.24a17.72,17.72,0,0,1,1.16-7c.75-1.73,1.73-2.56,3-2.5a1.34,1.34,0,0,1,1.33.94,10.52,10.52,0,0,1,.19,2.47l.08,14.81c0,3.23-.44,4.09-.67,4.29a1.62,1.62,0,0,1-1.78-.07.62.62,0,0,0-.59,0,.56.56,0,0,0-.23.48,4.73,4.73,0,0,0,1.84,3.7,3.6,3.6,0,0,1,1.5,3.05l.11,20.27c0,3.25-1.38,3.48-1.93,3.58-1.07.44-1.33.63-1.33,1,0,.55.67.75,1.76.9q4.87.67,9.75,1.37a7.14,7.14,0,0,0,1,.08,1,1,0,0,0,.73-.19l.19-.22v-.19c0-.81-1-1.17-1.41-1.3-1.23-.59-1.84-2-1.85-4.23l-.24-46v-.24c0-2.61.43-3.59.81-4a.73.73,0,0,1,.63-.24c1.09,0,2.08,1,2.94,2.89a24.32,24.32,0,0,1,1.59,9.63v1.58c0,4.93,1.16,7.41,3.46,7.6a1.86,1.86,0,0,0,1.52-.45A2.3,2.3,0,0,0,625,278a2.11,2.11,0,0,0-1.92-2.08,11.86,11.86,0,0,1-.19-2.29,38,38,0,0,1,1.53-9.52c.11-.47.92-3.29,2.37-8.4l.39-1.36-.54,0C616.25,253.95,605.33,253.6,594.13,253.27Z" transform="translate(0 0)"/><path class="b" d="M714.7,327.4c-.81-2.45-1.14-2.75-1.44-2.85l-.14,0c-.69,0-1,1-1.13,1.35a20.79,20.79,0,0,1-1.11,2.4c-.21.33-.42.65-.64.95l-.05.07a4.77,4.77,0,0,1-1.39,1.31,1.58,1.58,0,0,1-.49.11c-3.75-.42-5.59-8.54-6.21-12.1-1.32-8.8-2.44-17.66-3.78-26.29a29.14,29.14,0,0,0,6.54-18.61c0-5.91-1.19-10.27-3.52-12.95-2-2.37-5.3-3.68-9.68-3.87l-12.86-.57c-.87,0-1.36.06-1.63.31a.66.66,0,0,0-.21.47c0,.83,1.09,1.13,1.4,1.21,1.22.5,1.83,2.06,1.84,4.65l0,19.7a15.51,15.51,0,0,1-.38,4.54c-.13.34-.43.77-1.51.67a3.49,3.49,0,0,1-.49-.3.59.59,0,0,0-.59,0,.57.57,0,0,0-.24.51,5.68,5.68,0,0,0,1.73,4.23,4.67,4.67,0,0,1,1.51,3.63l0,23.45c0,2.54-.58,3.94-1.67,4.13-1.27,0-1.54.6-1.54,1.06s.69.82,1.73,1q4.86.92,9.71,1.88c1.09.22,1.46.13,1.68-.05a.55.55,0,0,0,.21-.43c0-.25-.11-.47-1.29-1.46-1.32-.72-2-2.43-2-5.07l0-12.47a3.12,3.12,0,0,0,2.48,2.3,1.85,1.85,0,0,0,1.62-.61,2.93,2.93,0,0,0,.76-2.21,3.37,3.37,0,0,0-2.4-3.27c.1-1.73,1.06-3.64,2.94-5.82q1.68,11.43,3.36,23c.08.68.48,4,.81,5.89a24.91,24.91,0,0,0,3.22,9.95c1.71,2.85,3.56,4.75,7,4.75,2.39,0,4.4-1.42,6-4.23a16.3,16.3,0,0,0,2-8A9.46,9.46,0,0,0,714.7,327.4Zm-22.33-35.79c-.91,1.47-1.82,2.92-2.75,4.38a23.9,23.9,0,0,0-2.49,5.55l0-30.55c0-5.42.66-7.2,1.22-7.73a.61.61,0,0,1,.44-.19h0l4.62.27c3,.16,4.54,4.29,4.55,12.27a25.77,25.77,0,0,1-2.84,11.51Q693.73,289.42,692.38,291.61Z" transform="translate(0 0)"/><path class="b" d="M195.78,288.78a12.9,12.9,0,0,1,.24-2.42,2.16,2.16,0,0,0,.46,0,1.9,1.9,0,0,0,1.93-2.1,2,2,0,0,0-.55-1.55,2.05,2.05,0,0,0-1.66-.48c-1.93.11-3.31,1.68-4.09,4.69q-.46,2-.88,4c-.28,1.3-.58,2.62-.87,3.92-.94,2.7-2.45,4.1-4.62,4.28-1.07.09-1.76-.13-2.12-.68s-.59-1.39-.57-3.7l.09-14.18,1.38-.08c1.78-.1,2.85.43,3.23,1.56.07.42.28,1.48,1,1.48s.72-1,.73-1.85l.06-9.06c0-1.17-.16-1.49-.33-1.66a.52.52,0,0,0-.42-.16c-.64,0-.85.84-1,1.49-.38,1.3-1.46,2-3.31,2.06l-1.33.07.11-16.87c.26-.37.93-.57,1.94-.6a4.89,4.89,0,0,1,4.92,3.29,13.34,13.34,0,0,1,.66,2.08q.43,1.65,1.11,4.56c.58,2.61,1.51,3.87,2.85,3.87h.09c1.57-.07,2.44-.88,2.45-2.28a1.93,1.93,0,0,0-.56-1.48,2.55,2.55,0,0,0-1.81-.58c-.15-2.89,1-7.78,3.27-14.55l.19-.57h-.6q-11.39.21-22.78.45c-.63,0-1.81,0-1.81.77s1.09.92,1.45,1c1.19.31,1.77,1.4,1.75,3.33l-.09,15.09a9.62,9.62,0,0,1-.4,3.47c-.21.45-.76.7-1.62.75a3.06,3.06,0,0,1-.49-.16.64.64,0,0,0-.55.11.58.58,0,0,0-.2.45,3.46,3.46,0,0,0,1.79,3.16,2.51,2.51,0,0,1,1.41,2.41l-.11,18c0,2-.62,3.13-1.8,3.58-.63.16-1.46.46-1.46,1.16l0,.26.14.13c.14.13.36.21.88.21.21,0,.48,0,.8,0,7.81-.73,15.7-1.41,23.43-2l.52,0-.15-.5C196.69,296.6,195.76,291.89,195.78,288.78Z" transform="translate(0 0)"/><path class="b" d="M167.77,236.59H154.54c-1.25,0-2.41.11-2.42.9,0,.33.18.55,1.91,1.27,1.93.64,2.86,2.33,2.85,5.16l-.19,30.31c-4.81-12.41-9.58-25-14.17-37.36l-.1-.28s-11,1.2-19.35-1.58l.06,0-.06,0a2.44,2.44,0,0,0,.29-1.11,2.5,2.5,0,1,0-5,0s0,.08,0,.13c-.17,1.86,1.12,3.46,3.88,4.75a6.19,6.19,0,0,0,1,.3c2.54.81,9,3.17,9,6.27,0,.26,0,.48,0,.67l-.13,21.24c0,4.13-.56,5.51-1,6a3.13,3.13,0,0,1-2.14.7,3.18,3.18,0,0,1-.72-.24.74.74,0,0,0-.64.11.64.64,0,0,0-.23.52,5.22,5.22,0,0,0,2.54,4.62,4.05,4.05,0,0,1,2.12,3.86l-.17,27.41c0,3.09-.92,5-2.73,5.77-.48.15-1.92.61-1.93,1.62a.57.57,0,0,0,.2.44,1.35,1.35,0,0,0,.94.23,10.47,10.47,0,0,0,1.33-.11q6.61-.88,13.22-1.7c1.74-.22,2.36-.49,2.36-1,0-.37-.26-.59-2-1.2-1.83-.3-2.71-1.91-2.69-4.91l.32-51.57c5.56,16,11.3,32.16,17.09,48,1.39,3.88,2.55,6.38,3.54,7.65a5,5,0,0,0,4.91,2.33c2.2-.25,3.37-1.61,3.39-3.95a2.45,2.45,0,0,0-.87-2.16,3.28,3.28,0,0,0-2.93-.07q-.35-.86-.6-1.58a6.8,6.8,0,0,1-.38-1.55,11.41,11.41,0,0,1-.07-1.81l.38-60.71c0-2.92.94-4.59,2.77-5.1.85-.15,2-.44,2-1.26A.65.65,0,0,0,170,237C169.77,236.81,169.34,236.59,167.77,236.59Z" transform="translate(0 0)"/><path class="b" d="M105.93,296.59a17.2,17.2,0,0,1,.25-2.87,2.44,2.44,0,0,0,.46,0c.87-.09,1.9-.57,1.91-2.39a2.32,2.32,0,0,0-.62-1.79,2,2,0,0,0-1.61-.43c-1.93.18-3.29,2-4.07,5.48q-.46,2.33-.88,4.59l-.33,1.75c-.08.28-1.77,6.18-6.12,7.71a7.89,7.89,0,0,1-1.13.26c-1,.14-1.73-.08-2.08-.69s-.6-1.62-.58-4.31l.08-16.5,1.39-.13c1.77-.17,2.82.43,3.2,1.75.07.52.23,1.72,1,1.64.58-.06.7-.8.71-2.08l.05-10.45c0-1.29-.13-1.68-.35-1.88L97,276.1h-.18c-.63,0-.84.9-1,1.69-.39,1.54-1.47,2.35-3.31,2.51l-1.32.11.1-19.62c.26-.46.91-.71,1.95-.76,2.29-.09,3.87,1.13,4.9,3.74a16.81,16.81,0,0,1,.66,2.4q.43,1.9,1.11,5.24c.59,3,1.56,4.5,3,4.36a2.36,2.36,0,0,0,2.43-2.6,2.22,2.22,0,0,0-.64-1.72,2.44,2.44,0,0,0-1.7-.55h0c-.16-3.35.94-9,3.28-16.87l.17-.56-.58,0q-11.38.35-22.76.73c-.58,0-1.8.06-1.8.85s1.12,1,1.44,1.05c1.18.34,1.78,1.66,1.77,3.92l-.08,17.53a13.82,13.82,0,0,1-.4,4.1,1.7,1.7,0,0,1-1.61.93,2.79,2.79,0,0,1-.49-.17.6.6,0,0,0-.55.11.58.58,0,0,0-.21.47,4,4,0,0,0,1.77,3.57,3,3,0,0,1,1.43,2.82l-.1,20.87c0,2.29-.64,3.74-1.83,4.32-.35.12-1.42.49-1.42,1.32l0,.29.15.13a1,1,0,0,0,.73.19,6.68,6.68,0,0,0,1-.09c7.74-1.17,17.7-2.29,25.46-3.33l.47-.06-.12-.46C106.84,305.57,105.91,300.18,105.93,296.59Z" transform="translate(0 0)"/><path class="b" d="M76,256.39c.67-.2,1.44-.52,1.44-1.14a.62.62,0,0,0-.19-.45c-.25-.25-.75-.34-1.64-.31l-9.82.36c-.58,0-1.8.06-1.8.86,0,.35.29.56,1.42,1.06,1.3.46,1.93,1.79,1.92,4.06l-.08,19.41L65,282a7,7,0,0,0-1.45,1.31c-.35.4-.71.85-1.1,1.35a50.51,50.51,0,0,0-4.51-4L58,261.34c0-2.41.67-3.87,2-4.38,1.16-.73,1.28-.83,1.28-1.11a.63.63,0,0,0-.2-.46c-.26-.25-.75-.34-1.63-.31l-9.76.38c-.54,0-1.8.07-1.8.88,0,.56.5.93,1.44,1.09,1.19.37,1.79,1.78,1.78,4.2L51,280.36a15.75,15.75,0,0,1-.4,4.39,1.7,1.7,0,0,1-1.6,1,2.89,2.89,0,0,1-.49-.18.62.62,0,0,0-.54.11.61.61,0,0,0-.21.49A4.32,4.32,0,0,0,49.56,290,3.27,3.27,0,0,1,51,293l-.07,22.14v.15c0,2.46-.64,4-1.83,4.67-.35.14-1.41.54-1.41,1.4a.55.55,0,0,0,.2.43,1,1,0,0,0,.68.18,6.1,6.1,0,0,0,1-.11q4.86-.85,9.73-1.66c1-.17,1.74-.4,1.74-1,0-.34-.27-.55-1.43-1-.46-.07-1.85-.3-1.84-3.86l.09-25a3,3,0,0,1,1.13.14c.42.27,1.11,1.17,2,3.94a5.43,5.43,0,0,0-1,3,3.12,3.12,0,0,0,.82,2.47,2.28,2.28,0,0,0,1.86.46,2.32,2.32,0,0,0,1.72-1.5,3.81,3.81,0,0,0,.5-1.72,5.68,5.68,0,0,0-1.17-2.91,6.16,6.16,0,0,1,1.3-3.42l2.16-1.2-.1,24.38c0,2.26-.67,3.72-2.05,4.48-1.19.85-1.32,1.06-1.32,1.32l0,.25.15.13c.21.18.54.24,1.7,0q4.9-.79,9.8-1.56c1.18-.18,1.74-.36,1.75-.86,0-.74-1.07-.94-1.47-1-1.22-.25-1.81-1.45-1.8-3.67l.22-51.47C74.12,258.28,74.77,256.87,76,256.39Z" transform="translate(0 0)"/><path class="b" d="M.54,236.71H0l.14.53C3.9,251.76,5.73,261.82,5.73,268v1.27a6.81,6.81,0,0,1-.07,1c-.37,1.17-.9,1.21-1.08,1.22-1.37.11-3,.82-3,3.59a3.78,3.78,0,0,0,1,2.93,2.65,2.65,0,0,0,2.12.59c1.58-.15,2.85-1.7,3.89-4.73A33.26,33.26,0,0,0,10,263.32v-2.15a38.39,38.39,0,0,1,1.75-12.5c1.11-3.14,2.61-4.74,4.46-4.77a2,2,0,0,1,2,1.63,22.06,22.06,0,0,1,.25,4.24l0,24.92c0,5.29-.64,7.16-1.15,7.76a3.18,3.18,0,0,1-1.92.73,1.94,1.94,0,0,1-.76-.27.66.66,0,0,0-.88.7,6.71,6.71,0,0,0,2.52,5.59c1.46,1,2.16,2.58,2.16,4.84l0,34.1c0,3.86-1,6.38-3,7.56-1.56,1.35-1.68,1.64-1.68,1.9a.62.62,0,0,0,.23.49,1.09,1.09,0,0,0,.74.2,7.38,7.38,0,0,0,1.52-.22c4.78-1.06,9.44-2.07,13.86-3,1.67-.35,2.32-.71,2.32-1.31s-.35-1.25-2-1.29c-1.72-.29-2.59-2.32-2.58-6L27.94,251c0-3.31.41-7.26,2.32-7.28h0c1.59,0,3,1.5,4.27,4.46,1.47,3.57,2.21,8.68,2.19,15.17v2.5c0,5.42.75,8.76,2.34,10.22a3.05,3.05,0,0,0,2.43.81c1.3-.11,2.81-.84,2.65-3.7a2.52,2.52,0,0,0-2.7-2.68,19.89,19.89,0,0,1-.27-3.68,66.7,66.7,0,0,1,2.29-15.12c.19-.8,1.5-5.82,3.84-14.48l.14-.53h-.55Z" transform="translate(0 0)"/><path class="b" d="M330.38,283.94a10.37,10.37,0,0,1,.22-2.13c.33.05.45.08.45.05A1.74,1.74,0,0,0,333,280a1.91,1.91,0,0,0-.51-1.41,2.37,2.37,0,0,0-1.69-.55c-1.94,0-3.31,1.39-4.1,4.11q-.45,1.8-.86,3.54c-.28,1.16-.57,2.34-.85,3.49-.92,2.37-2.42,3.53-4.58,3.56a2.4,2.4,0,0,1-2.16-.74c-.27-.38-.59-1.27-.58-3.32l0-12.64H319c1.82,0,2.88.5,3.26,1.53.07.38.25,1.38,1,1.38h0c.73,0,.74-1.11.74-1.7v-8.16c0-.85-.09-1.29-.33-1.52a.48.48,0,0,0-.41-.17c-.73,0-.92,1-1,1.34-.37,1.13-1.44,1.69-3.29,1.71h-1.35l0-15a2.76,2.76,0,0,1,1.93-.48h0a5.09,5.09,0,0,1,4.92,3.06,11.41,11.41,0,0,1,.66,1.88q.44,1.5,1.13,4.15c.6,2.39,1.58,3.6,2.93,3.6h0c2.13,0,2.45-1.29,2.45-2.05a1.79,1.79,0,0,0-.52-1.34,2.7,2.7,0,0,0-1.86-.63c-.15-2.6.92-7,3.2-13.09l.21-.57h-.61q-11.39,0-22.79.08c-.92,0-1.81.06-1.82.72s1.05.87,1.46.93c1.19.29,1.77,1.26,1.77,3l0,13.43a7.49,7.49,0,0,1-.37,3c-.25.47-1,.58-1.61.59a3.42,3.42,0,0,1-.5-.16.66.66,0,0,0-.56.1.54.54,0,0,0-.2.43,3.21,3.21,0,0,0,1.81,2.91,2.3,2.3,0,0,1,1.42,2.16l0,16c0,1.7-.59,2.68-1.76,3-.41.07-1.49.26-1.5,1l0,.24.13.12c.17.17.46.27,1.35.27h.33c7.67-.17,15.56-.3,23.47-.38h.57l-.18-.55C331.33,291.06,330.38,286.74,330.38,283.94Z" transform="translate(0 0)"/><path class="b" d="M247.48,250.52l-12.31.16c-.26,0-1,0-1.05.61,0,.32.16.47,1.71,1.16,1.17.5,1.47.92,1.54,1.14s.17.87-.43,4.73q-2,12.43-4.09,25-1.82-12.34-3.65-24.78c-.61-3.86-.45-4.59-.37-4.77s.43-.68,1.55-1.19c1.61-.67,1.78-.88,1.79-1.21l0-.25L232,251a1.17,1.17,0,0,0-.9-.22l-12.06.18c-.29,0-1,0-1,.61,0,.33.07.38,1.71,1.12.88.38,1.41.79,1.53,1.19s.17,1.63-.36,4.83q-2.08,12.65-4.16,25.41-1.82-12.55-3.64-25.2c-.61-3.93-.45-4.68-.36-4.86s.44-.75,1.55-1.27c1.62-.69,1.78-.83,1.78-1.16l0-.26-.13-.12c-.16-.16-.4-.21-.84-.22l-12.5.21c-.65,0-1,.22-1,.61s.16.48,1.63,1.11a4.38,4.38,0,0,1,2.2,2.34,20,20,0,0,1,1.08,4.89l1.16,8.19a33.11,33.11,0,0,1,.35,4.13c0,1.32-.24,1.7-.33,1.8s-.15.14-.93.18a2.59,2.59,0,0,1-.67-.07.77.77,0,0,0-.89.13,1.19,1.19,0,0,0-.25.86c0,.53.39,1.08,1.32,1.78.34.16.67.29,1,.41l.84.32a2.23,2.23,0,0,1,1.1,1.64l2.14,13.66c.17,1,.27,1.74.33,2.38s.09,1.18.08,1.58a3.75,3.75,0,0,1-.93,2.62,4.71,4.71,0,0,1-1.06.91c-.45.3-.83.53-1.15.69a2,2,0,0,0-.36.21l-.4,0,0,.62.13.13a.84.84,0,0,0,.62.17l.38,0q7-.51,13.91-1a1.51,1.51,0,0,0,1-.28l.11-.07v-.24h-.43l0-.05.09-.34a11,11,0,0,1-1.42-.73,2.44,2.44,0,0,1-1.36-2.31h0c.16-.52.37-1.66.81-4.12q1.6-8.78,3.21-17.5,1.67,8.2,3.34,16.36a13.46,13.46,0,0,1,.33,2c.06.66.09,1.3.08,1.89a3.91,3.91,0,0,1-.88,2.57,3.58,3.58,0,0,1-1,.86c-.46.29-.83.52-1.13.68s-.35.19-.33.2l-.4,0,0,.61.13.12c.17.16.43.2,1.06.16q6.61-.43,13.22-.81a1.32,1.32,0,0,0,.85-.25l.12-.08v-.24h-.45l0-.06.07-.33a7.94,7.94,0,0,1-1.43-.73,2.48,2.48,0,0,1-1.43-2.25c0-.08.07-.44.19-1.06s.31-1.71.52-3q3-16.67,6-33.15a22.54,22.54,0,0,1,1.33-4.75,4.71,4.71,0,0,1,2.11-2.34c1.42-.76,1.49-.82,1.49-1.11a.59.59,0,0,0-.21-.47A1,1,0,0,0,247.48,250.52Z" transform="translate(0 0)"/><path class="b" d="M379.35,295.75c-1.28-.32-1.91-1.29-1.91-3l0-38.28c0-1.68.62-2.64,2-3,1.14-.48,1.34-.57,1.34-.9,0-.65-.9-.71-1.82-.71l-9.78,0c-.72,0-1.82,0-1.82.71s1.05.87,1.46.93c1.19.3,1.78,1.26,1.78,2.94v13.34a7.34,7.34,0,0,1-.36,3c-.24.45-1,.55-1.59.55h0a3.26,3.26,0,0,1-.5-.17.62.62,0,0,0-.57.1.54.54,0,0,0-.2.43,3.26,3.26,0,0,0,1.8,2.91h0a2.35,2.35,0,0,1,1.43,2.18v15.88c0,1.68-.58,2.64-1.73,2.92-.41.06-1.51.22-1.51,1,0,.6.79.65,1.82.66l9.8.1h.21c1,0,1.29-.1,1.46-.28l.16-.19v-.18C380.75,296.42,380.52,296.26,379.35,295.75Z" transform="translate(0 0)"/><path class="b" d="M353.09,269.09q.75-2,1.22-3.25t.68-1.67l6.57-12.92-.65,0a31.67,31.67,0,0,1-5.68-.91,21.05,21.05,0,0,0-5.38-.94,10.51,10.51,0,0,0-7.66,3.24,10.26,10.26,0,0,0-3.18,7.88c.08,4.36,3.11,9,9,13.8a30.72,30.72,0,0,0-1.65,7.36,5.79,5.79,0,0,0,1.27,3.78,4,4,0,0,0,3.21,1.59h0c2.15,0,2.73-1.18,2.84-2.17a1.89,1.89,0,0,0-.56-1.54c-.82-.83-1.92-.81-3.48-.18a3.07,3.07,0,0,1-.15-1.19,15.91,15.91,0,0,1,.49-3.58,5.9,5.9,0,0,1,.89-2.1c3.92,3.06,5.91,6,5.91,8.86a8.77,8.77,0,0,1-1.87,6,6,6,0,0,1-4.77,2.11h0a4.35,4.35,0,0,1-3.25-1.21c-1.27-1.27-1.92-3.59-1.91-6.89v-.87a7.54,7.54,0,0,0-1.15-4.44,3,3,0,0,0-2.57-1.5h0a1.81,1.81,0,0,0-2,2c0,.9.42,2,2.34,2.12q0,.09,0,.17V283c0,2.49-1.31,6.3-3.93,11.39l-.9,2.86.81-.31a9.35,9.35,0,0,1,3.29-.57h.06a23.7,23.7,0,0,1,4.87.71,24.76,24.76,0,0,0,5.1.75h0a11.77,11.77,0,0,0,9.09-3.95,13.82,13.82,0,0,0,3.35-9.44,13.42,13.42,0,0,0-2.3-7.86C359.77,274.73,357.08,272.2,353.09,269.09Zm-2.5-2c-3.28-2.66-4.94-5.21-4.94-7.58a5.68,5.68,0,0,1,1.2-3.82,3.92,3.92,0,0,1,3.14-1.36h0a3.92,3.92,0,0,1,2.75.84,3.35,3.35,0,0,1,.88,2.55C353.63,259.5,352.61,262.65,350.59,267.12Z" transform="translate(0 0)"/><path class="b" d="M284.44,236.55H272.79a76.79,76.79,0,0,1-9.66-1.1,12.91,12.91,0,0,1-1.66-.48,2.45,2.45,0,0,0,.29-1.11,2.5,2.5,0,1,0-5,0s0,.08,0,.13c-.17,1.86,1.12,3.46,3.88,4.75a6.18,6.18,0,0,0,1,.3,32.89,32.89,0,0,1,4.94,2c1,.59,2.6,2.12,2.6,5.86l-.06,15.78a12,12,0,0,1-.56,4.53c-.32.62-1.16,1-2.49,1a3.41,3.41,0,0,1-.73-.23.75.75,0,0,0-.65.11.6.6,0,0,0-.22.48,4.46,4.46,0,0,0,2.48,4.06,3.48,3.48,0,0,1,2.12,3.3L269,299.25c0,2.58-.9,4.11-2.68,4.65-.85.17-2,.5-2,1.34l0,.27.13.13c.19.18.52.29,1.45.29l.82,0c5.66-.27,11.47-.53,17.26-.75,6.87-.26,11.87-3.8,14.85-10.51,2.51-5.6,3.8-14,3.83-25,0-11.4-1.77-20-5.35-25.71C294.23,239,289.88,236.55,284.44,236.55Zm5.24,56.29c-1.71,3.45-4.27,5.19-7.83,5.32-1.76.09-2.81-1-3.19-3.33a12.45,12.45,0,0,1-.12-1.82q0-1.47,0-3.91l.16-43.7c0-.06,0-.1,0-.15.15-.55.28-1.11.42-1.66a1.25,1.25,0,0,1,.24-.27,4.6,4.6,0,0,1,2.73-.55h0a7.24,7.24,0,0,1,5.29,2.2c3.7,3.7,5.55,12.15,5.52,25.12C292.86,280.8,291.78,288.45,289.69,292.85Z" transform="translate(0 0)"/><path class="c" d="M320.93,134.87h-.17l.05.22C320.87,135.08,320.95,134.95,320.93,134.87Z" transform="translate(0 0)"/><path class="c" d="M330.41,66a9.53,9.53,0,0,0,2.82-3c.46-.82.61-1.6,0-2-2.39-.26-2,.91-3.3,2a4.3,4.3,0,0,1-.75.49,8.61,8.61,0,0,1-9.22-.49,8.43,8.43,0,0,1-1.88-1.86l-.11-.14a12.66,12.66,0,0,1,.11-13.85l.15-.19a5.87,5.87,0,0,1,3.16-2.15c2.52-.61,5.33-.11,6.3,2.15a3.8,3.8,0,0,1,.24.65c.69,3-2.73,4.89-3.42,5-2.51.31-2.49-1.25-4-1.25-.42,1.53,1.56,2.86,2.8,3.11,4.8,1,12.18-3,14.86-7.5a6.87,6.87,0,0,0,1-2.77c-3.46,1.69-6.61-.67-5.6-3.73.86-2.6,5.33-2,6.54.31.77,1.07-.91,2.3.31,2.49,11.81,3.82,25.86-1.44,23.65-14.63-3.64-4.5-8.07,4-2.49,4.67-1.39,2.94-4.68,4.11-9,3.42-2.4-.38-4.25-2.12-6.54-3.11-15-6.52-34.75,5.09-32.68,21.47a15.28,15.28,0,0,0,3.77,7.91C320.29,66.69,325.2,68.79,330.41,66Z" transform="translate(0 0)"/><path class="c" d="M377,99.15c0-5.08.06-10,.36-14.08h8.71c1.57-8.28,4.1-15.61,10.89-18.67.87,3.71,6.69,2.88,6.54-.62a2.58,2.58,0,0,0-2.41-2.71,6.21,6.21,0,0,0-1.63,0A16,16,0,0,0,392,66.39c-2.12,1.92-2.76,4.42-5,5.91h-10c-.09-3.16,0-6.23,0-9.25a84.85,84.85,0,0,0-.34-10.67c-.64-.3-1.23-.64-1.87-.93V97.83c0,.41,0,.86,0,1.32,0,3.48,0,8.29.15,12.47.08,1.87.19,3.63.35,5.06a29.52,29.52,0,0,1-2.42-5.06,53.69,53.69,0,0,1-2.79-12.47c-1.28-10.9-.63-23.73-.44-36.09.07-4.82.07-9.56-.14-14.1A17.24,17.24,0,0,1,371,47a5.14,5.14,0,0,1,2-1.49A10.15,10.15,0,0,0,374.13,47a15.92,15.92,0,0,0,14.17,4.74c3.09-.47,7.63-2.43,7.47-4.67,0,0,0,0,0-.07-.21-1.88-2.85-1.45-2.78-3,3.27.06,4.27,1.17,7.16.62,4.91-.92,7.94-10.33,3.73-12.45-3.31-1.68-5.93,1.59-5.91,5,0,1.58,1.29,2.5.93,3.73-4.71.77-8.45.75-11.2-1.87-1.33-1.26-1.52-3.17-3.11-4.36-3.31-.05-5.29,3-7.46,4.66,0-.21,0-.41,0-.62V17a3.25,3.25,0,0,0-1-.15,3,3,0,0,0-1.14.23c.06,4.18-.19,18.79,0,23.91C372,43.06,369,45.09,366,47c-2.44,1.56-4.88,3.05-7.23,4.43-1.24.73-2.9,1.09-3.73,2.49.49.65.22,2.07.62,2.8.32,1,1.44-1.41,1.87-.31l0,6.63.09,36.09,0,8.76a21.88,21.88,0,0,0,3.93-8.76,37.49,37.49,0,0,0,.67-3.73h2a23.37,23.37,0,0,0,.53,3.73A61.84,61.84,0,0,0,368.38,110c.24.56.48,1.11.72,1.65,2.08,4.65,4.37,8.78,7.37,11.42,2.17,1.91,9.46,6.15,12.14,2.49,2.24-3.06-.63-6.32-3.73-5.91-2.26.3-1.82.68-3.11,3.73a19.86,19.86,0,0,1-4.65-4.24c0-2.34,0-4.87,0-7.49C377.1,107.57,377,103.3,377,99.15ZM363.44,58.3c.75,0,1.36.94,1.36,2.1s-.61,2.1-1.36,2.1-1.36-.94-1.36-2.1S362.69,58.3,363.44,58.3Zm0,13.54c-.75,0-1.36-.94-1.36-2.1s.61-2.1,1.36-2.1,1.36.94,1.36,2.1S364.19,71.84,363.44,71.84Zm0,5.14c.75,0,1.36.94,1.36,2.1s-.61,2.1-1.36,2.1-1.36-.94-1.36-2.1S362.69,77,363.44,77Zm0,13.54c-.63,0-1.16-.66-1.31-1.56a3.18,3.18,0,0,1,0-.55c0-1.16.61-2.1,1.36-2.1s1.36.94,1.36,2.1a3.18,3.18,0,0,1,0,.55C364.6,89.85,364.07,90.51,363.44,90.51Z" transform="translate(0 0)"/><path class="c" d="M377.12,156.12c.05-5-.1-25.67,0-29.35-.5-.47-1.94-2.85-2.18-1.56.11,4-.11,26.1,0,31a2.52,2.52,0,0,0-1.53.78c-3.84,5.14,6.64,7.79,6.22,1.87A3.1,3.1,0,0,0,377.12,156.12Z" transform="translate(0 0)"/><path class="c" d="M320.81,135.08l-.05-.22C320.75,135,320.77,135.07,320.81,135.08Z" transform="translate(0 0)"/><path class="c" d="M320.76,134.86h.17S320.88,134.8,320.76,134.86Z" transform="translate(0 0)"/><path class="c" d="M376.09,14.32c2.34,0,2.79,2.06,4.36,2.49C381.26,14,379,11.57,378.27,9c-.82-2.74-1-5.82-1.56-9h-1.24a26,26,0,0,1-.93,9c-.89,2.45-3.65,4.65-3.11,7.47C373,17.46,373.44,14.33,376.09,14.32Z" transform="translate(0 0)"/><path class="c" d="M365.14,133.57V137a.16.16,0,0,0,.16.16h.46a.16.16,0,0,0,.16-.16v-1.17a.16.16,0,0,1,.16-.16h.34a.31.31,0,0,1,.24.14l.71,1.22a.31.31,0,0,0,.24.14h.54c.09,0,.12-.06.08-.14l-.74-1.22a.1.1,0,0,1,.08-.15,1,1,0,0,0,.86-1.09c0-1-.59-1.15-1.46-1.15H365.3A.16.16,0,0,0,365.14,133.57Zm.78.67a.16.16,0,0,1,.16-.16h.71c.36,0,.86,0,.86.41s-.25.5-.67.5h-.9a.16.16,0,0,1-.16-.16Z" transform="translate(0 0)"/><path class="c" d="M363.06,135.31a3.59,3.59,0,1,0,3.59-3.61A3.58,3.58,0,0,0,363.06,135.31Zm6.39,0a2.8,2.8,0,1,1-2.8-2.83A2.79,2.79,0,0,1,369.45,135.31Z" transform="translate(0 0)"/><path class="c" d="M345.84,99.15c.1-1.52.21-3.05.36-4.59h2c.29,1.48.58,3.05.93,4.59a24.39,24.39,0,0,0,1.22,4c.76,1.8,1.67,3.73,3,4.79V86.43c0-2.52,0-5.13,0-7.77V62.9c-.11-6.3-.14-12.55,1-15.81,0,0,0,0,0-.07,0-.24,0-.54-.3-.55a11.22,11.22,0,0,0-1.64.55c-4.13,1.73-6.62,5.56-10.5,7.54-1.54.79-3.18.67-4.36,1.87.36,1.41,1.53,2,3.11,2.18V72.31c-4.62,1.14-10.62,2.74-12.45,7.16-2.08,5,.71,13.55,5.29,13.69.55-4.74,2.87-7.71,7.16-8.71,0,4.87.06,9.86,0,14.71-.05,4-.2,7.83-.61,11.44-1.15.28-2.36.62-3.59,1-11.61,3.82-25.95,13.09-27.22,25.11-1.37,13,12.93,7.88,17.74,4,6.55-5.22,10.12-10.64,13.68-18.85a.84.84,0,0,0-.75-1.25l-1,0a1.73,1.73,0,0,0-1.59,1.2c-2.53,8.67-5.26,14.09-16.38,13,0,.07-.07.21-.12.2.52,2.23,1.8,4.24,4.62,4.14-2.29,2.34-6.65,4.81-11,4.1-1.56-.47-2.15-2.53-2.27-3-1.28-7,3.92-13.49,9.52-17.55a37.07,37.07,0,0,1,10.41-5.17,21.56,21.56,0,0,1,13.87-.66,12,12,0,0,1,8.84,9.08c-5.78,4.72-13.09,19.34-2,24.78,9.66,4.75,16.22-4,16.22-4l-.15.1a1.85,1.85,0,0,0,.46-1.19c0-1.22-1.3-2.22-2.9-2.22s-2.9,1-2.9,2.22,1.3,2.22,2.9,2.22c.43,0,.22-.07.59-.2-7.13,4.45-15.89,4.22-16.09-6.21C350.7,130.74,369,122.1,369,122.1c-1.87-5.52-5.81-8.76-11.3-10.48A44.76,44.76,0,0,0,344.41,110,55.11,55.11,0,0,0,345.84,99.15Zm1.53-40.85c.75,0,1.36.94,1.36,2.1s-.61,2.1-1.36,2.1S346,61.56,346,60.4,346.62,58.3,347.37,58.3Zm0,32.21c-.75,0-1.36-.94-1.36-2.1,0-.11,0-.21,0-.31.1-1,.66-1.79,1.35-1.79s1.25.78,1.35,1.79c0,.1,0,.21,0,.31C348.73,89.57,348.12,90.51,347.37,90.51Zm1.36-20.77c0,1.16-.61,2.1-1.36,2.1S346,70.9,346,69.74s.61-2.1,1.36-2.1S348.73,68.58,348.73,69.74ZM347.37,77c.75,0,1.36.94,1.36,2.1s-.61,2.1-1.36,2.1-1.36-.94-1.36-2.1S346.62,77,347.37,77Z" transform="translate(0 0)"/><path class="c" d="M101.58,198.88a3.57,3.57,0,1,0,2.5,2.48A3.52,3.52,0,0,0,101.58,198.88Z" transform="translate(0 0)"/><path class="c" d="M266.16,116l-.14-.16c-.22.19-1.94,1.68-4.24,4.08-30.12,27.13-52.44,31.74-62.5,27.31-3.72-1.64-5.77-4.47-5.77-8,0-4.29,2.8-5.81,5.21-5.81a5.62,5.62,0,0,1,1.13.13,3.56,3.56,0,1,0,4.83,3.31,3.49,3.49,0,0,0,0-.39c-.05-2.76-2.58-4.83-5.93-4.83a6.91,6.91,0,0,0-4.77,1.82,7.67,7.67,0,0,0-2.22,5.78c0,4.21,2.49,7.71,6.84,9.62a22.05,22.05,0,0,0,8.89,1.66c11.06,0,27.33-6,47.62-22.5-4.1,5.79-7.78,13.08-7.78,20.57,0,12.13,8,13.08,10.4,13.08,5.54,0,9.21-5,9.21-8.28h0a3.56,3.56,0,1,0-7,1,3.52,3.52,0,0,0,2.47,2.5,3.68,3.68,0,0,0,1.19.1,7.56,7.56,0,0,1-5.85,2.85c-3.22,0-8.62-1.47-8.62-11.29,0-11.08,8.89-22,14.21-27.62l1.25-1.13a146.8,146.8,0,0,1,40.31-26.64V91.27A147.17,147.17,0,0,0,266.16,116Z" transform="translate(0 0)"/><path class="c" d="M191.94,171.71c-8.71,0-17.55-1.77-26.9-3.64-11-2.21-22.45-4.49-35.72-4.49-14.65,0-24.42,7.15-28.68,13.84-3.33,5.23-3.95,11-1.7,15.8l1.62-.75c-2-4.25-1.41-9.39,1.59-14.09,4-6.29,13.25-13,27.17-13,13.1,0,24.42,2.27,35.37,4.46,9.44,1.89,18.36,3.67,27.25,3.67,16.79,0,33.28-10,40.9-19.87l-1.41-1.09C224.08,162.06,208.15,171.71,191.94,171.71Z" transform="translate(0 0)"/><path class="c" d="M613.42,198.88a3.57,3.57,0,1,1-2.5,2.48A3.52,3.52,0,0,1,613.42,198.88Z" transform="translate(0 0)"/><path class="c" d="M448.84,116l.14-.16c.22.19,1.94,1.68,4.24,4.08,30.12,27.13,52.44,31.74,62.5,27.31,3.72-1.64,5.77-4.47,5.77-8,0-4.29-2.8-5.81-5.21-5.81a5.62,5.62,0,0,0-1.13.13,3.56,3.56,0,1,1-4.83,3.31,3.49,3.49,0,0,1,0-.39c.05-2.76,2.58-4.83,5.93-4.83a6.91,6.91,0,0,1,4.77,1.82,7.67,7.67,0,0,1,2.22,5.78c0,4.21-2.49,7.71-6.84,9.62a22.05,22.05,0,0,1-8.89,1.66c-11.06,0-27.33-6-47.62-22.5,4.1,5.79,7.78,13.08,7.78,20.57,0,12.13-8,13.08-10.4,13.08-5.54,0-9.21-5-9.21-8.28h0a3.56,3.56,0,1,1,7,1,3.52,3.52,0,0,1-2.47,2.5,3.68,3.68,0,0,1-1.19.1,7.56,7.56,0,0,0,5.85,2.85c3.22,0,8.62-1.47,8.62-11.29,0-11.08-8.89-22-14.21-27.62l-1.25-1.13a146.8,146.8,0,0,0-40.31-26.64V91.27A147.17,147.17,0,0,1,448.84,116Z" transform="translate(0 0)"/><path class="c" d="M523.06,171.71c8.71,0,17.55-1.77,26.9-3.64,11-2.21,22.45-4.49,35.72-4.49,14.65,0,24.42,7.15,28.68,13.84,3.33,5.23,3.95,11,1.7,15.8l-1.62-.75c2-4.25,1.41-9.39-1.59-14.09-4-6.29-13.25-13-27.17-13-13.1,0-24.42,2.27-35.37,4.46-9.44,1.89-18.36,3.67-27.25,3.67-16.79,0-33.28-10-40.9-19.87l1.41-1.09C490.92,162.06,506.85,171.71,523.06,171.71Z" transform="translate(0 0)"/><path class="c" d="M290.61,185.91a5.34,5.34,0,0,1,5.68,5.47,6.27,6.27,0,0,1-2.38,4.85,7,7,0,0,1,3.21,5.63,6.66,6.66,0,0,1-3,5.49,9.26,9.26,0,0,1-3.49,1.05l-4,.24a28.91,28.91,0,0,0,.69-6.54q0-5.11,0-10.22c0-4.12-.38-5.21-.62-6Zm-.74,10.34a4.71,4.71,0,0,0,3.5-4.64,3.5,3.5,0,0,0-3.49-3.78Q289.87,192,289.87,196.25Zm0,10.19a4.26,4.26,0,0,0,4.25-4.58,5.2,5.2,0,0,0-4.25-5.19Q289.87,201.56,289.87,206.44Z" transform="translate(0 0)"/><path class="c" d="M316.64,185.88l-1.36,3.26a8.09,8.09,0,0,0-4.92-1.24q0,3.72,0,7.44l5.59-.12-1.52,3a13.33,13.33,0,0,0-4.06-.82v7.78c2.28-.1,3.54-.17,7.33-1.82l-1.31,3.55q-4.67.21-9.34.47a21,21,0,0,0,.67-5.55q0-5.24,0-10.48a22.33,22.33,0,0,0-.66-5.43Z" transform="translate(0 0)"/><path class="c" d="M331.69,185.82a12.87,12.87,0,0,0-.72,4.69q0,2.07,0,4.15l7.64-.08q0-1.8,0-3.6a16.16,16.16,0,0,0-.69-5.16H342a15,15,0,0,0-.69,5.39q0,4.68,0,9.36a14.8,14.8,0,0,0,.69,5.52l-4.07.08a15,15,0,0,0,.69-5.45q0-1.78,0-3.57l-7.64.11q0,1.69,0,3.38a18.68,18.68,0,0,0,.66,5.68l-4,.12a15.34,15.34,0,0,0,.69-5.31q0-5,0-10a16.31,16.31,0,0,0-.68-5.29Z" transform="translate(0 0)"/><path class="c" d="M362.21,185.7c5.9,0,8.87,5.06,8.87,10.18,0,6.31-4.28,10.25-9.32,10.22-5.76,0-9.33-5.24-9.33-10.4C352.43,191.22,356,185.7,362.21,185.7Zm.29,18.23c4,0,5.83-4.17,5.83-7.32,0-4.19-2.83-8.77-7-8.77-3.59,0-5.9,3.51-5.9,7.39C355.43,200.68,359.09,203.91,362.5,203.93Z" transform="translate(0 0)"/><path class="c" d="M390.27,206.54q-4.35-.16-8.71-.27c.45-1.29.71-2.08.71-6.54q0-4.5,0-9a13.27,13.27,0,0,0-.62-4.82h4a13.35,13.35,0,0,0-.69,5q0,6.68-.08,13.36a19.19,19.19,0,0,0,6.87-1.59Z" transform="translate(0 0)"/><path class="c" d="M402.15,191.67a22.78,22.78,0,0,0-.72-5.7,17.38,17.38,0,0,1,1.86-.11c3.28,0,7.23.35,9.94,4.62A12.3,12.3,0,0,1,415,197c0,5.71-3.53,10.52-9.26,10.19l-4.3-.22a19.1,19.1,0,0,0,.71-6.4Q402.16,196.14,402.15,191.67Zm2.67,8.53a49.07,49.07,0,0,0,.15,4.92c5.3-.36,6.91-5,6.91-8.47,0-3-1.27-7.84-6.93-8.8a37.66,37.66,0,0,0-.14,3.89Q404.82,196,404.82,200.19Z" transform="translate(0 0)"/><path class="c" d="M428.45,185.91c-.43.73-1.07,1.82-1.07,5.27q0,3.13,0,6.27a9.19,9.19,0,0,1-1.09,4.9H426a9.93,9.93,0,0,1-1-4.56q0-3.09,0-6.19c0-3.79-.48-4.66-1-5.68ZM428,206.42c0,1.34-.83,2.33-1.88,2.25a2.36,2.36,0,0,1-1.88-2.51,2,2,0,0,1,1.88-2.26A2.35,2.35,0,0,1,428,206.42Z" transform="translate(0 0)"/></svg>