<svg xmlns="http://www.w3.org/2000/svg" viewBox="0 0 831.6 252.02"><defs><style>.a{fill:#92683c;}</style></defs><title>ffmap</title><path class="a" d="M465.85,258.92a7.39,7.39,0,0,0-3.88-.2,4.71,4.71,0,0,0-2.08,1,4.91,4.91,0,0,0-1.44,3,10.28,10.28,0,0,1-.09,1.31c-.1.72-.45,1.82-.49,2.52a7,7,0,0,0,0,1.27c.11.85.52,1.53.91,1.52a4.08,4.08,0,0,0,.75-.11,10.14,10.14,0,0,0,2.09-1c.42-.25.89-.53,1.33-.82a4.31,4.31,0,0,0,2-2.4,4.45,4.45,0,0,1,1.08-2.27,4.37,4.37,0,0,0,1-2.55C467.05,259.71,466.58,259.24,465.85,258.92Z" transform="translate(-84.5 -173.67)"/><path class="a" d="M471.4,270.35a1.16,1.16,0,0,0-.38.75c-.06.35.55.71,1.37.79a5.59,5.59,0,0,0,2.44-.28,5.75,5.75,0,0,1,2-.43,4.86,4.86,0,0,0,.88-.09,4.74,4.74,0,0,0,1.93-1.21c.32-.33.67-.7,1-1.08a6.21,6.21,0,0,0,.73-1.06,2.44,2.44,0,0,0-.65-2.37c-.31-.32-.67-.66-1-1a8.53,8.53,0,0,1-2.15-3.48,13.1,13.1,0,0,0-1.6-3.49,10.12,10.12,0,0,0-2.17-2.16c-.64-.41-1-1-.87-1.39a5.19,5.19,0,0,0,.29-1.74,2.66,2.66,0,0,0-.92-1.83,3.19,3.19,0,0,0-1.54-.72,3.44,3.44,0,0,0-1.54.73,4.5,4.5,0,0,0-.92,3,6.2,6.2,0,0,0,.56,2.95,4.49,4.49,0,0,1,.75,1.86c.11.66.55,1.19,1,1.19a1.69,1.69,0,0,1,.84.29,5.73,5.73,0,0,1,1.26,1.29,2.16,2.16,0,0,1,.43.78.46.46,0,0,1-.2.5,14.48,14.48,0,0,0-1.48,1.52,16.79,16.79,0,0,0-2.06,2.92c-.36.72-.43,1.51-.16,1.77a5.3,5.3,0,0,0,1.1.76,4.15,4.15,0,0,1,1,.68C471.5,270.05,471.55,270.28,471.4,270.35Z" transform="translate(-84.5 -173.67)"/><path class="a" d="M812.77,322.14a9.77,9.77,0,0,0-1-4.77A6.55,6.55,0,0,0,809,314.9a1.41,1.41,0,0,0-1.92.88,9.25,9.25,0,0,0,.83,4.34c.66,1.61-.49,4.54-2.57,6.57s-4.94,3.61-6.37,3.52a5,5,0,0,0-5.28,3.47,2.46,2.46,0,0,0,.41,1.22,1.23,1.23,0,0,0,1.31.28,11.89,11.89,0,0,1,3.12-.18c1.23.06,2.34-.15,2.47-.48s.77-.17,1.44.36a12,12,0,0,1,1.91,2,1,1,0,0,0,1.57,0c.47-.55,1.21-1.53,1.65-2.18a3.82,3.82,0,0,1,3.05-1c1.25.07,2.46-.4,2.71-1a11.57,11.57,0,0,0,.46-3.38,7.91,7.91,0,0,0-.6-3.21A9.24,9.24,0,0,1,812.77,322.14Z" transform="translate(-84.5 -173.67)"/><path class="a" d="M792.49,338.54a7.49,7.49,0,0,0,1.1,3.08,6.53,6.53,0,0,0,.39.58c.66.83,1.35,1,1.62.3a7.73,7.73,0,0,0,.54-2.22,4.5,4.5,0,0,0-1.1-2.15c-.61-.71-1.43-1.23-1.83-1.16S792.49,337.75,792.49,338.54Z" transform="translate(-84.5 -173.67)"/><path class="a" d="M799.85,337.77a1.09,1.09,0,0,0-1.26,1c0,.56.63,1,1.42,1.08s1.35-.39,1.26-1A1.49,1.49,0,0,0,799.85,337.77Z" transform="translate(-84.5 -173.67)"/><path class="a" d="M805.07,310.05a9.69,9.69,0,0,1,.56-1.11c.24-.41.81-.36,1.27.13a4,4,0,0,0,2.23,1,4,4,0,0,0,2.64-1.08,1.06,1.06,0,0,0,.17-.21c.08-.13-.05-.25-.25-.25h-8.45c-.19,0-.36.09-.37.2s0,.14,0,.2a1.34,1.34,0,0,0,1,1.43C804.48,310.38,805,310.25,805.07,310.05Z" transform="translate(-84.5 -173.67)"/><path class="a" d="M395.72,239.67a30.57,30.57,0,0,1,4.81-6.62c.14-.14.09-.25-.11-.25H385.69a.62.62,0,0,0-.51.31q-1.65,3.34-3.21,6.72a1.12,1.12,0,0,0-.06.66c.59,2.17,1.53,4.21,2.95,5.28C387.51,247.76,391.28,247.74,395.72,239.67Z" transform="translate(-84.5 -173.67)"/><path class="a" d="M346.31,242.21c1.52-.12,2.48-.83,2.15-1.61a1.05,1.05,0,0,1,1-1.52c.9-.07,1.39-1.43,1.09-3a6.46,6.46,0,0,1,.16-2.92.24.24,0,0,0-.24-.33H338.67a.48.48,0,0,0-.45.34,6.64,6.64,0,0,0,1.88,5.42C342,240.69,344.79,242.33,346.31,242.21Z" transform="translate(-84.5 -173.67)"/><path class="a" d="M376.71,184.76l-.18,0a1.33,1.33,0,0,0-.44.26q-3.89,3.3-7.64,6.69c-.14.13-.12.17.06.09a14.91,14.91,0,0,1,2.25-.85,26.82,26.82,0,0,0,8.19-4.28C381.08,185,380.09,184.11,376.71,184.76Z" transform="translate(-84.5 -173.67)"/><path class="a" d="M530.45,308.51h-5.36c-.19,0-.27.14-.14.28a1.94,1.94,0,0,0,1.51.52,3.82,3.82,0,0,1,2.54.86,3,3,0,0,1,1.06,2.29,2.36,2.36,0,0,1-1.65,2.33.27.27,0,0,0-.19.4,7.68,7.68,0,0,0,1.67,2.17.66.66,0,0,0,.63,0,2,2,0,0,0,.55-.49,4,4,0,0,0,.74-2.71,21.08,21.08,0,0,0-.72-4.43c-.08-.33-.15-.63-.21-.91A.45.45,0,0,0,530.45,308.51Z" transform="translate(-84.5 -173.67)"/><path class="a" d="M512.46,310.7a.29.29,0,0,0,.45,0c.46-.39,1.41-1.08,1.49-1.23s.28-.48.42-.7,0-.29-.16-.29H513.3a.56.56,0,0,0-.48.33,6.56,6.56,0,0,1-.42.83A.85.85,0,0,0,512.46,310.7Z" transform="translate(-84.5 -173.67)"/><path class="a" d="M475.19,310.46c.21-.56.45-1.1.71-1.63a.2.2,0,0,0-.2-.32H457a.39.39,0,0,0-.38.35l-.05.56c-.34,3.42-.6,6.12.32,7.37.59.8,1.77,1.17,3.62,1.15C469,317.82,473.23,315.67,475.19,310.46Z" transform="translate(-84.5 -173.67)"/><path class="a" d="M540.56,308.86a8.69,8.69,0,0,0,1,2.73,9.76,9.76,0,0,1,1.07,4.71,1.21,1.21,0,0,0,.28.7,5.36,5.36,0,0,0,4.13,1.76,4.46,4.46,0,0,0,2.14-.6,3.21,3.21,0,0,1,4.48.91,2,2,0,0,0,.89.51.25.25,0,0,0,.32-.28q-.29-5.24-.62-10.44a.38.38,0,0,0-.37-.35H540.86A.29.29,0,0,0,540.56,308.86Z" transform="translate(-84.5 -173.67)"/><path class="a" d="M287.31,331.27c2.81-2,5.09-5,5.51-6.69a17.33,17.33,0,0,1,5.29-8,49.1,49.1,0,0,0,5.86-5.64,9.1,9.1,0,0,1,3-2.28c.17-.09.16-.15,0-.15H293.18a.5.5,0,0,0-.45.34q-3.34,11-5.64,22.27C287.05,331.31,287.15,331.38,287.31,331.27Z" transform="translate(-84.5 -173.67)"/><path class="a" d="M916,228.59H827a1.2,1.2,0,0,1-.63-.21c-25.93-20-57.21-37-93.1-50.51q-3.35-1.27-6.76-2.49c-.18-.07-.17-.12,0-.12H916c.05,0,.05,0,0-.11a.54.54,0,0,1-.06-.21V174c0-.18.18-.32,0-.32H84.57c-.18,0,0,.14,0,.32v.95a.53.53,0,0,1-.06.21c0,.06,0,.09,0,.11H278.77c.19,0,.2.05,0,.12q-3.5,1.23-6.94,2.49C235,191.42,203,208.39,176.34,228.38a1.23,1.23,0,0,1-.63.21H84.57c-.18,0,0,.15,0,.32v.95a.53.53,0,0,1-.06.21c0,.06,0,.09,0,.11h89.06c.19,0,.23.1.07.21q-1.54,1.19-3.06,2.4C151,248.3,134.69,265.51,122,284a196.25,196.25,0,0,0-12.08,20,.64.64,0,0,1-.51.31H84.57c-.18,0,0,.14,0,.32v1a.52.52,0,0,1-.06.21c0,.06,0,.1,0,.11h24a.2.2,0,0,1,.19.31c-.38.76-.75,1.53-1.13,2.3a169.73,169.73,0,0,0-17.74,71.6.36.36,0,0,1-.36.35H84.93a.35.35,0,0,0-.35.35v.89a.35.35,0,0,0,.35.35H96.81a.34.34,0,0,0,.34-.35c0-.15,0-.3,0-.44s0-.3,0-.44a.34.34,0,0,0-.34-.35H91.44a.34.34,0,0,1-.34-.35,169,169,0,0,1,19-73.9.63.63,0,0,1,.51-.31h45.79a.21.21,0,0,1,.21.32c-.35.76-.68,1.53-1,2.29a188.31,188.31,0,0,0-8,21.27.24.24,0,0,0,.25.33h.68a.43.43,0,0,0,.36-.33,187.73,187.73,0,0,1,9-23.55.6.6,0,0,1,.5-.32h61.1a.23.23,0,0,1,.23.33c-.23.65-.45,1.3-.67,1.95a.53.53,0,0,1-.46.33H192.49a.71.71,0,0,0-.54.3l-2.11,3.31c-2,3.09-4.3,8.18-4.76,11.39-.65,4.52-.71,10.43,2.66,13.11A17.47,17.47,0,0,1,191.1,340c1.18,1.64,1.16,3.93,1.15,5.77a11,11,0,0,0,.08,1.88,23.79,23.79,0,0,1,.21,6.56,4.47,4.47,0,0,0,.05,1.24,2.36,2.36,0,0,0,.24.65c.55,1,1.07,1.95,1.56,3a4.78,4.78,0,0,0,.36.6,12.54,12.54,0,0,1,1.32,2.12,8,8,0,0,1,.72,2.84,3,3,0,0,0,.11.68q.19.59.38,1.19a2.12,2.12,0,0,0,.31.62,4.52,4.52,0,0,0,1.66,1.28.85.85,0,0,0,.35.08.67.67,0,0,0,.53-.32,5.08,5.08,0,0,0,.52-3.65,28.83,28.83,0,0,0-2.24-8.27,16.53,16.53,0,0,1-1.57-6,7.07,7.07,0,0,1,1.27-4.89,2.41,2.41,0,0,1,1.66-1,1.64,1.64,0,0,1,1.11.35c1.37,1.06,2.76,5.08,3.37,8.33l.45,2.4a35.18,35.18,0,0,0,2.82,8.19,1.53,1.53,0,0,1,.13.67q-.57,7.91-.58,15.89a.35.35,0,0,1-.35.35h-6.91a.34.34,0,0,0-.34.35c0,.15,0,.29,0,.44s0,.3,0,.44a.34.34,0,0,0,.34.35H915.67a.35.35,0,0,0,.35-.35v-.89a.35.35,0,0,0-.35-.35H911a.36.36,0,0,1-.36-.35,173.27,173.27,0,0,0-17.29-71.6c-.37-.77-.72-1.53-1.1-2.3a.2.2,0,0,1,.2-.32H916c.05,0,.05,0,0-.11a.53.53,0,0,1-.06-.21v-1c0-.18.18-.32,0-.32H891.65a.63.63,0,0,1-.51-.31,198.11,198.11,0,0,0-12.82-21.53,236.61,236.61,0,0,0-46.39-49.66q-1.48-1.2-3-2.39c-.15-.12-.12-.22.08-.22h87c.05,0,.05,0,0-.11a.53.53,0,0,1-.06-.21v-.95C916,228.74,916.2,228.59,916,228.59ZM722.67,175.3l.06,0c39.43,13.85,73.6,31.7,101.61,53,.15.12.12.21-.07.21H774.89a2.07,2.07,0,0,1-.67-.14,24.38,24.38,0,0,0-4.62-1.27,1.46,1.46,0,0,1-.6-.3c-20.57-18.91-45.17-35.37-73.25-49q-2.56-1.25-5.17-2.46c-.18-.08-.16-.15,0-.15h31.66A1.42,1.42,0,0,1,722.67,175.3Zm81,128.69c.11.16,0,.3-.17.3h-16c-.19,0-.24-.11-.12-.26a7.76,7.76,0,0,0,1-1.62,31.47,31.47,0,0,0,2.11-8.61,15.68,15.68,0,0,0-1.78-8.55c-.7-1.06-2.89-2.47-1.85-4,.24-.33.61.58,1,.62,1.43.13,3.7-.19,4.6,1.06s1.72,2.45,2.56,3.75c1,1.5,2,3.41,2.76,4.8.31.58.58,1.08.79,1.44a24.73,24.73,0,0,0,1.32,2.1,4.41,4.41,0,0,0,.87.88,1.29,1.29,0,0,0,.63.21h.16a.32.32,0,0,0,.23-.25,1.19,1.19,0,0,0,0-.24,3.54,3.54,0,0,0-.49-1.37,13.23,13.23,0,0,0-.88-1.27,12.64,12.64,0,0,1-1.65-2.64,8,8,0,0,1-.63-2.9c0-.88-1.16-3.21-3.05-5a29.66,29.66,0,0,1-2.37-2.57,21.21,21.21,0,0,1-1.65-2.48,10,10,0,0,0-1.12-1.67,2,2,0,0,0-1-.3,2.72,2.72,0,0,0-1.28.16,2.85,2.85,0,0,0-1,.78,2,2,0,0,1-1.81.78,4.3,4.3,0,0,1-2.75-1.7,6.47,6.47,0,0,0-3.12-2.2,4.2,4.2,0,0,0-2.1.28,1.45,1.45,0,0,1-1,.24,5.14,5.14,0,0,1-1.8-.62,8.87,8.87,0,0,1-4-4.51,7.07,7.07,0,0,1-.13-3.87,16.64,16.64,0,0,1,4-6.7c1.61-1.51,5.08-2.42,8.05-2.1l.42.05a43,43,0,0,1,7.68,1.79,20.72,20.72,0,0,0,2,.68c.19.05.24,0,.12-.18A239.74,239.74,0,0,0,769.2,233a1,1,0,0,0-.61-.24H717.24a.84.84,0,0,1-.57-.27l-1.72-2.07c-.12-.15-.07-.27.13-.27h55.35a1,1,0,0,1,.61.24C794,252.22,811.57,277,823.22,304a.21.21,0,0,1-.21.32H807.31a1,1,0,0,1-.6-.25l-.35-.38a12.89,12.89,0,0,0-2.74-2.58c-.42-.16-.76.23-.76.87a2.73,2.73,0,0,0,.61,1.73A1.94,1.94,0,0,1,803.72,304ZM515.6,232.8h-16a1.93,1.93,0,0,0-.67.15l-.84.36-.42.18a.64.64,0,0,0-.34.49c-.22,3.09-.41,6.21-.61,9.31a.28.28,0,0,0,.33.31,16,16,0,0,1,1.8-.14c2.08,0,4.7.49,6.38,4.59a8.42,8.42,0,0,1,.39,5.6,5,5,0,0,1-3.48,3.16A4,4,0,0,1,501,257a2.94,2.94,0,0,1-2.53-1.37c-.11-.16-.23-.14-.28,0-.49,1.77-1.16,4-2.3,5.35a1.18,1.18,0,0,0-.26.61q-.88,15.77-1.51,31.6c0,.19.12.28.3.19a6.56,6.56,0,0,1,2.86-.85c1.46,0,2.69.78,3.77,2.42,3.23,4.91,3.33,5,5.86,6a15.44,15.44,0,0,1,4.3,3.11c.14.14.09.25-.1.25H491.52a.34.34,0,0,1-.34-.35c.82-24.5,2.1-49.19,3.83-73.41a.38.38,0,0,1,.38-.35h52.77a.42.42,0,0,1,.4.35c3.56,23.69,6.24,48.38,8,73.41a.32.32,0,0,1-.33.35h-1.88a.38.38,0,0,1-.38-.35c-1.71-24.12-4.3-47.93-7.71-70.8a.42.42,0,0,0-.4-.35H515.6Zm23.77,71.5h-4.24c-.19,0-.32,0-.27-.09l.08-.09a2.76,2.76,0,0,1,2.27-1.35,3.18,3.18,0,0,1,2.49,1.48l0,0A1,1,0,0,1,539.37,304.3Zm-15.57,0h-6.34a1.16,1.16,0,0,1-.62-.22c-.47-.38-1-.76-1.4-1.07a30.62,30.62,0,0,1-3.17-2.59,42.66,42.66,0,0,1-4.24-4.87c-.47-.63-.88-1.15-1.22-1.59s-.76-1-1-1.33a2.38,2.38,0,0,1-.36-2.25,2.18,2.18,0,0,1,2.19-1.3,3.27,3.27,0,0,1,2.12.72,4.2,4.2,0,0,0,1.79.94,4.23,4.23,0,0,1,2.62,2.3A5,5,0,0,0,518,295.8c3.65.71,5.83,3.68,6.14,8.15A.33.33,0,0,1,523.8,304.3ZM476.28,293a6.37,6.37,0,0,1-6.62,6,12.27,12.27,0,0,1-2.79-.31,41,41,0,0,0-7.5-1.28c-1.95,0-2.13.54-2.41,6.82h-32.1a.3.3,0,0,1-.3-.35A473.91,473.91,0,0,1,441,230.53a.51.51,0,0,1,.46-.34h52a.32.32,0,0,1,.33.35c-.05.75-.1,1.51-.15,2.26-.07,1-.13,2-.2,3a1.06,1.06,0,0,1-.28.59c-1.89,1.86-2.63,3.9-2.43,5.49a2.2,2.2,0,0,0,1.81,2.09.36.36,0,0,1,.33.37q-.61,9.57-1.13,19.21a1.22,1.22,0,0,1-.25.62c-.31.37-.66.81-1,1.34-.84,1.17-1.61,2.29-2.34,3.34-4,5.73-6.84,9.87-13,11.74-3.85,1.16-4.66,2.41-4.67,2.68s.52.95,2.26,1.55C475.05,285.71,476.71,289.44,476.28,293ZM329.53,300a3,3,0,0,0,1.3-.35,17.06,17.06,0,0,0,3.06-2.17l1.44-1.26c1.41-1.24,1.81-2.25,1.75-2.62s-.47-.51-1.07-.62a5.51,5.51,0,0,1-4.16-2.8,3.5,3.5,0,0,1-.11-2.67,1.4,1.4,0,0,0,0-1.11.81.81,0,0,0-.79-.3,3.29,3.29,0,0,1-2.89-1.17,2.76,2.76,0,0,1-.52-2.08c.29-2,2.65-3.26,4.84-3.4a63.49,63.49,0,0,0,9.45-1.8l.11,0A46.52,46.52,0,0,0,353,272.7c2.13-1.37,3.34-3,3.56-3.89a.64.64,0,0,0,0-.34,7.38,7.38,0,0,0-4.24-2.84c-2.39-.57-4.26-4.55-4.26-9.07a35,35,0,0,0-.61-7.28c0-.19-.17-.35-.26-.35h-.15a10.52,10.52,0,0,0-4.05,1.67,12.84,12.84,0,0,1-5.16,2,2.12,2.12,0,0,1-1.61-.4,6.66,6.66,0,0,1-1.64-4.59,3.69,3.69,0,0,0-1.24-2.75,7,7,0,0,0-3.45-.37,11.62,11.62,0,0,0-1.41.2c-1.81.38-4.5,2.63-5.88,4.91a20.41,20.41,0,0,0-2.62,5.71c0,2.24-4.52,7.66-4.71,7.89l-.67.8c-2.28,2.73-4.57,6.7-5,8.68-.55,2.52-2.23,5.28-3.83,6.29a4.19,4.19,0,0,1-1.92.63h-.09c-.05,0-.16.14-.23.32a245.9,245.9,0,0,0-9.27,24,.52.52,0,0,1-.46.33h-2.32a.24.24,0,0,1-.25-.33A252,252,0,0,1,329,230.47a.78.78,0,0,1,.56-.28h52a.2.2,0,0,1,.2.31c-.37.76-.74,1.53-1.11,2.3a315.69,315.69,0,0,0-19.74,52.29c-.05.19-.19.21-.3.06a15.64,15.64,0,0,0-3.38-3c-2.28-1.55-6.2-1.06-8.76,1.07s-3.13,4.74-1.27,5.84,5.79,1.38,8.77.63a15.56,15.56,0,0,0,3.86-1.49c.17-.1.26,0,.21.16q-2.09,7.75-3.81,15.63a.46.46,0,0,1-.43.34h-41c-.19,0-.26-.13-.14-.28a31.82,31.82,0,0,1,5.3-5.05l1-.73c1.15-.88,3.3-2.36,4.72-2.44a1.41,1.41,0,0,1,1.29.55,1.82,1.82,0,0,1,.27,1.42,2.87,2.87,0,0,0,.2,1.45A2.71,2.71,0,0,0,329.53,300Zm-32.29-67.09-.39.05a35.82,35.82,0,0,1-4,.08c-.61,0-1.19,0-1.7,0-1.32,0-2.56.08-3.39.18a11,11,0,0,0-4.7,1.76,13.15,13.15,0,0,1-5.79,2.2,28.19,28.19,0,0,1-7.81-.61c-.92-.21-2.07-.52-3.28-.89a.58.58,0,0,0-.56.17,245.39,245.39,0,0,0-20.39,27.79A228.27,228.27,0,0,0,225,304a.55.55,0,0,1-.48.33h-2.42a.23.23,0,0,1-.23-.33,229,229,0,0,1,21-42.5,247.61,247.61,0,0,1,23.14-31,.88.88,0,0,1,.58-.26h60.71c.19,0,.26.13.14.28-.56.77-1.12,1.55-1.67,2.33a256,256,0,0,0-25.66,44.53c-.08.18-.22.18-.3,0a9.43,9.43,0,0,1,.17-6.66,1.82,1.82,0,0,0,0-1.47,4.73,4.73,0,0,0-3.62-2.28l-1.11-.19c-3.56-.61-7.51-2.9-9-5.23-1.65-2.58-.54-6.85,2.48-9.54a63.68,63.68,0,0,1,10.64-7.34l1.17-.61a66.45,66.45,0,0,0,9.83-6.46,17.63,17.63,0,0,1,8.58-3.74,7.83,7.83,0,0,1,.8,0l.43,0a6.94,6.94,0,0,0,2.47-.79c.17-.09.15-.17,0-.17H297.94A5.13,5.13,0,0,0,297.24,232.86Zm86.39-2.67h55.89a.24.24,0,0,1,.25.34c-.23.76-.45,1.52-.68,2.27A475.82,475.82,0,0,0,423.31,304a.42.42,0,0,1-.4.35H357.74a.27.27,0,0,1-.28-.34,317.39,317.39,0,0,1,25.66-73.45A.62.62,0,0,1,383.62,230.19Zm166.45,2.26c-.09-.64-.18-1.28-.28-1.92a.29.29,0,0,1,.3-.35h51.58a.56.56,0,0,1,.48.33A373.81,373.81,0,0,1,622.63,304a.29.29,0,0,1-.29.35h-2.06a.44.44,0,0,1-.41-.35A372.35,372.35,0,0,0,600,233.13a.56.56,0,0,0-.48-.33H550.48A.42.42,0,0,1,550.08,232.45Zm54.14,0c-.25-.65-.49-1.31-.74-2a.22.22,0,0,1,.22-.33H658a.71.71,0,0,1,.54.3,271.2,271.2,0,0,1,32,73.47.26.26,0,0,1-.26.34H688a.49.49,0,0,1-.45-.34,269.91,269.91,0,0,0-31-70.86.7.7,0,0,0-.54-.3H604.69A.55.55,0,0,1,604.21,232.47Zm57,0-1.23-2c-.1-.16,0-.3.16-.3h52.65a.86.86,0,0,1,.58.27,248.6,248.6,0,0,1,19.48,26.16A232.28,232.28,0,0,1,756.28,304a.23.23,0,0,1-.23.33h-2.4a.54.54,0,0,1-.47-.33,231.46,231.46,0,0,0-22.66-45.23,247.44,247.44,0,0,0-19.07-25.67.86.86,0,0,0-.58-.27H661.7A.69.69,0,0,1,661.17,232.5Zm26.25-57.21,0,0c31.5,14.39,58.86,32.24,81.34,53,.14.13.1.24-.09.24h-4a1.06,1.06,0,0,1-.61-.24q-1.65-1.48-3.32-2.95a2,2,0,0,0-.6-.34c-2.78-.9-4.81-1.77-5-1.83s-9.81-4.7-16.26-5.68l-.12,0c-1.38-.15-3,.67-4.5,1.53A19.91,19.91,0,0,1,724.12,221l-.35,0a31.85,31.85,0,0,1-5.22-1.06,13.61,13.61,0,0,1-4.87-2.88c-3.44-3.05-5.7-3.5-8.83-4.1a45.12,45.12,0,0,1-4.73-1.11,13.61,13.61,0,0,0-2.29-.55.91.91,0,0,0-.58.1l-.07,0s-.18-.08-.32-.22a298.09,298.09,0,0,0-41.24-33.24q-1.81-1.22-3.65-2.42c-.16-.11-.14-.19.06-.19h35A1.79,1.79,0,0,1,687.42,175.29Zm-38,0h0a289.39,289.39,0,0,1,62.07,53.06c.13.15.07.27-.12.27H707.9a.89.89,0,0,1-.58-.26q-7.81-8.76-16.56-17a1.39,1.39,0,0,0-.6-.3l-1.46-.27a66.37,66.37,0,0,0-7.2-1l-.91-.06-1.89-.13c-3.51-.28-4.8-.68-5.31-1.68a1.78,1.78,0,0,1-.07-1.48,4.25,4.25,0,0,1,1.42-1.59c.17-.14.42-.33.61-.51a.31.31,0,0,0,0-.48,10.7,10.7,0,0,0-4.56-1.2c-2.41-.19-5.77-.78-7.33-1.84a12.64,12.64,0,0,0-5.26-2,11.78,11.78,0,0,0-5.68,1.21,12.85,12.85,0,0,1-6.39,1.33l-.32,0-.62-.05a33.7,33.7,0,0,0-5.79.19.7.7,0,0,1-.57-.22q-6.71-8.11-14-15.72c-2.48-2.56-5-5.08-7.62-7.56-.82-.79-1.64-1.59-2.47-2.37-.14-.13-.1-.24.09-.24h34.67Zm-36.56.24c3.76,3.48,7.46,7.1,11,10.77a271,271,0,0,1,33.24,42c.1.16,0,.3-.16.3h-3a.72.72,0,0,1-.54-.29,268.44,268.44,0,0,0-18-24.4.21.21,0,0,0-.37,0,8.26,8.26,0,0,1-.8,1.36,4.31,4.31,0,0,1-3.42,1.26c-.69,0-3.11.89-5.49,2.5-2.14,1.45-5,2.89-6.34,2.83a3.06,3.06,0,0,0-1.2.19,2,2,0,0,0-.52.44,1.21,1.21,0,0,1-.95.36c-1.13-.05-2.45-1.39-3-2a9.39,9.39,0,0,0-4.1-2.57,8.6,8.6,0,0,0-1.32-.16,4.16,4.16,0,0,0-1.66.17,2.89,2.89,0,0,0-.61,1.83,6.75,6.75,0,0,0,2.34,3.62c1,.83,2.59,2.42,2.66,3.81a1.61,1.61,0,0,1-.41,1.22,1.75,1.75,0,0,1-1.42.44,10.93,10.93,0,0,1-3.53-1,35.32,35.32,0,0,0-6.2-2,7.84,7.84,0,0,0-1.16-.12h-.26a.53.53,0,0,1-.4-.32,312.51,312.51,0,0,0-20.36-38.05c-.48-.77-1-1.55-1.45-2.31-.1-.16,0-.3.16-.3h36.61A1,1,0,0,1,612.87,175.5Zm-38.83.06a314.69,314.69,0,0,1,27.22,52.71.22.22,0,0,1-.22.33h-2.49a.57.57,0,0,1-.49-.33q-2.26-5.48-4.7-10.83a.4.4,0,0,0-.48-.21,29.23,29.23,0,0,1-5.79,1.17c-.7.06-1.57,0-2.59,0-2.22,0-5-.06-7,.7-.71.26-1.4.53-2.07.8a14.77,14.77,0,0,1-4.68,1.39,2,2,0,0,1-1.12-.34,6.68,6.68,0,0,0-3-1.13h-.19c-.1,0-.17,0-.16.06l0,0a1.46,1.46,0,0,1,.5,1.23c0,.42-.09,1.29-2.88,2.67a19.76,19.76,0,0,0-4.22,2.89,7.66,7.66,0,0,1-2.8,1.75,2.71,2.71,0,0,1-.69.09h-6.35a.42.42,0,0,1-.4-.35q-.47-3.09-1-6.16a.31.31,0,0,1,.3-.36c.41,0,.86,0,1.37,0,2.79,0,5.76-.71,6.79-1.43a.44.44,0,0,0,.21-.38,4.3,4.3,0,0,0-1.59-2.7,9.31,9.31,0,0,0-5.86-2.2,6.08,6.08,0,0,0-1.55.16l-.43.09a.36.36,0,0,1-.41-.3c-2.14-12.61-4.54-25-7.18-37.09l-.49-2.27a.27.27,0,0,1,.28-.34H573.5A.72.72,0,0,1,574,175.56ZM538,175.26a.46.46,0,0,1,.43.34c3.77,17,7.07,34.65,9.83,52.64a.29.29,0,0,1-.3.35h-2a.42.42,0,0,1-.41-.35q-1-6.53-2.12-13a.59.59,0,0,0-.4-.43,29.1,29.1,0,0,1-5.4-2.06,23.65,23.65,0,0,0-10.57-2.7,19.19,19.19,0,0,0-11,3.52c-7,4.79-8.57,8.48-10,11.74a24.51,24.51,0,0,1-1.45,3,.7.7,0,0,1-.54.3H495.5a.32.32,0,0,1-.33-.35c1.27-17.48,2.79-35.18,4.54-52.63a.4.4,0,0,1,.39-.35H538Zm-39.47.35c-.07.75-.14,1.51-.22,2.26-1.65,16.64-3.1,33.56-4.32,50.37a.38.38,0,0,1-.38.35H454.43c-.19,0-.25-.12-.15-.29a2.21,2.21,0,0,0,.37-1.68,3,3,0,0,0-3-2,7.87,7.87,0,0,0-3.69,1,3.39,3.39,0,0,1-2.12.4.46.46,0,0,0-.46.3l-.62,1.9a.51.51,0,0,1-.46.33H442a.24.24,0,0,1-.25-.33,455.77,455.77,0,0,1,20.35-52.68.6.6,0,0,1,.5-.32h35.56A.31.31,0,0,1,498.49,175.61Zm-37.73,0c-.35.76-.68,1.53-1,2.29a457.36,457.36,0,0,0-18.31,47.47.65.65,0,0,1-.45.39,8.78,8.78,0,0,0-1.7.49,5.82,5.82,0,0,0-2.61,2.06.69.69,0,0,1-.52.31h-29.3c-.19,0-.21-.07,0-.16a19.77,19.77,0,0,1,2.09-.88c3.29-1.17,7.7-2.16,9.68-3.59a14.75,14.75,0,0,1,6.15-2.7,31.3,31.3,0,0,0,7.89-2.45c2.94-1.28,4.17-3.1,2.75-4.06s-1.89-2.42-1-3.27a3.55,3.55,0,0,1,4-.1,4.92,4.92,0,0,0,4.51.2c1.13-.68.26-2.41-1.95-3.86s-2.39-2.69-.41-2.78,5-1.88,6.77-4,3.18-4.52,3.18-5.35,1.59-3.43,3.55-5.81,2.16-6.62-.3-8.29A27.61,27.61,0,0,0,449,179a15.06,15.06,0,0,0-4.07-1.07,6.69,6.69,0,0,0-.7,0h-3.89c-.52.05-1,.11-1.53.19-3.38.54-8.76,2.3-12.12,3.06s-6.89,1.57-10.33,2.36a1.14,1.14,0,0,0-.56.36,297.33,297.33,0,0,0-28.17,44.43.63.63,0,0,1-.51.31h-2.69a.2.2,0,0,1-.19-.31,297.84,297.84,0,0,1,34.14-52.75.83.83,0,0,1,.57-.27h41.61A.21.21,0,0,1,460.76,175.58Zm-44,0c-.62.77-1.22,1.56-1.83,2.34q-2.54,3.23-5,6.53a.91.91,0,0,1-.56.32c-2.79.28-7.18.63-12,.69-8.19.11-15.1,7-24.1,9.19a28,28,0,0,0-4.45,1.43c-2.41,1-2.4,4.93-.3,5.06a27.45,27.45,0,0,0,3.83-.09c8.19-.66,10.23.67,11.46,6,.64,2.77,1.84,2.82,3,3.14,2.31.67,2.25,7.35-.14,10.39-2.53,3.21-6,5.93-6.14,7.76a.34.34,0,0,1-.33.35h-21a.42.42,0,0,1-.4-.35,3.57,3.57,0,0,0-.85-2c-.51-.43-.92-2.07-.92-3.67a3.71,3.71,0,0,0-3-3.45,8,8,0,0,1-4.6-3,3.43,3.43,0,0,0-3.34-1.58,1.27,1.27,0,0,0-.57.37q-2.37,2.7-4.66,5.44a.42.42,0,0,0,0,.53c.94,1,2,2.33,2.66,3.25a26.92,26.92,0,0,0,2.15,2.7c.28.24.79.74,1.12,1.12a.79.79,0,0,1,.16.27c.06.17-.09.31-.28.31h-16c-.19,0-.26-.13-.14-.28,2.14-2.84,4.36-5.66,6.61-8.4a292.94,292.94,0,0,1,45.61-44.43,1.19,1.19,0,0,1,.63-.22h33.23C416.87,175.26,416.92,175.39,416.8,175.54ZM332,175.26h48.75c.19,0,.23.1.08.22-1,.79-2,1.6-2.94,2.39q-5.07,4.12-9.92,8.41a1.52,1.52,0,0,1-.61.3l-.95.18c-3.38.67-6.72,1.65-7.48,2.19a2.11,2.11,0,0,0-.56,2.59c.44.89-.5,1.9-2.11,2.25a11.76,11.76,0,0,1-5.37-.22c-1.35-.47-4,1.14-5.93,3.58s-1.64,4.67.61,5,4.87.07,5.83-.55c.21-.13.47-.28.77-.43s.2,0,.07.1q-5.78,5.94-11.14,12.11a.41.41,0,0,1-.52.07,7.24,7.24,0,0,0-3.79-1.35,5.28,5.28,0,0,0-2.86,1.23,3.19,3.19,0,0,1-3.07.3,10,10,0,0,0-3.69-.59,13.18,13.18,0,0,0-4.31,1.86c-1.47.94-2.69,2.34-2.69,3.12v1.42q0,.53,0,1.07c0,.59,1.09,1,2.39.83a5.55,5.55,0,0,0,3.1-1.12c.39-.49,2.63-.76,5-.6a15.57,15.57,0,0,0,5.33-.45c.18-.06.3-.11.28-.08l0,.06c-2.45,3-4.86,6.07-7.19,9.17a.79.79,0,0,1-.56.28h-1.37a.25.25,0,0,1-.25-.34,2,2,0,0,0,0-1.09.86.86,0,0,0-.81-.53,7.29,7.29,0,0,0-1.47,0,11.63,11.63,0,0,0-4.61,1.44,6.1,6.1,0,0,1-.71.38,1.94,1.94,0,0,1-.67.14h-3.13a1.39,1.39,0,0,1-.65-.18,2.44,2.44,0,0,1-.61-.56,9.48,9.48,0,0,1-1.7-5c0-.52-.83-1.21-2.12-1.13h-.14c-1.15.12-1.91.8-1.91,1.19a5.93,5.93,0,0,1-.93,2.92,10.13,10.13,0,0,1-2.41,2.54,1.17,1.17,0,0,1-.63.22H282.58c-.19,0-.24-.11-.09-.24,1.16-1,2.45-1.51,3-1.12a7.48,7.48,0,0,0,4,.44,7.31,7.31,0,0,0,4.08-1.73,1.92,1.92,0,0,0,.31-2.41c-.51-.55-.51-2.39,0-4.12s0-2.73-1.12-2.23a5,5,0,0,0-2.45,2c-.22.63-1,.49-1.73-.3a4.63,4.63,0,0,0-3.57-1.16,3.57,3.57,0,0,1-1.77-.35.55.55,0,0,0-.57.1q-4.12,4-8,8.16a3.4,3.4,0,0,0-.4.57,6.17,6.17,0,0,1-.54.8,4.44,4.44,0,0,0-.69,1.23.52.52,0,0,1-.46.34H268c-.19,0-.25-.12-.12-.26,17.71-19.81,39.15-37.66,63.74-53.06H332Zm-21.81,0H329c.19,0,.22.08.06.19q-1.89,1.2-3.75,2.42a302.47,302.47,0,0,0-45.69,36.44.56.56,0,0,1-.57.1,12.24,12.24,0,0,0-6-.67A33.68,33.68,0,0,0,261.89,218l-.21.13c-3.09,1.94-5.09,4.4-4.47,5.5a3.68,3.68,0,0,0,3.26,1.79,11.35,11.35,0,0,0,4.58-2,9.7,9.7,0,0,1,3.66-1.85,2.21,2.21,0,0,1,1.83,1.15,1.81,1.81,0,0,0,.18.28.39.39,0,0,1,0,.5c-1.5,1.6-3,3.22-4.42,4.85a.89.89,0,0,1-.58.26H219.51c-.19,0-.23-.1-.08-.23,25-20.8,55.35-38.65,90.33-53l0,0A1.58,1.58,0,0,1,310.21,175.26Zm-27.51,0a1.42,1.42,0,0,1,.41,0h23.28c.19,0,.21.06,0,.14q-2.9,1.22-5.76,2.47c-32,14-59.91,31-83.11,50.49a1.12,1.12,0,0,1-.62.23H178.45c-.19,0-.23-.09-.07-.21,28.73-21.35,63.8-39.19,104.25-53.05Zm-125.54,129h-45.7a.19.19,0,0,1-.19-.31A195.48,195.48,0,0,1,123,284.69c13.58-19.73,31.31-38,52.71-54.29a1.22,1.22,0,0,1,.63-.21H215c.19,0,.23.1.09.23-.91.79-1.79,1.59-2.69,2.38-1.17,1-2.34,2.08-3.48,3.13a1.18,1.18,0,0,1-.61.26c-1.68.13-3.3.31-4.6.52l-8.5,1.37a50.64,50.64,0,0,0-11.63,3.55l-4.92,2.2c-3.34,1.61-5.94,3.88-6.32,4.81-.78,1.87-3.41,3.61-6.12,4.06a9.18,9.18,0,0,0-5.3,3c-.2.29-.22.46-.21.48s.58.35,1.68.17c2-.33,3.11-.05,3.4.86.12.38.17,1.16-.88,2.09a39.17,39.17,0,0,1-7.75,4.49,14.29,14.29,0,0,0-4.4,2.9,1.4,1.4,0,0,0-.22.64,6.92,6.92,0,0,1-3,4.12,2.17,2.17,0,0,0-.25.19.33.33,0,0,0,0,.49,1.89,1.89,0,0,0,.44.21,2,2,0,0,1,1.39,1.75c.16,1.34-.67,3-2.27,4.66a7,7,0,0,0-.55.62c-.12.15-.09.29.05.28l.25,0a7.48,7.48,0,0,0,1.07-.25,31.4,31.4,0,0,0,9.87-5.73l3.53-3.16c2.34-2.1,5.33-3.73,7.43-4a3.88,3.88,0,0,1,1.37,0,3.49,3.49,0,0,0,1.2,0,6.45,6.45,0,0,0,3.51-1.78,10.66,10.66,0,0,1,5.9-2.65,10.89,10.89,0,0,1,1.53-.11c.19,0,.25.13.13.28q-4.21,5.2-8,10.55A205.51,205.51,0,0,0,157.66,304,.61.61,0,0,1,157.15,304.3Zm58.27-68.21a.88.88,0,0,0-.37.23,246.57,246.57,0,0,0-25.68,26.41.24.24,0,0,0,.1.4,21,21,0,0,1,5.25,3l3.12,2.57c2.74,2.27,4.51,7.19,4,11.16V280c-.29,2.4-1.21,7.29-2.56,8.63a12.63,12.63,0,0,0-2,2.73.45.45,0,0,0,0,.33,1.39,1.39,0,0,0,.81.8,2.58,2.58,0,0,0,1.24.21l.21,0a1.07,1.07,0,0,0,.41-.35,26.08,26.08,0,0,1,2.81-2.87,2.65,2.65,0,0,1,1.45-.7c1-.11,2.17.57,2.31,2.81a7.09,7.09,0,0,1-2.53,5.84,19.89,19.89,0,0,1-4.74,2.31c-.65.19-2.42,1.87-4.18,4.33a.77.77,0,0,1-.55.29H159.21a.2.2,0,0,1-.2-.32,204.5,204.5,0,0,1,18.11-30.55,241.82,241.82,0,0,1,39.87-43,1.1,1.1,0,0,1,.62-.23h46.67c.19,0,.25.12.12.27-.67.78-1.33,1.56-2,2.34l-.81.95a.53.53,0,0,1-.55.14l-.49-.19a21.22,21.22,0,0,0-2.55-.81,3.31,3.31,0,0,0-.69-.09H245.89a3.73,3.73,0,0,0-.69.08,39.29,39.29,0,0,0-3.85,1.08l-3.87,1.36a31.65,31.65,0,0,1-5.7,1.29,29.6,29.6,0,0,1-6.61.28q-4.81-.42-9.62-.81Zm-3.13,142.7a8.22,8.22,0,0,0,1.47,1.46c.15.12.12.21-.07.21h-5a.35.35,0,0,1-.35-.35,219.77,219.77,0,0,1,12.8-73.88.53.53,0,0,1,.47-.33H289a.25.25,0,0,1,.25.34c-.2.65-.38,1.29-.57,1.94a.5.5,0,0,1-.45.34h-64.5a.53.53,0,0,0-.47.33A218.54,218.54,0,0,0,211,371.26a5,5,0,0,0,0,.7c.07.6.13,1.23.18,1.88C211.38,375.7,211.54,377.81,212.29,378.79Zm42,1.33a12.11,12.11,0,0,0,.59-3.9,1.25,1.25,0,0,0-.31-.6,4,4,0,0,0-1.45-1,.57.57,0,0,0-.57.18c-.18.24-.41.58-.61.88a21.65,21.65,0,0,1-1.91,2.56c-.45.51-1.07,1.2-1.81,1.94a1,1,0,0,1-.6.25H235.08a.74.74,0,0,1-.44-.11l-.09-.11a15.7,15.7,0,0,1-2.44-5.36,30,30,0,0,1-.09-11.13,45.59,45.59,0,0,1,1.22-5.13c1-3.1,4.14-7.27,7.22-9.48l.18-.13a15,15,0,0,1,7.68-2.65,8.17,8.17,0,0,1,3,.37,10.3,10.3,0,0,0,3.68.49,7.83,7.83,0,0,0,3.68-.93,9.33,9.33,0,0,1,2.9-1.21,3.48,3.48,0,0,1,.63-.08,9,9,0,0,1,3.27.74,10.1,10.1,0,0,0,1.13.37,5.27,5.27,0,0,0,1.33.13,3,3,0,0,0,.44,0l.24,0c2-.08,3.66,3.57,4.29,7a15.17,15.17,0,0,0,1.84,5.31.21.21,0,0,0,.39,0,15.63,15.63,0,0,0,.93-5.47q0-.63,0-1.25a66.82,66.82,0,0,1,1-10.6c.48-2,2.69-4.51,5-6.35.15-.12.25-.06.21.13a250.52,250.52,0,0,0-3.91,45.21.35.35,0,0,1-.35.35H254.59A.25.25,0,0,1,254.34,380.13Zm25.66.34a.35.35,0,0,1-.35-.35,247.7,247.7,0,0,1,10.89-73.88.51.51,0,0,1,.46-.34h64.45a.27.27,0,0,1,.28.34c-.16.75-.31,1.51-.46,2.27a350,350,0,0,0-6.89,71.5v.23c0,.13-.16.23-.35.23H280Zm69.95,0c-.19,0-.35-.1-.35-.23s0-.16,0-.23A348.19,348.19,0,0,1,357,306.24a.45.45,0,0,1,.42-.34h65.29a.3.3,0,0,1,.3.35c-.1.75-.19,1.51-.29,2.26a506.2,506.2,0,0,0-4.37,70.07c0,.51,0,1,0,1.53a.35.35,0,0,1-.35.35H349.95Zm139.56-60.64c0,.19-.09.35-.2.34h-.19c-1.12-.08-2.52-.18-3.92-.17a17.19,17.19,0,0,0-3.2.29,18.91,18.91,0,0,0-6.15,2.46c-1,.6-2,1.25-2.84,1.83-2.28,1.51-3.51,2.31-4.37,2.31h-.12a4.52,4.52,0,0,1-2.34-1.46,10,10,0,0,0-1.83-1.42,1.3,1.3,0,0,0-.65-.17,2,2,0,0,0-1.29.64,6.72,6.72,0,0,0-1.79,2.45c-.67,1.42-1.32,2.48-4.07,4.07a6.15,6.15,0,0,0-2.69,3.81c-.18.6-.35,1.25-.53,1.92-.79,2.94-1.7,6.27-3.21,8-.5.58-1.19,1.32-2,2.14a61.72,61.72,0,0,0-5.45,6.38c-.21.3-.42.61-.63.93a87.05,87.05,0,0,0-4.36,8.31c-.76,1.57-1.47,3-2.11,4.25-1.73,3.3-2.4,4.95.1,9.46a8.91,8.91,0,0,1,1.15,3.9.34.34,0,0,1-.34.35h-16.6a.36.36,0,0,1-.36-.35c0-.51,0-1,0-1.54a504.28,504.28,0,0,1,4.67-72.33.42.42,0,0,1,.4-.35h64.92a.34.34,0,0,1,.34.35c0,.75,0,1.51-.06,2.26Q489.64,314.15,489.51,319.82ZM479.08,304c1.94-2.33,4.48-5.2,6.06-6.68a5.9,5.9,0,0,1,4.07-1.73,3.74,3.74,0,0,0,.73-.08.25.25,0,0,1,.33.27c-.1,2.72-.22,5.43-.31,8.14a.37.37,0,0,1-.36.35H479.21C479,304.3,479,304.18,479.08,304Zm79.5,76.43h-1.77c-.19,0-.35-.08-.35-.18s0-.12,0-.18c0-13.65-.18-27.3-.66-40.83a.35.35,0,0,0-.36-.34h-1.38l-1.81,0-1.63,0a19.29,19.29,0,0,0-2.22.08,6.81,6.81,0,0,1-.84,0,23.16,23.16,0,0,1-7.23-1.62,41.46,41.46,0,0,1-4.84-2.35,24.63,24.63,0,0,0-5.27-2.39,7.63,7.63,0,0,0-1.53-.17c-1.1,0-1.56.33-1.57.47,0,.7-.06,1.3-.06,1.8a6.5,6.5,0,0,1-.62,2.52,5.62,5.62,0,0,1-4,3.09h-.38a5.62,5.62,0,0,1-2.25-.47,21.7,21.7,0,0,1-4.62-2.78c-.25-.22-.58-.53-1-.9a25.78,25.78,0,0,0-3.61-3.06,9.38,9.38,0,0,0-3.25-1.35,7.18,7.18,0,0,1-3.65-2c-2.17-2.1-2.25-7.14-2.23-8.63a11.5,11.5,0,0,0-.14-2.37,1.81,1.81,0,0,0-.09-.34h0a13.34,13.34,0,0,0-3.09.61,38.41,38.41,0,0,1-4.57.94.43.43,0,0,0-.36.4c-.51,19.77-.74,39.76-.66,59.67a.35.35,0,0,1-.35.35h-1.77a.35.35,0,0,1-.35-.35c-.11-24.68.22-49.52,1-73.86a.37.37,0,0,1,.36-.35h64.85a.38.38,0,0,1,.38.35c1.58,23.67,2.34,48,2.25,72.33q0,.77,0,1.54A.35.35,0,0,1,558.59,380.46ZM559,318.6a8.23,8.23,0,0,1,2.75-.72,1.82,1.82,0,0,1,1.73,1.06,7.41,7.41,0,0,1,.58,3.18c0,2.7-.57,13.26-3.34,15.59a3.58,3.58,0,0,1-.85.52.23.23,0,0,1-.34-.22q-.33-9.51-.84-18.93A.52.52,0,0,1,559,318.6Zm11.62,61.54a17,17,0,0,0-2.51-3.88c-1.93-2.19-2-3.33-1.37-4.89.41-1,1.16-3-4.26-11.75a30.49,30.49,0,0,1-2.37-4.56,2.19,2.19,0,0,1-.14-.68q-.08-4-.19-8a2.42,2.42,0,0,1,.09-.69,6.82,6.82,0,0,1,.65-1.46c.5-.8,1.05-1.21,1.65-1.2.93,0,1.61.95,2,2.79l.09.41A29.7,29.7,0,0,0,570,359.41c4.21,5.52,5.75,8.82,6.1,13.08.16,2,1.8,4.45,3.38,6.84l.55.84c.11.16,0,.29-.16.29h-8.71A.61.61,0,0,1,570.62,380.15Zm57.93.32h-10.6c-.19,0-.27-.14-.18-.31s.31-.57.46-.89a45.08,45.08,0,0,1,4-6.54c1.1-1.54,1.9-2.65,1.83-3.48s-.83-1.89-2.42-3.48a41.2,41.2,0,0,1-4-4.52,3.58,3.58,0,0,0-2.82-1.56,3.12,3.12,0,0,0-2.44,1.14,4.42,4.42,0,0,1-3.48,1.9,4.36,4.36,0,0,1-1.21-.19,6.42,6.42,0,0,1-3.64-2.85,5.57,5.57,0,0,0-2.57-1.63,4.84,4.84,0,0,1-2.71-1.92,19.19,19.19,0,0,1-1.16-3.38,27.25,27.25,0,0,0-1.18-3.57c-.81-1.79-1.25-2.64-1.48-3-.1-.17-.31-.4-.43-.55a1.75,1.75,0,0,1-.3-.76c-.27-1.73,1.64-5,2.37-6a2.46,2.46,0,0,1,1.87-1.24c1.28,0,2.33,1.33,4.91,6.12l.59,1.11c2.62,4.91,3,5.66,7.82,5.71,1,0,1.72,0,2.35,0h1.13c2.05,0,2.46.45,3.69,2.09l.46.61c1.81,2.37,2.26,2.6,6,2.66a.32.32,0,0,0,.33-.35,425.13,425.13,0,0,0-5.07-46.73.43.43,0,0,0-.41-.35H558.41a.38.38,0,0,1-.37-.35c0-.64-.08-1.27-.12-1.91a.32.32,0,0,1,.33-.35h64.36a.43.43,0,0,1,.41.35A433.55,433.55,0,0,1,628.91,380c0,.08,0,.15,0,.23S628.74,380.46,628.55,380.46Zm1.58-.23c0-.08,0-.15,0-.23,0-8.09-.17-16.16-.56-24.18a.41.41,0,0,1,.33-.41,28.24,28.24,0,0,1,5.26-.56,10.8,10.8,0,0,1,7.73,3c1.74,1.68,3.64,3.21,5.32,4.55,3.31,2.65,4.82,3.86,4.53,5.41a1.8,1.8,0,0,1-1.72,1.42,2.73,2.73,0,0,0-.45.1.31.31,0,0,0-.15.46,2.8,2.8,0,0,0,2,1.17h.91c1.51,0,2,0,2.92-1.53.72-1.14,1.2-1.83,1.9-1.82.32,0,1.07.17,1.2,1.65,0,.45,0,1.05,0,1.82a76.4,76.4,0,0,0,.67,9,.29.29,0,0,1-.3.35H630.48C630.29,380.46,630.13,380.36,630.13,380.23Zm56.55.23c-.19,0-.28-.07-.19-.16l.16-.16c1.45-1.35,5.28-4.91,5.69-6.07.48-1.39,1.76-5.07,4.56-5.86l.34-.09a.45.45,0,0,0,.33-.43,286.46,286.46,0,0,0-8.71-58.84.48.48,0,0,0-.44-.34H625a.43.43,0,0,1-.41-.35c-.1-.64-.19-1.28-.3-1.92a.29.29,0,0,1,.29-.35h66.09a.48.48,0,0,1,.44.34,289.14,289.14,0,0,1,9.24,73.88.35.35,0,0,1-.35.35h-13.3Zm14.88-.35q0-6.2-.21-12.37a.42.42,0,0,1,.33-.42,3.16,3.16,0,0,1,.58-.05c1.26,0,2.24.88,3.32,2.16a22.2,22.2,0,0,1,1.7,2.52c1,1.63,2.37,3.86,3.42,4,1.4.25,2.44,2,3.17,4.14a.24.24,0,0,1-.24.33H701.9A.35.35,0,0,1,701.55,380.11Zm39,.35a.59.59,0,0,1-.5-.32,7.9,7.9,0,0,1-.68-2.35c-.45-4.24,3.59-6.08,6-7.17a13.72,13.72,0,0,0,1.44-.71,2,2,0,0,1,1.09-.33c1.24,0,2,1.28,2.75,2.39.52.81,1.11,1.73,1.6,1.74a1.82,1.82,0,0,0,1.09-.71c2.84-3.06,5.13-3.77,8.3-4.74,1-.29,2-.62,3.22-1a6.18,6.18,0,0,0,1.38-.73.69.69,0,0,0,.26-.55,223.75,223.75,0,0,0-7.75-44.74,1.62,1.62,0,0,0-.35-.58,9.26,9.26,0,0,1-1.23-1.62,3,3,0,0,1,.11-2.75h0s0-.16-.1-.34c-.72-2.36-1.48-4.71-2.28-7a.52.52,0,0,0-.47-.33H693.28a.47.47,0,0,1-.44-.34c-.16-.64-.32-1.29-.48-1.93a.26.26,0,0,1,.26-.34h64a.53.53,0,0,1,.47.33,225.24,225.24,0,0,1,12.46,73.88.35.35,0,0,1-.35.35H740.54Zm30.58,0a.35.35,0,0,1-.35-.35q0-8.82-.68-17.56a1.31,1.31,0,0,1,.15-.65,28.7,28.7,0,0,0,3.23-8.44,17.5,17.5,0,0,0,.2-6.51,2.81,2.81,0,0,0-.28-.63,6.43,6.43,0,0,1-.59-1.65c-.05-.22-.11-.5-.16-.82a7.11,7.11,0,0,0-2.47-4.95,22.92,22.92,0,0,1-4.13-5.06l0,0a3.29,3.29,0,0,1-.1-.38c-.42-2-.88-4-1.36-6a.61.61,0,0,1,.19-.57c.28-.23.59-.45.91-.67a7.44,7.44,0,0,0,2.08-1.83.42.42,0,0,0-.13-.54,5.66,5.66,0,0,0-1.78-.57c-.62-.12-1.2-.21-1.73-.29l-.34-.05a.58.58,0,0,1-.43-.4q-1.28-4.86-2.78-9.66a.57.57,0,0,1,.16-.57,3.54,3.54,0,0,1,1-.59,2.45,2.45,0,0,1,1-.17,2,2,0,0,1,1.45.78,6.67,6.67,0,0,1,1.23,3.21.69.69,0,0,0,.3.55,1.49,1.49,0,0,0,.48.1h.24a4.72,4.72,0,0,0,1.42-.36,6.44,6.44,0,0,0,.84-.48,4,4,0,0,1,2.24-.87,1.77,1.77,0,0,1,.39.07,6.05,6.05,0,0,1,3,3.14,5.09,5.09,0,0,1,.48,2.55.83.83,0,0,0,0,.27,1,1,0,0,0,.37.47c.2.14.47.3.67.43a9.27,9.27,0,0,1,1.79,1.31,13.59,13.59,0,0,1,1.65,2,11.65,11.65,0,0,1,2,5.07,2.34,2.34,0,0,0,.82,1.59.83.83,0,0,0,.39.09,3.25,3.25,0,0,0,1.89-.62,6.24,6.24,0,0,0,2.11-2.71c.12-.46-.49-2.36-1.82-4.13a31.06,31.06,0,0,0-4.36-4.68,4.18,4.18,0,0,1-1.68-2.69,2.4,2.4,0,0,1,.48-1.85,7.88,7.88,0,0,0,1.23-2.94,14.9,14.9,0,0,1,1-3,.21.21,0,0,0-.21-.32H759.49a.52.52,0,0,1-.46-.33c-.21-.65-.43-1.3-.65-1.95a.24.24,0,0,1,.24-.33h65.06a.57.57,0,0,1,.49.32l.28.66a197.43,197.43,0,0,1,15,73.23.35.35,0,0,1-.35.35h-68Zm138,0h-68a.36.36,0,0,1-.36-.35,198.5,198.5,0,0,0-14.29-71.6c-.28-.7-.54-1.39-.83-2.09l-.11-.26c-.06-.15,0-.26.24-.26h64.67a.62.62,0,0,1,.51.31,172.53,172.53,0,0,1,18.53,73.9A.34.34,0,0,1,909.07,380.46ZM889.76,304a.2.2,0,0,1-.19.31H825a.58.58,0,0,1-.49-.32,215,215,0,0,0-28.75-48.23.61.61,0,0,1-.07-.59,7.31,7.31,0,0,1,1.59-2.13,3.51,3.51,0,0,1,2.38-.93h.21a5.56,5.56,0,0,1,2.87,1.93,9.41,9.41,0,0,0,.78.74,3,3,0,0,0,1.27.66c.39,0,.71-.34.71-.87,0-.79.09-2.67,1-3.15a1,1,0,0,1,.61-.11,2.77,2.77,0,0,1,1.58,1.11,12.46,12.46,0,0,1,1.93,3.35,7.86,7.86,0,0,1,.51,2.41,17.47,17.47,0,0,1-1.13,5,11.77,11.77,0,0,0-.82,4.07,27.51,27.51,0,0,0,4.07,6.55l1.84,2.39a82,82,0,0,0,6,7.07,10.56,10.56,0,0,0,1.86,1.39.22.22,0,0,0,.35-.18,11.63,11.63,0,0,0-.15-2.63c-.36-2.28-.45-5.37.07-6.6a2.84,2.84,0,0,0-.52-2.31,17.06,17.06,0,0,1-2.08-3.64,4.83,4.83,0,0,0-1.65-1.9A9.46,9.46,0,0,1,816,264a3.76,3.76,0,0,1,.31-4.16,11.14,11.14,0,0,1,4.34-1.93,9.78,9.78,0,0,1,3.26-.23,2.87,2.87,0,0,1,1.4.49,4.89,4.89,0,0,0,.78.47.78.78,0,0,0,.64,0,13.85,13.85,0,0,0,2.08-1.55c1.22-1.08,3.22-2.19,4.52-2.14h.23c.13,0,.13-.15,0-.29a27.13,27.13,0,0,0-2.57-2.38c-1.72-1.42-2.79-3-2.87-4.25a1.72,1.72,0,0,1,.6-1.52,4.33,4.33,0,0,1,2.77-.61l.4,0a25.45,25.45,0,0,1,3.65,1c.65.21,1.29.42,1.87.58,1.22.35,2.41.65,3.34.85l.41.07a3.67,3.67,0,0,0,1.16,0,.25.25,0,0,0,.16-.4,5.91,5.91,0,0,0-2.38-1.9,7.66,7.66,0,0,0-1.66-.38l-1.09-.15a8.65,8.65,0,0,1-2.12-.52,9.91,9.91,0,0,1-2.5-1.65c-.77-.67-2.53-1.76-6.55-3.16L823,239.17c-3-1-6.39-2.18-8.76-3.08-2.69-1-6.36-2.33-9.65-3.21a3.2,3.2,0,0,0-.69-.09H775.57a1,1,0,0,1-.6-.25c-.72-.71-1.44-1.42-2.17-2.12-.14-.13-.1-.24.1-.24h53.45a1.19,1.19,0,0,1,.63.22c20.31,15.86,37.24,33.6,50.32,52.73A197.46,197.46,0,0,1,889.76,304Z" transform="translate(-84.5 -173.67)"/><path class="a" d="M177.22,378.5a29,29,0,0,0-6.28-15.14.27.27,0,0,0-.44,0l-.25.32a.46.46,0,0,0,0,.55,27.86,27.86,0,0,1,5.88,14.15.46.46,0,0,0,.39.39l.39,0A.27.27,0,0,0,177.22,378.5Z" transform="translate(-84.5 -173.67)"/><path class="a" d="M171.63,362.5a30,30,0,0,1,6.69,16.12.45.45,0,0,0,.38.39l.39,0a.28.28,0,0,0,.32-.31,31.09,31.09,0,0,0-7.1-17.1.28.28,0,0,0-.45,0l-.25.31A.45.45,0,0,0,171.63,362.5Z" transform="translate(-84.5 -173.67)"/><path class="a" d="M125,362l-.25-.31a.28.28,0,0,0-.45,0,31.08,31.08,0,0,0-7.1,17.1.28.28,0,0,0,.32.31l.39,0a.45.45,0,0,0,.38-.39A30,30,0,0,1,125,362.5.45.45,0,0,0,125,362Z" transform="translate(-84.5 -173.67)"/><path class="a" d="M168,358.29l.31-.25a.28.28,0,0,0,0-.45,31.09,31.09,0,0,0-17.1-7.09.28.28,0,0,0-.31.32l0,.39a.45.45,0,0,0,.39.38,30,30,0,0,1,16.12,6.69A.45.45,0,0,0,168,358.29Z" transform="translate(-84.5 -173.67)"/><path class="a" d="M166.55,359a29,29,0,0,0-15.14-6.28.27.27,0,0,0-.31.31l0,.39a.46.46,0,0,0,.39.39,27.87,27.87,0,0,1,14.15,5.88.46.46,0,0,0,.55,0l.32-.25A.27.27,0,0,0,166.55,359Z" transform="translate(-84.5 -173.67)"/><path class="a" d="M119.71,378.81l.39,0a.46.46,0,0,0,.39-.39,27.87,27.87,0,0,1,5.88-14.15.46.46,0,0,0,0-.55l-.25-.32a.27.27,0,0,0-.44,0,28.94,28.94,0,0,0-6.28,15.14A.27.27,0,0,0,119.71,378.81Z" transform="translate(-84.5 -173.67)"/><path class="a" d="M145.21,352.69A29,29,0,0,0,130.07,359a.27.27,0,0,0,0,.44l.32.25a.46.46,0,0,0,.55,0,27.87,27.87,0,0,1,14.15-5.88.46.46,0,0,0,.39-.39l0-.39A.27.27,0,0,0,145.21,352.69Z" transform="translate(-84.5 -173.67)"/><path class="a" d="M145.72,351.21l0-.39a.28.28,0,0,0-.31-.32,31.09,31.09,0,0,0-17.1,7.09.28.28,0,0,0,0,.45l.31.25a.45.45,0,0,0,.54,0,30,30,0,0,1,16.12-6.69A.45.45,0,0,0,145.72,351.21Z" transform="translate(-84.5 -173.67)"/><path class="a" d="M151.41,410.51a28.92,28.92,0,0,0,15.14-6.28.27.27,0,0,0,0-.44l-.32-.25a.46.46,0,0,0-.55,0,27.85,27.85,0,0,1-14.15,5.88.46.46,0,0,0-.39.39l0,.39A.27.27,0,0,0,151.41,410.51Z" transform="translate(-84.5 -173.67)"/><path class="a" d="M150.9,412l0,.39a.28.28,0,0,0,.31.32,31.09,31.09,0,0,0,17.1-7.1.28.28,0,0,0,0-.45l-.31-.25a.45.45,0,0,0-.54,0,30,30,0,0,1-16.12,6.69A.45.45,0,0,0,150.9,412Z" transform="translate(-84.5 -173.67)"/><path class="a" d="M119.4,384.7a28.94,28.94,0,0,0,6.28,15.14.27.27,0,0,0,.44,0l.25-.31a.46.46,0,0,0,0-.55,27.87,27.87,0,0,1-5.88-14.15.46.46,0,0,0-.39-.39l-.39,0A.27.27,0,0,0,119.4,384.7Z" transform="translate(-84.5 -173.67)"/><path class="a" d="M125,400.7a30,30,0,0,1-6.69-16.12.45.45,0,0,0-.38-.39l-.39,0a.28.28,0,0,0-.32.31,31.09,31.09,0,0,0,7.1,17.1.28.28,0,0,0,.45,0l.25-.31A.45.45,0,0,0,125,400.7Z" transform="translate(-84.5 -173.67)"/><path class="a" d="M130.07,404.23a29,29,0,0,0,15.14,6.28.27.27,0,0,0,.31-.31l0-.39a.46.46,0,0,0-.39-.39,27.85,27.85,0,0,1-14.15-5.88.46.46,0,0,0-.55,0l-.32.25A.27.27,0,0,0,130.07,404.23Z" transform="translate(-84.5 -173.67)"/><path class="a" d="M176.91,384.39l-.39,0a.46.46,0,0,0-.39.39A27.85,27.85,0,0,1,170.25,399a.46.46,0,0,0,0,.55l.25.31a.27.27,0,0,0,.44,0,28.94,28.94,0,0,0,6.28-15.14A.27.27,0,0,0,176.91,384.39Z" transform="translate(-84.5 -173.67)"/><path class="a" d="M171.62,401.25l.25.31a.28.28,0,0,0,.45,0,31.1,31.1,0,0,0,7.1-17.1.28.28,0,0,0-.32-.31l-.39,0a.45.45,0,0,0-.38.39,30,30,0,0,1-6.69,16.12A.45.45,0,0,0,171.62,401.25Z" transform="translate(-84.5 -173.67)"/><path class="a" d="M128.66,404.91l-.31.25a.28.28,0,0,0,0,.45,31.1,31.1,0,0,0,17.1,7.1.28.28,0,0,0,.31-.32l0-.39a.45.45,0,0,0-.39-.38,30,30,0,0,1-16.12-6.69A.45.45,0,0,0,128.66,404.91Z" transform="translate(-84.5 -173.67)"/><path class="a" d="M135.85,372.12l-1.16-1.44a.27.27,0,0,0-.44,0L134,371a.49.49,0,0,0,0,.56L135.2,373a.24.24,0,0,0,.41,0l.24-.34A.48.48,0,0,0,135.85,372.12Z" transform="translate(-84.5 -173.67)"/><path class="a" d="M139.38,369.15l.34-.24a.24.24,0,0,0,0-.41l-1.47-1.18a.49.49,0,0,0-.56,0l-.33.25a.26.26,0,0,0,0,.44l1.44,1.16A.48.48,0,0,0,139.38,369.15Z" transform="translate(-84.5 -173.67)"/><path class="a" d="M122.36,354.58l-2.71-2.16-2.39-1.91c-.15-.12-.18-.1-.05.05l1.91,2.38,2.17,2.71a.3.3,0,0,0,.46,0l.63-.63A.3.3,0,0,0,122.36,354.58Z" transform="translate(-84.5 -173.67)"/><path class="a" d="M130.8,361.33,125.38,357a.42.42,0,0,0-.53,0l-.28.27a.3.3,0,0,0,0,.46l5.39,4.31a.42.42,0,0,0,.53,0l.29-.26A.28.28,0,0,0,130.8,361.33Z" transform="translate(-84.5 -173.67)"/><path class="a" d="M128.77,363.27l-4.32-5.39a.3.3,0,0,0-.47,0l-.27.28a.42.42,0,0,0,0,.53l4.34,5.42a.28.28,0,0,0,.45,0l.26-.29A.42.42,0,0,0,128.77,363.27Z" transform="translate(-84.5 -173.67)"/><path class="a" d="M130.7,379c0,.14,0,.27-.07.41a.26.26,0,0,0,.31.31l1.85-.21a.48.48,0,0,0,.4-.39c0-.14,0-.28.07-.41a.24.24,0,0,0-.28-.31l-1.86.21A.49.49,0,0,0,130.7,379Z" transform="translate(-84.5 -173.67)"/><path class="a" d="M104.37,381.56c-.19,0-.19.06,0,.08l3,.34,3.43.38a.3.3,0,0,0,.34-.31c0-.15,0-.29,0-.44s0-.3,0-.44a.3.3,0,0,0-.34-.31l-3.43.38Z" transform="translate(-84.5 -173.67)"/><path class="a" d="M130.63,383.81c0,.14,0,.27.07.41a.49.49,0,0,0,.41.38l1.86.21a.24.24,0,0,0,.28-.31c0-.14,0-.28-.07-.42a.48.48,0,0,0-.4-.39l-1.85-.21A.26.26,0,0,0,130.63,383.81Z" transform="translate(-84.5 -173.67)"/><path class="a" d="M121.52,382.46l-6.87-.76a.3.3,0,0,0-.34.31q0,.19,0,.39a.42.42,0,0,0,.36.39l6.9.77a.28.28,0,0,0,.33-.31c0-.13,0-.26,0-.39A.42.42,0,0,0,121.52,382.46Z" transform="translate(-84.5 -173.67)"/><path class="a" d="M121.58,379.65l-6.9.77a.42.42,0,0,0-.36.39c0,.13,0,.26,0,.39a.3.3,0,0,0,.34.31l6.87-.76a.42.42,0,0,0,.36-.39c0-.13,0-.26,0-.39A.28.28,0,0,0,121.58,379.65Z" transform="translate(-84.5 -173.67)"/><path class="a" d="M138.83,394.06l-1.44,1.16a.26.26,0,0,0,0,.44l.33.25a.49.49,0,0,0,.56,0l1.47-1.18a.24.24,0,0,0,0-.41l-.34-.24A.48.48,0,0,0,138.83,394.06Z" transform="translate(-84.5 -173.67)"/><path class="a" d="M117.21,412.64c-.12.15-.1.18.05.05l2.39-1.91,2.71-2.16a.3.3,0,0,0,0-.46l-.63-.63a.3.3,0,0,0-.46,0l-2.17,2.71Z" transform="translate(-84.5 -173.67)"/><path class="a" d="M135.86,390.53l-.24-.34a.24.24,0,0,0-.41,0L134,391.64a.49.49,0,0,0,0,.56l.25.33a.27.27,0,0,0,.44,0l1.16-1.44A.48.48,0,0,0,135.86,390.53Z" transform="translate(-84.5 -173.67)"/><path class="a" d="M130,401.14l-5.39,4.32a.3.3,0,0,0,0,.46l.28.27a.42.42,0,0,0,.53,0l5.42-4.34a.28.28,0,0,0,0-.45l-.29-.26A.42.42,0,0,0,130,401.14Z" transform="translate(-84.5 -173.67)"/><path class="a" d="M128,399.11l-4.34,5.42a.42.42,0,0,0,0,.53l.27.28a.3.3,0,0,0,.47,0l4.32-5.4a.42.42,0,0,0,0-.53l-.26-.29A.28.28,0,0,0,128,399.11Z" transform="translate(-84.5 -173.67)"/><path class="a" d="M145.69,399.21l.41.07a.26.26,0,0,0,.31-.31l-.21-1.84a.48.48,0,0,0-.39-.4l-.42-.07a.24.24,0,0,0-.31.28l.21,1.86A.49.49,0,0,0,145.69,399.21Z" transform="translate(-84.5 -173.67)"/><path class="a" d="M151.32,398.8l.21-1.86a.24.24,0,0,0-.31-.28l-.42.07a.48.48,0,0,0-.39.4l-.21,1.84a.26.26,0,0,0,.31.31l.41-.07A.49.49,0,0,0,151.32,398.8Z" transform="translate(-84.5 -173.67)"/><path class="a" d="M147.55,419.07l.38,3.43.34,3c0,.19.06.19.08,0l.34-3,.38-3.43a.29.29,0,0,0-.31-.34h-.89A.3.3,0,0,0,147.55,419.07Z" transform="translate(-84.5 -173.67)"/><path class="a" d="M146.36,408.33l.77,6.9a.42.42,0,0,0,.39.36h.39a.3.3,0,0,0,.31-.34l-.76-6.87a.42.42,0,0,0-.39-.36l-.39,0A.28.28,0,0,0,146.36,408.33Z" transform="translate(-84.5 -173.67)"/><path class="a" d="M148.71,415.6h.39a.42.42,0,0,0,.39-.36l.77-6.9a.28.28,0,0,0-.31-.32l-.39,0a.42.42,0,0,0-.39.36l-.76,6.87A.3.3,0,0,0,148.71,415.6Z" transform="translate(-84.5 -173.67)"/><path class="a" d="M162.37,392.53l.25-.33a.49.49,0,0,0,0-.56l-1.18-1.47a.24.24,0,0,0-.41,0l-.24.34a.48.48,0,0,0,0,.56l1.16,1.44A.27.27,0,0,0,162.37,392.53Z" transform="translate(-84.5 -173.67)"/><path class="a" d="M159.24,395.22l-1.44-1.16a.48.48,0,0,0-.56,0l-.34.24a.24.24,0,0,0,0,.41l1.47,1.18a.49.49,0,0,0,.56,0l.33-.25A.27.27,0,0,0,159.24,395.22Z" transform="translate(-84.5 -173.67)"/><path class="a" d="M174.87,407.53l-.63.63a.3.3,0,0,0,0,.46l2.71,2.16,2.39,1.91c.15.12.18.1.05-.05l-1.91-2.38-2.17-2.71A.3.3,0,0,0,174.87,407.53Z" transform="translate(-84.5 -173.67)"/><path class="a" d="M165.82,401.87l5.42,4.34a.42.42,0,0,0,.53,0l.28-.27a.3.3,0,0,0,0-.46l-5.39-4.32a.42.42,0,0,0-.53,0l-.29.26A.28.28,0,0,0,165.82,401.87Z" transform="translate(-84.5 -173.67)"/><path class="a" d="M167.85,399.93l4.32,5.39a.3.3,0,0,0,.46,0l.27-.28a.42.42,0,0,0,0-.53l-4.34-5.42a.28.28,0,0,0-.45,0l-.26.29A.42.42,0,0,0,167.85,399.93Z" transform="translate(-84.5 -173.67)"/><path class="a" d="M166,379.39c0-.14,0-.27-.07-.41a.49.49,0,0,0-.41-.38l-1.86-.21a.24.24,0,0,0-.28.31c0,.14,0,.28.07.41a.48.48,0,0,0,.4.39l1.85.21A.26.26,0,0,0,166,379.39Z" transform="translate(-84.5 -173.67)"/><path class="a" d="M165.92,384.22c0-.14,0-.27.07-.41a.26.26,0,0,0-.3-.31l-1.85.21a.48.48,0,0,0-.4.39c0,.14,0,.28-.07.42a.24.24,0,0,0,.28.31l1.86-.21A.49.49,0,0,0,165.92,384.22Z" transform="translate(-84.5 -173.67)"/><path class="a" d="M185.44,381.16c0,.15,0,.3,0,.44s0,.3,0,.44a.3.3,0,0,0,.34.31l3.43-.38,3-.34c.19,0,.19-.06,0-.08l-3-.34-3.43-.38A.3.3,0,0,0,185.44,381.16Z" transform="translate(-84.5 -173.67)"/><path class="a" d="M175.1,380.75l6.87.76a.3.3,0,0,0,.34-.31q0-.19,0-.39a.42.42,0,0,0-.36-.39l-6.9-.77a.28.28,0,0,0-.33.31q0,.2,0,.39A.42.42,0,0,0,175.1,380.75Z" transform="translate(-84.5 -173.67)"/><path class="a" d="M175,383.55l6.9-.77a.42.42,0,0,0,.36-.39c0-.13,0-.26,0-.39a.3.3,0,0,0-.34-.31l-6.87.76a.42.42,0,0,0-.36.39c0,.13,0,.26,0,.39A.28.28,0,0,0,175,383.55Z" transform="translate(-84.5 -173.67)"/><path class="a" d="M179.35,350.51,177,352.42l-2.71,2.16a.3.3,0,0,0,0,.46l.63.63a.3.3,0,0,0,.46,0l2.17-2.71,1.91-2.38C179.53,350.41,179.5,350.39,179.35,350.51Z" transform="translate(-84.5 -173.67)"/><path class="a" d="M158.34,367.31l-1.47,1.18a.24.24,0,0,0,0,.41l.34.24a.48.48,0,0,0,.56,0l1.44-1.16a.27.27,0,0,0,0-.44l-.33-.25A.49.49,0,0,0,158.34,367.31Z" transform="translate(-84.5 -173.67)"/><path class="a" d="M161.93,370.67l-1.16,1.44a.48.48,0,0,0,0,.56l.24.34a.24.24,0,0,0,.41,0l1.18-1.47a.49.49,0,0,0,0-.56l-.25-.33A.27.27,0,0,0,161.93,370.67Z" transform="translate(-84.5 -173.67)"/><path class="a" d="M166.64,362.06l5.39-4.31a.3.3,0,0,0,0-.46l-.28-.27a.42.42,0,0,0-.53,0l-5.42,4.34a.28.28,0,0,0,0,.45l.29.26A.42.42,0,0,0,166.64,362.06Z" transform="translate(-84.5 -173.67)"/><path class="a" d="M167.87,363.81l.26.29a.28.28,0,0,0,.45,0l4.34-5.42a.42.42,0,0,0,0-.53l-.27-.28a.3.3,0,0,0-.46,0l-4.32,5.39A.42.42,0,0,0,167.87,363.81Z" transform="translate(-84.5 -173.67)"/><path class="a" d="M145.3,364.4l-.21,1.86a.24.24,0,0,0,.31.28l.42-.07a.48.48,0,0,0,.39-.4l.21-1.84a.26.26,0,0,0-.31-.31l-.41.07A.49.49,0,0,0,145.3,364.4Z" transform="translate(-84.5 -173.67)"/><path class="a" d="M147.9,347.6h-.39a.42.42,0,0,0-.39.36l-.77,6.9a.28.28,0,0,0,.31.32l.39,0a.42.42,0,0,0,.39-.36l.76-6.87A.3.3,0,0,0,147.9,347.6Z" transform="translate(-84.5 -173.67)"/><path class="a" d="M150.93,364l-.41-.07a.26.26,0,0,0-.31.31l.2,1.84a.48.48,0,0,0,.39.4l.42.07a.24.24,0,0,0,.31-.28l-.21-1.86A.49.49,0,0,0,150.93,364Z" transform="translate(-84.5 -173.67)"/><path class="a" d="M149.07,344.13l-.38-3.43-.34-3c0-.19-.06-.19-.08,0l-.34,3-.38,3.43a.3.3,0,0,0,.31.34h.89A.3.3,0,0,0,149.07,344.13Z" transform="translate(-84.5 -173.67)"/><path class="a" d="M150.26,354.87l-.77-6.9a.42.42,0,0,0-.39-.36h-.39a.3.3,0,0,0-.31.34l.76,6.87a.42.42,0,0,0,.39.36l.39,0A.28.28,0,0,0,150.26,354.87Z" transform="translate(-84.5 -173.67)"/><path class="a" d="M158.79,360.07l-.25.86a.44.44,0,0,0,.22.5,22.88,22.88,0,0,1,9.73,9.73.44.44,0,0,0,.5.21l.86-.25a.28.28,0,0,0,.18-.41,24.48,24.48,0,0,0-10.82-10.82A.28.28,0,0,0,158.79,360.07Z" transform="translate(-84.5 -173.67)"/><path class="a" d="M141.43,359.93a22.41,22.41,0,0,1,13.77,0,.44.44,0,0,0,.5-.2l.43-.78a.28.28,0,0,0-.16-.42,24.23,24.23,0,0,0-15.3,0,.28.28,0,0,0-.16.42l.43.78A.44.44,0,0,0,141.43,359.93Z" transform="translate(-84.5 -173.67)"/><path class="a" d="M170.17,389l.77.43a.28.28,0,0,0,.42-.16,24.22,24.22,0,0,0,0-15.3.28.28,0,0,0-.42-.16l-.77.43a.44.44,0,0,0-.2.5,22.41,22.41,0,0,1,0,13.76A.44.44,0,0,0,170.17,389Z" transform="translate(-84.5 -173.67)"/><path class="a" d="M128.13,371.15a22.87,22.87,0,0,1,9.73-9.73.44.44,0,0,0,.21-.5l-.25-.86a.28.28,0,0,0-.41-.18,24.48,24.48,0,0,0-10.82,10.82.28.28,0,0,0,.18.41l.86.25A.44.44,0,0,0,128.13,371.15Z" transform="translate(-84.5 -173.67)"/><path class="a" d="M126.44,374.22l-.77-.43a.28.28,0,0,0-.42.16,24.22,24.22,0,0,0,0,15.3.28.28,0,0,0,.42.16l.77-.43a.44.44,0,0,0,.2-.5,22.4,22.4,0,0,1,0-13.76A.44.44,0,0,0,126.44,374.22Z" transform="translate(-84.5 -173.67)"/><path class="a" d="M168.49,392.05a22.88,22.88,0,0,1-9.73,9.73.44.44,0,0,0-.21.5l.25.86a.28.28,0,0,0,.41.18A24.47,24.47,0,0,0,170,392.5a.28.28,0,0,0-.18-.41l-.86-.25A.44.44,0,0,0,168.49,392.05Z" transform="translate(-84.5 -173.67)"/><path class="a" d="M137.82,403.13l.25-.86a.44.44,0,0,0-.21-.5,22.86,22.86,0,0,1-9.73-9.73.44.44,0,0,0-.5-.21l-.86.25a.28.28,0,0,0-.18.41,24.47,24.47,0,0,0,10.82,10.82A.28.28,0,0,0,137.82,403.13Z" transform="translate(-84.5 -173.67)"/><path class="a" d="M155.19,403.27a22.39,22.39,0,0,1-13.76,0,.44.44,0,0,0-.5.2l-.43.78a.28.28,0,0,0,.16.42,24.22,24.22,0,0,0,15.3,0,.28.28,0,0,0,.16-.42l-.43-.78A.44.44,0,0,0,155.19,403.27Z" transform="translate(-84.5 -173.67)"/><path class="a" d="M127.6,375.25a21.46,21.46,0,0,0,0,12.71.28.28,0,0,0,.41.17l.89-.49a.46.46,0,0,0,.21-.51,19.95,19.95,0,0,1,0-11.05.46.46,0,0,0-.21-.51l-.89-.49A.28.28,0,0,0,127.6,375.25Z" transform="translate(-84.5 -173.67)"/><path class="a" d="M169,388a21.47,21.47,0,0,0,0-12.71.28.28,0,0,0-.41-.17l-.89.49a.46.46,0,0,0-.21.51,19.94,19.94,0,0,1,0,11.05.46.46,0,0,0,.21.51l.89.49A.28.28,0,0,0,169,388Z" transform="translate(-84.5 -173.67)"/><path class="a" d="M129.36,371.87l1,.28a.46.46,0,0,0,.5-.21,20.11,20.11,0,0,1,7.81-7.81.46.46,0,0,0,.21-.51l-.28-1a.28.28,0,0,0-.41-.17,21.79,21.79,0,0,0-9,9A.28.28,0,0,0,129.36,371.87Z" transform="translate(-84.5 -173.67)"/><path class="a" d="M129.19,391.75a21.8,21.8,0,0,0,9,9,.28.28,0,0,0,.41-.17l.28-1a.46.46,0,0,0-.21-.51,20.11,20.11,0,0,1-7.81-7.81.46.46,0,0,0-.51-.21l-1,.28A.28.28,0,0,0,129.19,391.75Z" transform="translate(-84.5 -173.67)"/><path class="a" d="M154.83,401.89l-.49-.89a.46.46,0,0,0-.51-.21,20,20,0,0,1-11.05,0,.46.46,0,0,0-.51.21l-.49.89a.28.28,0,0,0,.16.41,21.45,21.45,0,0,0,12.71,0A.28.28,0,0,0,154.83,401.89Z" transform="translate(-84.5 -173.67)"/><path class="a" d="M167.26,391.34l-1-.28a.46.46,0,0,0-.51.21,20.12,20.12,0,0,1-7.81,7.81.46.46,0,0,0-.21.51l.28,1a.28.28,0,0,0,.41.17,21.8,21.8,0,0,0,9-9A.28.28,0,0,0,167.26,391.34Z" transform="translate(-84.5 -173.67)"/><path class="a" d="M167.43,371.46a21.79,21.79,0,0,0-9-9,.28.28,0,0,0-.41.17l-.28,1a.46.46,0,0,0,.21.51,20.1,20.1,0,0,1,7.81,7.81.46.46,0,0,0,.51.21l1-.28A.28.28,0,0,0,167.43,371.46Z" transform="translate(-84.5 -173.67)"/><path class="a" d="M141.79,361.31l.49.89a.46.46,0,0,0,.51.21,20,20,0,0,1,11.05,0,.46.46,0,0,0,.51-.21l.49-.89a.28.28,0,0,0-.17-.41,21.47,21.47,0,0,0-12.71,0A.28.28,0,0,0,141.79,361.31Z" transform="translate(-84.5 -173.67)"/><path class="a" d="M134.36,374.44l-10.79-3.13c-.19-.05-.2,0,0,.07l9.84,5.42a.28.28,0,0,0,.42-.16,15.32,15.32,0,0,1,.75-1.78A.28.28,0,0,0,134.36,374.44Z" transform="translate(-84.5 -173.67)"/><path class="a" d="M133.38,386.4l-9.84,5.41c-.17.09-.16.13,0,.07l10.79-3.13a.28.28,0,0,0,.18-.41,15.26,15.26,0,0,1-.75-1.78A.28.28,0,0,0,133.38,386.4Z" transform="translate(-84.5 -173.67)"/><path class="a" d="M141.15,395.55,138,406.34c-.05.19,0,.2.07,0l5.42-9.84a.28.28,0,0,0-.16-.42,15.06,15.06,0,0,1-1.78-.75A.28.28,0,0,0,141.15,395.55Z" transform="translate(-84.5 -173.67)"/><path class="a" d="M155.06,395.37a15.14,15.14,0,0,1-1.78.75.28.28,0,0,0-.16.42l5.42,9.84c.09.17.13.16.07,0l-3.13-10.79A.28.28,0,0,0,155.06,395.37Z" transform="translate(-84.5 -173.67)"/><path class="a" d="M162.25,388.76,173,391.89c.19.05.2,0,0-.07l-9.84-5.41a.28.28,0,0,0-.42.16,15.25,15.25,0,0,1-.75,1.78A.28.28,0,0,0,162.25,388.76Z" transform="translate(-84.5 -173.67)"/><path class="a" d="M163.24,376.8l9.84-5.42c.17-.09.16-.12,0-.07l-10.79,3.13a.28.28,0,0,0-.18.41,15.32,15.32,0,0,1,.75,1.78A.28.28,0,0,0,163.24,376.8Z" transform="translate(-84.5 -173.67)"/><path class="a" d="M153.28,367.09a15,15,0,0,1,1.78.75.28.28,0,0,0,.41-.18l3.13-10.79c.05-.19,0-.2-.07,0l-5.42,9.83A.28.28,0,0,0,153.28,367.09Z" transform="translate(-84.5 -173.67)"/><path class="a" d="M141.56,367.83a15.2,15.2,0,0,1,1.78-.75.28.28,0,0,0,.16-.42l-5.41-9.83c-.09-.17-.13-.16-.07,0l3.13,10.79A.28.28,0,0,0,141.56,367.83Z" transform="translate(-84.5 -173.67)"/><path class="a" d="M153.77,382.28h-4.4a.35.35,0,0,0-.35.35v2.25a.37.37,0,0,0,.35.37,17.15,17.15,0,0,1,3.74.64.36.36,0,0,0,.44-.23,14.14,14.14,0,0,0,.55-3A.33.33,0,0,0,153.77,382.28Z" transform="translate(-84.5 -173.67)"/><path class="a" d="M153.11,377.28a17.33,17.33,0,0,1-3.74.64.38.38,0,0,0-.35.37v2.24a.35.35,0,0,0,.35.35h4.4a.33.33,0,0,0,.33-.35,14.1,14.1,0,0,0-.55-3A.36.36,0,0,0,153.11,377.28Z" transform="translate(-84.5 -173.67)"/><path class="a" d="M142.84,380.88h4.42a.35.35,0,0,0,.35-.35v-2.24a.37.37,0,0,0-.35-.37,17.19,17.19,0,0,1-3.77-.63.36.36,0,0,0-.44.24,14.13,14.13,0,0,0-.54,3A.33.33,0,0,0,142.84,380.88Z" transform="translate(-84.5 -173.67)"/><path class="a" d="M144.47,371.74a10.63,10.63,0,0,0-3.75,2.49.26.26,0,0,0,.06.43q.59.33,1.23.62a.36.36,0,0,0,.47-.18,13.58,13.58,0,0,1,2.08-3.21C144.69,371.73,144.65,371.67,144.47,371.74Z" transform="translate(-84.5 -173.67)"/><path class="a" d="M141.51,376.59a14.71,14.71,0,0,1-1.62-.82.37.37,0,0,0-.5.11,10.34,10.34,0,0,0-1.63,4.65.32.32,0,0,0,.32.35h2.64a.38.38,0,0,0,.37-.35,15.53,15.53,0,0,1,.63-3.47A.4.4,0,0,0,141.51,376.59Z" transform="translate(-84.5 -173.67)"/><path class="a" d="M147.62,391.78V387a.33.33,0,0,0-.35-.33,15.82,15.82,0,0,0-3.26.54.29.29,0,0,0-.19.42,11.44,11.44,0,0,0,3.52,4.32C147.48,392,147.62,392,147.62,391.78Z" transform="translate(-84.5 -173.67)"/><path class="a" d="M152.07,391.49A10.61,10.61,0,0,0,155.9,389a.27.27,0,0,0-.06-.43,13.82,13.82,0,0,0-1.25-.63.36.36,0,0,0-.47.18,13.5,13.5,0,0,1-2.14,3.26C151.85,391.5,151.89,391.56,152.07,391.49Z" transform="translate(-84.5 -173.67)"/><path class="a" d="M158.53,382.28h-2.66a.38.38,0,0,0-.37.35,15.51,15.51,0,0,1-.63,3.5.4.4,0,0,0,.22.47,15,15,0,0,1,1.64.84.37.37,0,0,0,.5-.11,10.33,10.33,0,0,0,1.64-4.7A.32.32,0,0,0,158.53,382.28Z" transform="translate(-84.5 -173.67)"/><path class="a" d="M149,371.4c0,1,0,3.79,0,4.78a.33.33,0,0,0,.35.33,15.8,15.8,0,0,0,3.23-.55.29.29,0,0,0,.19-.42,11.46,11.46,0,0,0-3.48-4.29C149.15,371.13,149,371.2,149,371.4Z" transform="translate(-84.5 -173.67)"/><path class="a" d="M143.49,385.87a17.19,17.19,0,0,1,3.77-.63.37.37,0,0,0,.35-.37v-2.25a.35.35,0,0,0-.35-.35h-4.42a.33.33,0,0,0-.33.35,14.14,14.14,0,0,0,.54,3A.36.36,0,0,0,143.49,385.87Z" transform="translate(-84.5 -173.67)"/><path class="a" d="M140.7,389a10.63,10.63,0,0,0,3.82,2.53c.18.07.22,0,.09-.14a13.57,13.57,0,0,1-2.14-3.26.36.36,0,0,0-.47-.18,13.6,13.6,0,0,0-1.25.63A.27.27,0,0,0,140.7,389Z" transform="translate(-84.5 -173.67)"/><path class="a" d="M149,387v4.78c0,.19.13.26.29.15a11.45,11.45,0,0,0,3.49-4.29.29.29,0,0,0-.19-.42,15.84,15.84,0,0,0-3.23-.55A.33.33,0,0,0,149,387Z" transform="translate(-84.5 -173.67)"/><path class="a" d="M155.87,380.88h2.65a.31.31,0,0,0,.32-.35,10.53,10.53,0,0,0-1.66-4.68.37.37,0,0,0-.5-.11,14.94,14.94,0,0,1-1.61.82.4.4,0,0,0-.22.47,15.46,15.46,0,0,1,.63,3.49A.38.38,0,0,0,155.87,380.88Z" transform="translate(-84.5 -173.67)"/><path class="a" d="M155.86,374.2a10.64,10.64,0,0,0-3.73-2.46c-.18-.07-.22,0-.09.14a13.57,13.57,0,0,1,2.07,3.19.36.36,0,0,0,.47.18q.63-.28,1.22-.62A.26.26,0,0,0,155.86,374.2Z" transform="translate(-84.5 -173.67)"/><path class="a" d="M144,376a15.88,15.88,0,0,0,3.27.54.33.33,0,0,0,.35-.33V371.4a1.87,1.87,0,0,0,0-.35l-.3.2a11.46,11.46,0,0,0-3.49,4.31A.29.29,0,0,0,144,376Z" transform="translate(-84.5 -173.67)"/><path class="a" d="M140.73,382.28h-2.64a.32.32,0,0,0-.32.35,10.52,10.52,0,0,0,1.62,4.66.37.37,0,0,0,.5.11,14.69,14.69,0,0,1,1.63-.83.4.4,0,0,0,.22-.47,15.53,15.53,0,0,1-.63-3.48A.38.38,0,0,0,140.73,382.28Z" transform="translate(-84.5 -173.67)"/><path class="a" d="M161.49,381.6a13.18,13.18,0,1,0-13.18,13.18A13.2,13.2,0,0,0,161.49,381.6Zm-11,11.82a11.25,11.25,0,0,1-1.17.16l-.3,0-.71,0-.69,0-.33,0a11.32,11.32,0,0,1-1.17-.16,12,12,0,0,1-6.85-3.91,11.8,11.8,0,0,1-.86-1.11,11.94,11.94,0,0,1-2.09-6.12c0-.22,0-.44,0-.66s0-.5,0-.74a12.07,12.07,0,0,1,2.11-6.1,12.2,12.2,0,0,1,.86-1.11,12,12,0,0,1,6.93-3.91q.49-.09,1-.13l.41,0,.7,0,.7,0,.38,0c.34,0,.67.07,1,.13a12,12,0,0,1,9.9,11.12c0,.23,0,.47,0,.7s0,.47,0,.7a12,12,0,0,1-3,7.26A12,12,0,0,1,150.49,393.42Z" transform="translate(-84.5 -173.67)"/><path class="a" d="M148.31,345.5a36.1,36.1,0,1,0,36.1,36.1A36.14,36.14,0,0,0,148.31,345.5Zm0,71.15a35.05,35.05,0,1,1,35.05-35.05A35.09,35.09,0,0,1,148.31,416.65Z" transform="translate(-84.5 -173.67)"/><path class="a" d="M207.71,401l-.2-.29-3.62-5.55a.72.72,0,0,0-.54-.3H202.1a.35.35,0,0,0-.35.35v7.56a.35.35,0,0,0,.35.35h.77a.35.35,0,0,0,.35-.35v-5.63a2.65,2.65,0,0,1,0-.35l.2.29,3.7,5.75a.72.72,0,0,0,.54.3h1.16a.35.35,0,0,0,.35-.35v-7.56a.35.35,0,0,0-.35-.35h-.77a.35.35,0,0,0-.35.35v5.44A2.66,2.66,0,0,1,207.71,401Z" transform="translate(-84.5 -173.67)"/><path class="a" d="M229.42,399.59h3.09a.35.35,0,0,0,.35-.35v-.63a.35.35,0,0,0-.35-.35h-3.09a.35.35,0,0,1-.35-.35v-1.33a.35.35,0,0,1,.35-.35h3.3a.35.35,0,0,0,.35-.35v-.63a.35.35,0,0,0-.35-.35H228a.35.35,0,0,0-.35.35v7.56a.35.35,0,0,0,.35.35h5a.35.35,0,0,0,.35-.35v-.63a.35.35,0,0,0-.35-.35h-3.51a.35.35,0,0,1-.35-.35v-1.54A.35.35,0,0,1,229.42,399.59Z" transform="translate(-84.5 -173.67)"/><path class="a" d="M258.69,400.85a2.89,2.89,0,0,1-.11-.34L257,395.23a.5.5,0,0,0-.45-.34h-.74a.51.51,0,0,0-.46.34l-1.65,5.28a3,3,0,0,1-.12.34,2.9,2.9,0,0,1-.1-.34l-1.37-5.27a.48.48,0,0,0-.44-.34h-.91a.25.25,0,0,0-.25.34l2.24,7.59a.5.5,0,0,0,.45.34h.65a.5.5,0,0,0,.45-.34L256,397.2a2.85,2.85,0,0,1,.11-.34,2.84,2.84,0,0,1,.11.34l1.71,5.62a.5.5,0,0,0,.45.34h.7a.5.5,0,0,0,.45-.34l2.21-7.59a.25.25,0,0,0-.25-.34h-.79a.49.49,0,0,0-.44.34l-1.44,5.27A2.81,2.81,0,0,1,258.69,400.85Z" transform="translate(-84.5 -173.67)"/><path class="a" d="M300.82,402a1,1,0,0,1-.88-.56.41.41,0,0,0-.45-.25l-.69.17a.34.34,0,0,0-.26.42,2.2,2.2,0,0,0,2.34,1.56,2.36,2.36,0,0,0,2.49-2.5v-5.62a.35.35,0,0,0-.35-.35h-.77a.35.35,0,0,0-.35.35v5.19C301.9,401.43,301.66,402,300.82,402Z" transform="translate(-84.5 -173.67)"/><path class="a" d="M323.54,399.59h3.09a.35.35,0,0,0,.35-.35v-.63a.35.35,0,0,0-.35-.35h-3.09a.35.35,0,0,1-.35-.35v-1.33a.35.35,0,0,1,.35-.35h3.3a.35.35,0,0,0,.35-.35v-.63a.35.35,0,0,0-.35-.35h-4.77a.35.35,0,0,0-.35.35v7.56a.35.35,0,0,0,.35.35h5a.35.35,0,0,0,.35-.35v-.63a.35.35,0,0,0-.35-.35h-3.51a.35.35,0,0,1-.35-.35v-1.54A.35.35,0,0,1,323.54,399.59Z" transform="translate(-84.5 -173.67)"/><path class="a" d="M348.29,394.89h-2.52a.35.35,0,0,0-.35.35v7.56a.35.35,0,0,0,.35.35h.77a.35.35,0,0,0,.35-.35V400a.35.35,0,0,1,.35-.35h.37a.65.65,0,0,1,.52.31l1.58,2.88a.65.65,0,0,0,.52.31h1.07c.19,0,.27-.13.17-.3l-1.83-3.05a.24.24,0,0,1,.16-.37,2.1,2.1,0,0,0,1.57-2.17C351.37,395.41,349.87,394.89,348.29,394.89Zm-1.4,3.15v-1.54a.35.35,0,0,1,.35-.35h.92c.76,0,1.67.12,1.67,1.1s-1,1.14-1.8,1.14h-.79A.35.35,0,0,1,346.89,398Z" transform="translate(-84.5 -173.67)"/><path class="a" d="M371.93,396a1.89,1.89,0,0,1,1.21.4.34.34,0,0,0,.48,0l.59-.62a.32.32,0,0,0,0-.48,3.52,3.52,0,0,0-2.1-.63c-1.53,0-3,.79-3,2.5,0,3,3.92,1.91,3.92,3.72,0,.76-.77,1.13-1.45,1.13a2,2,0,0,1-1.41-.59.32.32,0,0,0-.47,0l-.6.59a.35.35,0,0,0,0,.5,3.54,3.54,0,0,0,2.47.87c1.62,0,3-.86,3-2.64,0-2.94-3.92-2-3.92-3.65C370.58,396.32,371.26,396,371.93,396Z" transform="translate(-84.5 -173.67)"/><path class="a" d="M394.42,399.59h3.09a.35.35,0,0,0,.35-.35v-.63a.35.35,0,0,0-.35-.35h-3.09a.35.35,0,0,1-.35-.35v-1.33a.35.35,0,0,1,.35-.35h3.3a.35.35,0,0,0,.35-.35v-.63a.35.35,0,0,0-.35-.35h-4.77a.35.35,0,0,0-.35.35v7.56a.35.35,0,0,0,.35.35h5a.35.35,0,0,0,.35-.35v-.63a.35.35,0,0,0-.35-.35h-3.51a.35.35,0,0,1-.35-.35v-1.54A.35.35,0,0,1,394.42,399.59Z" transform="translate(-84.5 -173.67)"/><path class="a" d="M418.89,397.89l-1.66-2.69a.7.7,0,0,0-.54-.3h-1.14c-.19,0-.27.13-.16.29l2.72,4.14a1.38,1.38,0,0,1,.19.64v2.83a.35.35,0,0,0,.35.35h.77a.35.35,0,0,0,.35-.35V400a1.38,1.38,0,0,1,.19-.64l2.72-4.14c.11-.16,0-.29-.16-.29h-1a.71.71,0,0,0-.54.3l-1.68,2.69A.2.2,0,0,1,418.89,397.89Z" transform="translate(-84.5 -173.67)"/><circle class="a" cx="377.72" cy="225.36" r="2.07"/><path class="a" d="M502.15,396.22H504a.35.35,0,0,1,.35.35v6.23a.35.35,0,0,0,.35.35h.77a.35.35,0,0,0,.35-.35v-6.23a.35.35,0,0,1,.35-.35H508a.35.35,0,0,0,.35-.35v-.63a.35.35,0,0,0-.35-.35h-5.83a.35.35,0,0,0-.35.35v.63A.35.35,0,0,0,502.15,396.22Z" transform="translate(-84.5 -173.67)"/><path class="a" d="M529.19,402a1.76,1.76,0,0,1-1.86-1.89v-4.83a.35.35,0,0,0-.35-.35h-.77a.35.35,0,0,0-.35.35v4.88a3.33,3.33,0,0,0,6.65,0v-4.88a.35.35,0,0,0-.35-.35h-.77a.35.35,0,0,0-.35.35v4.83A1.76,1.76,0,0,1,529.19,402Z" transform="translate(-84.5 -173.67)"/><path class="a" d="M552,394.89h-.77a.35.35,0,0,0-.35.35v7.56a.35.35,0,0,0,.35.35h4.28a.35.35,0,0,0,.35-.35v-.63a.35.35,0,0,0-.35-.35h-2.81a.35.35,0,0,1-.35-.35v-6.23A.35.35,0,0,0,552,394.89Z" transform="translate(-84.5 -173.67)"/><path class="a" d="M576.11,396a1.89,1.89,0,0,1,1.21.4.34.34,0,0,0,.48,0l.59-.62a.32.32,0,0,0,0-.48,3.52,3.52,0,0,0-2.1-.63c-1.53,0-3,.79-3,2.5,0,3,3.92,1.91,3.92,3.72,0,.76-.77,1.13-1.45,1.13a2,2,0,0,1-1.41-.59.32.32,0,0,0-.47,0l-.6.59a.35.35,0,0,0,0,.5,3.54,3.54,0,0,0,2.47.87c1.62,0,3-.86,3-2.64,0-2.94-3.92-2-3.92-3.65C574.76,396.32,575.44,396,576.11,396Z" transform="translate(-84.5 -173.67)"/><path class="a" d="M599.3,395.22,596,402.84a.21.21,0,0,0,.21.32h.94a.56.56,0,0,0,.48-.33l.49-1.24a.56.56,0,0,1,.48-.33h2.88a.56.56,0,0,1,.48.33l.5,1.24a.56.56,0,0,0,.48.33h1a.21.21,0,0,0,.21-.32l-3.28-7.62a.58.58,0,0,0-.49-.32h-.57A.58.58,0,0,0,599.3,395.22Zm-.43,4.46,1-2.71c.07-.18.18-.18.25,0l1,2.7a.23.23,0,0,1-.23.33h-1.87A.22.22,0,0,1,598.87,399.68Z" transform="translate(-84.5 -173.67)"/><circle class="a" cx="559.28" cy="225.36" r="2.07"/><path class="a" d="M688.73,399.66h1a.35.35,0,0,1,.35.35v1.25a.58.58,0,0,1-.32.5,4.36,4.36,0,0,1-1.62.28,2.84,2.84,0,0,1-2.84-3.07,2.8,2.8,0,0,1,2.84-3,3.26,3.26,0,0,1,1.89.58.4.4,0,0,0,.52,0l.59-.6a.31.31,0,0,0,0-.47,4.93,4.93,0,0,0-3-.82,4.34,4.34,0,1,0,0,8.68,7.26,7.26,0,0,0,3.11-.66.61.61,0,0,0,.31-.51v-3.52a.35.35,0,0,0-.35-.35h-2.46a.35.35,0,0,0-.35.35v.63A.35.35,0,0,0,688.73,399.66Z" transform="translate(-84.5 -173.67)"/><path class="a" d="M713.76,394.68a4.34,4.34,0,1,0,0,8.68,4.21,4.21,0,0,0,4.4-4.35A4.1,4.1,0,0,0,713.76,394.68Zm0,7.35a2.84,2.84,0,0,1-2.83-3.07,2.84,2.84,0,1,1,5.68,0A2.84,2.84,0,0,1,713.77,402Z" transform="translate(-84.5 -173.67)"/><path class="a" d="M735.63,396.22h1.83a.35.35,0,0,1,.35.35v6.23a.35.35,0,0,0,.35.35h.77a.35.35,0,0,0,.35-.35v-6.23a.35.35,0,0,1,.35-.35h1.83a.35.35,0,0,0,.35-.35v-.63a.35.35,0,0,0-.35-.35h-5.83a.35.35,0,0,0-.35.35v.63A.35.35,0,0,0,735.63,396.22Z" transform="translate(-84.5 -173.67)"/><path class="a" d="M764.37,398.18h-3.16a.35.35,0,0,1-.35-.35v-2.59a.35.35,0,0,0-.35-.35h-.77a.35.35,0,0,0-.35.35v7.56a.35.35,0,0,0,.35.35h.77a.35.35,0,0,0,.35-.35v-2.94a.35.35,0,0,1,.35-.35h3.16a.35.35,0,0,1,.35.35v2.94a.35.35,0,0,0,.35.35h.77a.35.35,0,0,0,.35-.35v-7.56a.35.35,0,0,0-.35-.35h-.77a.35.35,0,0,0-.35.35v2.59A.35.35,0,0,1,764.37,398.18Z" transform="translate(-84.5 -173.67)"/><path class="a" d="M786.42,399.59h3.09a.35.35,0,0,0,.35-.35v-.63a.35.35,0,0,0-.35-.35h-3.09a.35.35,0,0,1-.35-.35v-1.33a.35.35,0,0,1,.35-.35h3.3a.35.35,0,0,0,.35-.35v-.63a.35.35,0,0,0-.35-.35h-4.77a.35.35,0,0,0-.35.35v7.56a.35.35,0,0,0,.35.35h5a.35.35,0,0,0,.35-.35v-.63a.35.35,0,0,0-.35-.35h-3.51a.35.35,0,0,1-.35-.35v-1.54A.35.35,0,0,1,786.42,399.59Z" transform="translate(-84.5 -173.67)"/><path class="a" d="M814.25,401l-.2-.29-3.62-5.55a.73.73,0,0,0-.54-.29h-1.25a.35.35,0,0,0-.35.35v7.56a.35.35,0,0,0,.35.35h.77a.35.35,0,0,0,.35-.35v-5.63a2.55,2.55,0,0,1,0-.35l.2.29,3.7,5.75a.72.72,0,0,0,.54.3h1.16a.35.35,0,0,0,.35-.35v-7.56a.35.35,0,0,0-.35-.35h-.77a.35.35,0,0,0-.35.35v5.44A2.56,2.56,0,0,1,814.25,401Z" transform="translate(-84.5 -173.67)"/><path class="a" d="M838.46,398.79l.33-.13A1.78,1.78,0,0,0,839.9,397c0-1.5-1.28-2.08-2.53-2.08h-2.87a.35.35,0,0,0-.35.35v7.56a.35.35,0,0,0,.35.35h2.63c1.56,0,3.13-.56,3.13-2.36a2,2,0,0,0-1.44-1.93Zm-2.5-2.64h.86c1.11,0,1.6.35,1.6,1.06s-.49,1-1.47,1h-1a.35.35,0,0,1-.35-.35v-1.4A.35.35,0,0,1,836,396.16Zm0,5.74a.35.35,0,0,1-.35-.35v-1.68a.35.35,0,0,1,.35-.35H837c1.19,0,1.75.3,1.75,1.17,0,1.08-1.05,1.21-1.81,1.21Z" transform="translate(-84.5 -173.67)"/><path class="a" d="M861.56,402a1.76,1.76,0,0,1-1.86-1.89v-4.83a.35.35,0,0,0-.35-.35h-.77a.35.35,0,0,0-.35.35v4.88a3.33,3.33,0,0,0,6.65,0v-4.88a.35.35,0,0,0-.35-.35h-.77a.35.35,0,0,0-.35.35v4.83A1.76,1.76,0,0,1,861.56,402Z" transform="translate(-84.5 -173.67)"/><path class="a" d="M886.13,394.89h-2.52a.35.35,0,0,0-.35.35v7.56a.35.35,0,0,0,.35.35h.77a.35.35,0,0,0,.35-.35V400a.35.35,0,0,1,.35-.35h.37a.65.65,0,0,1,.52.31l1.58,2.88a.65.65,0,0,0,.52.31h1.07c.19,0,.27-.13.17-.3l-1.83-3.05a.24.24,0,0,1,.16-.37,2.1,2.1,0,0,0,1.57-2.17C889.21,395.41,887.71,394.89,886.13,394.89Zm-1.4,3.15v-1.54a.35.35,0,0,1,.35-.35H886c.76,0,1.67.12,1.67,1.1s-1,1.14-1.8,1.14h-.79A.35.35,0,0,1,884.73,398Z" transform="translate(-84.5 -173.67)"/><path class="a" d="M911.7,399.66h1a.35.35,0,0,1,.35.35v1.25a.59.59,0,0,1-.32.5,4.35,4.35,0,0,1-1.62.28,2.84,2.84,0,0,1-2.84-3.07,2.8,2.8,0,0,1,2.84-3,3.26,3.26,0,0,1,1.89.58.4.4,0,0,0,.51,0l.59-.6a.31.31,0,0,0,0-.47,4.93,4.93,0,0,0-3-.82,4.34,4.34,0,1,0,0,8.68,7.26,7.26,0,0,0,3.11-.66.61.61,0,0,0,.31-.51v-3.52a.35.35,0,0,0-.35-.35H911.7a.35.35,0,0,0-.35.35v.63A.35.35,0,0,0,911.7,399.66Z" transform="translate(-84.5 -173.67)"/><path class="a" d="M510.07,311l-.13.05a1,1,0,0,1-.25.06h-.2l-.16,0a2.36,2.36,0,0,1-.51,0l-.94-.1h-.23a.7.7,0,0,0-.24.09,1.85,1.85,0,0,0-.43.36.7.7,0,0,0-.13.28l-.05.23a.69.69,0,0,0,.1.55l.22.32a.69.69,0,0,0,.24.21,2.28,2.28,0,0,0,.45.16,2.25,2.25,0,0,1,.41.2l.26.17.17.08a2.7,2.7,0,0,1,.38.27.71.71,0,0,0,.28.12l.14,0,.25.06.11,0a.73.73,0,0,0,.22,0,.7.7,0,0,0,.61-.36c.08-.14.19-.36.25-.51a.71.71,0,0,0,.05-.29.68.68,0,0,0,0-.19,1.7,1.7,0,0,0-.09-.21v0l0-.06a.11.11,0,0,1,0-.1l0,0a.69.69,0,0,0,.17-.42l0-.35a.7.7,0,0,0-.29-.61.69.69,0,0,0-.67-.08Z" transform="translate(-84.5 -173.67)"/></svg>