<svg xmlns="http://www.w3.org/2000/svg" viewBox="0 0 170.18 196.47"><defs><style>.a{fill:#92683c;}</style></defs><title>footer-skull</title><path class="a" d="M94.95,117.16a1,1,0,0,0,.45-.11,18.87,18.87,0,0,1,3.08-1.24,11.24,11.24,0,0,0-3.66-.66l-.33.16a1,1,0,0,0,.46,1.84Z" transform="translate(-2.58 0.08)"/><path class="a" d="M81.3,115.16a11.24,11.24,0,0,0-3.66.66,18.83,18.83,0,0,1,3.08,1.24,1,1,0,1,0,.91-1.73Z" transform="translate(-2.58 0.08)"/><path class="a" d="M83.17,138.17a1,1,0,0,0,.82,1.78s.16-.07.43-.17a3.05,3.05,0,0,1-.08-2A9.3,9.3,0,0,0,83.17,138.17Z" transform="translate(-2.58 0.08)"/><path class="a" d="M92,140a1,1,0,1,0,.75-1.8,12,12,0,0,0-1.14-.41,3,3,0,0,1-.08,2Z" transform="translate(-2.58 0.08)"/><path class="a" d="M92.09,143.61c.53.11,1.07.25,1.61.41a1,1,0,0,0,.57-1.87,20.44,20.44,0,0,0-3-.67A3.42,3.42,0,0,1,92.09,143.61Z" transform="translate(-2.58 0.08)"/><path class="a" d="M81.06,143.4a1,1,0,0,0,1.24.61,14.77,14.77,0,0,1,1.58-.39,3.42,3.42,0,0,1,.78-2.13,18.15,18.15,0,0,0-3,.67A1,1,0,0,0,81.06,143.4Z" transform="translate(-2.58 0.08)"/><path class="a" d="M72.82,164.29c.78,1.07,2.69.85,3.56.23a2.46,2.46,0,0,0-2.81-3.89,1.85,1.85,0,0,0-.33.31l-10.88-3.75v2.07l10.14,3.5A2.2,2.2,0,0,0,72.82,164.29Z" transform="translate(-2.58 0.08)"/><path class="a" d="M24,146.32a2.48,2.48,0,0,0,.25-.21l15.2,5.25,1.33-1.61-15.69-5.42a1.79,1.79,0,0,0-.35-1.08,3,3,0,0,0-3.55-.81A2.2,2.2,0,0,0,21,145.5,2.2,2.2,0,0,0,24,146.32Z" transform="translate(-2.58 0.08)"/><path class="a" d="M49.06,152.6c-.32.53-.67,1.1-1.05,1.71l11.81,4.07v-2.07Z" transform="translate(-2.58 0.08)"/><path class="a" d="M20.53,151.19a2.56,2.56,0,0,0,.55-.33l13.33,6.59,1.28-1.55-13.63-6.74a1.78,1.78,0,0,0-.15-.82,3,3,0,0,0-3.3-1.55,2.46,2.46,0,0,0,1.92,4.4Z" transform="translate(-2.58 0.08)"/><path class="a" d="M42.65,161.53l32.81,16.22a2.86,2.86,0,0,0,.18.59,2.2,2.2,0,0,0,2.73,1.43,2.28,2.28,0,0,0,1.38-2.84,3,3,0,0,0-3.3-1.55,1.6,1.6,0,0,0-.56.41L43.94,160Q43.32,160.75,42.65,161.53Z" transform="translate(-2.58 0.08)"/><path class="a" d="M64.54,115a1,1,0,0,0,.57-.19c2.68-2,4.85-2.29,6.44-2.06a11,11,0,0,1,2.53-1.25,7.72,7.72,0,0,0-1.34-.5c-1.9-.51-5-.54-8.78,2.23a1,1,0,0,0,.58,1.77Z" transform="translate(-2.58 0.08)"/><path class="a" d="M111,114.79a1,1,0,0,0,1.15-1.58c-3.81-2.77-6.88-2.74-8.78-2.23a7.67,7.67,0,0,0-1.35.5,10.94,10.94,0,0,1,2.51,1.25C106.16,112.49,108.34,112.83,111,114.79Z" transform="translate(-2.58 0.08)"/><path class="a" d="M68.86,123.23a6.52,6.52,0,0,0,3,.62c2.9,0,6.82-1.31,11.73-3.91a1,1,0,1,0-.92-1.73c-8.12,4.31-11.52,3.92-12.83,3.3a2,2,0,0,1-1.15-1.24v0l-1.93.3A3.79,3.79,0,0,0,68.86,123.23Z" transform="translate(-2.58 0.08)"/><path class="a" d="M66.6,126.5a4.85,4.85,0,0,0,3,3.34,6.06,6.06,0,0,0,2.11.35c3.19,0,7.45-2,12.72-6.1a1,1,0,1,0-1.19-1.55c-7.78,6-11.44,6-12.93,5.47a2.88,2.88,0,0,1-1.82-1.92,1,1,0,0,0-1.91.4Z" transform="translate(-2.58 0.08)"/><path class="a" d="M72.07,142.87a1,1,0,0,0-1.28,1.48,5.14,5.14,0,0,0,3.14,1.05c1.54,0,3.53-.68,5.69-3.12,2.42-2.74,3-6.08,3.44-9,.38-2.36.72-4.39,1.93-5.31a1,1,0,0,0-1.18-1.56l-.26.22a1,1,0,0,0-.31.17c-8.69,7.09-12.27,7.2-13.4,6.93a1.27,1.27,0,0,1-.92-.62v0l-1.85.62a3.07,3.07,0,0,0,2.13,1.82,4.92,4.92,0,0,0,1.37.18c2.64,0,6.32-1.74,11-5.19-.17.76-.3,1.56-.43,2.37-4.38,5-7.13,5.75-8.39,5.78a2.17,2.17,0,0,1-1.6-.5l0,0-1.49,1.27a3.94,3.94,0,0,0,3,1.17h0c2.26,0,4.86-1.4,7.74-4.16A11,11,0,0,1,78.15,141C74.71,144.86,72.34,143.09,72.07,142.87Z" transform="translate(-2.58 0.08)"/><path class="a" d="M108.44,119.47a1,1,0,0,0-1.12.82,1.92,1.92,0,0,1-1.08,1.19c-1.29.65-4.68,1.08-12.89-3.28a1,1,0,1,0-.92,1.73c4.91,2.6,8.83,3.91,11.73,3.91a6.54,6.54,0,0,0,3-.62,3.78,3.78,0,0,0,2.14-2.64A1,1,0,0,0,108.44,119.47Z" transform="translate(-2.58 0.08)"/><path class="a" d="M108.62,125.34a1,1,0,0,0-1.16.75,2.88,2.88,0,0,1-1.82,1.93c-1.49.53-5.14.52-12.93-5.47a1,1,0,1,0-1.19,1.55c5.27,4.06,9.53,6.1,12.72,6.1a6.06,6.06,0,0,0,2.11-.35,4.85,4.85,0,0,0,3-3.34A1,1,0,0,0,108.62,125.34Z" transform="translate(-2.58 0.08)"/><path class="a" d="M102.05,145.39a5.14,5.14,0,0,0,3.14-1.05,1,1,0,1,0-1.28-1.48c-.26.22-2.64,2-6.08-1.89a11,11,0,0,1-2.27-4.51c2.89,2.76,5.48,4.16,7.74,4.16h0a3.94,3.94,0,0,0,3-1.17l-1.49-1.27,0,0a2.19,2.19,0,0,1-1.6.5c-1.26,0-4-.82-8.39-5.78-.13-.81-.26-1.61-.43-2.37,4.67,3.45,8.36,5.19,11,5.19a5,5,0,0,0,1.37-.18,3.07,3.07,0,0,0,2.13-1.82,1,1,0,0,0-1.85-.62,1.28,1.28,0,0,1-.82.57c-1.12.32-4.66.29-13.49-6.9a1,1,0,0,0-.31-.17l-.26-.22A1,1,0,1,0,91,127.92c1.21.92,1.54,3,1.93,5.31.48,3,1,6.3,3.45,9C98.53,144.72,100.51,145.39,102.05,145.39Z" transform="translate(-2.58 0.08)"/><path class="a" d="M89,116.88l-.22,0a4,4,0,0,0-.7-.06,3.83,3.83,0,0,0-.91.1h0l-.09,0v0c-.86.24-1.29.81-1.06,1.47a25.6,25.6,0,0,1,.18,15.1c-.25.89.58,1.61,1.91,1.61s2.16-.72,1.91-1.61a25.6,25.6,0,0,1,.18-15.1C90.44,117.69,90,117.11,89,116.88Z" transform="translate(-2.58 0.08)"/><ellipse class="a" cx="85.41" cy="105.05" rx="1.83" ry="1.47"/><ellipse class="a" cx="85.54" cy="109.35" rx="1.83" ry="1.47"/><path class="a" d="M77.93,94.15a3.74,3.74,0,0,1-.54-1.61A2.58,2.58,0,0,1,77,92a1.43,1.43,0,0,0-.51-.48l-.28,0c1.48,5.93,6.61,10.12,11.93,10.12S98.51,97.36,100,91.56l-.24,0a1.43,1.43,0,0,0-.52.48,3,3,0,0,1-.49.65,3.72,3.72,0,0,1-.54,1.61c-.27.3-.08-.48-.06-1.06a11.65,11.65,0,0,1-1,.73c.39,1.76-1.91,3.33-2.29,3.58a1.26,1.26,0,0,1-.27.2,1.09,1.09,0,0,1-.53.14,1.2,1.2,0,0,1-.29,0c-.21.56-.49,1-.84,1h0c-.38,0-.67-.38-.95-1.27-.21.72-.53,1.37-1,1.38h0c-.4,0-.71-.42-1-1.37-.21.72-.53,1.36-1,1.37h0c-.4,0-.71-.42-1-1.37-.21.72-.53,1.36-1,1.37h0c-.4,0-.71-.42-1-1.37-.21.72-.53,1.36-1,1.37h0c-.41,0-.72-.43-1-1.43-.2.59-.5,1.11-.92,1.11h0c-.31,0-.56-.24-.8-.77a1.23,1.23,0,0,1-.3,0,1.11,1.11,0,0,1-.53-.14,1.23,1.23,0,0,1-.27-.21c-.44-.33-2.65-2.07-2.27-3.8A8.7,8.7,0,0,1,78,93.1C78,93.68,78.2,94.45,77.93,94.15Z" transform="translate(-2.58 0.08)"/><path class="a" d="M81.54,96l-.47-.12c.16,1,.46,1.28.66,1.39a.54.54,0,0,0,.35.06q-.11-.35-.22-.81c0-.15-.07-.3-.11-.47h0Z" transform="translate(-2.58 0.08)"/><path class="a" d="M82.45,95.36l1.19.23a4.88,4.88,0,0,0-.59-2A5.06,5.06,0,0,0,82.45,95.36Z" transform="translate(-2.58 0.08)"/><path class="a" d="M85,94a4.2,4.2,0,0,0-.62,1.7q.64.09,1.29.16C85.33,94.37,85.07,94.07,85,94Z" transform="translate(-2.58 0.08)"/><path class="a" d="M86.92,93.86a5.3,5.3,0,0,0-.56,2.07c.43,0,.85.05,1.28.06A5.53,5.53,0,0,0,86.92,93.86Z" transform="translate(-2.58 0.08)"/><path class="a" d="M88.94,93.71a5.87,5.87,0,0,0-.6,2.29q.67,0,1.34,0A5.94,5.94,0,0,0,88.94,93.71Z" transform="translate(-2.58 0.08)"/><path class="a" d="M91,94.07a4.72,4.72,0,0,0-.65,1.86l1.28-.12C91.33,94.43,91.09,94.13,91,94.07Z" transform="translate(-2.58 0.08)"/><path class="a" d="M92.35,95.71l1.25-.21A4.87,4.87,0,0,0,93,93.59,6.24,6.24,0,0,0,92.35,95.71Z" transform="translate(-2.58 0.08)"/><path class="a" d="M91,98.35a4.31,4.31,0,0,0,.63-1.75c-.42,0-.83.09-1.25.12C90.7,98,90.94,98.29,91,98.35Z" transform="translate(-2.58 0.08)"/><path class="a" d="M89,98.35a3.94,3.94,0,0,0,.6-1.59l-1.2,0C88.72,98,88.95,98.29,89,98.35Z" transform="translate(-2.58 0.08)"/><path class="a" d="M87,98.35a3.91,3.91,0,0,0,.59-1.58l-1.21-.06C86.71,98,86.95,98.29,87,98.35Z" transform="translate(-2.58 0.08)"/><path class="a" d="M85,98.35a4.21,4.21,0,0,0,.62-1.7q-.65-.06-1.29-.15C84.69,98,84.95,98.29,85,98.35Z" transform="translate(-2.58 0.08)"/><path class="a" d="M75.45,89.21A4.73,4.73,0,0,1,77,90.56h0a6.75,6.75,0,0,0,3.42,2.07,4.63,4.63,0,0,0,.67.09v0h.09c.35,0,.66.26,1,1.49.23-.69.53-1.19.91-1.19s.68.31,1,1.63c.21-.66.52-1.23.95-1.24s.71.4,1,1.35c.25-1.08.52-1.51.92-1.52h0c.35,0,.67.31,1,1.58.26-1.23.55-1.73,1-1.74s.7.32,1.09,1.76c.22-.73.53-1.37,1-1.38h0c.38,0,.67.38.95,1.24.23-.94.57-1.73,1.05-1.73.32,0,.61.24.89,1.23.35-1.22.66-1.5,1-1.49h0a5.43,5.43,0,0,0,1-.17,8.62,8.62,0,0,0,3.41-1.94h0a4.7,4.7,0,0,1,1.51-1.35c.57-.27.61-1,.47-1.75a9.37,9.37,0,0,0-.75-2.11l-.19-.14s0,0,0-.05a7,7,0,0,1-1-.58,10.44,10.44,0,0,1-3.53-4.43.59.59,0,0,1,.28-.78c.29-.14.25,0,.39.28A6.74,6.74,0,0,0,98,82a7.72,7.72,0,0,1-.22-1.26c-.14-1.32.46.2.46.2a8.76,8.76,0,0,0,1.17,1.91c-1-7.05-5.25-11.26-11.28-11.26S77.84,75.84,76.86,83a8.43,8.43,0,0,0,1.25-2s.59-1.52.46-.2a7.87,7.87,0,0,1-.2,1.18,7,7,0,0,0,1.47-2.23c.14-.29.1-.42.39-.28a.59.59,0,0,1,.28.78A10.44,10.44,0,0,1,77,84.63c-.17.11-.33.21-.5.31a2.2,2.2,0,0,0-.74.42A9.33,9.33,0,0,0,75,87.46C74.84,88.21,74.88,88.94,75.45,89.21ZM93.3,84.66a2.32,2.32,0,0,1,2.34,2.54,2.4,2.4,0,1,1-4.69,0A2.32,2.32,0,0,1,93.3,84.66ZM89,89.29c.27,0,.49,1.19.49,1.78s-.22.56-.49.56-.49,0-.49-.56S88.69,89.29,89,89.29Zm-1.63,0c.27,0,.49,1.19.49,1.78s-.22.56-.49.56-.49,0-.49-.56S87.06,89.29,87.33,89.29ZM83,84.66a2.32,2.32,0,0,1,2.34,2.54,2.4,2.4,0,1,1-4.69,0A2.32,2.32,0,0,1,83,84.66Z" transform="translate(-2.58 0.08)"/><path class="a" d="M94,97.31a.55.55,0,0,0,.37-.06c.19-.1.46-.4.63-1.24l-.54.12-.21,0c0,.15-.05.29-.08.44S94.06,97.09,94,97.31Z" transform="translate(-2.58 0.08)"/><path class="a" d="M80.67,94.92l1.1.29a5,5,0,0,0-.62-1.87A4.82,4.82,0,0,0,80.67,94.92Z" transform="translate(-2.58 0.08)"/><path class="a" d="M95.39,95.11a5.31,5.31,0,0,0-.51-1.77,5.44,5.44,0,0,0-.66,2h.06Z" transform="translate(-2.58 0.08)"/><path class="a" d="M93,98.23a4.89,4.89,0,0,0,.66-1.93c-.42.08-.85.15-1.27.21C92.65,97.86,92.89,98.17,93,98.23Z" transform="translate(-2.58 0.08)"/><path class="a" d="M83.08,98a3.74,3.74,0,0,0,.61-1.63q-.66-.11-1.31-.25C82.73,97.7,83,98,83.08,98Z" transform="translate(-2.58 0.08)"/><path class="a" d="M86.38,161.15a3.66,3.66,0,0,1,3.28-.07c5.66,2.75,13.43-5.82,12.24-7.51-1.32-1.87-3.31-8.17-6.39-4.25-2.81,3.57-6.82,3.26-7.51,3.47-.7-.21-4.71.1-7.52-3.47-3.08-3.92-5.07,2.38-6.39,4.25C72.89,155.26,80.91,164,86.38,161.15Zm-8.13-7.36a5.26,5.26,0,0,0,.78.86c.82.74,1.07.63,1.07-.17a1.23,1.23,0,0,1,.79-1.13c1.68-.81,4.21.26,5.75,1.09a3.09,3.09,0,0,0,2.71,0c1.54-.83,4.06-1.9,5.75-1.09a1.23,1.23,0,0,1,.7.82c.15.6.44.73,1,.13a4.62,4.62,0,0,0,.46-.58c.23-.34.39-.29.34.17-.43,4.11-7.76,4.16-9.19,4.13H87.29s-9,.43-9.44-4.13C77.81,153.43,78,153.42,78.24,153.79Z" transform="translate(-2.58 0.08)"/><path class="a" d="M71.6,114.85A1,1,0,0,0,73.12,116a8.78,8.78,0,0,1,3.15-1.75h0l0,0c4-1.27,8.59,0,10.47.69.53.19.85.32.86.33a1.22,1.22,0,0,0,.86,0c.07,0,6.16-2.65,11.3-1l.06,0h0A8.83,8.83,0,0,1,103,116a1,1,0,0,0,1.53-1.16,1,1,0,0,0-.24-.31c-4.87-4.27-11.94-2.66-15-1.65-.52.17-.92.32-1.19.43-.27-.11-.68-.26-1.19-.43-3.1-1-10.16-2.63-15,1.65A1,1,0,0,0,71.6,114.85Z" transform="translate(-2.58 0.08)"/><path class="a" d="M80.72,179.93a1,1,0,0,0-.63.34l0,.07a1,1,0,0,0-.72,1.07l1.2-1,.07,0,0,0a3,3,0,0,1,.59-.35,3,3,0,0,1,1.15-.25,3,3,0,0,1,.94-1.16l-1.21-.19a1,1,0,0,0-1.1,1.21A1,1,0,0,0,80.72,179.93Z" transform="translate(-2.58 0.08)"/><path class="a" d="M94.55,192.45a1,1,0,0,0-.17-1.37l-1.05-.82a2.92,2.92,0,0,1-1.63,1.12l0,.07,1.5,1.18a1,1,0,0,0,1.37-.17Z" transform="translate(-2.58 0.08)"/><path class="a" d="M95.46,194.28l2.95,1.78a1,1,0,0,0,.5.14,1,1,0,0,0,.51-1.82l-3-1.78a1,1,0,0,0-1,1.68Z" transform="translate(-2.58 0.08)"/><path class="a" d="M97.1,191.06a1,1,0,0,0,.62-1.74l-2.52-2-1,1.67,2.33,1.9A1,1,0,0,0,97.1,191.06Z" transform="translate(-2.58 0.08)"/><path class="a" d="M90.46,194.67l1.86,1a1,1,0,0,0,.91-1.73l-1.86-1a1,1,0,0,0-.54-.11l-.07.06-.8.7A1,1,0,0,0,90.46,194.67Z" transform="translate(-2.58 0.08)"/><path class="a" d="M102,194.09a1,1,0,0,0,.45-1.85l-2.25-1.17a1,1,0,0,0-.9,1.74l2.25,1.17A1,1,0,0,0,102,194.09Z" transform="translate(-2.58 0.08)"/><path class="a" d="M99.07,188.53a1,1,0,0,0,1.16-1.58l-1.86-1.37a1,1,0,0,0-1.16,1.58Z" transform="translate(-2.58 0.08)"/><path class="a" d="M126.69,152.76l-10.05,3.47v2.07l11.13-3.84C127.38,153.86,127,153.29,126.69,152.76Z" transform="translate(-2.58 0.08)"/><path class="a" d="M114.1,157.1l-11.68,4a1.83,1.83,0,0,0-.33-.31,2.46,2.46,0,0,0-2.81,3.89c.86.62,2.78.85,3.56-.23a2.2,2.2,0,0,0,.33-1.54l10.94-3.78Z" transform="translate(-2.58 0.08)"/><path class="a" d="M151.4,146.3l.25.21a2.46,2.46,0,0,0,2.81-3.89,3,3,0,0,0-3.55.81,1.79,1.79,0,0,0-.35,1.08l-15.47,5.34,1.33,1.61Z" transform="translate(-2.58 0.08)"/><path class="a" d="M153.74,148.54a1.78,1.78,0,0,0-.15.82L140.16,156l1.28,1.55,13.13-6.49a2.7,2.7,0,0,0,.55.33A2.46,2.46,0,0,0,157,147,3,3,0,0,0,153.74,148.54Z" transform="translate(-2.58 0.08)"/><path class="a" d="M131.91,160.08,99.76,176a1.6,1.6,0,0,0-.56-.41,3,3,0,0,0-3.3,1.55A2.28,2.28,0,0,0,97.28,180a2.2,2.2,0,0,0,2.73-1.43,2.88,2.88,0,0,0,.18-.59l33-16.33C132.77,161.1,132.33,160.59,131.91,160.08Z" transform="translate(-2.58 0.08)"/><path class="a" d="M90.13,188a1,1,0,0,0,1.66,1l4.4-7a1,1,0,0,0-.31-1.35,1,1,0,0,0-.27-.11l0-.07a1,1,0,0,0-.63-.34,1,1,0,0,0-.28-.35,1,1,0,0,0,0-.4,1,1,0,0,0-1.12-.81L84.89,180A1,1,0,0,0,85,181.9h.16l4.63-.75-3.42,1.34a1,1,0,1,0,.72,1.82l4.31-1.7L88,185.42a1,1,0,0,0,.62,1.73,1,1,0,0,0,.62-.23l3.13-2.6Z" transform="translate(-2.58 0.08)"/><path class="a" d="M87,193.21a1,1,0,0,0,.64-.24l1.81-1.57a1,1,0,0,0-1.28-1.48L86.4,191.5a1,1,0,0,0,.64,1.72Z" transform="translate(-2.58 0.08)"/><path class="a" d="M87.13,187.92a1,1,0,0,0-1.37-.17l-4.49,3.52a1,1,0,1,0,1.21,1.54L87,189.29A1,1,0,0,0,87.13,187.92Z" transform="translate(-2.58 0.08)"/><path class="a" d="M76.74,196.39a1,1,0,0,0,.5-.14l2.95-1.78a1,1,0,1,0-1-1.67l-2.95,1.78a1,1,0,0,0,.51,1.82Z" transform="translate(-2.58 0.08)"/><path class="a" d="M85.33,184.77a1,1,0,0,0-1.38-.14l-6,4.89A1,1,0,1,0,79.16,191l6-4.89A1,1,0,0,0,85.33,184.77Z" transform="translate(-2.58 0.08)"/><path class="a" d="M78.38,186a1,1,0,0,0,.75.35,1,1,0,0,0,.63-.23L83,183.4a1,1,0,1,0-1.25-1.5l-3.27,2.74A1,1,0,0,0,78.38,186Z" transform="translate(-2.58 0.08)"/><path class="a" d="M84.28,193.13l-1.86,1a1,1,0,0,0,.46,1.84,1,1,0,0,0,.45-.11l1.86-1a1,1,0,0,0-.91-1.73Z" transform="translate(-2.58 0.08)"/><path class="a" d="M73.67,194.29a1,1,0,0,0,.45-.11L76.37,193a1,1,0,0,0-.9-1.74l-2.25,1.17a1,1,0,0,0,.45,1.85Z" transform="translate(-2.58 0.08)"/><path class="a" d="M76.31,186.75l-1.86,1.37a1,1,0,0,0,.58,1.77,1,1,0,0,0,.58-.19l1.86-1.37a1,1,0,1,0-1.16-1.58Z" transform="translate(-2.58 0.08)"/><path class="a" d="M64.46,120.63a2.2,2.2,0,0,0,.81-3,2.16,2.16,0,0,0-2.92-.26v5.85l1-2.14A2.86,2.86,0,0,0,64.46,120.63Z" transform="translate(-2.58 0.08)"/><path class="a" d="M49.72,144.66a1.57,1.57,0,0,0,.43.4,2.4,2.4,0,0,0,2.65-.25,2.24,2.24,0,0,0,.89-2.85l6.13-13.22V124.1l-7.92,17.07a2.79,2.79,0,0,0-1.36.53,2.48,2.48,0,0,0-1.1,2.21A1.6,1.6,0,0,0,49.72,144.66Z" transform="translate(-2.58 0.08)"/><path class="a" d="M22.81,170.92a.78.78,0,0,0,.37-.09l3.78-2,.09-.06a.78.78,0,0,0-.83-1.32l-3.78,2a.78.78,0,0,0,.37,1.47Z" transform="translate(-2.58 0.08)"/><path class="a" d="M27.84,165.68v-.29l0-4.56a.78.78,0,0,0-1.56,0l0,4.85a.78.78,0,0,0,.77.79h0A.78.78,0,0,0,27.84,165.68Z" transform="translate(-2.58 0.08)"/><path class="a" d="M24.71,159.62a.78.78,0,0,0,.38.1.78.78,0,0,0,.38-1.47l-5.16-2.85a.78.78,0,1,0-.76,1.37Z" transform="translate(-2.58 0.08)"/><path class="a" d="M13.82,160.55a.78.78,0,0,0,0,1.11l7.42,6.83a.78.78,0,1,0,1.06-1.15l-7.42-6.84A.78.78,0,0,0,13.82,160.55Z" transform="translate(-2.58 0.08)"/><path class="a" d="M9.68,165.92l5.8,2.52-6.4-1A.78.78,0,1,0,8.84,169l10.73,1.68h.12a.78.78,0,0,0,.74-.53.78.78,0,0,0-.17-1.33l-10-4.33a.78.78,0,0,0-.62,1.43Z" transform="translate(-2.58 0.08)"/><path class="a" d="M7.75,163.59a.78.78,0,1,0,1.33-.83l-2.59-4.17a.78.78,0,1,0-1.33.83Z" transform="translate(-2.58 0.08)"/><path class="a" d="M13.31,159.53a.77.77,0,0,0,.41-.12l4.17-2.59a.78.78,0,0,0-.83-1.33l-4.17,2.59a.78.78,0,0,0,.41,1.45Z" transform="translate(-2.58 0.08)"/><path class="a" d="M6.38,167.22a.78.78,0,1,0,1.08-1.13L3.9,162.7a.78.78,0,1,0-1.08,1.13Z" transform="translate(-2.58 0.08)"/><path class="a" d="M37.06,162.83A33.77,33.77,0,0,1,33.16,166a.59.59,0,0,0,.33,1.07h.07a.58.58,0,0,0,.27-.1c9.11-6.28,14.82-17.52,15.58-19.06l.08-.16a.59.59,0,1,0-1.06-.5,58.14,58.14,0,0,1-3.65,6.27A53.32,53.32,0,0,1,37.06,162.83Z" transform="translate(-2.58 0.08)"/><path class="a" d="M29.06,168.22a.78.78,0,0,0,1.1-.1l18-21.74a.78.78,0,0,0-1.21-1L29,167.12A.78.78,0,0,0,29.06,168.22Z" transform="translate(-2.58 0.08)"/><path class="a" d="M110.06,117.14a2.2,2.2,0,0,0,.81,3,2.83,2.83,0,0,0,1.12.49l2.11,4.54v-4.65l-.21-.46.07-.08a1.6,1.6,0,0,0,.15-.26V118.2a2.78,2.78,0,0,0-1-1.22A2.2,2.2,0,0,0,110.06,117.14Z" transform="translate(-2.58 0.08)"/><path class="a" d="M122.55,144.29a2.4,2.4,0,0,0,2.65.25,1.57,1.57,0,0,0,.72-1.16,2.48,2.48,0,0,0-1.1-2.21,2.79,2.79,0,0,0-1.36-.53L116.64,126v4.65l5,10.82A2.24,2.24,0,0,0,122.55,144.29Z" transform="translate(-2.58 0.08)"/><path class="a" d="M148.29,168.2l.09.06,3.79,2a.77.77,0,0,0,.37.09.78.78,0,0,0,.37-1.47l-3.78-2a.79.79,0,0,0-1.06.32A.78.78,0,0,0,148.29,168.2Z" transform="translate(-2.58 0.08)"/><path class="a" d="M148.29,165.93h0a.78.78,0,0,0,.78-.79l0-4.85a.78.78,0,0,0-1.57,0l0,4.56v.28a.78.78,0,0,0,.76.77Z" transform="translate(-2.58 0.08)"/><path class="a" d="M150.25,159.19a.78.78,0,0,0,.38-.1l5.16-2.85a.78.78,0,1,0-.75-1.37l-5.16,2.85a.78.78,0,0,0,.38,1.47Z" transform="translate(-2.58 0.08)"/><path class="a" d="M154.05,168l7.42-6.83a.78.78,0,1,0-1.06-1.15L153,166.82a.78.78,0,1,0,1.06,1.15Z" transform="translate(-2.58 0.08)"/><path class="a" d="M154.68,169.32a.77.77,0,0,0,.24.3.78.78,0,0,0,.74.53h.12l10.73-1.68a.78.78,0,0,0-.24-1.55l-6.4,1,5.8-2.52A.78.78,0,1,0,165,164l-10,4.33A.78.78,0,0,0,154.68,169.32Z" transform="translate(-2.58 0.08)"/><path class="a" d="M166.52,163.32a.77.77,0,0,0,.41.12.78.78,0,0,0,.66-.37l2.59-4.17a.78.78,0,1,0-1.33-.83l-2.59,4.17A.78.78,0,0,0,166.52,163.32Z" transform="translate(-2.58 0.08)"/><path class="a" d="M157.2,155.22a.78.78,0,0,0,.25,1.08l4.17,2.59a.78.78,0,0,0,.83-1.33L158.28,155A.78.78,0,0,0,157.2,155.22Z" transform="translate(-2.58 0.08)"/><path class="a" d="M167.85,166.67a.78.78,0,0,0,1.11,0l3.56-3.38a.78.78,0,1,0-1.08-1.14l-3.56,3.38A.78.78,0,0,0,167.85,166.67Z" transform="translate(-2.58 0.08)"/><path class="a" d="M125.86,147.23l.08.16c.76,1.54,6.47,12.78,15.58,19.06a.58.58,0,0,0,.27.1h.07a.59.59,0,0,0,.33-1.07,33.73,33.73,0,0,1-3.91-3.18,53.37,53.37,0,0,1-7.69-9.3,58.27,58.27,0,0,1-3.66-6.28.59.59,0,0,0-1.06.5Z" transform="translate(-2.58 0.08)"/><path class="a" d="M145.18,167.59a.78.78,0,1,0,1.21-1l-18-21.74a.78.78,0,0,0-1.21,1Z" transform="translate(-2.58 0.08)"/><path class="a" d="M87.33,140a2.23,2.23,0,0,0,1.32,0,1.52,1.52,0,0,0,1.17-1.37,1.87,1.87,0,0,0-3.65,0A1.52,1.52,0,0,0,87.33,140Z" transform="translate(-2.58 0.08)"/><ellipse class="a" cx="85.41" cy="143.72" rx="2.15" ry="1.73"/><path class="a" d="M69.19,114.69c-1.08-.1-2.25,1.79-2.25,1.79,1.22.38,2.84,2.61,3.85,3.21s2.56-1.44,1.68-1.34-2.69-1.66-2.79-2.1S70.27,114.79,69.19,114.69Z" transform="translate(-2.58 0.08)"/><path class="a" d="M103.26,118.36c-.88-.1.67,1.94,1.68,1.34s2.62-2.84,3.85-3.21c0,0-1.17-1.89-2.25-1.79s-.39,1.13-.49,1.57S104.14,118.46,103.26,118.36Z" transform="translate(-2.58 0.08)"/><path class="a" d="M88.89,147.23a2.2,2.2,0,0,0-2-.05,1.43,1.43,0,0,0-.86,1.24,1.87,1.87,0,0,0,3.65,0A1.41,1.41,0,0,0,88.89,147.23Z" transform="translate(-2.58 0.08)"/><path class="a" d="M2.62,0V160.21a.29.29,0,1,0,.59,0V0Z" transform="translate(-2.58 0.08)"/><path class="a" d="M5.52,0V155.87a.29.29,0,1,0,.59,0V0Z" transform="translate(-2.58 0.08)"/><path class="a" d="M17.81,0V144.21a.29.29,0,1,0,.59,0V0Z" transform="translate(-2.58 0.08)"/><path class="a" d="M22.51-.08V139.39a.29.29,0,0,0,.59,0V-.08Z" transform="translate(-2.58 0.08)"/><path class="a" d="M38.25,0V145.27a.29.29,0,0,0,.59,0V0Z" transform="translate(-2.58 0.08)"/><path class="a" d="M50.16,0V138.37a.29.29,0,1,0,.59,0V0Z" transform="translate(-2.58 0.08)"/><path class="a" d="M54.84,0V126a.29.29,0,0,0,.59,0V0Z" transform="translate(-2.58 0.08)"/><path class="a" d="M60.79,0v165.2a.29.29,0,0,0,.59,0V0Z" transform="translate(-2.58 0.08)"/><path class="a" d="M67.71,0V107.79a.29.29,0,0,0,.59,0V0Z" transform="translate(-2.58 0.08)"/><path class="a" d="M87.72,0l.13,68.58a.29.29,0,1,0,.59,0L88.31,0Z" transform="translate(-2.58 0.08)"/><path class="a" d="M115.08,0v165.2a.29.29,0,1,0,.59,0V0Z" transform="translate(-2.58 0.08)"/><path class="a" d="M107,0V107.79a.29.29,0,0,0,.59,0V0Z" transform="translate(-2.58 0.08)"/><path class="a" d="M119.91,0V126a.29.29,0,0,0,.59,0V0Z" transform="translate(-2.58 0.08)"/><path class="a" d="M124.59,0V138.37a.29.29,0,1,0,.59,0V0Z" transform="translate(-2.58 0.08)"/><path class="a" d="M136.5,0V145.27a.29.29,0,0,0,.59,0V0Z" transform="translate(-2.58 0.08)"/><path class="a" d="M152.23,0V139.39a.29.29,0,0,0,.59,0V0Z" transform="translate(-2.58 0.08)"/><path class="a" d="M156.94,0V144.21a.3.3,0,0,0,.17.27l.12,0a.29.29,0,0,0,.29-.29V0Z" transform="translate(-2.58 0.08)"/><path class="a" d="M169.22,0V155.87a.29.29,0,0,0,.59,0V0Z" transform="translate(-2.58 0.08)"/><path class="a" d="M172.13,0V160.21a.29.29,0,0,0,.59,0V0Z" transform="translate(-2.58 0.08)"/></svg>