<svg xmlns="http://www.w3.org/2000/svg" viewBox="0 0 96.69 162.21"><defs><style>.a{fill:#92683c;}</style></defs><title>forefathers-f-solo</title><path class="a" d="M13.35,136.14h-.17l.05.22C13.29,136.35,13.37,136.22,13.35,136.14Z" transform="translate(-1.57 -1.27)"/><path class="a" d="M22.83,67.31a9.53,9.53,0,0,0,2.82-3c.46-.82.61-1.6,0-2-2.39-.26-2,.91-3.3,2a4.3,4.3,0,0,1-.75.49,8.61,8.61,0,0,1-9.22-.49,8.43,8.43,0,0,1-1.88-1.86l-.11-.14a12.66,12.66,0,0,1,.11-13.85l.15-.19a5.87,5.87,0,0,1,3.16-2.15c2.52-.61,5.33-.11,6.3,2.15a3.8,3.8,0,0,1,.24.65c.69,3-2.73,4.89-3.42,5-2.51.31-2.49-1.25-4-1.25-.42,1.53,1.56,2.86,2.8,3.11,4.8,1,12.18-3,14.86-7.5a6.87,6.87,0,0,0,1-2.77c-3.46,1.69-6.61-.67-5.6-3.73.86-2.6,5.33-2,6.54.31.77,1.07-.91,2.3.31,2.49C44.59,48.41,58.64,43.15,56.44,30c-3.64-4.5-8.07,4-2.49,4.67-1.39,2.94-4.68,4.11-9,3.42-2.4-.38-4.25-2.12-6.54-3.11C23.38,28.42,3.64,40,5.71,56.42a15.28,15.28,0,0,0,3.77,7.91C12.71,68,17.62,70.06,22.83,67.31Z" transform="translate(-1.57 -1.27)"/><path class="a" d="M66.55,48.29A15.92,15.92,0,0,0,80.72,53c3.09-.47,7.63-2.43,7.47-4.67,0,0,0,0,0-.07-.21-1.88-2.85-1.45-2.78-3,3.27.06,4.27,1.17,7.16.62,4.91-.92,7.94-10.33,3.73-12.45-3.31-1.68-5.93,1.59-5.91,5,0,1.58,1.29,2.5.93,3.73-4.71.77-8.45.75-11.2-1.87C78.76,39,78.57,37.1,77,35.92c-3.31-.05-5.29,3-7.46,4.66,0-.21,0-.41,0-.62V18.22a3.25,3.25,0,0,0-1-.15,3,3,0,0,0-1.14.23c.06,4.18-.19,18.79,0,23.91-2.88,2.11-5.92,4.15-9,6.08-2.44,1.56-4.88,3.05-7.23,4.43-1.24.73-2.9,1.09-3.73,2.49.49.65.22,2.07.62,2.8.32,1,1.44-1.41,1.87-.31l0,6.63L50,100.42l0,8.76A21.88,21.88,0,0,0,54,100.42a37.49,37.49,0,0,0,.67-3.73h2a23.37,23.37,0,0,0,.53,3.73,61.84,61.84,0,0,0,3.62,10.81c.24.56.48,1.11.72,1.65,2.08,4.65,4.37,8.78,7.37,11.42,2.17,1.91,9.46,6.15,12.14,2.49,2.24-3.06-.63-6.32-3.73-5.91-2.26.3-1.82.68-3.11,3.73a19.86,19.86,0,0,1-4.65-4.24c0-2.34,0-4.87,0-7.49,0-4-.08-8.31-.08-12.47,0-5.08.06-10,.36-14.08h8.71c1.57-8.28,4.1-15.61,10.89-18.67.87,3.71,6.69,2.88,6.54-.62a2.58,2.58,0,0,0-2.41-2.71,6.21,6.21,0,0,0-1.63,0,16,16,0,0,0-7.47,3.33c-2.12,1.92-2.76,4.42-5,5.91h-10c-.09-3.16,0-6.23,0-9.25a84.85,84.85,0,0,0-.34-10.67c-.64-.3-1.23-.64-1.87-.93V99.09c0,.41,0,.86,0,1.32,0,3.48,0,8.29.15,12.47.08,1.87.19,3.63.35,5.06a29.52,29.52,0,0,1-2.42-5.06,53.69,53.69,0,0,1-2.79-12.47c-1.28-10.9-.63-23.73-.44-36.09.07-4.82.07-9.56-.14-14.1a17.24,17.24,0,0,1,1.39-1.94,5.14,5.14,0,0,1,2-1.49M55.86,59.57c.75,0,1.36.94,1.36,2.1s-.61,2.1-1.36,2.1-1.36-.94-1.36-2.1S55.11,59.57,55.86,59.57Zm0,13.54c-.75,0-1.36-.94-1.36-2.1s.61-2.1,1.36-2.1,1.36.94,1.36,2.1S56.61,73.11,55.86,73.11Zm0,5.14c.75,0,1.36.94,1.36,2.1s-.61,2.1-1.36,2.1-1.36-.94-1.36-2.1S55.11,78.24,55.86,78.24Zm0,13.54c-.63,0-1.16-.66-1.31-1.56a3.18,3.18,0,0,1,0-.55c0-1.16.61-2.1,1.36-2.1s1.36.94,1.36,2.1a3.18,3.18,0,0,1,0,.55C57,91.12,56.49,91.78,55.86,91.78Z" transform="translate(-1.57 -1.27)"/><path class="a" d="M69.54,157.39c.05-5-.1-25.67,0-29.35-.5-.47-1.94-2.85-2.18-1.56.11,4-.11,26.1,0,31a2.52,2.52,0,0,0-1.53.78c-3.84,5.14,6.64,7.79,6.22,1.87A3.1,3.1,0,0,0,69.54,157.39Z" transform="translate(-1.57 -1.27)"/><path class="a" d="M13.23,136.35l-.05-.22C13.17,136.29,13.19,136.34,13.23,136.35Z" transform="translate(-1.57 -1.27)"/><path class="a" d="M13.18,136.13h.17S13.3,136.07,13.18,136.13Z" transform="translate(-1.57 -1.27)"/><path class="a" d="M68.51,15.59c2.34,0,2.79,2.06,4.36,2.49.81-2.85-1.42-5.23-2.18-7.78-.82-2.74-1-5.82-1.56-9H67.89a26,26,0,0,1-.93,9c-.89,2.45-3.65,4.65-3.11,7.47C65.38,18.73,65.85,15.6,68.51,15.59Z" transform="translate(-1.57 -1.27)"/><path class="a" d="M57.56,134.84v3.43a.16.16,0,0,0,.16.16h.46a.16.16,0,0,0,.16-.16V137.1a.16.16,0,0,1,.16-.16h.34a.31.31,0,0,1,.24.14l.71,1.22a.31.31,0,0,0,.24.14h.54c.09,0,.12-.06.08-.14l-.74-1.22a.1.1,0,0,1,.08-.15,1,1,0,0,0,.86-1.09c0-1-.59-1.15-1.46-1.15H57.72A.16.16,0,0,0,57.56,134.84Zm.78.67a.16.16,0,0,1,.16-.16h.71c.36,0,.86,0,.86.41s-.25.5-.67.5h-.9a.16.16,0,0,1-.16-.16Z" transform="translate(-1.57 -1.27)"/><path class="a" d="M55.48,136.58A3.59,3.59,0,1,0,59.06,133,3.58,3.58,0,0,0,55.48,136.58Zm6.39,0a2.8,2.8,0,1,1-2.8-2.83A2.79,2.79,0,0,1,61.87,136.58Z" transform="translate(-1.57 -1.27)"/><path class="a" d="M38.26,100.42c.1-1.52.21-3.05.36-4.59h2c.29,1.48.58,3.05.93,4.59a24.39,24.39,0,0,0,1.22,4c.76,1.8,1.67,3.73,3,4.79V87.7c0-2.52,0-5.13,0-7.77V64.17c-.11-6.3-.14-12.55,1-15.81,0,0,0,0,0-.07,0-.24,0-.54-.3-.55a11.22,11.22,0,0,0-1.64.55c-4.13,1.73-6.62,5.56-10.5,7.54-1.54.79-3.18.67-4.36,1.87.36,1.41,1.53,2,3.11,2.18V73.57c-4.62,1.14-10.62,2.74-12.45,7.16-2.08,5,.71,13.55,5.29,13.69.55-4.74,2.87-7.71,7.16-8.71,0,4.87.06,9.86,0,14.71-.05,4-.2,7.83-.61,11.44-1.15.28-2.36.62-3.59,1C17.27,116.7,2.93,126,1.66,138,.3,151,14.6,145.87,19.4,142c6.55-5.22,10.12-10.64,13.68-18.85a.84.84,0,0,0-.75-1.25l-1,0a1.73,1.73,0,0,0-1.59,1.2c-2.53,8.67-5.26,14.09-16.38,13,0,.07-.07.21-.12.2.52,2.23,1.8,4.24,4.62,4.14-2.29,2.34-6.65,4.81-11,4.1-1.56-.47-2.15-2.53-2.27-3-1.28-7,3.92-13.49,9.52-17.55a37.07,37.07,0,0,1,10.41-5.17,21.56,21.56,0,0,1,13.87-.66,12,12,0,0,1,8.84,9.08c-5.78,4.72-13.09,19.34-2,24.78,9.66,4.75,16.22-4,16.22-4l-.15.1a1.85,1.85,0,0,0,.46-1.19c0-1.22-1.3-2.22-2.9-2.22s-2.9,1-2.9,2.22,1.3,2.22,2.9,2.22c.43,0,.22-.07.59-.2-7.13,4.45-15.89,4.22-16.09-6.21-.21-10.66,18.09-19.3,18.09-19.3-1.87-5.52-5.81-8.76-11.3-10.48a44.76,44.76,0,0,0-13.29-1.65A55.11,55.11,0,0,0,38.26,100.42Zm1.53-40.85c.75,0,1.36.94,1.36,2.1s-.61,2.1-1.36,2.1-1.36-.94-1.36-2.1S39,59.57,39.79,59.57Zm0,32.21c-.75,0-1.36-.94-1.36-2.1,0-.11,0-.21,0-.31.1-1,.66-1.79,1.35-1.79s1.25.78,1.35,1.79c0,.1,0,.21,0,.31C41.15,90.84,40.54,91.78,39.79,91.78ZM41.15,71c0,1.16-.61,2.1-1.36,2.1s-1.36-.94-1.36-2.1.61-2.1,1.36-2.1S41.15,69.85,41.15,71Zm-1.36,7.24c.75,0,1.36.94,1.36,2.1s-.61,2.1-1.36,2.1-1.36-.94-1.36-2.1S39,78.24,39.79,78.24Z" transform="translate(-1.57 -1.27)"/></svg>