<svg xmlns="http://www.w3.org/2000/svg" viewBox="0 0 146.11 121.52"><defs><style>.a{fill:#1c1f21;}</style></defs><title>globe</title><path class="a" d="M133.47,54.56,131.26,53s-9.93-6.55-19.23-6.55H39.49c-9.3,0-19.23,6.55-19.23,6.55L18,54.56A38.9,38.9,0,0,0,2.7,85.51S3.37,123.79,41,123.79h69.55c37.62,0,38.28-38.28,38.28-38.28A38.9,38.9,0,0,0,133.47,54.56Zm-23.6-5.78A36.74,36.74,0,0,1,141.4,66.68H128.29a38.19,38.19,0,0,0-20.44-17.92ZM95.66,68.95l14.51,0a50.12,50.12,0,0,1,2.75,16.57c0,.06,0,.11,0,.16l-15.64,0c0-.06,0-.12,0-.18A81.86,81.86,0,0,0,95.66,68.95Zm1.59,19,15.61,0a49.63,49.63,0,0,1-2.59,13.93l-14.56,0A80.45,80.45,0,0,0,97.25,87.9Zm17.83,0,15.61,0a37.49,37.49,0,0,1-3.6,13.93l-14.51,0A51.82,51.82,0,0,0,115.08,87.88Zm.05-2.21c0-.05,0-.11,0-.16a52.28,52.28,0,0,0-2.64-16.58l14.44,0a37.62,37.62,0,0,1,3.83,16.6s0,.1,0,.14Zm10.63-19-14.07,0c-3.25-8.27-8.56-14.7-15-17.91A35.24,35.24,0,0,1,125.76,66.7ZM87.5,48.78c9.27,0,17.39,7.21,21.84,17.95l-14.17,0c-2-8.36-5.43-14.78-9.57-18Zm-10.4,0h2.53c5.51,0,10.46,7.3,13.2,18l-15.74,0Zm0,20.2,16.26,0a78.1,78.1,0,0,1,1.73,16.55c0,.06,0,.12,0,.18l-18,0ZM95,87.9a77.09,77.09,0,0,1-1.64,13.93l-16.29,0,0-4V87.92ZM74.45,97.83l0,4-16.29,0a77.09,77.09,0,0,1-1.64-13.93l18,0Zm0-12.11-18,0c0-.06,0-.12,0-.18A78.1,78.1,0,0,1,58.17,69l16.26,0ZM71.9,48.78h2.53v18l-15.74,0C61.43,56.08,66.38,48.78,71.9,48.78Zm-6,0c-4.14,3.18-7.52,9.6-9.57,18l-14.17,0C46.63,56,54.75,48.78,64,48.78ZM36.39,85.67l-15.64,0s0-.09,0-.14a37.62,37.62,0,0,1,3.83-16.6l14.44,0a52.28,52.28,0,0,0-2.64,16.58C36.39,85.57,36.39,85.62,36.39,85.67Zm.05,2.21a51.82,51.82,0,0,0,2.49,13.93l-14.51,0a37.49,37.49,0,0,1-3.6-13.93Zm2.21,0,15.61,0a80.45,80.45,0,0,0,1.54,13.93l-14.56,0A49.63,49.63,0,0,1,38.66,87.89Zm15.58-2.37c0,.06,0,.12,0,.18l-15.64,0c0-.06,0-.11,0-.16a50.12,50.12,0,0,1,2.75-16.57l14.51,0A81.86,81.86,0,0,0,54.24,85.51ZM39.83,66.72l-14.07,0a35.24,35.24,0,0,1,29-17.89C48.39,52,43.07,58.46,39.83,66.72Zm1.82-17.94h2A38.19,38.19,0,0,0,23.23,66.7H10.12A36.74,36.74,0,0,1,41.65,48.78ZM4.92,85.51a36.49,36.49,0,0,1,4-16.62l13.23,0a39.83,39.83,0,0,0-3.6,16.6s0,.09,0,.14l-13.62,0S4.92,85.55,4.92,85.51ZM5,87.85l13.61,0A39.76,39.76,0,0,0,22,101.8l-13.27,0A36.46,36.46,0,0,1,5,87.85Zm36.65,34.4A36.74,36.74,0,0,1,9.92,104l13.13,0a38.21,38.21,0,0,0,20.61,18.24ZM25.58,104l14.13,0c3.23,8.4,8.6,14.94,15.06,18.18A35.26,35.26,0,0,1,25.58,104ZM64,122.24c-9.35,0-17.52-7.33-21.94-18.21l14.22,0c2,8.47,5.45,15,9.62,18.2Zm7.87,0c-5.55,0-10.53-7.4-13.26-18.19l15.76,0-.15,18.17Zm7.73,0H77.27l-.15-18.17,15.76,0C90.15,114.84,85.18,122.24,79.62,122.24Zm6,0c4.17-3.21,7.58-9.72,9.62-18.2l14.22,0c-4.42,10.88-12.6,18.21-21.94,18.21ZM111.8,104l14.13,0a35.26,35.26,0,0,1-29.19,18.2C103.2,119,108.57,112.42,111.8,104Zm-1.93,18.22h-2A38.21,38.21,0,0,0,128.46,104l13.13,0A36.74,36.74,0,0,1,109.87,122.24Zm32.92-20.47-13.27,0a39.76,39.76,0,0,0,3.38-13.93l13.61,0A36.46,36.46,0,0,1,142.79,101.78ZM133,85.65s0-.09,0-.14a39.83,39.83,0,0,0-3.6-16.6l13.23,0a36.49,36.49,0,0,1,4,16.62s0,.08,0,.12Z" transform="translate(-2.7 -2.27)"/><path class="a" d="M103.32,28.89h0l-.43,1h0a1.82,1.82,0,0,1,.92-.25h.67v2.24c0,.23,0,1-.24,1.22v0h1.29v0c-.24-.19-.24-1-.24-1.22V29.62H106c.29,0,.46.1.51.25h0l.55-1h0l-.46.06H103.8Z" transform="translate(-2.7 -2.27)"/><path class="a" d="M113.45,33.19a2.16,2.16,0,1,0-2.4-2.15A2.16,2.16,0,0,0,113.45,33.19Zm0-3.62A1.48,1.48,0,1,1,111.87,31,1.44,1.44,0,0,1,113.45,29.56Z" transform="translate(-2.7 -2.27)"/><path class="a" d="M98.5,33.09c-.13-.19,0-.55.14-.78l.13-.29h2l.14.29c.11.23.27.59.14.78v0h1.22v0a6.24,6.24,0,0,1-.69-1.22l-1.08-2.31c-.11-.25-.18-.47-.12-.57v0H99.09v0c.17.19,0,.56-.1.8l-.93,2.08a4.64,4.64,0,0,1-.71,1.22v0H98.5Zm1.22-3.23.69,1.51H99Z" transform="translate(-2.7 -2.27)"/><path class="a" d="M96.22,25.25h6.19l1.19-1.17V17l-1.22-1.19,1.22-1.17V7.54L102.4,6.37H96.22l.3,1.14V24.09ZM98.87,9l.27-.27H101l.27.27v5.37l-.27.27H99.15l-.27-.27Zm0,8.27.27-.27H101l.27.27V22.6l-.27.27H99.15l-.27-.27Z" transform="translate(-2.7 -2.27)"/><path class="a" d="M125.41,29.56a1.93,1.93,0,0,1,1.54.56h0l.37-.73a4.41,4.41,0,0,0-1.92-.51c-1.12,0-2.13.4-2.13,1.37,0,1.91,3.34.51,3.34,1.64,0,.32-.36.62-1.4.62a1.64,1.64,0,0,1-1.55-.64h0l-.39.79a3.29,3.29,0,0,0,2,.53c1.47,0,2.21-.59,2.21-1.35,0-2.08-3.39-.7-3.39-1.65C124.13,29.84,124.51,29.56,125.41,29.56Z" transform="translate(-2.7 -2.27)"/><polygon class="a" points="116.91 22.98 123.99 22.98 124.41 20.35 123.19 20.62 119.84 20.62 119.57 20.35 119.57 5.27 119.84 4.1 116.91 4.1 117.21 5.27 117.21 21.84 116.91 22.98"/><path class="a" d="M109.58,24.46l.6-3.6.32-.32h2.06l.32.32.62,3.6-.2.79h3l-.57-1.64L112.88,7.44l.25-1.07H109.9l.25,1.07-2.78,16.2-.55,1.61h2.93Zm1.94-11.55.87,5-.25.2h-1.27l-.22-.2Z" transform="translate(-2.7 -2.27)"/><path class="a" d="M72.56,31.3V29.78a1.05,1.05,0,0,1,.22-.8v0H71.52v0a1.07,1.07,0,0,1,.22.8v1.66c0,1.1.79,1.75,2.12,1.75a2.25,2.25,0,0,0,1.69-.6A1.62,1.62,0,0,0,76,31.44V29.78a1.08,1.08,0,0,1,.22-.8v0H74.93v0a1.05,1.05,0,0,1,.22.8V31.3c0,.68-.26,1.21-1.3,1.21S72.56,32,72.56,31.3Z" transform="translate(-2.7 -2.27)"/><polygon class="a" points="71.53 5.27 71.53 21.84 71.23 22.98 72.42 22.98 78.31 22.98 78.73 20.35 77.52 20.62 74.16 20.62 73.89 20.35 73.89 5.27 74.16 4.1 72.42 4.1 71.23 4.1 71.53 5.27"/><path class="a" d="M91.5,31.06c0,1.41,1.2,2.13,2.55,2.13a3,3,0,0,0,1.48-.37l.32-1.12h0a2.3,2.3,0,0,1-1.78.78c-.89,0-1.73-.47-1.71-1.44A1.52,1.52,0,0,1,94,29.58a2,2,0,0,1,1.58.69h0l.26-.9a3.47,3.47,0,0,0-1.77-.48C92.69,28.89,91.5,29.67,91.5,31.06Z" transform="translate(-2.7 -2.27)"/><path class="a" d="M91,25.25l1.17-1.17V7.54L91,6.37H86.26L85.06,7.54V24.09l1.19,1.17ZM87.42,9l.27-.27h1.79l.27.27V22.62l-.27.27H87.7l-.27-.27Z" transform="translate(-2.7 -2.27)"/><path class="a" d="M84.72,29v0H83.46v0a1.12,1.12,0,0,1,.21.8v2.08c0,.23,0,1-.21,1.22v0h3.42l.54-.93h0a8.63,8.63,0,0,1-2.27.25h-.63V29.78A1,1,0,0,1,84.72,29Z" transform="translate(-2.7 -2.27)"/><path class="a" d="M118.39,33.09c-.21-.19-.21-1-.21-1.22V30.07l2.09,2.24a1.23,1.23,0,0,1,.44.78v0h1.18v0c-.21-.19-.21-1-.21-1.22V29.78a1.09,1.09,0,0,1,.21-.8v0h-1.14v0a1.12,1.12,0,0,1,.21.8v2.05L119,29.78a1.32,1.32,0,0,1-.47-.8v0h-1.28v0a1.17,1.17,0,0,1,.2.8v2.08c0,.23,0,1-.2,1.22v0h1.13Z" transform="translate(-2.7 -2.27)"/><path class="a" d="M108.25,33.09v0h1.35v0c-.26-.19-.26-1-.26-1.22V29.78a.94.94,0,0,1,.26-.8v0h-1.35v0a.94.94,0,0,1,.26.8v2.08C108.51,32.1,108.51,32.9,108.25,33.09Z" transform="translate(-2.7 -2.27)"/><path class="a" d="M77.64,33.09v0h3c.78,0,1.4-.38,1.4-1.17a1.09,1.09,0,0,0-.73-1,.94.94,0,0,0,.58-.87c0-.73-.41-1.13-1.39-1.13H77.64v0a1.08,1.08,0,0,1,.22.8v2.08C77.86,32.1,77.86,32.9,77.64,33.09Zm1-3.47h1.82c.41,0,.59.1.59.49a.47.47,0,0,1-.52.49h-.68a.75.75,0,0,1-.38-.06h0l-.47.82h0a1.25,1.25,0,0,1,.51-.08h.87c.58,0,.81.2.81.56s-.2.61-.79.61H78.68Z" transform="translate(-2.7 -2.27)"/><path class="a" d="M88.67,33.09v0H90v0c-.26-.19-.26-1-.26-1.22V29.78A.94.94,0,0,1,90,29v0H88.67v0a.94.94,0,0,1,.26.8v2.08C88.93,32.1,88.93,32.9,88.67,33.09Z" transform="translate(-2.7 -2.27)"/><polygon class="a" points="28.73 3.77 29.17 4.21 29.17 12.88 28.73 13.33 27.2 13.33 25.36 12.85 25.36 17.62 27.2 17.14 28.73 17.14 29.17 17.58 29.17 28.62 28.69 30.51 33.43 30.51 32.95 28.62 32.95 1.85 33.43 0 21.99 0 21.3 4.21 23.27 3.77 28.73 3.77"/><polygon class="a" points="37.8 30.51 42.54 30.51 42.06 28.62 42.06 17.58 42.5 17.14 44.02 17.14 45.87 17.62 45.87 12.85 44.02 13.33 42.5 13.33 42.06 12.88 42.06 4.21 42.5 3.77 47.96 3.77 49.92 4.21 49.24 0 37.8 0 38.28 1.85 38.28 28.62 37.8 30.51"/><path class="a" d="M67.32,33.09c-.22-.19-.22-1-.22-1.22V29.62h1.66c.44,0,.69.14.69.51s-.25.51-.63.51h-.54a.82.82,0,0,1-.38-.06h0l-.43.74h1.34c1,0,1.49-.47,1.49-1.17s-.59-1.21-1.49-1.21h-2.7v0a1.07,1.07,0,0,1,.22.8v2.08c0,.23,0,1-.22,1.22v0h1.25Z" transform="translate(-2.7 -2.27)"/><polygon class="a" points="65.84 22.98 67.01 21.82 67.01 14.71 67.31 13.52 63.48 13.52 64 15.9 64.67 15.9 64.67 20.33 64.4 20.6 62.59 20.6 62.31 20.33 62.31 6.71 62.59 6.44 64.4 6.44 64.67 6.71 64.67 7.66 64.35 8.8 67.31 8.8 67.01 7.66 67.01 5.27 65.84 4.1 61.12 4.1 59.93 5.27 59.93 21.82 61.12 22.98 65.84 22.98"/></svg>