<?xml version="1.0" encoding="UTF-8"?>
<svg width="88px" height="90px" viewBox="0 0 88 90" version="1.1" xmlns="http://www.w3.org/2000/svg" xmlns:xlink="http://www.w3.org/1999/xlink">
    <!-- Generator: Sketch 51.2 (57519) - http://www.bohemiancoding.com/sketch -->
    <title>Fill 1</title>
    <desc>Created with Sketch.</desc>
    <defs></defs>
    <g id="Page-1" stroke="none" stroke-width="1" fill="none" fill-rule="evenodd">
        <g id="Tablet" fill="#161819">
            <path d="M80.3992561,82.5412697 L82.1807502,82.5412697 L82.1807502,89.0359776 L80.6025788,89.0359776 L77.8296445,85.4729893 L77.8296445,89.0359776 L76.0500868,89.0359776 L76.0500868,82.5412697 L77.7270149,82.5412697 L80.3992561,85.9745186 L80.3992561,82.5412697 Z M71.6447616,87.5042799 L75.1302936,87.5042799 L75.1302936,89.0359776 L69.8632675,89.0359776 L69.8632675,82.5412697 L75.0857563,82.5412697 L75.0857563,84.0729673 L71.6447616,84.0729673 L71.6447616,85.0566619 L74.7604399,85.0566619 L74.7604399,86.4741116 L71.6447616,86.4741116 L71.6447616,87.5042799 Z M67.0903332,85.7983056 C67.0903332,86.8459016 66.3757992,87.4384421 65.2991571,87.4384421 L64.5671954,87.4384421 L64.5671954,84.1368687 L65.2991571,84.1368687 C66.3757992,84.1368687 67.0903332,84.7410276 67.0903332,85.780878 L67.0903332,85.7983056 Z M65.2720474,82.5412697 L62.7682736,82.5412697 L62.7682736,89.0359776 L65.2352557,89.0359776 C67.5724985,89.0359776 68.9357287,87.6437012 68.9357287,85.7692595 L68.9357287,85.7518319 C68.9357287,83.8773903 67.5918625,82.5412697 65.2720474,82.5412697 Z M60.0514951,84.8901309 C60.0514951,85.3606777 59.6990691,85.656948 59.0871646,85.656948 L57.9001473,85.656948 L57.9001473,84.100077 L59.0774825,84.100077 C59.679705,84.100077 60.0514951,84.3595555 60.0514951,84.8707669 L60.0514951,84.8901309 Z M61.8600989,84.7778193 L61.8600989,84.7603917 C61.8600989,84.1175047 61.6645218,83.6198482 61.2849861,83.2461217 C60.8492946,82.8026846 60.1618702,82.5412697 59.17043,82.5412697 L56.0992891,82.5412697 L56.0992891,89.0359776 L57.9001473,89.0359776 L57.9001473,87.0685884 L58.6689007,87.0685884 L58.6882648,87.0685884 L59.9953393,89.0359776 L62.0731036,89.0359776 L60.5239783,86.7723182 C61.3314599,86.4295742 61.8600989,85.7692595 61.8600989,84.7778193 Z M51.0917415,86.4741116 L51.8237032,84.628716 L52.5479193,86.4741116 L51.0917415,86.4741116 Z M50.9716843,82.4967323 L48.2064956,89.0359776 L50.1003013,89.0359776 L50.5631025,87.87607 L53.0668763,87.87607 L53.5393595,89.0359776 L55.4699569,89.0359776 L52.7047682,82.4967323 L50.9716843,82.4967323 Z M44.7383913,85.2425569 L47.7262668,85.2425569 L47.7262668,88.1626582 C47.0388424,88.7280889 46.0841939,89.1657168 44.9068587,89.1657168 C42.8833137,89.1657168 41.3709802,87.7734404 41.3709802,85.8079877 L41.3709802,85.7886236 C41.3709802,83.8948179 42.8542676,82.4134668 44.8681306,82.4134668 C46.0086741,82.4134668 46.8161556,82.7639564 47.50358,83.3584333 L46.446302,84.628716 C45.9815644,84.2394983 45.5187632,84.0168115 44.8778126,84.0168115 C43.9405918,84.0168115 43.2183121,84.8068654 43.2183121,85.7983056 L43.2183121,85.8157333 C43.2183121,86.8633293 43.9502738,87.6165915 44.9804421,87.6165915 C45.4161336,87.6165915 45.7491956,87.5217076 46.0183561,87.347431 L46.0183561,86.557377 L44.7383913,86.557377 L44.7383913,85.2425569 Z M36.3092132,84.8901309 C36.3092132,85.3606777 35.9548508,85.656948 35.3429463,85.656948 L34.155929,85.656948 L34.155929,84.100077 L35.3352006,84.100077 C35.9374231,84.100077 36.3092132,84.3595555 36.3092132,84.8707669 L36.3092132,84.8901309 Z M38.117817,84.7778193 L38.117817,84.7603917 C38.117817,84.1175047 37.9222399,83.6198482 37.5427042,83.2461217 C37.1070127,82.8026846 36.4195884,82.5412697 35.4262118,82.5412697 L32.3570072,82.5412697 L32.3570072,89.0359776 L34.155929,89.0359776 L34.155929,87.0685884 L34.9266188,87.0685884 L34.9440465,87.0685884 L36.2530574,89.0359776 L38.3308217,89.0359776 L36.7816964,86.7723182 C37.589178,86.4295742 38.117817,85.7692595 38.117817,84.7778193 Z M27.9516821,87.5042799 L31.4391505,87.5042799 L31.4391505,89.0359776 L26.170188,89.0359776 L26.170188,82.5412697 L31.3926767,82.5412697 L31.3926767,84.0729673 L27.9516821,84.0729673 L27.9516821,85.0566619 L31.0673604,85.0566619 L31.0673604,86.4741116 L27.9516821,86.4741116 L27.9516821,87.5042799 Z M21.7667993,87.5042799 L25.2523312,87.5042799 L25.2523312,89.0359776 L19.9853052,89.0359776 L19.9853052,82.5412697 L25.2077939,82.5412697 L25.2077939,84.0729673 L21.7667993,84.0729673 L21.7667993,85.0566619 L24.8824776,85.0566619 L24.8824776,86.4741116 L21.7667993,86.4741116 L21.7667993,87.5042799 Z M17.3614742,86.995005 C17.3614742,87.3745407 17.0458399,87.5875454 16.4978368,87.5875454 L15.1055604,87.5875454 L15.1055604,86.3908461 L16.4784727,86.3908461 C17.0826316,86.3908461 17.3614742,86.6232149 17.3614742,86.9756409 L17.3614742,86.995005 Z M15.1055604,83.9897018 L16.27515,83.9897018 C16.8134711,83.9897018 17.0923136,84.1949609 17.0923136,84.5454505 L17.0923136,84.5648146 C17.0923136,84.9443503 16.7863614,85.1302454 16.2383583,85.1302454 L15.1055604,85.1302454 L15.1055604,83.9897018 Z M17.8707491,85.6414567 C18.4458619,85.3897238 18.8718713,84.9443503 18.8718713,84.1949609 L18.8718713,84.1736605 C18.8718713,83.7282869 18.7150224,83.385543 18.4555439,83.1260645 C18.0740718,82.7445924 17.5008954,82.5412697 16.6837318,82.5412697 L13.3531124,82.5412697 L13.3531124,89.0359776 L16.7011595,89.0359776 C18.2502848,89.0359776 19.1603959,88.3601716 19.1603959,87.2467378 L19.1603959,87.2273737 C19.1603959,86.3443723 18.6588666,85.8989988 17.8707491,85.6414567 Z M7.36380665,84.1852789 C7.36380665,84.5260865 7.13918348,84.7778193 6.67638229,84.981142 C6.45369552,84.7022995 6.34332034,84.4912312 6.34332034,84.2394983 L6.34332034,84.2201342 C6.34332034,83.8773903 6.55632508,83.6450215 6.86227733,83.6450215 C7.15854754,83.6450215 7.36380665,83.8502806 7.36380665,84.1659148 L7.36380665,84.1852789 Z M6.49048725,87.8199142 C6.04511372,87.8199142 5.72947944,87.5604357 5.72947944,87.1809 L5.72947944,87.1634723 C5.72947944,86.9020574 5.86890072,86.6503246 6.19421703,86.4547475 L7.26117709,87.5410716 C7.01138064,87.7076026 6.74996574,87.8199142 6.49048725,87.8199142 Z M10.0437934,86.0577841 L8.85677617,85.4633073 C8.6611991,85.8350974 8.4578764,86.1875234 8.24293526,86.4934756 L7.52065558,85.7886236 C8.27972699,85.4361976 8.79093834,84.899813 8.79093834,84.100077 L8.79093834,84.0826494 C8.79093834,83.1357465 8.03961257,82.4134668 6.86227733,82.4134668 C5.59199457,82.4134668 4.82130472,83.2267576 4.82130472,84.1736605 L4.82130472,84.1949609 C4.82130472,84.609352 4.95104397,85.0082517 5.24731418,85.4361976 C4.36624916,85.8350974 3.93055766,86.4470019 3.93055766,87.2544834 L3.93055766,87.2719111 C3.93055766,88.4511827 4.92199787,89.1463527 6.25037283,89.1463527 C7.0016986,89.1463527 7.63296717,88.9043019 8.17903384,88.4879745 L8.84709414,89.1657168 L10.0631575,88.2943338 L9.19177452,87.42876 C9.49772677,87.014369 9.77463292,86.547695 10.0437934,86.0577841 Z M79.2470941,66.4613489 L82.2156055,66.4613489 L82.2156055,80.128507 L79.6576123,80.128507 L73.0389744,71.4398504 L73.0389744,80.128507 L70.0723995,80.128507 L70.0723995,66.4613489 L72.8453338,66.4613489 L79.2470941,74.8769722 L79.2470941,66.4613489 Z M64.3115897,71.166817 C64.3115897,72.318979 63.4731256,73.0993509 62.0092022,73.0993509 L58.9632345,73.0993509 L58.9632345,69.1742546 L61.9491736,69.1742546 C63.4150334,69.1742546 64.3115897,69.8384421 64.3115897,71.1261525 L64.3115897,71.166817 Z M67.3594937,71.0099681 L67.3594937,70.9693036 C67.3594937,69.6815931 66.9489755,68.6088239 66.1860313,67.8458796 C65.2875386,66.947387 63.941736,66.4613489 62.2047793,66.4613489 L55.955995,66.4613489 L55.955995,80.128507 L58.9632345,80.128507 L58.9632345,75.7541644 L61.2869225,75.7541644 L61.3237142,75.7541644 L64.2534975,80.128507 L67.7700119,80.128507 L64.4297105,75.2468258 C66.1666672,74.6020024 67.3594937,73.2174717 67.3594937,71.0099681 Z M45.8615072,69.1355265 L45.8615072,71.9084608 L52.3058685,71.9084608 L52.3058685,74.5826384 L45.8615072,74.5826384 L45.8615072,77.452393 L53.2818174,77.452393 L53.2818174,80.128507 L42.8736317,80.128507 L42.8736317,66.4613489 L53.1830607,66.4613489 L53.1830607,69.1355265 L45.8615072,69.1355265 Z M37.5252766,66.4613489 L40.7668213,66.4613489 L35.2403167,80.2253273 L32.5855032,80.2253273 L27.060935,66.4613489 L30.379936,66.4613489 L33.9526063,76.0872263 L37.5252766,66.4613489 Z M20.1479633,74.4083618 L21.9643128,69.9759269 L23.7806622,74.4083618 L20.1479633,74.4083618 Z M23.389508,66.3645286 L20.6165737,66.3645286 L14.76088,80.128507 L17.8262118,80.128507 L19.075194,77.0631753 L24.8534315,77.0631753 L26.1024138,80.128507 L29.2471381,80.128507 L23.389508,66.3645286 Z M15.384403,69.2342832 L11.2269379,69.2342832 L11.2269379,80.128507 L8.21969838,80.128507 L8.21969838,69.2342832 L4.06223332,69.2342832 L4.06223332,66.4613489 L15.384403,66.4613489 L15.384403,69.2342832 Z M73.8968026,17.9679173 C72.727213,20.9383651 70.2118207,20.7156783 69.6328351,19.9779074 C69.6328351,19.9779074 69.1739068,20.4407085 68.5503838,21.1649246 C67.9481614,21.8562218 67.2123268,22.9134998 66.6372141,24.3871053 C66.4029089,25.0861481 66.2789788,25.4676202 66.2460599,25.5586313 L66.2092682,25.6844977 L64.1682956,26.4242051 L64.0269379,26.0388602 L64.7840729,23.7112994 C63.8991351,25.6186599 61.6935679,27.7487072 59.7532884,27.6983607 C58.6301726,27.6693146 57.8536735,27.1135658 57.5244844,26.1337441 C56.3452127,28.4187039 54.8386884,29.661877 53.2566441,29.619276 C52.4801451,29.599912 51.9340784,29.1913302 51.7191373,28.4826053 C50.3210517,30.8062933 48.9055384,31.2826494 47.9528263,31.2574761 C47.4590426,31.2458576 47.0446516,31.0735174 46.7503178,30.7656288 C46.5624864,30.5661789 46.4288743,30.304764 46.3552909,30.0007482 C45.1760192,31.9003631 44.0780766,33.0583343 42.4205126,33.0137969 C41.7137241,32.9963692 41.2025128,32.6323248 40.9778896,32.0029926 C40.0116227,33.4146331 38.6851841,34.9250303 36.841725,34.8746837 C36.3982879,34.8650017 34.9576013,34.6926615 35.0021387,32.9595775 C35.0331212,31.8403345 35.6914995,29.9349103 36.3305137,28.0914512 C36.9307997,26.352558 37.5001033,24.7104852 37.5233401,23.8158653 C37.5310858,23.595115 37.5039761,23.2252613 37.2599888,23.2194521 C36.9114356,23.2097701 36.5706281,23.3917923 36.0284342,23.7500275 C36.0284342,23.7500275 34.5393375,24.7743866 34.4580084,24.8305424 C33.7918845,28.780812 32.7346065,32.3960832 31.0383143,36.5458026 L31.0150774,36.6019584 L30.9589216,36.6193861 C30.4961204,36.7704258 29.9074528,36.9911761 29.2839299,37.2254814 L28.098849,37.6669821 L27.8200064,37.3416657 L27.8548618,37.2680823 C29.1580634,34.318935 31.3636306,28.7827484 31.4662602,24.8460337 C31.4740058,24.5458906 31.4217228,24.3290131 31.313284,24.2128287 C31.2532554,24.1489273 31.1719264,24.1160084 31.0673604,24.1160084 C30.8408008,24.1082627 30.1785497,24.4510067 29.5569632,24.8983166 C29.5569632,24.8983166 28.493876,25.6709429 28.4028648,25.7367807 C28.2615072,30.1479151 25.3840069,36.7529981 23.9317019,38.9295192 L23.9065286,38.9682473 L23.8639277,38.9798658 C23.4127449,39.1192871 22.622691,39.442667 21.8578104,39.7563648 C21.3156165,39.980988 20.7540586,40.2114204 20.299003,40.3818242 L20.2157376,40.4147431 L19.927213,40.0778083 L19.9814323,39.9964793 C21.1878137,38.1898119 25.1380832,31.809352 25.3007414,25.5721862 C25.351088,23.6764441 24.8495587,22.1176367 23.8503728,21.0661679 C23.0467641,20.2180218 21.9526943,19.7532842 20.6882208,19.7223017 C18.6956583,19.6680823 16.6934139,20.4135989 15.3243744,21.7090549 C14.2690327,22.7121135 13.6919836,23.9610958 13.6551918,25.3185169 C13.631955,26.2596105 13.9766353,27.2007041 14.5827306,27.8397183 C15.1268609,28.4128947 15.8549498,28.7265926 16.6914775,28.7478931 C17.727455,28.7750028 18.2773945,28.3315656 18.5562371,27.9559027 C18.9435184,27.4272637 18.9880557,26.8037408 18.8951082,26.528771 L18.879617,26.4842337 L19.065512,26.0233689 L19.1642687,26.0369238 C19.9562591,26.1376169 22.7582395,25.2507427 23.0545097,25.0009462 L23.131966,24.9351084 L23.5018196,25.2139509 L23.5773395,25.2701067 L23.546357,25.357245 C23.546357,25.357245 23.5173109,25.4405105 23.5153745,25.5450765 C23.3410979,28.1282429 21.1820045,30.6901089 17.4002023,30.5913522 C14.7763713,30.5216415 12.1757772,28.8447134 12.2667883,25.2507427 C12.3113256,23.5544504 12.9793859,22.0827814 14.2477323,20.8783365 C16.1725205,19.0503686 19.0693848,18.2874244 21.0851841,18.3397073 C25.2871866,18.4500825 27.8935899,20.6014303 28.2886169,24.2496204 C28.9760412,23.6415887 31.5146703,21.3914842 33.4278401,19.6216085 L33.5362789,19.5228518 L33.6195444,19.6448454 C33.6214808,19.6448454 33.7047462,19.7649026 33.8499767,19.8946419 C34.2953503,20.2916052 34.7291054,20.8221807 34.7291054,22.5339641 C34.7291054,22.6152932 34.727169,22.6985587 34.7252325,22.7876334 C34.7232961,22.8631533 34.7155505,22.9677192 34.7058685,23.0780944 C36.1562371,21.9162504 38.8033049,19.7997579 40.1278071,18.6262955 L40.2362459,18.5275388 L40.3195113,18.6514688 C40.3195113,18.6514688 40.4085861,18.7812081 40.5247704,18.8877104 C40.9778896,19.2885466 41.2567322,20.0650457 41.2238132,20.814435 C41.1850851,21.6432171 40.8868785,22.7527781 40.555753,23.9107493 C40.4105225,24.4200242 40.0852061,25.3436902 39.7076068,26.414523 C38.946599,28.5755529 37.9009394,31.538255 37.8777026,32.5083948 C37.8660841,32.9053581 38.0519792,32.9440863 38.2243194,32.9479591 C39.3241983,32.9770052 40.6487005,30.8798768 41.384535,28.7943668 L42.8407128,24.547827 C42.8407128,24.547827 42.9549608,24.5090989 42.9568972,24.5071625 C43.0149894,24.4897348 44.3840289,24.0559798 45.2205566,23.5718781 L45.4161336,23.4576301 L45.8498887,24.0792166 L45.7007854,24.2244471 C45.5981559,24.3270767 45.470353,24.5671911 45.356105,24.8692705 C43.6733677,29.6115304 43.551374,29.9600836 43.5358828,29.9968753 C43.5378192,29.9910661 43.5436284,29.9775113 43.5436284,29.9775113 C43.4409989,30.2544174 43.3867795,30.5042139 43.3829067,30.7172186 C43.3770974,30.8798768 43.4022707,31.2613489 43.7024138,31.2690945 C44.194261,31.2826494 45.2515391,30.6920453 46.8142192,26.6004181 L49.298629,19.3505116 L49.3567212,19.3292111 C49.3567212,19.3292111 49.4399866,19.2982286 49.4380502,19.2982286 C49.9899261,19.0949059 50.9174649,18.6960062 51.7152645,18.2486962 L51.9069687,18.138321 L52.3407238,18.7579712 L52.1935569,18.9032017 C52.1470831,18.9438662 52.0521992,19.0774783 51.9166507,19.4725052 L49.2405368,27.3246342 C48.9094112,28.3218836 48.8610011,28.7227198 48.8532554,28.9589614 L48.8532554,28.9880075 C48.8532554,29.1700297 48.8997292,29.3307515 48.9810583,29.4140169 C49.0236592,29.4585543 49.0720694,29.4817912 49.1340344,29.4837276 C50.0944921,29.5089009 51.0781867,28.0101221 52.4278621,24.4800528 L54.6721574,17.9969634 L54.794151,17.9504896 C55.1349586,17.8168775 56.3064846,17.3540764 57.055874,16.9183849 L57.1507579,16.8641655 L57.2514511,16.8060733 L57.6871425,17.4257234 L57.5380392,17.5709539 C57.4935019,17.6154913 57.3966816,17.7471669 57.2611331,18.1441303 C57.2611331,18.1441303 54.5675914,25.7329079 54.5675914,25.7367807 C54.3158586,26.4164595 54.1745009,27.1038838 54.1667553,27.4059633 C54.1590096,27.7351524 54.2306567,27.9036198 54.37976,27.9074926 C55.0245834,27.9249202 56.174809,26.8444053 57.28437,24.3987237 C58.4830057,21.0274398 60.0147033,19.414413 61.9627284,19.4647596 C62.4119748,19.476378 62.7973197,19.6390362 63.0780986,19.93337 C63.422779,20.2993509 63.5467091,20.8028166 63.5467091,21.166861 L63.5467091,21.209462 C63.5021717,22.8941358 61.9840289,24.4316426 59.6622773,25.1519859 C59.6816414,25.8955661 59.9585475,26.2828474 60.4910594,26.2964022 C62.0885949,26.3390032 64.7221079,23.1671691 66.0872746,19.6932556 L66.5190933,18.3551986 C66.5190933,18.3551986 66.5307117,18.3532622 66.5442665,18.347453 C66.5771855,18.3358345 66.6372141,18.3164705 66.6372141,18.3164705 C66.6507689,18.3125976 66.7262888,18.285488 66.8347275,18.2448234 C66.86571,18.2351414 66.9044382,18.2177137 66.9392935,18.2060953 C67.3091472,18.066674 67.9481614,17.8110683 68.4187082,17.5341622 L68.5774935,17.4412147 L68.9318559,17.9408076 C68.9318559,17.9408076 68.8156715,18.076356 68.784689,18.1325118 C68.6781867,18.3242161 68.7072328,18.3164705 68.598794,18.6204863 C68.3722344,19.280801 68.1631025,19.8907691 67.9694618,20.452327 C68.7440245,19.4182858 70.2931498,17.5496534 70.3686697,17.3850589 L70.4345075,17.247574 L71.2477983,17.3734404 L71.2148794,17.5109253 C71.0193023,18.2622511 71.0773945,18.7424799 71.3446186,18.8877104 C71.7648189,19.1162064 72.5664912,18.7928265 73.3333082,17.5225437 L73.4204465,17.3889317 L73.9103574,17.900143 L73.8968026,17.9679173 Z M70.6533214,27.2065134 C56.8854702,30.6455716 36.1330002,39.276136 31.0150774,44.8316867 L30.9647308,44.8878424 L30.8911474,44.8684784 C25.7848431,43.7259985 18.6027108,44.5044339 16.6585585,45.0892287 L16.5694838,45.1163384 L16.0640817,44.3746947 L16.213185,44.3146661 C36.6771304,36.1836946 58.9671073,28.7769392 70.165347,26.3486852 L70.2311848,26.333194 L70.8760082,27.1503576 L70.6533214,27.2065134 Z M43.427444,21.2694906 C43.4351896,20.8609088 43.6152755,20.4736275 43.9289733,20.1754208 C44.2542896,19.8694686 44.6880447,19.6913192 45.0869445,19.7029376 C45.4471161,19.7126197 45.7763053,19.8539773 46.0106105,20.1037738 C46.2507249,20.3555067 46.3785277,20.6982506 46.3688457,21.0642315 C46.3591637,21.4534492 46.1674594,21.8600946 45.8576344,22.1544284 C45.5381273,22.4584443 45.1237362,22.619166 44.6919175,22.6075476 C44.4266298,22.6017384 44.0393485,22.4894268 43.760506,22.195093 C43.541692,21.9646606 43.4255076,21.6587083 43.4255076,21.3120915 C43.4255076,21.2985367 43.4255076,21.2830454 43.427444,21.2694906 Z M85.0040311,8.47565189 C85.0040311,6.87618 83.8518691,2.81553526 78.5364329,2.81553526 C72.5374451,2.81553526 53.9188952,10.7722302 43.998684,10.7722302 C34.0784727,10.7722302 15.4618592,2.81553526 9.46093504,2.81553526 C4.1435624,2.81553526 2.99333685,6.87618 2.99333685,8.47565189 C2.99333685,14.8328749 9.95084592,22.4410166 9.95084592,29.652195 C9.95084592,36.8614369 2.99333685,44.4695786 2.99333685,50.8248652 C2.99333685,52.4262735 4.1435624,56.4888547 9.46093504,56.4888547 C15.4618592,56.4888547 34.0784727,48.5321598 43.998684,48.5321598 C53.9188952,48.5321598 72.5374451,56.4888547 78.5364329,56.4888547 C83.8518691,56.4888547 85.0040311,52.4262735 85.0040311,50.8248652 C85.0040311,44.4695786 78.1007414,36.8614369 78.1007414,29.652195 C78.1007414,22.4410166 85.0040311,14.8328749 85.0040311,8.47565189 Z M59.6816414,24.1314996 C59.8733456,22.5010452 60.9170688,20.4988007 61.6064296,20.5181648 C61.8020067,20.5220376 61.8310528,20.8589724 61.8310528,21.0487402 C61.8310528,21.0661679 61.8310528,21.0816591 61.8291164,21.0971504 C61.8078159,21.923996 61.1997842,23.4363296 59.6816414,24.1314996 Z M85.7882758,50.7822643 C85.7882758,52.7883816 84.4850741,57.2014523 78.4686587,57.2014523 C72.8279061,57.2014523 54.160946,50.2148971 43.998684,50.2148971 C33.8383583,50.2148971 15.1713982,57.2014523 9.53064568,57.2014523 C3.51229383,57.2014523 2.20909216,52.7883816 2.20909216,50.7822643 C2.20909216,44.1520079 8.19839791,37.0202222 8.19839791,29.652195 C8.19839791,22.2802949 2.20909216,15.1504456 2.20909216,8.51825283 C2.20909216,6.51213555 3.51229383,2.10100121 9.53064568,2.10100121 C15.1713982,2.10100121 33.8383583,9.08949279 43.998684,9.08949279 C54.160946,9.08949279 72.8279061,2.10100121 78.4686587,2.10100121 C84.4850741,2.10100121 85.7882758,6.51213555 85.7882758,8.51825283 C85.7882758,15.1504456 79.8531894,22.2802949 79.8531894,29.652195 C79.8531894,37.0202222 85.7882758,44.1520079 85.7882758,50.7822643 Z M87.9996522,9.08561998 C87.9996522,4.79260645 85.9548068,0 77.5411199,0 C72.92279,0 56.4013685,5.37352844 43.998684,5.37352844 C31.5959994,5.37352844 15.0765143,0 10.4543117,0 C2.04256118,0 -0.000347826087,4.79260645 -0.000347826087,9.08561998 C-0.000347826087,14.5579052 4.81743191,23.4363296 4.81743191,29.652195 C4.81743191,35.8680603 -0.000347826087,44.7445484 -0.000347826087,50.2148971 C-0.000347826087,54.5098471 2.04256118,59.3043899 10.4543117,59.3043899 C15.0765143,59.3043899 31.5959994,53.9308615 43.998684,53.9308615 C56.4013685,53.9308615 72.92279,59.3043899 77.5411199,59.3043899 C85.9548068,59.3043899 87.9996522,54.5098471 87.9996522,50.2148971 C87.9996522,44.7445484 83.2341554,35.8680603 83.2341554,29.652195 C83.2341554,23.4363296 87.9996522,14.5579052 87.9996522,9.08561998 Z" id="Fill-1"></path>
        </g>
    </g>
</svg>