<?xml version="1.0" encoding="UTF-8"?>
<svg width="161px" height="100px" viewBox="0 0 161 100" version="1.1" xmlns="http://www.w3.org/2000/svg" xmlns:xlink="http://www.w3.org/1999/xlink">
    <!-- Generator: Sketch 45.1 (43504) - http://www.bohemiancoding.com/sketch -->
    <title>Logo - Biolayne</title>
    <desc>Created with Sketch.</desc>
    <defs>
        <polygon id="path-1" points="154.477013 21.0372366 0 21.0372366 0 10.5186875 0 0.000138392857 154.477013 0.000138392857"></polygon>
    </defs>
    <g id="CLIENT-LOGOS" stroke="none" stroke-width="1" fill="none" fill-rule="evenodd">
        <g id="Logo---Biolayne">
            <g id="Page-1" transform="translate(3.000000, 39.000000)">
                <mask id="mask-2" fill="white">
                    <use xlink:href="#path-1"></use>
                </mask>
                <g id="Clip-2"></g>
                <path d="M4.72611607,16.4896473 L12.7217634,16.4896473 L12.7217634,12.4174375 L4.72611607,12.4174375 L4.72611607,16.4896473 Z M4.72611607,8.46355357 L12.7217634,8.46355357 L12.7217634,4.74839732 L4.72611607,4.74839732 L4.72611607,8.46355357 Z M15.8432143,10.1879286 C15.7435714,10.3069464 15.6985938,10.4557187 15.7089732,10.6335536 C15.7186607,10.8120804 15.7733259,10.9511652 15.8722768,11.0501161 L17.1212723,12.5364554 C17.2195313,12.6547812 17.3039509,12.8083973 17.3731473,12.9966116 C17.4430357,13.1855179 17.4776339,13.3585089 17.4776339,13.5169688 L17.4776339,17.5594241 C17.4776339,18.0354955 17.3835268,18.4859643 17.1953125,18.9115223 C17.0064063,19.3384643 16.759375,19.7100491 16.4521429,20.0269687 C16.1449107,20.3445804 15.7781696,20.5916116 15.3526116,20.7701384 C14.9256696,20.9486652 14.4752009,21.0372366 13.9998214,21.0372366 L0.564642857,21.0372366 C0.188214286,21.0372366 0,20.8490223 0,20.4725937 L0,0.795205357 C0,0.41946875 0.188214286,0.2305625 0.564642857,0.2305625 L13.9998214,0.2305625 C14.4752009,0.2305625 14.9256696,0.324669643 15.3526116,0.512883929 C15.7781696,0.701098214 16.1449107,0.948821429 16.4521429,1.25605357 C16.759375,1.56328571 17.0064063,1.93002679 17.1953125,2.35558482 C17.3835268,2.78252679 17.4776339,3.23299554 17.4776339,3.708375 L17.4776339,7.57230357 C17.4776339,7.73145536 17.4430357,7.90444643 17.3731473,8.09266071 C17.3039509,8.280875 17.2195313,8.43449107 17.1212723,8.55281696 L15.8432143,10.1879286 Z" id="Fill-1" fill="#161819" mask="url(#mask-2)"></path>
                <path d="M27.7130313,20.4726629 C27.7130313,20.8490915 27.524817,21.0373058 27.1483884,21.0373058 L23.0464241,21.0373058 C22.6699955,21.0373058 22.4817813,20.8490915 22.4817813,20.4726629 L22.4817813,0.795274554 C22.4817813,0.419537946 22.6699955,0.230631696 23.0464241,0.230631696 L27.1483884,0.230631696 C27.524817,0.230631696 27.7130313,0.419537946 27.7130313,0.795274554 L27.7130313,20.4726629 Z" id="Fill-3" fill="#161819" mask="url(#mask-2)"></path>
                <path d="M38.0822545,15.7540893 L45.0676339,15.7540893 L45.0676339,5.05286161 L38.0822545,5.05286161 L38.0822545,15.7540893 Z M46.8508259,0.000138392857 C47.3268973,0.000138392857 47.7766741,0.0942455357 48.2036161,0.281767857 C48.6291741,0.470674107 48.9959152,0.718397321 49.3031473,1.02562946 C49.6103795,1.33286161 49.8574107,1.69891071 50.046317,2.12516071 C50.2345313,2.55141071 50.3286384,3.00187946 50.3286384,3.47725893 L50.3286384,17.329 C50.3286384,17.8050714 50.2345313,18.2555402 50.046317,18.6810982 C49.8574107,19.1073482 49.6103795,19.479625 49.3031473,19.7965446 C48.9959152,20.1134643 48.6291741,20.3604955 48.2036161,20.5390223 C47.7766741,20.7175491 47.3268973,20.8068125 46.8508259,20.8068125 L36.328817,20.8068125 C35.8527455,20.8068125 35.4022768,20.7175491 34.9760268,20.5390223 C34.5497768,20.3604955 34.178192,20.1134643 33.8619643,19.7965446 C33.5443527,19.479625 33.2973214,19.1073482 33.1187946,18.6810982 C32.9402679,18.2555402 32.8510045,17.8050714 32.8510045,17.329 L32.8510045,3.47725893 C32.8510045,3.00187946 32.9402679,2.55141071 33.1187946,2.12516071 C33.2973214,1.69891071 33.5443527,1.33286161 33.8619643,1.02562946 C34.178192,0.718397321 34.5497768,0.470674107 34.9760268,0.281767857 C35.4022768,0.0942455357 35.8527455,0.000138392857 36.328817,0.000138392857 L46.8508259,0.000138392857 Z" id="Fill-4" fill="#161819" mask="url(#mask-2)"></path>
                <path d="M68.6521295,15.984375 C68.8105893,15.984375 68.9392946,16.0390402 69.0389375,16.1476786 C69.1371964,16.2570089 69.1870179,16.390558 69.1870179,16.5490179 L69.1870179,20.4724554 C69.1870179,20.6316071 69.1371964,20.7644643 69.0389375,20.8737946 C68.9392946,20.983125 68.8105893,21.0377902 68.6521295,21.0377902 L55.8113482,21.0377902 C55.4349196,21.0377902 55.2467054,20.8488839 55.2467054,20.4724554 L55.2467054,0.795066964 C55.2467054,0.419330357 55.4349196,0.230424107 55.8113482,0.230424107 L59.9133125,0.230424107 C60.2897411,0.230424107 60.4779554,0.419330357 60.4779554,0.795066964 L60.4779554,15.4494866 C60.4779554,15.6079464 60.5326205,15.7373437 60.6412589,15.8356027 C60.7505893,15.9352455 60.8841384,15.984375 61.0425982,15.984375 L68.6521295,15.984375 Z" id="Fill-5" fill="#161819" mask="url(#mask-2)"></path>
                <path d="M78.7109375,10.1291116 L85.696317,10.1291116 L85.696317,4.89716964 L78.7109375,4.89716964 L78.7109375,10.1291116 Z M87.4795089,0.2305625 C87.9548884,0.2305625 88.4060491,0.324669643 88.8322991,0.512883929 C89.2578571,0.701098214 89.6239063,0.948821429 89.9318304,1.25605357 C90.2390625,1.56328571 90.4867857,1.93002679 90.675,2.35558482 C90.8632143,2.78252679 90.9573214,3.23299554 90.9573214,3.708375 L90.9573214,20.4725937 C90.9573214,20.6317455 90.9019643,20.7646027 90.7940179,20.873933 C90.6846875,20.9825714 90.5511384,21.0372366 90.3926786,21.0372366 L86.2609598,21.0372366 C86.1025,21.0372366 85.9682589,20.9825714 85.8596205,20.873933 C85.7509821,20.7646027 85.696317,20.6317455 85.696317,20.4725937 L85.696317,15.1520804 C85.696317,14.9936205 85.6464955,14.8600714 85.5475446,14.7507411 C85.4479018,14.6421027 85.3198884,14.5867455 85.1607366,14.5867455 L79.2755804,14.5867455 C79.1171205,14.5867455 78.9835714,14.6421027 78.8742411,14.7507411 C78.7656027,14.8600714 78.7109375,14.9936205 78.7109375,15.1520804 L78.7109375,20.4725937 C78.7109375,20.8490223 78.5227232,21.0372366 78.1469866,21.0372366 L74.0443304,21.0372366 C73.6679018,21.0372366 73.4796875,20.8490223 73.4796875,20.4725937 L73.4796875,3.708375 C73.4796875,3.23299554 73.5689509,2.78252679 73.7474777,2.35558482 C73.9253125,1.93002679 74.1730357,1.56328571 74.4899554,1.25605357 C74.806875,0.948821429 75.1784598,0.701098214 75.6047098,0.512883929 C76.0302679,0.324669643 76.4814286,0.2305625 76.9575,0.2305625 L87.4795089,0.2305625 Z" id="Fill-6" fill="#161819" mask="url(#mask-2)"></path>
                <path d="M111.942107,0.393866071 C112.050746,0.503196429 112.105411,0.636745536 112.105411,0.795205357 L112.105411,11.4071696 C112.105411,11.8825491 112.011304,12.3330179 111.823089,12.7592679 C111.634875,13.1855179 111.387152,13.551567 111.07992,13.8581071 C110.772688,14.1667232 110.405946,14.4137545 109.980388,14.6019688 C109.554138,14.790875 109.102978,14.8842902 108.627598,14.8842902 L106.368335,14.8842902 L106.368335,20.4725938 C106.368335,20.6317455 106.31367,20.7646027 106.205031,20.873933 C106.096393,20.9825714 105.962152,21.0372366 105.804384,21.0372366 L101.671973,21.0372366 C101.513513,21.0372366 101.384808,20.9825714 101.286549,20.873933 C101.186906,20.7646027 101.137777,20.6317455 101.137777,20.4725938 L101.137777,14.8842902 L98.8785134,14.8842902 C98.4031339,14.8842902 97.9519732,14.790875 97.5257232,14.6019688 C97.0994732,14.4137545 96.7285804,14.1667232 96.4116607,13.8581071 C96.0940491,13.551567 95.8463259,13.1855179 95.6677991,12.7592679 C95.4899643,12.3330179 95.4007009,11.8825491 95.4007009,11.4071696 L95.4007009,0.795205357 C95.4007009,0.41946875 95.5889152,0.2305625 95.9653438,0.2305625 L99.8887813,0.2305625 C100.047933,0.2305625 100.181482,0.285227679 100.290121,0.393866071 C100.398759,0.503196429 100.453424,0.636745536 100.453424,0.795205357 L100.453424,9.65304018 C100.453424,9.8115 100.503246,9.94574107 100.602196,10.0543795 C100.701147,10.1637098 100.829853,10.217683 100.989004,10.217683 L106.487353,10.217683 C106.863781,10.217683 107.052688,10.0294688 107.052688,9.65304018 L107.052688,0.795205357 C107.052688,0.41946875 107.24021,0.2305625 107.61733,0.2305625 L111.540768,0.2305625 C111.698536,0.2305625 111.832777,0.285227679 111.942107,0.393866071" id="Fill-7" fill="#161819" mask="url(#mask-2)"></path>
                <path d="M132.049621,0.512814732 C132.475179,0.701029018 132.842612,0.948752232 133.149844,1.25598438 C133.456384,1.56390848 133.704107,1.92995759 133.892321,2.35620759 C134.081228,2.78245759 134.174643,3.23292634 134.174643,3.7083058 L134.174643,20.4725246 C134.174643,20.6316763 134.119978,20.7645335 134.011339,20.8738638 C133.902701,20.9831942 133.76846,21.0378594 133.61,21.0378594 L129.478281,21.0378594 C129.319821,21.0378594 129.191116,20.9831942 129.092165,20.8738638 C128.992522,20.7645335 128.943393,20.6316763 128.943393,20.4725246 L128.943393,5.81879687 C128.943393,5.66033705 128.888728,5.5316317 128.780089,5.43198884 C128.670759,5.33303795 128.53721,5.28390848 128.37875,5.28390848 L122.492902,5.28390848 C122.334442,5.28390848 122.200893,5.33303795 122.092254,5.43198884 C121.982924,5.5316317 121.928951,5.66033705 121.928951,5.81879687 L121.928951,20.4725246 C121.928951,20.8489531 121.740737,21.0378594 121.364308,21.0378594 L117.262344,21.0378594 C116.885223,21.0378594 116.697009,20.8489531 116.697009,20.4725246 L116.697009,0.795136161 C116.697009,0.419399554 116.885223,0.230493304 117.262344,0.230493304 L130.697522,0.230493304 C131.17221,0.230493304 131.623371,0.325292411 132.049621,0.512814732" id="Fill-8" fill="#161819" mask="url(#mask-2)"></path>
                <path d="M143.806924,5.22412277 L143.806924,8.46389955 C143.806924,8.54347545 143.855362,8.58291741 143.955696,8.58291741 L152.426723,8.58291741 C152.585183,8.58291741 152.718732,8.63758259 152.828063,8.74622098 C152.936009,8.85555134 152.991366,8.98910045 152.991366,9.14756027 L152.991366,12.1202388 C152.991366,12.4966674 152.80246,12.6848817 152.426723,12.6848817 L143.955696,12.6848817 C143.855362,12.6848817 143.806924,12.7347031 143.806924,12.833654 L143.806924,16.0436763 C143.806924,16.1433192 143.855362,16.1924487 143.955696,16.1924487 L153.912371,16.1924487 C154.070138,16.1924487 154.203688,16.2471138 154.31371,16.3557522 C154.42304,16.4650826 154.477013,16.5986317 154.477013,16.7570915 L154.477013,20.4729397 C154.477013,20.6313996 154.42304,20.7642567 154.31371,20.874279 C154.203688,20.9829174 154.070138,21.0375826 153.912371,21.0375826 L142.052795,21.0375826 C141.576723,21.0375826 141.125563,20.9483192 140.700004,20.7697924 C140.274446,20.5912656 139.90217,20.3442344 139.585942,20.0266228 C139.26833,19.7097031 139.021299,19.3388103 138.842772,18.9118683 C138.664246,18.4863103 138.574982,18.0351496 138.574982,17.5597701 L138.574982,3.70802902 C138.574982,3.23264955 138.664246,2.7821808 138.842772,2.3559308 C139.021299,1.9296808 139.26833,1.5636317 139.585942,1.25639955 C139.90217,0.949167411 140.274446,0.701444196 140.700004,0.512537946 C141.125563,0.325015625 141.576723,0.230908482 142.052795,0.230908482 L153.912371,0.230908482 C154.070138,0.230908482 154.203688,0.285573661 154.31371,0.394212054 C154.42304,0.502850446 154.477013,0.637091518 154.477013,0.795551339 L154.477013,4.54046205 C154.477013,4.69961384 154.42304,4.8283192 154.31371,4.92657812 C154.203688,5.02622098 154.070138,5.07535045 153.912371,5.07535045 L143.955696,5.07535045 C143.855362,5.07535045 143.806924,5.12517187 143.806924,5.22412277" id="Fill-9" fill="#161819" mask="url(#mask-2)"></path>
            </g>
        </g>
    </g>
</svg>