<?xml version="1.0" encoding="UTF-8"?>
<svg width="148px" height="100px" viewBox="0 0 148 100" version="1.1" xmlns="http://www.w3.org/2000/svg" xmlns:xlink="http://www.w3.org/1999/xlink">
    <!-- Generator: Sketch 45.1 (43504) - http://www.bohemiancoding.com/sketch -->
    <title>Logo - D&amp;W</title>
    <desc>Created with Sketch.</desc>
    <defs>
        <polygon id="path-1" points="124.61152 49.8366013 0.000408496732 49.8366013 0.000408496732 0.154575163 124.61152 0.154575163 124.61152 49.8366013"></polygon>
    </defs>
    <g id="CLIENT-LOGOS" stroke="none" stroke-width="1" fill="none" fill-rule="evenodd">
        <g id="Logo---D&amp;W">
            <g id="Page-1" transform="translate(12.000000, 25.000000)">
                <path d="M32.0434641,25.7763889 C32.0434641,30.2796569 28.4462418,33.4291667 23.3,33.4291667 L18.8163399,33.4291667 C18.550817,33.4291667 18.3947712,33.2902778 18.3947712,33.0386438 L18.3947712,18.4741013 C18.3947712,18.2322712 18.5312092,18.0623366 18.7910131,18.0623366 L23.3,18.0623366 C28.4462418,18.0623366 32.0434641,21.2339052 32.0434641,25.7763889 L32.0434641,25.7763889 Z M14.0418301,14.0835784 C13.800817,14.0835784 13.6031046,14.2763889 13.6031046,14.514951 L13.6031046,36.9667484 C13.6031046,37.2069444 13.800817,37.4062908 14.0418301,37.4062908 L23.3,37.4062908 C31.2689542,37.4062908 37.053268,32.4888072 37.053268,25.7093954 C37.053268,18.9708333 31.2689542,14.0835784 23.3,14.0835784 L14.0418301,14.0835784 Z" id="Fill-1" fill="#161819"></path>
                <path d="M85.8158497,38.1836601 C85.9735294,38.1926471 86.1328431,38.0937908 86.2112745,37.948366 C86.2112745,37.948366 93.2537582,23.6648693 93.398366,23.4026144 C93.5478758,23.1387255 93.8632353,23.1542484 94.0070261,23.4099673 C94.0903595,23.5553922 101.188399,37.948366 101.188399,37.948366 C101.265196,38.0937908 101.419608,38.1836601 101.579739,38.1836601 L101.587092,38.1836601 C101.757026,38.1836601 101.904902,38.0823529 101.977614,37.9312092 L112.72598,14.7098039 C112.792974,14.573366 112.781536,14.4099673 112.698203,14.2800654 C112.620588,14.1542484 112.477614,14.0839869 112.333007,14.0839869 L108.468627,14.0839869 C108.298693,14.0839869 108.142647,14.1754902 108.073203,14.328268 C108.073203,14.328268 101.919608,27.3388889 101.722712,27.7637255 C101.564216,28.1133987 101.202288,28.0316993 101.073203,27.7792484 C100.946569,27.5259804 94.0928105,13.9761438 94.0928105,13.9761438 C94.020915,13.823366 93.8689542,13.7310458 93.7022876,13.7310458 C93.5397059,13.7310458 93.3836601,13.827451 93.3068627,13.9761438 C93.3068627,13.9761438 86.654902,27.2718954 86.4833333,27.6133987 C86.3027778,27.951634 85.9326797,27.8617647 85.7986928,27.5929739 C85.6614379,27.3168301 79.3575163,14.325 79.3575163,14.325 C79.279902,14.1754902 79.1303922,14.0839869 78.9620915,14.0839869 L75.0723856,14.0839869 C74.9163399,14.0839869 74.7823529,14.1542484 74.7031046,14.2800654 C74.6189542,14.4099673 74.6091503,14.573366 74.6704248,14.7098039 L85.4245098,37.9312092 C85.4955882,38.0823529 85.6393791,38.1787582 85.8158497,38.1836601" id="Fill-3" fill="#161819"></path>
                <g id="Group-7" transform="translate(0.000000, 0.662582)">
                    <mask id="mask-2" fill="white">
                        <use xlink:href="#path-1"></use>
                    </mask>
                    <g id="Clip-6"></g>
                    <path d="M61.6662582,32.8441176 C61.7700163,33.0655229 61.683415,33.2387255 61.4579248,33.3236928 C60.3729575,33.7166667 59.2495915,33.8955882 58.1164216,33.8955882 C52.4938725,33.8955882 47.9236111,29.3236928 47.9236111,23.7076797 C47.9236111,20.1251634 49.7871732,16.8367647 52.814951,14.9977124 C52.9301471,14.927451 53.2103758,14.9037582 53.3582516,15.2068627 C53.4963235,15.4838235 60.5085784,30.3759804 61.6662582,32.8441176 M124.085376,0.154575163 L46.9824346,0.154575163 C46.8321078,0.154575163 46.690768,0.255882353 46.6098856,0.380882353 C46.5281863,0.510784314 46.5183824,0.668464052 46.5845588,0.807352941 C46.5845588,0.807352941 51.0020425,10.174183 51.1139706,10.425 C51.2226307,10.6823529 51.058415,10.8571895 50.9562908,10.9168301 C46.310866,13.5132353 43.4448529,18.3678105 43.4448529,23.7076797 C43.4448529,31.795098 50.0273693,38.3759804 58.1164216,38.3759804 C59.9497549,38.3759804 61.7389706,38.0377451 63.441585,37.3759804 C63.5420752,37.3351307 63.7920752,37.3808824 63.8933824,37.5834967 C63.9979575,37.7795752 65.8280229,41.8179739 65.8280229,41.8179739 C65.9023693,41.9691176 66.060866,42.0671569 66.2299837,42.0671569 L70.2103758,42.0671569 C70.2169118,42.0720588 70.2209967,42.0671569 70.2209967,42.0671569 C70.4628268,42.0671569 70.6613562,41.8759804 70.6613562,41.6333333 C70.6613562,41.5295752 70.6245915,41.4315359 70.5714869,41.3604575 C70.5714869,41.3604575 67.8549837,35.4495098 67.7365196,35.2232026 C67.6213235,34.9936275 67.7365196,34.7681373 67.813317,34.7035948 C70.8925654,31.9805556 72.7062908,28.1112745 72.7863562,24.0107843 C72.7937092,23.8874183 72.7479575,23.7779412 72.6613562,23.6929739 C72.5804739,23.6039216 72.4685458,23.5606209 72.3492647,23.5606209 L68.7471405,23.5606209 C68.5093954,23.5606209 68.3125,23.7493464 68.308415,23.9903595 C68.2504085,26.2591503 67.4187092,28.4339869 65.9579248,30.1905229 C65.8329248,30.3375817 65.4906046,30.4486928 65.3329248,30.1145425 C63.6540033,26.546732 53.6441993,5.2501634 53.5412582,5.07614379 C53.435049,4.88333333 53.5535131,4.69052288 53.7879902,4.69052288 L119.576389,4.69052288 C119.803513,4.69052288 120.051062,4.80980392 120.051062,5.16601307 L120.051062,44.8261438 C120.051062,45.1823529 119.803513,45.301634 119.576389,45.301634 L5.03390523,45.301634 C4.80841503,45.301634 4.56004902,45.1823529 4.56004902,44.8261438 L4.56004902,5.16601307 C4.56004902,4.80980392 4.80841503,4.69052288 5.03390523,4.69052288 L42.7365196,4.69052288 C42.9832516,4.69052288 43.0943627,4.46421569 42.9914216,4.21830065 L41.2234477,0.620261438 C41.1180556,0.375163399 40.8329248,0.154575163 40.5919118,0.154575163 L0.526552288,0.154575163 C0.219362745,0.154575163 0.000408496732,0.426633987 0.000408496732,0.734640523 L0.000408496732,49.2575163 C0.000408496732,49.5655229 0.219362745,49.8367647 0.526552288,49.8367647 L124.085376,49.8367647 C124.392565,49.8367647 124.61152,49.5655229 124.61152,49.2575163 L124.61152,0.734640523 C124.61152,0.426633987 124.392565,0.154575163 124.085376,0.154575163" id="Fill-5" fill="#161819" mask="url(#mask-2)"></path>
                </g>
            </g>
        </g>
    </g>
</svg>