<?xml version="1.0" encoding="UTF-8"?>
<svg width="148px" height="100px" viewBox="0 0 148 100" version="1.1" xmlns="http://www.w3.org/2000/svg" xmlns:xlink="http://www.w3.org/1999/xlink">
    <!-- Generator: Sketch 45.1 (43504) - http://www.bohemiancoding.com/sketch -->
    <title>Logo - t11</title>
    <desc>Created with Sketch.</desc>
    <defs></defs>
    <g id="CLIENT-LOGOS" stroke="none" stroke-width="1" fill="none" fill-rule="evenodd">
        <g id="Logo---t11" fill="#161819">
            <g id="Page-1" transform="translate(0.000000, 24.000000)">
                <g id="Group-3" transform="translate(0.000000, 0.046233)">
                    <path d="M73.9014176,30.0620362 C73.1921748,30.1819368 72.4605777,30.2530643 71.7015457,30.2657657 C71.3022156,30.2723704 70.9704567,30.4735596 70.9618198,30.7372394 C70.9531829,31.0009191 71.2691922,31.2259869 71.6685223,31.2163338 C72.1354235,31.2056647 72.5926716,31.1731493 73.0433151,31.1238681 C73.440105,31.0806836 73.553909,31.2828889 73.2836245,31.5775599 C71.9809752,32.9970615 70.3597763,34.2316316 68.5079212,34.9835509 C68.1375501,35.1334267 67.7260268,35.2563756 67.6010456,35.2995602 C67.4872416,35.3381722 67.3744537,35.3798326 67.3744537,35.3798326 C67.1631034,35.4565487 66.9624223,35.4936366 66.7642814,35.5246279 C66.7358304,35.5307245 66.7068714,35.5363131 66.6779123,35.5424098 C66.6301553,35.5510467 66.2613084,35.6059165 65.8726474,35.5129427 C65.4656965,35.4164125 65.1125993,35.193377 64.8311377,34.8458684 C63.9750674,33.7881009 63.7627011,31.5226901 65.3158208,29.0484694 C67.2494725,25.9676327 71.9687819,22.5199814 74.6655301,22.2161653 C74.8428408,22.1968593 75.0003374,22.1968593 75.1420843,22.2110848 C75.404748,22.2369955 75.7166929,22.3706136 75.8472626,22.4437733 C75.9270271,22.4889901 76.002727,22.5387793 76.0672498,22.6002538 L76.1378693,22.6713813 C76.524498,23.0844288 76.7261953,23.6808837 76.7241631,24.4749714 C76.7211147,25.8152166 76.1017975,27.5822269 75.0104985,29.3207861 C74.7981321,29.6596578 74.2951591,29.9954812 73.9014176,30.0620362 M59.5849768,24.5364459 C58.4784362,26.4421547 55.5286773,28.6018903 50.6213881,29.2638841 C50.2251064,29.3172297 50.0828514,29.0799687 50.3246849,28.7614191 C51.5750046,27.1168498 55.4362116,22.5895847 59.7043694,22.5895847 C59.8227458,22.5895847 60.4659416,22.7760403 59.5849768,24.5364459 M146.141551,33.3709889 C146.141551,33.3709889 145.947474,33.5879278 145.5832,33.9943706 C145.202668,34.3784591 144.723573,35.0495978 143.958445,35.6933017 C143.585025,36.0276009 143.194332,36.4157538 142.733528,36.8003503 C142.247829,37.1559878 141.723009,37.5410924 141.16161,37.9521077 C140.759232,38.2030862 140.327894,38.4474599 139.882331,38.7019948 C139.535331,38.9001356 138.95869,39.1917584 138.595432,39.3583999 C138.091442,39.5900723 137.574244,39.8344461 137.025546,40.0483366 C135.42975,40.630566 133.659691,41.1564014 131.720959,41.4226215 C129.792388,41.7254214 127.726642,41.8468462 125.582148,41.8468462 C121.292144,41.9128931 116.692227,41.4109362 112.085198,40.8754478 C109.624694,40.5792526 107.155554,40.3211614 104.713341,40.1199722 C104.315027,40.0869487 104.174296,39.795326 104.392251,39.4605187 C106.221752,36.6479343 107.620931,33.6605794 108.913419,30.8769541 C110.73784,26.948176 112.313314,23.5548864 114.63461,21.8214077 C114.799728,21.6984588 114.866791,21.4840602 114.802776,21.2889676 C114.737237,21.093367 114.555862,20.9617811 114.349592,20.9617811 L112.133463,20.9617811 C112.024231,20.9617811 111.919064,20.9993771 111.834219,21.0674563 C110.618955,22.0434271 109.600816,23.4644529 108.640087,25.1664323 C108.44347,25.5144489 108.097485,26.0606065 107.85616,26.378648 C105.035447,30.0960758 101.722938,33.9542344 99.6038463,35.2827944 C99.2654827,35.4951608 98.794009,35.6729795 98.5770701,35.7126077 C98.3606393,35.7522359 97.96893,35.7644292 97.7347173,35.6673909 C97.5030449,35.5708608 97.4314094,35.4301299 97.399402,35.3686555 C96.677966,33.9572827 99.1095102,29.3720995 104.625956,21.7406272 C104.731123,21.5948158 104.74484,21.4032797 104.66406,21.2437509 C104.581755,21.084222 104.417654,20.9836274 104.238819,20.9836274 L102.196952,20.9836274 C102.044536,20.9836274 101.89974,21.0567871 101.810323,21.1812603 L101.492281,21.6202185 C100.225196,23.370463 98.9819888,25.1283282 97.9166005,26.7993163 C97.7016939,27.1361558 97.4618926,27.4917933 97.3841604,27.5995007 C97.314049,27.6965389 97.2459698,27.7956093 97.2459698,27.7956093 C94.9206088,31.1492708 89.9228861,35.7944043 86.5890387,35.7944043 C85.6293256,35.7944043 85.0552251,35.5754332 84.8845191,35.1425716 C84.106181,33.1804688 89.5626761,27.0441982 93.1856059,23.636683 C93.33853,23.4929039 93.3796824,23.2668201 93.2862005,23.0783322 C93.1932267,22.8898443 92.9854328,22.7780726 92.7822114,22.8182088 C92.4799195,22.8619014 85.4382974,23.930338 83.6865288,17.3571412 C83.6509651,17.2235232 83.5600235,17.1127675 83.4360584,17.0523091 C83.3110772,16.9898185 83.1683142,16.984738 83.0402847,17.0401158 C82.8787237,17.1071789 82.74917,17.1894836 82.644511,17.278901 C82.4504345,17.4460506 82.1298528,17.8773881 81.9403488,18.2289611 C81.6847979,18.702467 81.5969046,19.1998514 81.6822576,19.7155258 C81.8534716,20.7555114 82.7009049,21.6131058 83.3786484,22.1485942 C83.6921174,22.3960163 83.7983006,22.8471678 83.5803456,23.1819751 C81.6350086,26.1627253 79.3528321,28.1796978 76.6804705,29.2694727 C76.3106075,29.4203646 76.172925,29.2471183 76.363445,28.8960533 C77.1986851,27.3546189 77.6757473,25.8050556 77.6793037,24.4764955 C77.6874326,22.7480974 76.6499872,21.8325849 76.6499872,21.8325849 C76.4447336,21.6283474 76.1907068,21.4866004 75.9041646,21.387022 C75.4311668,21.1741475 74.8814529,21.0486583 74.2423215,21.04561 C70.1509663,21.04561 64.5842236,24.4068922 62.0866324,28.3849515 C61.5816272,29.1886922 61.2102401,29.9883684 60.962818,30.7590857 C60.8408851,31.1396178 60.5147148,31.6552921 60.1931169,31.8925531 C57.2128748,34.0949652 54.7615164,35.1324106 52.7430197,35.5840702 C52.3528346,35.6714554 52.0312367,35.7131158 52.0297125,35.7014305 C52.0276803,35.6897453 51.920481,35.69635 51.7904193,35.7161641 L51.5546825,35.7527439 C50.5197774,35.9132889 49.7607454,35.6699312 49.3075617,35.0328321 C48.6953571,34.1711733 48.6902766,32.6927374 49.2267811,31.0075238 C49.3482059,30.6264837 49.7922447,30.3018375 50.1895426,30.2576368 C55.7654302,29.6393357 59.1516071,27.1839129 60.4100557,25.0155404 C60.9587536,24.0715769 61.0034623,23.3333751 60.9292865,22.8263376 C60.8713684,22.4305639 60.5777134,21.8320769 60.2545914,21.5973561 C59.8862525,21.3296119 59.3959809,21.1868489 58.818832,21.1868489 C54.5948749,21.1868489 49.6611669,24.2829271 47.0868596,28.5490527 C46.6641591,29.2496586 46.3329082,29.9472161 46.0951391,30.6239434 C45.9620291,31.0009191 45.685648,31.5740035 45.4346695,31.8849323 C44.7157737,32.7770743 43.8983156,33.6763291 43.0666319,34.4099584 C42.7663723,34.6741463 42.4193717,34.9296972 42.3116644,35.0053972 C42.21361,35.0739844 42.1165718,35.1435877 42.1165718,35.1435877 C41.7253706,35.4260655 41.2635499,35.6745037 40.7742944,35.8746768 C40.1742831,36.0778982 39.6093276,36.0961881 39.1231203,35.8264117 C38.7674829,35.6277628 38.5632453,35.3722118 38.4819568,35.022671 C38.1283515,33.5127359 40.0553986,30.7174253 41.7563618,28.2518414 C43.5975479,25.5804959 45.0515971,23.4715656 44.4028128,22.2375036 C44.1254155,21.7070957 43.5127029,21.4373193 42.5849972,21.4373193 C41.8559403,21.4373193 41.0847151,21.6019286 40.2906274,21.8767856 C40.2464267,21.8894869 40.1996858,21.8991399 40.1565012,21.9118413 C40.1565012,21.9118413 40.0538744,21.9428325 39.9278771,21.9809365 C39.8018799,22.0190406 39.7028094,22.0607009 39.7068739,22.0739103 C39.7109383,22.0876278 39.414235,22.2202298 39.0540251,22.392968 C36.0626058,23.8277112 32.8339255,26.6814479 30.0665579,29.4630411 C29.7845882,29.7460269 29.7383553,29.708939 29.9608827,29.376672 C34.2539352,22.9696087 37.4617852,18.3788369 38.1700119,17.269756 C38.474336,16.7937099 38.7740876,16.3440825 39.072823,15.9046162 C39.2973827,15.5738733 39.7967993,15.3752244 40.1880006,15.457021 C53.94101,18.341241 59.0169729,15.153205 61.9723204,12.2578078 C62.4072142,11.8696549 62.6302497,11.5180819 62.5128894,11.4474624 C62.3843518,11.2833611 62.0099163,11.4078343 61.7152453,11.6776107 C58.0811383,15.0084097 52.7663902,16.3064865 41.605978,13.4918699 C41.2183331,13.3938156 41.0984325,13.0524036 41.340266,12.7348701 C48.7517511,3.0041206 56.398465,1.10501646 56.4604475,1.09587149 C56.7149823,1.05979969 56.9568158,0.991720516 56.949195,0.734645423 C56.9446225,0.59645486 56.759183,0.424732762 56.4304723,0.46893342 C56.0890604,0.515674346 46.6428208,1.80054176 38.5784869,12.0012408 C38.3305568,12.3147098 37.8209791,12.4854158 37.4368906,12.3756763 C35.3782577,11.7893825 32.0896271,10.8022344 30.6665691,10.3734372 C30.2840048,10.2581091 30.1707089,9.90602798 30.4181309,9.59154284 C32.1023284,7.45060521 33.7189548,5.76589966 35.2111081,5.33862663 C35.5951965,5.22837901 35.9244152,5.09577704 35.9244152,4.92608715 C35.9244152,4.75639727 35.599261,4.61465033 35.2034873,4.66647179 C32.9517939,4.96419117 30.7046731,6.62451015 28.4707617,9.10228728 C28.2030175,9.39899055 27.6776901,9.56664822 27.288013,9.47773885 C19.0692309,7.60860986 11.0577346,8.66891761 5.85628239,12.4910044 C3.37748915,14.3139005 1.66585676,16.6804139 0.754408706,19.4579426 C0.670579872,19.7033325 0.608597339,19.9619318 0.538994004,20.2154505 C0.474471204,20.4557598 0.39927928,20.6899725 0.346441711,20.9358704 C0.251943752,21.368224 0.185388738,21.8173433 0.128486741,22.2725593 C0.114769295,22.3843311 0.0903827253,22.4915304 0.0781894403,22.6048263 C0.0426256923,22.9523349 0.016206908,23.3054321 0.000965301732,23.665134 C-0.0163085187,24.0644641 0.199106184,24.3886023 0.462785972,24.3886023 C0.726465761,24.3886023 0.938324089,24.0649722 0.956614016,23.6656421 C0.970839516,23.3476006 0.994718032,23.0336235 1.02672541,22.7232028 C1.03841064,22.6063505 1.06330526,22.4966109 1.07803881,22.3812827 C1.13036833,21.9702674 1.19031865,21.5638246 1.27516359,21.1685589 C1.32952532,20.9175805 1.40217697,20.6782873 1.46974809,20.4364538 C1.5276662,20.2230713 1.58253598,20.0086727 1.6501071,19.8008788 C2.40558272,17.5654432 3.76208568,15.7003786 5.71809182,14.23312 C10.2819368,10.8118875 17.9139171,9.88570584 25.4950921,11.7258758 C25.8837531,11.8198657 26.0011134,12.1633099 25.7658846,12.4864319 C23.1524572,16.0712577 23.0874264,16.4939583 20.5354734,20.8398483 C16.1362378,28.3295736 11.5881425,37.0274503 7.81228853,38.3189224 C7.43378864,38.448476 7.12489208,38.571933 7.14724644,38.6933578 C7.17010885,38.8152907 7.51355304,38.9123289 7.90831065,38.8518705 C13.643219,37.973954 18.7674471,28.9839466 24.232071,19.4467655 C26.1291429,16.1362886 26.044806,15.9163014 27.9210478,13.0722177 C28.1410349,12.7384265 28.6333388,12.5595916 29.0179354,12.6683151 C31.4728501,13.360284 33.7667118,13.9633436 35.913238,14.4830824 C36.301391,14.5775803 36.4319607,14.9174681 36.2063849,15.2477029 C35.875134,15.7328941 35.5438831,16.2302785 35.2121242,16.7581461 C34.0883097,18.5454785 22.3791997,35.762905 22.2359286,35.9773036 C22.1871555,36.0504633 22.1602286,36.1342921 22.1556562,36.2191371 C22.1480354,36.360884 22.2643796,36.5793471 22.3868205,36.6525068 C22.4594722,36.6961994 22.5443171,36.7200779 22.6322104,36.7200779 L24.7838171,36.7200779 C24.9433459,36.7200779 25.0916976,36.6413296 25.1800989,36.5087276 C25.1983888,36.4812927 25.446827,36.1109217 25.8659712,35.4860158 C26.0884986,35.1542569 26.3425254,34.804716 26.433975,34.7061536 C26.4863046,34.6487436 26.5396502,34.5908255 26.5990924,34.5257946 C29.7220976,31.1116748 35.7689508,24.5064707 40.5080743,22.8065236 C40.7727702,22.7292994 40.9866607,22.6805263 41.1588909,22.6505511 C41.5236733,22.5865364 41.8417148,22.9680846 41.6837102,23.3348992 C41.2752351,24.2824191 40.182412,25.9036179 39.3908646,27.0787458 C37.4165685,30.0097067 35.1780846,33.333393 35.6647999,35.3899937 C35.8065468,35.9884808 36.159644,36.4508095 36.7154546,36.7642785 C37.3434088,37.1183919 38.0429985,37.2697918 38.7578298,37.2697918 C39.5229585,37.2697918 40.2977401,37.0853684 41.0257809,36.8003503 C42.4767818,36.3278605 43.9567417,35.0191146 45.1755622,33.6712486 C45.4433064,33.3750534 45.6516084,33.4532936 45.714607,33.8480512 C45.7882748,34.3047913 45.9269734,34.7269838 46.1378156,35.1019273 C46.777455,36.2394592 47.9896708,36.8684295 49.5509193,36.8740181 L49.6225549,36.8740181 C52.1074447,36.8740181 55.449929,36.3878109 60.0036129,33.2236534 C60.3318155,32.9955374 60.5817778,33.1296635 60.6341074,33.5259453 C60.6986302,34.0152008 60.839361,34.4673685 61.0603643,34.8687308 C61.7116889,36.0545277 62.9833469,36.711949 64.6416337,36.7200779 L64.6914229,36.7200779 C65.3762791,36.7200779 66.0464017,36.6301524 66.7063633,36.4965343 C67.0299934,36.4640189 67.3607363,36.4015283 67.7026563,36.2765471 L68.1512676,36.1124458 C70.7342118,35.212683 73.0143561,33.4202701 74.6975375,31.3575727 C74.9500401,31.0476601 75.4575856,30.7123447 75.8401499,30.5965085 C79.2959301,29.5524585 82.1933595,27.1625746 84.5766386,23.3902771 C84.7900211,23.0524215 85.1959559,22.991455 85.5236504,23.2195711 C86.344665,23.7916394 87.179905,24.0817379 87.9028652,24.2178963 C88.2955906,24.2920721 88.3870402,24.5344137 88.1035463,24.8158753 C85.652696,27.2530082 81.2509201,32.1409913 82.3086876,34.8921012 C82.7832096,36.1271794 84.2235414,36.7536094 86.5890387,36.7536094 L87.066101,36.711949 C89.5413378,36.4624947 92.5063383,34.3469598 94.8952061,31.9967041 C95.1802241,31.7162585 95.283867,31.7838297 95.1619342,32.1648698 C94.7504108,33.4492292 94.6772511,34.5461168 95.093855,35.3630669 C95.5704092,36.2968693 96.6261445,36.7810443 98.1782481,36.7165215 C98.2321018,36.7195698 98.2874796,36.7200779 98.3438735,36.7200779 C98.5902795,36.7195698 98.860564,36.6596195 99.1506626,36.5498799 C101.110225,35.9874647 103.22576,34.102586 105.108606,31.9687611 C105.373302,31.6695176 105.445954,31.7157505 105.276772,32.0779927 C104.163119,34.4572074 102.93871,36.930412 101.433855,39.2618698 C101.217424,39.5976931 100.712419,39.8476555 100.313597,39.8273334 C99.6729416,39.7943099 99.0343183,39.7653508 98.40484,39.7475689 C96.2009037,39.6784737 94.0528533,39.7333434 92.028768,39.9721286 C90.0036666,40.1931319 88.0999899,40.5624868 86.3858173,41.0603793 C85.5200941,41.2702054 84.7300708,41.626859 83.9608777,41.8813938 C83.2069263,42.1872421 82.5276587,42.56625 81.8753179,42.8731143 C80.6209337,43.6011551 79.5641824,44.2819468 78.7761913,44.9556258 C77.9338385,45.5561451 77.4156239,46.1942604 77.0183261,46.5712361 C76.6332215,46.9614212 76.4279678,47.1692151 76.4279678,47.1692151 C76.3929122,47.2052869 76.3888477,47.2621889 76.420347,47.3028332 C76.4548947,47.3465258 76.5184014,47.3541466 76.562094,47.319599 C76.5707309,47.3124862 76.799355,47.1336514 77.226628,46.7973199 C77.663046,46.4741979 78.2473076,45.9356611 79.115063,45.4210029 C79.9355695,44.8418218 81.0202638,44.2829629 82.2782044,43.7022577 C83.5706926,43.1901398 85.0389673,42.6592238 86.7043669,42.2878367 C88.3651939,41.9078126 90.2028236,41.6593744 92.1603539,41.5587798 C94.1189003,41.4734268 96.1917587,41.4475161 98.3438735,41.5516671 C98.5740218,41.560304 98.8082345,41.5750375 99.0429552,41.5912953 C99.4290759,41.617714 99.5428799,41.8940952 99.2883451,42.2024837 C95.4591455,46.845585 89.9818203,50.3557269 81.1020604,50.3587752 C70.8566527,50.3587752 63.041265,40.6656217 63.041265,40.6656217 C62.9528637,40.5701076 62.8355034,40.5193023 62.7150947,40.5137137 C62.5118732,40.5045687 62.1653807,40.8815445 61.8905238,41.171643 C60.3816047,42.7638828 55.4809203,47.3434775 49.0459141,47.3434775 C45.6262057,47.3434775 42.3238577,45.5856122 38.8269251,44.4668783 C34.660378,43.1327297 30.352592,41.7528563 25.0515614,41.7528563 C19.1774463,41.7528563 12.8491314,43.2861619 6.65799088,47.4090164 C6.43190705,47.5329814 6.64325732,47.8677887 6.8764539,47.7590653 C12.039294,45.3610525 17.0420972,44.4236938 22.0281347,44.4236938 C27.0400829,44.4236938 31.4489716,45.5790075 35.7120488,46.6967253 C39.7302443,47.7489042 43.5254043,48.743165 47.5878004,48.743165 C52.5504674,48.743165 57.1366668,47.225609 61.9413291,43.9786389 C62.272072,43.7545872 62.7714886,43.790151 63.0671758,44.0589113 C67.3947758,47.9851491 73.1820138,51.3134079 81.0705611,51.3134079 L81.15439,51.3134079 C91.8194499,51.3134079 98.0370092,47.4445801 102.217782,42.4184064 C102.473333,42.1115421 102.995612,41.8864744 103.39291,41.9255945 C106.165866,42.1974031 109.005885,42.5515164 111.869783,42.8345023 C116.503739,43.2942907 121.182913,43.7317248 125.61822,43.5920101 C127.832825,43.5371403 129.977827,43.2643156 131.980066,42.8593969 C133.990434,42.4793728 135.835177,41.8341448 137.479238,41.1365873 C138.058419,40.8815445 138.601528,40.5894137 139.122283,40.3018554 C139.472332,40.108795 140.021538,39.7678911 140.351265,39.5418073 C140.806989,39.2298624 141.244931,38.932143 141.650358,38.6303592 C142.196007,38.1578694 142.707109,37.7148467 143.179091,37.3053556 C143.626178,36.8674134 144.002645,36.427439 144.357775,36.0519875 C145.098517,35.3178501 145.46584,34.6040349 145.81284,34.1793021 C146.130882,33.7352633 146.300572,33.4985104 146.300572,33.4985104 C146.330547,33.45685 146.324958,33.3984238 146.285838,33.3633681 C146.244178,33.3257722 146.179655,33.3293285 146.141551,33.3709889" id="Fill-1"></path>
                </g>
                <path d="M134.280634,35.0690055 C133.870127,34.893727 133.848281,34.513703 134.174959,33.5951421 L141.575775,13.0901011 C141.632169,12.9320965 141.496011,12.7725677 141.330893,12.804067 L137.363503,13.5585265 C136.971286,13.6332104 136.61006,13.8140774 136.557222,13.961921 C136.504893,14.1102727 136.785338,14.1463445 137.182636,14.189021 C137.664271,14.2408424 137.696786,14.5751417 137.360455,15.5211374 L130.866007,33.5951421 C130.522054,34.5640003 130.215698,34.9338632 129.622292,35.0964404 C129.236679,35.2016075 128.865292,35.3250645 128.812962,35.4734161 C128.760125,35.6212597 129.041078,35.7416684 129.440916,35.7416684 L134.074365,35.7416684 C134.474203,35.7416684 134.841018,35.6212597 134.893855,35.4734161 C134.946185,35.3250645 134.647957,35.225994 134.280634,35.0690055" id="Fill-4"></path>
                <path d="M121.088364,35.0690055 C120.677856,34.893727 120.65601,34.513703 120.982689,33.5951421 L128.383505,13.0901011 C128.439899,12.9320965 128.30374,12.7725677 128.138623,12.804067 L124.171741,13.5585265 C123.779015,13.6332104 123.417789,13.8140774 123.364952,13.961921 C123.312622,14.1102727 123.593068,14.1463445 123.990366,14.189021 C124.472,14.2408424 124.504516,14.5751417 124.168184,15.5211374 L117.673736,33.5951421 C117.329784,34.5640003 117.023427,34.9338632 116.430021,35.0964404 C116.044408,35.2016075 115.673021,35.3250645 115.620692,35.4734161 C115.567854,35.6212597 115.848808,35.7416684 116.248646,35.7416684 L120.882094,35.7416684 C121.281932,35.7416684 121.648747,35.6212597 121.701584,35.4734161 C121.753914,35.3250645 121.455686,35.225994 121.088364,35.0690055" id="Fill-6"></path>
            </g>
        </g>
    </g>
</svg>