<?xml version="1.0" encoding="UTF-8"?>
<svg width="171px" height="100px" viewBox="0 0 171 100" version="1.1" xmlns="http://www.w3.org/2000/svg" xmlns:xlink="http://www.w3.org/1999/xlink">
    <!-- Generator: Sketch 45.1 (43504) - http://www.bohemiancoding.com/sketch -->
    <title>Logo - eOne</title>
    <desc>Created with Sketch.</desc>
    <defs>
        <polygon id="path-1" points="0.353287901 0.282929124 88.7070109 0.282929124 88.7070109 49.9561324 0.353287901 49.9561324"></polygon>
    </defs>
    <g id="CLIENT-LOGOS" stroke="none" stroke-width="1" fill="none" fill-rule="evenodd">
        <g id="Logo---eOne">
            <g id="Page-1" transform="translate(29.000000, 25.000000)">
                <g id="Group-3" transform="translate(23.343987, 0.183951)">
                    <mask id="mask-2" fill="white">
                        <use xlink:href="#path-1"></use>
                    </mask>
                    <g id="Clip-2"></g>
                    <path d="M69.2801448,0.282835748 L1.28004419,0.282835748 C0.66236229,0.282835748 0.353287901,0.591910137 0.353287901,1.20959204 L0.353287901,30.5814635 C0.353287901,41.5232571 9.05265813,49.9565059 19.780154,49.9565059 L87.7807215,49.9565059 C88.3979365,49.9565059 88.7070109,49.6469646 88.7070109,49.0292827 L88.7070109,19.6574113 C88.7070109,8.71561765 80.0090413,0.282835748 69.2801448,0.282835748" id="Fill-1" fill="#161819" mask="url(#mask-2)"></path>
                </g>
                <path d="M29.0516853,30.9229393 C29.0516853,23.0046589 35.3092745,16.9025407 43.0337998,16.9025407 C50.7980099,16.9025407 57.0934164,23.0046589 57.0934164,30.9229393 C57.0934164,38.7249667 50.7980099,44.8280187 43.0337998,44.8280187 C35.3092745,44.8280187 29.0516853,38.8020018 29.0516853,30.9229393 M51.492727,30.9229393 C51.492727,25.5935071 47.4383433,22.2324398 42.9567647,22.309475 C38.5144039,22.3486929 34.5748727,25.6313243 34.5748727,30.9229393 C34.5748727,36.1753364 38.5144039,39.4589016 42.9567647,39.4971858 C47.4383433,39.4971858 51.492727,36.1753364 51.492727,30.9229393" id="Fill-4" fill="#FFFFFF"></path>
                <path d="M63.8740976,24.433591 L63.8740976,25.7856748 C65.3807186,23.7766912 67.7758116,23.1982272 70.1709047,23.1982272 C76.2730229,23.2360445 78.357641,27.4846502 78.3198237,33.0078375 L78.3198237,43.4757482 C78.3198237,44.0934301 78.0107493,44.4025045 77.3930674,44.4025045 L74.0320002,44.4025045 C73.4143183,44.4025045 73.1052439,44.0934301 73.1052439,43.4757482 L73.1052439,33.0470554 C73.1052439,29.8027081 71.7531601,27.9477949 68.9733582,27.9099776 C66.2691907,27.8702928 64.0678527,29.9964632 64.0678527,33.0470554 L64.0678527,43.4757482 C64.0678527,44.0934301 63.7573777,44.4025045 63.1415633,44.4025045 L59.625492,44.4025045 C59.0078101,44.4025045 58.6992026,44.0934301 58.6992026,43.4757482 L58.6992026,24.433591 C58.6992026,23.8159091 59.0078101,23.5073016 59.625492,23.5073016 L62.9478082,23.5073016 C63.5654901,23.5073016 63.8740976,23.8159091 63.8740976,24.433591" id="Fill-6" fill="#FFFFFF"></path>
                <path d="M99.0843002,41.1199664 C97.1901691,43.3595885 94.2936472,44.7112054 91.0114826,44.7112054 C85.6031477,44.7112054 79.9254232,41.0429312 79.9254232,33.9342203 C79.9254232,26.7517423 85.3337581,23.1978537 90.8177275,23.1978537 C96.5724872,23.1978537 101.517211,27.098634 101.517211,33.8585858 C101.517211,34.2050105 101.477993,34.5537697 101.438775,34.8623772 C101.400958,35.4422419 101.052665,35.7116315 100.474201,35.7116315 L85.256256,35.7116315 C85.6801829,38.5311182 88.6159227,40.1147743 91.0114826,40.1147743 C92.4392009,40.1147743 94.13911,39.5741276 95.2979055,38.4157989 C95.723233,38.0301563 96.1093425,37.9134363 96.6117051,38.2617286 L98.8905452,39.8061668 C99.3929078,40.1544591 99.4704098,40.6176038 99.0843002,41.1199664 M90.6631903,27.6784986 C88.3843503,27.6784986 86.1433276,28.9133955 85.4486105,31.617563 L95.9155874,31.617563 C95.2979055,28.8755783 93.0582834,27.6784986 90.6631903,27.6784986" id="Fill-8" fill="#FFFFFF"></path>
                <path d="M19.1589705,41.1199664 C17.2648394,43.3595885 14.3683174,44.7112054 11.085686,44.7112054 C5.67781792,44.7112054 9.33759484e-05,41.0429312 9.33759484e-05,33.9342203 C9.33759484e-05,26.7517423 5.40796143,23.1978537 10.8919309,23.1978537 C16.6471575,23.1978537 21.5918808,27.098634 21.5918808,33.8585858 C21.5918808,34.2050105 21.5526629,34.5537697 21.513445,34.8623772 C21.4751609,35.4422419 21.1273355,35.7116315 20.5488715,35.7116315 L5.32952563,35.7116315 C5.75485308,38.5311182 8.69059289,40.1147743 11.085686,40.1147743 C12.5138711,40.1147743 14.2137802,39.5741276 15.3721089,38.4157989 C15.7974363,38.0301563 16.1835459,37.9134363 16.6863754,38.2617286 L18.9652154,39.8061668 C19.467578,40.1544591 19.54508,40.6176038 19.1589705,41.1199664 M10.7378606,27.6784986 C8.45902054,27.6784986 6.21846466,28.9133955 5.52328072,31.617563 L15.9897908,31.617563 C15.3721089,28.8755783 13.1329536,27.6784986 10.7378606,27.6784986" id="Fill-10" fill="#161819"></path>
            </g>
        </g>
    </g>
</svg>