<svg xmlns="http://www.w3.org/2000/svg" viewBox="0 0 46.01 41.68"><defs><style>.a{fill:#8e653d;}.b{fill:#1c1f20;}</style></defs><title>monocle</title><path class="a" d="M30.19,3.61a21,21,0,0,0-2.79-.24H27A20.79,20.79,0,0,0,6.19,23.84a20.58,20.58,0,0,0,2.15,9.56,2.47,2.47,0,0,1-.16.75,1.65,1.65,0,0,1-.15.28c-.38.53-1,.62-1.91.73a10,10,0,0,0-1,.16,3.86,3.86,0,0,0-3.21,3.42,3.26,3.26,0,0,0,.28,1.73,2.75,2.75,0,0,0,.44,2.38A2.9,2.9,0,0,0,4.76,44a3.25,3.25,0,0,0,1.59.81,3.86,3.86,0,0,0,4.22-2,10.37,10.37,0,0,0,.45-.93c.38-.86.65-1.4,1.26-1.6a1.56,1.56,0,0,1,.32-.07,3,3,0,0,1,1.29.22A20.78,20.78,0,0,0,26.65,45H27A20.91,20.91,0,0,0,47.63,27.38a21.55,21.55,0,0,0,.24-2.79A20.9,20.9,0,0,0,30.19,3.61Z" transform="translate(-1.86 -3.37)"/><path class="b" d="M30,4.58A19.85,19.85,0,0,0,7.42,21.17a19.86,19.86,0,0,0,1.93,12,3.71,3.71,0,0,1-.26,1.36,2.59,2.59,0,0,1-.26.47C8,36.21,6.49,36,5.31,36.27a2.86,2.86,0,0,0-2.43,2.55,2.16,2.16,0,0,0,.39,1.54,1.79,1.79,0,0,0,.14,1.88A2,2,0,0,0,5.2,43a2.15,2.15,0,0,0,1.35.83,2.86,2.86,0,0,0,3.15-1.56c.6-1.05.85-2.52,2.28-3a2.61,2.61,0,0,1,.53-.11,4.27,4.27,0,0,1,1.89.34A19.84,19.84,0,0,0,46.65,27.2a20.55,20.55,0,0,0,.23-2.66A19.84,19.84,0,0,0,30,4.58ZM8,42.15a1.54,1.54,0,0,1-2.15-.33l-.12-.2a.93.93,0,0,1-1.16-.21h0a.93.93,0,0,1,.15-1.17l-.15-.17a1.54,1.54,0,1,1,2.75-.67,1.52,1.52,0,0,1,1,.61A1.54,1.54,0,0,1,8,42.15Zm18.77-.36a17.27,17.27,0,0,1-2.38-.2,17.75,17.75,0,0,1-9.63-30.32,17.62,17.62,0,0,1,12.64-5,18,18,0,0,1,2.38.2,17.75,17.75,0,0,1-3,35.29Zm.58-36.48Z" transform="translate(-1.86 -3.37)"/><path class="b" d="M36.19,23.82h0A.21.21,0,0,0,36,24v.07s0,.16,0,.39v.4c0,.11,0,.21,0,.31s0,.13,0,.18l0,.16c0,.12,0,.23,0,.33l-.08.41a2.9,2.9,0,0,1-.09.41v0a.13.13,0,0,0,.08.15.13.13,0,0,0,.16-.07s.06-.18.13-.42l.12-.43c0-.1,0-.19.07-.3v-.08l0-.12,0-.17a3.23,3.23,0,0,0,.06-.32l0-.45c0-.26,0-.44,0-.45A.21.21,0,0,0,36.19,23.82Z" transform="translate(-1.86 -3.37)"/><path class="b" d="M31.39,24.66a.13.13,0,0,0,.16-.09,2.42,2.42,0,0,0,.09-.5.13.13,0,0,0-.13-.13.13.13,0,0,0-.12.13,2.24,2.24,0,0,1-.09.43.14.14,0,0,0,0,.1A.16.16,0,0,0,31.39,24.66Z" transform="translate(-1.86 -3.37)"/><path class="b" d="M19.78,35.28a.13.13,0,0,0,.17-.07.13.13,0,0,0,0-.09.14.14,0,0,0-.07-.07L19,34.65h-.05a.13.13,0,0,0-.12.08.12.12,0,0,0,0,.09.11.11,0,0,0,.07.07Z" transform="translate(-1.86 -3.37)"/><path class="b" d="M18,34.35l.11-.23-.73-.38-.06,0a.13.13,0,0,0-.11.07.13.13,0,0,0,0,.17Z" transform="translate(-1.86 -3.37)"/><path class="b" d="M19.85,27.17a.12.12,0,0,0-.12-.08h0a.14.14,0,0,0-.07.07.13.13,0,0,0,0,.1,7.5,7.5,0,0,0,.66,1.25.13.13,0,0,0,.18,0,.13.13,0,0,0,0-.09.12.12,0,0,0,0-.09A6.73,6.73,0,0,1,19.85,27.17Z" transform="translate(-1.86 -3.37)"/><path class="b" d="M19.42,29.56a7.52,7.52,0,0,1-.94-.39h-.06a.12.12,0,0,0-.11.07.11.11,0,0,0,0,.1.13.13,0,0,0,.07.07,8.71,8.71,0,0,0,1,.41.14.14,0,0,0,.16-.08.13.13,0,0,0,0-.1A.12.12,0,0,0,19.42,29.56Z" transform="translate(-1.86 -3.37)"/><path class="b" d="M24.91,31c.41,0,.81.08,1.21.09l.09-.25c-.41,0-.81,0-1.19-.08Z" transform="translate(-1.86 -3.37)"/><path class="b" d="M28.44,31l.24,0,.1-.26-.22,0C28.52,30.85,28.48,30.93,28.44,31Z" transform="translate(-1.86 -3.37)"/><path class="b" d="M34.52,29.09l-.15.07-.06,0c0,.09,0,.19,0,.28l.34-.15a.12.12,0,0,0,.06-.07.12.12,0,0,0,0-.1A.14.14,0,0,0,34.52,29.09Z" transform="translate(-1.86 -3.37)"/><path class="b" d="M30.8,30.65l.08,0,.09,0h0l.08-.26-.21,0A2.27,2.27,0,0,1,30.8,30.65Z" transform="translate(-1.86 -3.37)"/><path class="b" d="M27,31.07v0h.46a2.44,2.44,0,0,0,.16-.26l-.53,0Z" transform="translate(-1.86 -3.37)"/><path class="b" d="M29.61,30.88l.23,0a.31.31,0,0,1,0-.08.61.61,0,0,0,.09-.19l-.26,0C29.68,30.69,29.64,30.78,29.61,30.88Z" transform="translate(-1.86 -3.37)"/><path class="b" d="M31.94,30.27l0,.09.2-.06a1.79,1.79,0,0,0,.06-.28l-.17.06Z" transform="translate(-1.86 -3.37)"/><path class="b" d="M21.25,29.89a.12.12,0,0,0-.12.07.12.12,0,0,0,0,.09.13.13,0,0,0,.07.07,13,13,0,0,0,2.85.75l.1-.21v0h0a13.29,13.29,0,0,1-2.87-.74Z" transform="translate(-1.86 -3.37)"/><path class="b" d="M33,30l.38-.14c0-.1,0-.19,0-.29l-.42.17A2.49,2.49,0,0,1,33,30Z" transform="translate(-1.86 -3.37)"/><path class="b" d="M35.09,28.1a.12.12,0,0,0,0,.1.14.14,0,0,0,.06.07h.05a.13.13,0,0,0,.12-.07c.06-.13.16-.37.22-.52l-.24-.09C35.21,27.84,35.14,28,35.09,28.1Z" transform="translate(-1.86 -3.37)"/><path class="b" d="M20.58,23.28a.13.13,0,0,0-.1,0,.11.11,0,0,0,0,.09c0,.46,0,1.09,0,1.1a.13.13,0,0,0,0,.09.13.13,0,0,0,.09,0h0a.13.13,0,0,0,.13-.12c0-.11,0-.68,0-1.13A.13.13,0,0,0,20.58,23.28Z" transform="translate(-1.86 -3.37)"/><path class="b" d="M26.23,12.8l-.76.09-.12.26.75-.08A3,3,0,0,0,26.23,12.8Z" transform="translate(-1.86 -3.37)"/><path class="b" d="M28.07,12.37c-.28.09-.58.18-.9.25l-.09.28c.32-.07.63-.16.94-.25C28,12.55,28.05,12.46,28.07,12.37Z" transform="translate(-1.86 -3.37)"/><path class="b" d="M20.33,12.83h0l.23,0,1,.17.56.08.21-.23-.73-.1-1-.16-.26,0a1.43,1.43,0,0,1-.69-.18.14.14,0,0,0-.08,0,.12.12,0,0,0-.1,0,.13.13,0,0,0,0,.18A1.58,1.58,0,0,0,20.33,12.83Z" transform="translate(-1.86 -3.37)"/><path class="b" d="M23.17,13.19l.71,0h.51l.13-.25c-.4,0-.79,0-1.18,0Z" transform="translate(-1.86 -3.37)"/><path class="b" d="M28.91,12.32l.55-.26L29.6,12c0-.11,0-.2,0-.29l-.27.14-.4.19C28.93,12.12,28.92,12.22,28.91,12.32Z" transform="translate(-1.86 -3.37)"/><path class="b" d="M25.1,11.45a2.52,2.52,0,0,0,0-.26l-.74.06h0a2.46,2.46,0,0,1-.1.26h.12Z" transform="translate(-1.86 -3.37)"/><path class="b" d="M28.08,10.52l-.41.15c0,.09,0,.18,0,.28l.48-.16C28.1,10.69,28.09,10.6,28.08,10.52Z" transform="translate(-1.86 -3.37)"/><path class="b" d="M26.74,11.19c0-.1,0-.19.07-.27-.31.07-.55.12-.7.14l-.11,0h0c0,.08,0,.17,0,.26l.18,0Z" transform="translate(-1.86 -3.37)"/><path class="b" d="M23.34,11.55l.15-.25a2.54,2.54,0,0,1-1-.14h0a.13.13,0,0,0-.12.17.11.11,0,0,0,.07.07A2.47,2.47,0,0,0,23.34,11.55Z" transform="translate(-1.86 -3.37)"/><path class="b" d="M29.24,10.25l-.07-.17,0-.07-.28.16.05.27Z" transform="translate(-1.86 -3.37)"/><path class="b" d="M20.15,14.08l0,0,.15-.16a2.13,2.13,0,0,1-.9-.36l-.08,0a.12.12,0,0,0-.1.05.11.11,0,0,0,0,.09.12.12,0,0,0,0,.08A2.11,2.11,0,0,0,20.15,14.08Z" transform="translate(-1.86 -3.37)"/><path class="b" d="M22,14.16a3.4,3.4,0,0,0-.75-.16,1.57,1.57,0,0,1-.14.23,3.6,3.6,0,0,1,.8.17.14.14,0,0,0,.16-.08.11.11,0,0,0,0-.09A.12.12,0,0,0,22,14.16Z" transform="translate(-1.86 -3.37)"/><path class="b" d="M13.49,22.07l-.06,0a5.44,5.44,0,0,0-.62.49.13.13,0,0,0,0,.09.12.12,0,0,0,0,.09.14.14,0,0,0,.1,0,.12.12,0,0,0,.08,0,4.11,4.11,0,0,1,.61-.47.13.13,0,0,0,0-.16A.12.12,0,0,0,13.49,22.07Z" transform="translate(-1.86 -3.37)"/><path class="b" d="M14.71,20.86a.11.11,0,0,0-.09,0,2.55,2.55,0,0,1-.48.44.14.14,0,0,0-.06.08.12.12,0,0,0,0,.09.13.13,0,0,0,.17,0,2.69,2.69,0,0,0,.54-.49.14.14,0,0,0,0-.09.12.12,0,0,0,0-.08A.12.12,0,0,0,14.71,20.86Z" transform="translate(-1.86 -3.37)"/><path class="b" d="M16.25,19.5l-.93.79.16.19.92-.79a.12.12,0,0,0,0-.08.11.11,0,0,0,0-.09A.14.14,0,0,0,16.25,19.5Z" transform="translate(-1.86 -3.37)"/><path class="b" d="M18,18.14H18a10.84,10.84,0,0,0-1.21.87.13.13,0,0,0,0,.08.15.15,0,0,0,0,.1.16.16,0,0,0,.18,0,10.26,10.26,0,0,1,1.17-.84.13.13,0,0,0,.05-.17A.12.12,0,0,0,18,18.14Z" transform="translate(-1.86 -3.37)"/><path class="b" d="M18.79,18a4.64,4.64,0,0,1,.6-.33l0,0a.08.08,0,0,0,0-.07.08.08,0,0,0-.08-.06h0a3.71,3.71,0,0,0-.64.35.09.09,0,0,0,0,.05.09.09,0,0,0,0,.06A.08.08,0,0,0,18.79,18Z" transform="translate(-1.86 -3.37)"/><path class="b" d="M17.85,19.66l0,0-1.29.72.12.22L18,19.88A.12.12,0,0,0,18,19.8a.13.13,0,0,0,0-.09A.13.13,0,0,0,17.85,19.66Z" transform="translate(-1.86 -3.37)"/><path class="b" d="M19.4,18.92h0c-.32.15-.57.31-.64.35a.08.08,0,0,0,0,.05.08.08,0,0,0,0,.06.09.09,0,0,0,.11,0c.07,0,.32-.19.62-.33a.08.08,0,0,0,0,0,.09.09,0,0,0,0-.06A.08.08,0,0,0,19.4,18.92Z" transform="translate(-1.86 -3.37)"/><path class="b" d="M20.47,15a.13.13,0,0,0-.07.07.13.13,0,0,0,0,.09.12.12,0,0,0,.16.08l.13,0,.44-.13L21,14.8Z" transform="translate(-1.86 -3.37)"/><path class="b" d="M17.89,16a.14.14,0,0,0,0,.1.13.13,0,0,0,.17.06c.29-.13,1-.36,1-.37a.13.13,0,0,0,.06-.06.11.11,0,0,0,0-.1.13.13,0,0,0-.12-.08h0c-.22.07-.72.25-1,.38A.12.12,0,0,0,17.89,16Z" transform="translate(-1.86 -3.37)"/><path class="b" d="M16.56,16.7a.11.11,0,0,0-.05.08.11.11,0,0,0,0,.09.13.13,0,0,0,.17,0l.39-.26-.14-.21Z" transform="translate(-1.86 -3.37)"/><path class="b" d="M17.9,13.55l.07,0a1,1,0,0,0,.53.12.13.13,0,0,0,.09,0,.13.13,0,0,0,0-.09.12.12,0,0,0-.12-.11h-.06a.92.92,0,0,1-.34-.09l-.09,0h0a.12.12,0,0,0-.12.08.12.12,0,0,0,.07.16Z" transform="translate(-1.86 -3.37)"/><path class="b" d="M38.1,25.72a.13.13,0,0,0,.13-.12v-.47A.13.13,0,0,0,38.1,25a.13.13,0,0,0-.13.13v.47A.13.13,0,0,0,38.1,25.72Z" transform="translate(-1.86 -3.37)"/><path class="b" d="M38.08,26.33h0a.13.13,0,0,0-.12.07.13.13,0,0,0,0,.14l0,0a.1.1,0,0,1,0,.11v0a1.67,1.67,0,0,1-.07.18l0,.12a.13.13,0,0,0,.08.16.14.14,0,0,0,.16-.08l0-.08C38.3,26.6,38.28,26.42,38.08,26.33Z" transform="translate(-1.86 -3.37)"/><path class="b" d="M29.6,7.86a16.88,16.88,0,0,0-2.2-.19A16.38,16.38,0,0,0,10.74,23.75,16.37,16.37,0,1,0,29.6,7.86ZM12.31,23.92c0-.24,0-.49,0-.73,0,0,0,0,0,0a.13.13,0,0,0,0-.07c0-.37.07-.75.12-1.11s.09-.47.14-.7h.06a.67.67,0,0,0,.46-.14.12.12,0,0,0,0-.09.11.11,0,0,0,0-.09A.15.15,0,0,0,13,21a.45.45,0,0,1-.3.09h0c.07-.29.14-.59.23-.87a2.7,2.7,0,0,0,1,0h0l.06,0,.07,0a.12.12,0,0,0,.08,0c.14-.13.35-.3.57-.48l.08-.06a10.23,10.23,0,0,0,.81-.71.12.12,0,0,0,0-.09.13.13,0,0,0,0-.09.15.15,0,0,0-.18,0l0,0-.05,0h-.1a.73.73,0,0,1-.3.05,4.78,4.78,0,0,1-1.5-.4c.18-.42.38-.83.59-1.22l.78.23.08,0a.11.11,0,0,1,.08.08.12.12,0,0,1,0,.11l-.21.13-.21.13a.14.14,0,0,0-.06.08.15.15,0,0,0,0,.1.14.14,0,0,0,.17,0l.19-.12,0,0a3.94,3.94,0,0,1,.39-.22.12.12,0,0,0,.07-.08v0a.11.11,0,0,1,.11-.08h.05a6.31,6.31,0,0,0,.9.11h.1a.12.12,0,0,1,.1.08.11.11,0,0,1,0,.12l-.08.05-.05,0,0,0-.11.08a.13.13,0,0,0,0,.18.14.14,0,0,0,.18,0c.27-.2.57-.4.85-.57l.43-.27a.13.13,0,0,0,.05-.08.11.11,0,0,0,0-.09.13.13,0,0,0-.17,0l-.06,0H17.4a2,2,0,0,1-.83.15A8.75,8.75,0,0,1,14.19,17c.09-.16.2-.32.3-.48,0,0,0,0,0,.05a.13.13,0,0,0,.17.06,3.36,3.36,0,0,0,.33-.19l0,0,.28-.16a.11.11,0,0,0,.06-.08.12.12,0,0,0,0-.1.13.13,0,0,0-.11-.06h-.06l-.24.14-.06,0-.31.18q.26-.41.55-.8c.2.06.36.1.53.13l.39.07h.06l.55.1.18,0a1.38,1.38,0,0,0,.53.09.13.13,0,0,0,.09,0,.12.12,0,0,0,0-.09.13.13,0,0,0-.13-.11h-.07a1.27,1.27,0,0,1-.36-.08h0l-.18,0-.11,0-.23,0a.1.1,0,0,1-.09-.09.1.1,0,0,1,.06-.11l.09,0,.07,0,.14-.07a3.58,3.58,0,0,0,.52-.26.11.11,0,0,0,.06-.08.12.12,0,0,0,0-.09.13.13,0,0,0-.17,0,3.24,3.24,0,0,1-.47.24h0a3.72,3.72,0,0,0-.51.26.12.12,0,0,0-.05.1v0a.11.11,0,0,1,0,.08.12.12,0,0,1-.1,0h-.14l-.41-.11A14.5,14.5,0,0,1,16.47,14a2,2,0,0,0,.33,0h.07a.12.12,0,0,0,.12-.13.12.12,0,0,0-.12-.12h-.15A14.39,14.39,0,0,1,27,9.72v0l0,0h0A15.18,15.18,0,0,1,29,9.88a14.38,14.38,0,0,1,2.36.58,3.25,3.25,0,0,1-.94.8,2.78,2.78,0,0,1,0,.28,3.59,3.59,0,0,0,1.15-1,14.19,14.19,0,0,1,1.54.66,6.68,6.68,0,0,0-.67.8.12.12,0,0,1-.08,0l-.06,0,0,0,0,0a.11.11,0,0,1-.12,0,12,12,0,0,0-1.2-.1.13.13,0,0,0-.13.13.13.13,0,0,0,.12.13s.26,0,.68,0h.08a.11.11,0,0,1,.1.08.11.11,0,0,1,0,.12l-.07.05a6.54,6.54,0,0,1-1.12.65h-.09c-.71-.23-1.14-.35-1.19-.36a.12.12,0,0,0-.15.09.13.13,0,0,0,0,.1.13.13,0,0,0,.08.06l.55.16.1,0a.11.11,0,0,1,.08.11.11.11,0,0,1-.08.1l-.1,0a12.2,12.2,0,0,1-1.55.41l-.12,0A.11.11,0,0,1,28,14a.12.12,0,0,1,0-.13l.09-.08a.82.82,0,0,0,.18-.21.11.11,0,0,0,0-.08.13.13,0,0,0-.23,0c-.17.31-.83.51-1.26.65h0l-.37.12-.12,0c-.44,0-.89,0-1.34,0a19,19,0,0,1-2.28-.12h0a.13.13,0,0,0-.12.11.13.13,0,0,0,0,.09.12.12,0,0,0,.08,0c.2,0,.75.09,1.53.12h.32a.11.11,0,0,1,0,.22l-.51.09L23.4,15l-.08,0c-.44.11-.86.21-1.24.34-.54.17-1.09.35-1.56.55s-.86.34-1.17.49l-.56.26,0,0-.16.07-.25.13a.13.13,0,0,0-.06.17.13.13,0,0,0,.17.06l.27-.13.21-.09.54-.23a26.83,26.83,0,0,1,2.72-1c.38-.13.78-.22,1.22-.32l.65-.16,1-.17.19,0h0l.33-.05.55,0,.39,0c.21,0,.47,0,.72,0l.41,0a5.82,5.82,0,0,1,.78.07l.17,0a8,8,0,0,1,1,.18l.2,0,.37.09.56.18a11.51,11.51,0,0,1,1.33.52l0,0a.12.12,0,0,1,.06.07.13.13,0,0,1,0,.09l-.34.51a1,1,0,0,1-.16.2l-.08.09-.25.26-.24.21-.22.18,0,0a.12.12,0,0,1-.09,0l-.11,0-.15,0h-.06a.12.12,0,0,1-.09-.07.11.11,0,0,1,0-.11l.12-.13a3.18,3.18,0,0,0,.31-.44l.11-.24a.12.12,0,0,0,0-.16.13.13,0,0,0-.17,0l-.12.21a3,3,0,0,1-.32.37,4.25,4.25,0,0,1-.37.32l0,0,0,0-.06,0h0l-.17,0h-.19a.12.12,0,0,1-.09-.06.12.12,0,0,1,0-.11l0-.07,0-.08a3.79,3.79,0,0,0,.27-.5,1.12,1.12,0,0,0,.05-.15l0-.12a.12.12,0,0,0-.22-.09l-.06.11,0,0-.05.1a3.31,3.31,0,0,1-.3.41c-.11.13-.24.28-.4.43a.13.13,0,0,1-.09,0h-.54a.11.11,0,0,1-.1-.06.11.11,0,0,1,0-.11l.05-.08.09-.14a3.55,3.55,0,0,0,.26-.52,2.79,2.79,0,0,0,.08-.27.12.12,0,0,0-.07-.14.13.13,0,0,0-.16.06l-.1.23a3.14,3.14,0,0,1-.29.44c-.12.15-.25.3-.35.4l-.19.19a.13.13,0,0,1-.09,0l-.54.06h-.07a.1.1,0,0,1-.11,0,.11.11,0,0,1,0-.12l0-.06.14-.21,0-.05c.07-.13.14-.25.21-.38l0-.12.11-.29.09-.42a.12.12,0,0,0-.08-.14.12.12,0,0,0-.16.07l-.14.39-.1.2-.08.14c-.06.1-.12.19-.19.28l-.07.1a6.8,6.8,0,0,1-.58.63l-.26.23h0l-.66.17-.07,0a.12.12,0,0,1-.12,0,.12.12,0,0,1,0-.12l0-.06c.09-.19.17-.35.21-.47l.11-.35a.12.12,0,0,0-.06-.15.13.13,0,0,0-.17.06l-.15.31a5.38,5.38,0,0,1-.4.6c-.16.2-.32.38-.45.52l0,0-.89.31-.06,0h0a.1.1,0,0,1-.07,0,.11.11,0,0,1,0-.1v-.06c0-.13,0-.27.05-.32a.45.45,0,0,1,0-.08.13.13,0,0,0-.1-.14h0a.14.14,0,0,0-.12.12.09.09,0,0,1,0,.05h0a2.62,2.62,0,0,1-.2.38,1.89,1.89,0,0,1-.14.23l-.13.2-.06.07,0,0-1.47.58-.36.15a30.71,30.71,0,0,0-7.67,4.53C12.32,24,12.31,24,12.31,23.92Zm.65-4q.19-.61.43-1.2a5.81,5.81,0,0,0,1.31.39h.07a.12.12,0,0,1,.09.08.11.11,0,0,1,0,.12l-.35.29-.2.17,0,0h0l-.05,0a1.08,1.08,0,0,1-.64.16A3.29,3.29,0,0,1,13,19.93Zm24.94,13.5s0,0,0-.07l0-.09a2.56,2.56,0,0,0,.1-.7v0a.11.11,0,0,1,.09-.11h0l.35,0h.2Q38.32,32.93,37.91,33.42Zm-17.29-.2a2.52,2.52,0,0,1-.28-.74l0-.06a.1.1,0,0,1,0-.1.09.09,0,0,1,.07,0h0l.06,0,.09,0,.11,0,.63.21.66.19c.43.11.88.22,1.35.31a17.56,17.56,0,0,0,2.13.27h0a.12.12,0,0,1,.08,0,.11.11,0,0,1,0,.09v0a2.56,2.56,0,0,1-.3.71v0a.11.11,0,0,1-.09.05H25c-.31,0-.57,0-.8,0a13.54,13.54,0,0,1-1.53-.15h0l-.43-.05L21.88,34a13.38,13.38,0,0,1-1.37-.31l-.21-.06c-.43-.12-.84-.26-1.16-.38L19,33.19h-.06a.12.12,0,0,1-.08-.07s0-.07-.05-.08a2,2,0,0,1-.69-1.41v-.07a.1.1,0,0,1,0-.1l.07,0h0l.11.05c.47.21,1,.42,1.59.63h0a.11.11,0,0,1,.07.09v0a3.12,3.12,0,0,0,.37,1.13l.07.06h.1a.13.13,0,0,0,0-.17Zm1.65-.95a.1.1,0,0,1,0-.1l0,0a1.16,1.16,0,0,0,.15-.25v0a.12.12,0,0,1,.12-.06h0c.35.09.72.17,1.12.23h.06a.12.12,0,0,1,.08.07.11.11,0,0,1,0,.11l0,0a.59.59,0,0,1-.19.17.13.13,0,0,0-.06.07v0a.11.11,0,0,1-.1.07h-.05c-.34-.07-.65-.14-1-.23h0A.11.11,0,0,1,22.27,32.28Zm3.15.46,0,0a.11.11,0,0,1-.09.05h0c-.39,0-.78-.08-1.18-.14H24a.12.12,0,0,1-.09-.08.11.11,0,0,1,0-.11l0-.05a1,1,0,0,0,.17-.26v0a.12.12,0,0,1,.12-.06h0c.37,0,.77.08,1.18.1h.05a.11.11,0,0,1,.09.06.11.11,0,0,1,0,.11l0,0A3.23,3.23,0,0,1,25.42,32.74Zm.26,1.35a1.9,1.9,0,0,0,.19-.57v0A.11.11,0,0,1,26,33.4h.17c.34,0,.64,0,1,0h.05a.11.11,0,0,1,.09.05.1.1,0,0,1,0,.11l0,0-.12.25-.13.28v0a.1.1,0,0,1-.08.06h-.08l-.43,0h-.63a.11.11,0,0,1-.1-.16Zm.91-1.19h-.75a.11.11,0,0,1-.09-.17l0,0a1.4,1.4,0,0,0,.16-.33v0a.1.1,0,0,1,.1-.07h0a.31.31,0,0,1,.14,0l0,0a1,1,0,0,0,.33.14,4.1,4.1,0,0,0,.68,0h.25a.12.12,0,0,1,.1.05.11.11,0,0,1,0,.12l0,.06-.15.22a.11.11,0,0,1-.09.06h-.73ZM27.36,34a4.67,4.67,0,0,1,.26-.5.11.11,0,0,1,.1-.06c.48,0,1-.07,1.48-.13h.06a.11.11,0,0,1,.11,0,.11.11,0,0,1,0,.12l-.24.46a.11.11,0,0,1-.08.06L28.6,34a8.41,8.41,0,0,1-1,.14l-.19,0h0a.11.11,0,0,1-.1-.05.1.1,0,0,1,0-.1Zm5.05-.28a.27.27,0,0,1,.13-.36.28.28,0,0,1,.36.13,1.79,1.79,0,0,1-.07,1,.27.27,0,0,1-.26.18h-.09a.29.29,0,0,1-.16-.14.28.28,0,0,1,0-.21A1.44,1.44,0,0,0,32.42,33.68Zm.51-1.79-.07,0-.49.14-.24.07h0a.1.1,0,0,1-.08,0A.1.1,0,0,1,32,32l0-.07c0-.1.09-.19.13-.28v0a.12.12,0,0,1,.11-.07h.05a1.09,1.09,0,0,1,.57.13l.07,0a.11.11,0,0,1,.05.11A.12.12,0,0,1,32.93,31.89Zm-.81.64a.27.27,0,0,1,.29.46,2.6,2.6,0,0,1-.85.28h0a.27.27,0,0,1,0-.55A2.18,2.18,0,0,0,32.12,32.53ZM31.41,34a.34.34,0,1,1,.64-.21,1.44,1.44,0,0,1-.06.88.33.33,0,0,1-.32.23l-.11,0a.32.32,0,0,1-.19-.17.33.33,0,0,1,0-.25A.83.83,0,0,0,31.41,34Zm.39-2.22-.15.3,0,.06v0l0,0a.12.12,0,0,1-.08.07c-.38.09-.77.18-1.18.25h-.09a.11.11,0,0,1-.09,0,.1.1,0,0,1,0-.12l0-.06a1.93,1.93,0,0,0,.17-.39v0a.11.11,0,0,1,.08-.08l.13,0,.42-.09h0l.62-.13h.07a.1.1,0,0,1,.11,0,.11.11,0,0,1,0,.12Zm-1,1.19h0a.11.11,0,0,1,.13.09v0a.46.46,0,0,1-.12.39l-.06,0c-.31.09-.64.18-1,.25h-.09a.1.1,0,0,1-.09,0,.11.11,0,0,1,0-.11l0-.06.2-.36a.13.13,0,0,1,.08-.06h0C30.16,33.12,30.46,33.07,30.75,33Zm.2,1.61a.06.06,0,0,1,0,0l0,0c-.11.15-.35.37-1.25.59h0a.08.08,0,0,1-.06,0,.09.09,0,0,1,0-.09,1.79,1.79,0,0,0,.28-.78v0a.11.11,0,0,1,.08-.1h0l.69-.18h0a.11.11,0,0,1,.11,0l0,0A.72.72,0,0,1,31,34.61ZM30,32.2c-.07.11-.16.25-.27.41a.13.13,0,0,1-.09.06c-.55.08-1.09.14-1.61.18h-.07a.11.11,0,0,1-.1-.06.1.1,0,0,1,0-.11l0-.06A1.74,1.74,0,0,0,28,32.4v0a.11.11,0,0,1,.09-.07h0c.5-.07,1-.17,1.49-.28l.3-.07A.11.11,0,0,1,30,32a.1.1,0,0,1,0,.12Zm-2.18,2.53v0a.11.11,0,0,1,.1-.09h0a6.29,6.29,0,0,0,.77-.11l.79-.15a.12.12,0,0,1,.1,0,.11.11,0,0,1,0,.1v0a2.56,2.56,0,0,1-.27.6,1,1,0,0,0-.07.13l0,.09a.08.08,0,0,1-.05,0c-.47.09-1,.18-1.69.26h0a.07.07,0,0,1-.07,0,.08.08,0,0,1,0-.09A1.84,1.84,0,0,0,27.78,34.72ZM29,36.79a5.4,5.4,0,0,0,.17-.62v0a.11.11,0,0,1,.08-.08h0c.41-.07.75-.14,1.07-.21l.23-.06L31,35.7a.11.11,0,0,1,.11,0,.11.11,0,0,1,0,.12l0,.07-.21.37-.2.37a.12.12,0,0,1-.07.07h0l-.7.13-.18,0-.19,0h-.09l-.27,0h0a.11.11,0,0,1-.09,0,.1.1,0,0,1,0-.11Zm2.07-.41a5.72,5.72,0,0,0,.38-.76h0a.1.1,0,0,1,.07-.07l.1,0,.51-.16c.29-.09.6-.21,1-.36l.08,0h0a.11.11,0,0,1,.08,0,.12.12,0,0,1,0,.12l0,.07c-.14.3-.26.61-.35.85v0a.12.12,0,0,1-.07.07c-.27.09-.57.2-.88.28s-.46.13-.75.2l-.07,0h0a.11.11,0,0,1-.1-.16Zm2.28-.69a5.49,5.49,0,0,1,.49-1l0,0c.31-.14.62-.3,1-.48l.07,0H35a.1.1,0,0,1,.07,0,.1.1,0,0,1,0,.11l0,.07a5.92,5.92,0,0,1-.25.67l-.15.36a.11.11,0,0,1,0,.06h0l-.07,0h0l-.11,0-.27.11-.62.24-.07,0h0a.13.13,0,0,1-.08,0,.11.11,0,0,1,0-.12Zm4.16-1.94a.12.12,0,0,1,0,.12l-.24.16-.31.19-.1.06-.05,0a.15.15,0,0,1-.08,0,.12.12,0,0,1,0-.13l.05-.1A2.07,2.07,0,0,0,37.06,33v0a.11.11,0,0,1,0-.11h0a3.28,3.28,0,0,1,.43-.22l.05,0h0l.07,0a.11.11,0,0,1,0,.1v.05a3.22,3.22,0,0,1-.24.9.12.12,0,0,0,0,.09Zm-.37-2a4.33,4.33,0,0,1-.15.54.13.13,0,0,1,0,.07c-.2.11-.38.23-.55.35l-.05,0-.07,0-.06,0-.09.06L36,32.9l-.06,0-.07,0a.1.1,0,0,1,0-.13l0-.1a3.49,3.49,0,0,0,.21-.67.12.12,0,0,1,.07-.1h0l.15-.07.2-.09.24-.1.22-.1h0l.07,0a.12.12,0,0,1,0,.11Zm-1.34-.9v0a.12.12,0,0,1-.06.05l-.17.06-.15,0h-.07a.6.6,0,0,1-.24-.11l0,0a.1.1,0,0,1,0-.13v0a1.25,1.25,0,0,0,.13-.48.14.14,0,0,1,0-.1l.07-.05h0l.73-.35.08,0h0l.07,0a.12.12,0,0,1,0,.12l0,.08A4.76,4.76,0,0,1,35.8,30.82Zm-.26.62.07,0h0a.11.11,0,0,1,.1.15l0,.1a.09.09,0,0,1,0,0l0,0-.75.33h0l-.07,0a.11.11,0,0,1,0-.1v-.12a.12.12,0,0,1,.07-.1h0Zm-.75,1.13.1,0,.52-.25.21-.1h0a.11.11,0,0,1,.08,0,.1.1,0,0,1,0,.12l0,.1c0,.08-.05.15-.09.23a4.54,4.54,0,0,0-.2.58.13.13,0,0,1-.05.08l-.14.08-.18.11-.19.1-.15.08-.07,0h0a.43.43,0,0,1-.22-.17.61.61,0,0,1-.09-.24.12.12,0,0,1,0-.07,1.28,1.28,0,0,0,.08-.27v-.05A1.32,1.32,0,0,1,34.79,32.56Zm.35,2.36a5.16,5.16,0,0,0,.22-.63.12.12,0,0,0,0-.13l-.07-.06a.11.11,0,0,1,0-.12.11.11,0,0,1,.1-.07h.06c.48-.28.86-.51,1.17-.72l.08-.06.06,0,.07,0a.11.11,0,0,1,0,.12l0,.1a6.56,6.56,0,0,1-.4.84,5,5,0,0,0-.22.45.17.17,0,0,1,0,.07c-.17.1-.37.2-.57.3l-.07,0-.19.09h0l-.08,0a.13.13,0,0,1,0-.12Zm3.76-2.85a2,2,0,0,0-.35-.07,2.55,2.55,0,0,0-1,.07h-.06a.11.11,0,0,1-.11,0,.1.1,0,0,1,0-.1V31.9a2,2,0,0,0,.06-.39v0a.13.13,0,0,1,.08-.1h0c.15,0,.29-.08.43-.1l.24,0h0l.34,0,.24,0,.27,0,.2.05.07,0C39.2,31.59,39,31.83,38.89,32.07Zm.59-1L39.29,31l-.15,0-.38-.05h0l-.13,0-.27,0a.11.11,0,0,1-.1-.11.11.11,0,0,1,.1-.11l.26,0,.36,0a.13.13,0,0,1,.1.05l0,0s.09,0,.14-.07a.11.11,0,0,1,.08,0h.42C39.66,30.75,39.57,30.92,39.48,31.09Zm.41-.8-.26,0h0a.11.11,0,0,1-.09-.05.1.1,0,0,1,0-.1l0,0a2.33,2.33,0,0,0,.13-.31v0a.1.1,0,0,1,.1-.08h0l.4,0C40.08,29.84,40,30.07,39.89,30.29Zm-.78-.88c-.49,0-.62,0-.68-.09l0,0,0,0c-.1-.15,0-.36.17-.56s.29-.43.2-.64c-.16-.4-.9-.48-1-.48a.13.13,0,1,0,0,.25c.17,0,.68.11.77.33a.09.09,0,0,1,0,0c0,.09-.05.18-.18.37s-.35.53-.18.82c0,.07.22.23,1,.25h.05a.1.1,0,0,1,.09.06.11.11,0,0,1,0,.1l0,0-.1.21,0,.06,0,.06a.12.12,0,0,1-.12.06,10,10,0,0,0-2.59.42l-.07,0a.11.11,0,0,1-.12,0,.11.11,0,0,1,0-.12l0-.07a2.41,2.41,0,0,0,.29-1,.11.11,0,0,1,.06-.09l0,0,.06.06,0-.07a.13.13,0,0,0,.07-.08.12.12,0,0,0,0-.1.13.13,0,0,0-.17,0l0,0-.06,0s0,0-.07,0a.14.14,0,0,0-.07.05l0,0A24.2,24.2,0,0,1,32.2,31h-.1l-.11.08,0,0a19.67,19.67,0,0,1-5.65.86,13,13,0,0,1-4.58-.71.13.13,0,0,0-.16.07.12.12,0,0,0,0,.1.12.12,0,0,0,.07.07l.48.17h0a.11.11,0,0,1,.07.07.11.11,0,0,1,0,.09l0,0a2.13,2.13,0,0,1-.25.33.12.12,0,0,1-.11,0l-.33-.09-.64-.2c-.93-.28-1.74-.6-2.34-.85l-.06,0A.11.11,0,0,1,18.4,31a.11.11,0,0,1,0-.09,1.42,1.42,0,0,1-.16-.67.12.12,0,0,0,0-.09.12.12,0,0,0-.09,0,.13.13,0,0,0-.13.11,1.14,1.14,0,0,0,0,.44l0,.07a.11.11,0,0,1,0,.11l-.07,0h0l-.06,0q-.59-.27-1.11-.54a.12.12,0,0,1-.06-.07v0c0-.15-.08-.29-.13-.42a5.55,5.55,0,0,1-.27-1.14v-.07a.11.11,0,0,1,.05-.11l.06,0,.06,0,.05,0c.65.41,1.08.63,1.08.63a.13.13,0,0,0,.17-.05.15.15,0,0,0,0-.1.15.15,0,0,0-.07-.08c-.14-.07-.62-.34-1.26-.75h0a.11.11,0,0,1,0-.12v0a.17.17,0,0,0,0-.09,1.59,1.59,0,0,1-.15-.47,2.71,2.71,0,0,0-.08-.35.14.14,0,0,0-.16-.09.13.13,0,0,0-.08.16,2.88,2.88,0,0,1,.08.32l0,.16a.12.12,0,0,1,0,.12l-.06,0-.06,0-.07,0c-.3-.21-.6-.44-.9-.68l0,0v0a2.9,2.9,0,0,1-.24-1.24,1.94,1.94,0,0,1,.2-1l0-.06,0-.08a.12.12,0,0,1,.12,0,.12.12,0,0,1,.08.09l0,.13,0,.1a7.67,7.67,0,0,0,.31.9l.18.38a.14.14,0,0,0,.15.07.12.12,0,0,0,.09-.15l-.3-1.3c0-.17-.07-.34-.09-.48s0-.17,0-.25a.1.1,0,0,1,0-.09l0,0a.7.7,0,0,1,.14-.13.78.78,0,0,1,.24-.12h0a.15.15,0,0,1,.09,0,.11.11,0,0,1,0,.08l0,.09a.88.88,0,0,0,0,.11l.06.26c0,.18.08.35.12.51.13.51.3,1,.45,1.42s.21.54.25.62a.14.14,0,0,0,.15.08.12.12,0,0,0,.08-.06.13.13,0,0,0,0-.1l-.49-2.07c0-.16-.07-.33-.11-.5l-.06-.26,0-.13v0a.25.25,0,0,1,0-.1,1.57,1.57,0,0,1,.49-.72.56.56,0,0,1,.24-.09h0l.08,0a.11.11,0,0,1,0,.08V23c0,.08,0,.15,0,.24s0,.28.05.45v.07l0,.19a11.07,11.07,0,0,0,.29,1.28c.1.34.19.56.19.57a.13.13,0,0,0,.14.08.16.16,0,0,0,.08-.05.13.13,0,0,0,0-.1l-.1-.58c-.06-.36-.13-.82-.18-1.28,0-.08,0-.16,0-.24v0c0-.14,0-.27,0-.4a2.37,2.37,0,0,1,0-.63,2.54,2.54,0,0,1,.4-.46.61.61,0,0,1,.27-.15h0a.11.11,0,0,1,.1,0,.1.1,0,0,1,0,.09l-.06.44-.05.93a2.17,2.17,0,0,0,0,.33c0,.07,0,.13,0,.18l0,.52.08.49a4.13,4.13,0,0,0,.15.65l.06.22L19,26a3.66,3.66,0,0,0,.16.41,2.49,2.49,0,0,0,.12.22.13.13,0,0,0,.16,0,.1.1,0,0,0,.06-.05l0,0-.06-.08a2.26,2.26,0,0,1-.08-.23c0-.09-.07-.26-.11-.41l0-.14c0-.1,0-.19,0-.27a4.81,4.81,0,0,1-.07-.57l0-.46V23.9c0-.06,0-.12,0-.17v0c0-.11,0-.2,0-.3l.07-.9c0-.17,0-.18,0-.18a3.52,3.52,0,0,1,1.16-1.23l.06,0,.06,0,.06,0a.11.11,0,0,1,0,.11v.08a7.77,7.77,0,0,0-.1,1.09.13.13,0,0,0,.25,0A8,8,0,0,1,20.84,21v0a.11.11,0,0,1,.11-.09h0a3.14,3.14,0,0,0,.48-.16,3.22,3.22,0,0,1,.84-.25.15.15,0,0,1,.14.25,6.73,6.73,0,0,0-.65,3v.08a6,6,0,1,0,12,0,5.93,5.93,0,0,0-.13-1.26,3.42,3.42,0,0,0-.19-.65l0,0c-.06-.11-.13-.25-.06-.37a.27.27,0,0,1,.24-.14c.2,0,.41.23.52.34a1.89,1.89,0,0,1,.39.91l0,.12a1.41,1.41,0,0,1,.06.25l.12.82,0,.46s0,.09,0,.13v0a2.3,2.3,0,0,1,0,.3l0,.43a4.16,4.16,0,0,1-.08.56c0,.07,0,.14,0,.2l0,.14a3.19,3.19,0,0,1-.11.4c0,.1-.06.17-.07.2a.13.13,0,0,0,0,.16.14.14,0,0,0,.18-.07l.09-.18c.05-.12.11-.27.17-.44l0-.12a2.14,2.14,0,0,0,.06-.21l0-.16a2.59,2.59,0,0,0,.09-.41l.08-.47a2.43,2.43,0,0,0,0-.29,1.7,1.7,0,0,1,0-.18l0-.49,0-.9a1.56,1.56,0,0,0,0-.24l0-.14,0-.27a.13.13,0,0,1,.06-.11l.06,0,.07,0,.09.07,1,.93.55.49,0,.07a.1.1,0,0,1,0,.12v0a.11.11,0,0,0,0,.06v.05a3.37,3.37,0,0,0,0,.58,1.65,1.65,0,0,1,0,.36c0,.08,0,.17,0,.26a2.69,2.69,0,0,1,0,.5l0,.22a3.83,3.83,0,0,1-.08.47v0c0,.07,0,.13,0,.21l-.08.26c0,.13-.07.26-.11.36s-.12.33-.16.42-.07.16-.07.17a.12.12,0,0,0,0,.16.14.14,0,0,0,.17,0l0,0,.07-.13a4.13,4.13,0,0,0,.22-.44,2.52,2.52,0,0,0,.16-.4v0l.07-.21.07-.25a4,4,0,0,0,.11-.49c0-.08,0-.15,0-.22a2.61,2.61,0,0,0,0-.55c0-.08,0-.15,0-.22a2.08,2.08,0,0,0,0-.41v0a.1.1,0,0,1,0-.08.11.11,0,0,1,.08,0h.15a1,1,0,0,1,.33,0h0l.46.28h0a2.57,2.57,0,0,1,.66,2.87.12.12,0,0,0,.06.17.13.13,0,0,0,.17-.06,2.55,2.55,0,0,0,.19-.75v0a.11.11,0,0,1,.11-.1h0a.55.55,0,0,1,.41.19,1.06,1.06,0,0,1,.18.39c.08.24.13.38.29.39h0a.11.11,0,0,1,.09.05.12.12,0,0,1,0,.09v.06a2.25,2.25,0,0,1-.24.39.12.12,0,0,0,0,.16h0q-.14.47-.32.92C39.85,29.39,39.43,29.41,39.11,29.41Zm-22.81.3,0,.08a.11.11,0,0,1,0,.12l-.07,0h0l-.08,0c-.37-.21-.74-.44-1.09-.67a.12.12,0,0,1,0,0,3.93,3.93,0,0,1-.32-1.57v0a.12.12,0,0,1,0-.09.15.15,0,0,1,.1,0h0c.34.17.74.39,1.2.66a.12.12,0,0,1,.06.12v0A4.12,4.12,0,0,0,16.3,29.71Zm14.8-8.77s0-.06.07-.16a.44.44,0,0,1,.3-.17.27.27,0,0,1,.23.14,5.56,5.56,0,0,1,.8,3,4.7,4.7,0,0,1-3.06,4.39l0,0h0l-.07,0a.11.11,0,0,1,0-.1V28a5.24,5.24,0,0,0,0-.8v0a.11.11,0,0,1,.07-.11h0l.33-.16.21-.11a3.88,3.88,0,0,0,.61-.46l0,0a3,3,0,0,0,.37-.41,2.19,2.19,0,0,0,.2-.29l0,0,.05-.1,0,0a.13.13,0,0,0-.08-.16.14.14,0,0,0-.16.07v0l0,.09v0a1.74,1.74,0,0,1-.17.27,2.8,2.8,0,0,1-.34.41l0,0a3.74,3.74,0,0,1-.58.44l-.16.09a3,3,0,0,1-.45.21h-.06l0,0H29l-.14,0-.29.07-.86.06h-.15l-.13,0h0A1.51,1.51,0,0,1,27,27a3.05,3.05,0,0,1-.36-.12h0a.11.11,0,0,1-.06-.06.1.1,0,0,1,0-.08v0l.17-.5v0a.12.12,0,0,1,.13-.07h0a5.49,5.49,0,0,0,.6.05h.3a.16.16,0,0,0,.09,0,.13.13,0,0,0,0-.09.12.12,0,0,0-.12-.12,3.86,3.86,0,0,1-.77-.1h0a.11.11,0,0,1-.07-.05.11.11,0,0,1,0-.08l0-.08,0-.16c0-.07,0-.13,0-.2v0a.11.11,0,0,1,0-.08.1.1,0,0,1,.07,0h0l.39,0a3.63,3.63,0,0,0,3.61-4.21Zm2.25-9.63.34.17h0a.13.13,0,0,0,0,.1.14.14,0,0,0,.09.06l.28.06.48.3v0c-.11.15-.22.31-.32.47v0a.11.11,0,0,1-.1.05h0c-.43-.11-.85-.2-1.25-.27h-.05a.11.11,0,0,1-.08-.07.1.1,0,0,1,0-.11l0,0A6.3,6.3,0,0,1,33.36,11.31Zm7.89,13.13c0,.27,0,.53,0,.79a3.85,3.85,0,0,0-.37-.21l-.57-.25h0l-.38-.17c-.36-.16-.71-.35-1-.51a8.76,8.76,0,0,1-1-.69c-.22-.16-.46-.38-.67-.57l0,0-.27-.25-1-.88L34.92,21a.13.13,0,0,1,0-.09.51.51,0,0,1,.1-.41c.13-.15.35-.17.67-.07l0,0,.84.72a18.68,18.68,0,0,0,3.27,2.45.13.13,0,0,0,.17-.05.12.12,0,0,0,0-.1.15.15,0,0,0-.07-.08C38,22,38.1,21.69,38.13,21.57s.13-.22.47-.22a1.05,1.05,0,0,1,.46.09,2.36,2.36,0,0,1,.27.21l0,0,.34.38.27.3.7.86a.14.14,0,0,0,.08,0h0a.11.11,0,0,1,.09.1v0a.14.14,0,0,0,0,.08,3.49,3.49,0,0,0,.31.26C41.23,24,41.25,24.2,41.24,24.44Zm-7.7-7.54,0,0a.1.1,0,0,1,.06-.06.14.14,0,0,1,.1,0l0,0,.52.33,0,0a.12.12,0,0,1,.05.07.11.11,0,0,1,0,.09l0,0a3.69,3.69,0,0,1-1.22.89l-.06,0H33l-.3-.13-.06,0a.11.11,0,0,1,0-.19l0,0A2.75,2.75,0,0,0,33.54,16.9Zm-.13-.68-.08,0-.11-.06h0l-.1-.06-.37-.18-.07,0a.11.11,0,0,1-.06-.07.1.1,0,0,1,0-.09l.09-.12a.11.11,0,0,1,.07,0H33c.38,0,.46.23.55.46l0,.15a.1.1,0,0,1,0,.12l-.07,0Zm2.27-3.42-.08.12,0,0a.1.1,0,0,1-.09,0h-.06l-.83-.28h0a.12.12,0,0,1-.08-.07.11.11,0,0,1,0-.1l0,0c.08-.12.17-.23.25-.34C35.09,12.34,35.39,12.56,35.68,12.79Zm2,1.87a2.22,2.22,0,0,1-.53.07,1.54,1.54,0,0,1-.37,0h0a.12.12,0,0,1-.08-.07.1.1,0,0,1,0-.1l0,0A4.8,4.8,0,0,1,37,14l0,0h0Q37.37,14.33,37.67,14.67Zm-1.05-.94a.11.11,0,0,1,.07.1.11.11,0,0,1-.06.1l-.06,0a2.27,2.27,0,0,1-.95.29.89.89,0,0,1-.23,0h0a.1.1,0,0,1-.07-.06.09.09,0,0,1,0-.09l.16-.36.11-.21,0-.09a.11.11,0,0,1,.1-.06h.07c.27.11.54.22.79.34ZM35.31,17h0a.59.59,0,0,1,.65.37.9.9,0,0,1,.07.27.11.11,0,0,1,0,.1l0,0v0a.1.1,0,0,1-.08,0l-.07,0,0,0-.69-.53L35,17.24a.11.11,0,0,1,0-.13.11.11,0,0,1,.1-.07h.23ZM36,18.72A.33.33,0,0,1,36,19a.34.34,0,0,1-.13.23,3.41,3.41,0,0,1-.45.27.35.35,0,0,1-.16,0,.35.35,0,0,1-.31-.19.35.35,0,0,1,.16-.46,3.65,3.65,0,0,0,.35-.2A.36.36,0,0,1,36,18.72Zm-.11.79a1.6,1.6,0,0,0,.26-.11.38.38,0,0,1,.48,0,.34.34,0,0,1,0,.47,1.43,1.43,0,0,1-.56.31l-.11,0a.35.35,0,0,1-.11-.68Zm.36-1.34-.07-.06a.1.1,0,0,1,0-.12.11.11,0,0,1,.1-.07h.56a.6.6,0,0,1,.48.18.65.65,0,0,1,.11.41.12.12,0,0,1,0,.09l-.21.21,0,0a.11.11,0,0,1-.07,0,.11.11,0,0,1-.08,0l0,0Zm1.08.79.08-.08a.1.1,0,0,1,.07,0h.19a.53.53,0,0,1,.46.21.64.64,0,0,1,.07.49.1.1,0,0,1,0,.07l-.07.08a.13.13,0,0,1-.08,0,.12.12,0,0,1-.08,0l0,0-.54-.52,0,0a.12.12,0,0,1,0-.08A.11.11,0,0,1,37.31,19Zm.8-1.41a.1.1,0,0,1-.08.05h0a.11.11,0,0,1-.09,0l-.08-.1-.15-.19-.1-.15a.1.1,0,0,1,0-.14.12.12,0,0,1,.08,0l.06,0,.42.27a.11.11,0,0,1,0,.14Zm-.29-1.89,0,0a.11.11,0,0,1,0-.13l0,0a4.29,4.29,0,0,1,.25-.35q.39.48.74,1v0a.1.1,0,0,1-.07.05h0a.09.09,0,0,1-.06,0l0,0L38.32,16A2.18,2.18,0,0,1,37.82,15.65Zm2.35,3.16,0,0-.09.18,0,0a.11.11,0,0,1-.07.06h0l-.07,0,0,0-.61-.41h0a.12.12,0,0,1,0-.14l0-.05.1-.21,0,0a.12.12,0,0,1,.07-.06.12.12,0,0,1,.1,0l0,0,.6.45,0,0h0A.11.11,0,0,1,40.17,18.82ZM38.91,16.9l0,.09a1.23,1.23,0,0,1,.07.23l0,.08a.11.11,0,0,1,0,.12l-.07,0-.06,0-.22-.15a.12.12,0,0,1,0-.14v0l0-.06,0-.06,0-.09a.11.11,0,0,1,.11-.07A.1.1,0,0,1,38.91,16.9Zm1.37,2.25,0-.06h0l.09.24h0a.13.13,0,0,1-.07-.06A.12.12,0,0,1,40.28,19.15ZM39.63,18l0,0a.12.12,0,0,1,0-.07.1.1,0,0,1,0-.08l0,0,.08-.09c.09.18.18.36.26.54ZM39,16.48a.1.1,0,0,1,0-.09l.07.1Zm-.75,3.38.06-.06,0,0a.89.89,0,0,1,.23,0,.42.42,0,0,1,.28.1.75.75,0,0,1,.24.66.12.12,0,0,1,0,.08l-.06.07a.11.11,0,0,1-.08,0,.11.11,0,0,1-.08,0l0,0L38.27,20l0,0A.11.11,0,0,1,38.25,19.86Zm.85-1.73,0,.1v0l0,.07a.1.1,0,0,1-.08.06h0a.09.09,0,0,1-.07,0l0,0-.11-.08-.07-.06-.13-.1-.11-.1,0-.07-.05.06,0,0,0,0,0,0a.12.12,0,0,1,0-.14v0l.06-.1.07-.12a.11.11,0,0,1,.07,0,.13.13,0,0,1,.09,0l0,0,.5.34,0,0a.11.11,0,0,1,0,.14v0l0,0Zm.06,2.7,0,0,0,0,.12-.14a.11.11,0,0,1,.12,0,.71.71,0,0,1,.22.05.47.47,0,0,1,.28.58.11.11,0,0,1,0,.09l0,0-.08.05,0,0,0,0a.11.11,0,0,1-.08,0,.1.1,0,0,1-.08,0l-.13-.15-.08-.1-.09-.09L39.15,21A.11.11,0,0,1,39.16,20.83Zm.73.81,0,0,0,0,0,0,.06,0h.08a1.3,1.3,0,0,1,.75.17l.15.09h0c0,.06,0,.12,0,.17l0,0a2.87,2.87,0,0,1-.5.43h0l-.06,0a.11.11,0,0,1-.09,0l-.19-.24L40,22l-.12-.15a.11.11,0,0,1,0-.09A.11.11,0,0,1,39.89,21.64Zm-3.94-8.48h0a.12.12,0,0,1-.07-.07.1.1,0,0,1,0-.09l0,0,.44.38ZM34.89,13l.09,0a.12.12,0,0,1,.08.1.11.11,0,0,1-.07.11l-.09,0a1.72,1.72,0,0,1-.59.13h-.12a.11.11,0,0,1-.09-.05.12.12,0,0,1,0-.1l0-.09.06-.13,0-.08v0a.12.12,0,0,1,.12-.06h0Zm-.78,3.16.22,0c.38,0,.45.29.5.5l0,.1v0a.11.11,0,0,1,0,.11l-.08.06-.06,0-.06,0-.06,0L34,16.56l0,0a.13.13,0,0,1-.05-.08.12.12,0,0,1,0-.09l0,0,0,0,.05-.07Zm-.61,2.13.05,0a3.26,3.26,0,0,0,1-.81l0,0a.11.11,0,0,1,.09,0h.06l0,0,.07,0,.09.06.18.13.19.14a.1.1,0,0,1,0,.09.11.11,0,0,1-.05.09l0,0a4.85,4.85,0,0,0-.7.53l-.13.11a.44.44,0,0,1-.27.09l-.18,0h0l-.23-.13-.16-.09a.11.11,0,0,1,0-.2Zm7.58,4.95-.07,0h0a.11.11,0,0,1-.1-.1v0a.11.11,0,0,0,0-.06l-.2-.26a.11.11,0,0,1,0-.09.1.1,0,0,1,0-.07l0,0a3.06,3.06,0,0,0,.39-.33c0,.36.08.72.1,1.09ZM33.43,12.65l.13,0a.11.11,0,0,1,.08.1.11.11,0,0,1-.08.11l-.12,0h-.05l-.06,0a2.06,2.06,0,0,1-.69.2.47.47,0,0,1-.4-.2v0a.1.1,0,0,1,0-.11v0l.16-.26v0a.12.12,0,0,1,.13,0h0C32.82,12.52,33.12,12.58,33.43,12.65Zm-1,3.58a.12.12,0,0,1,.06-.06h.09l.16.08.21.1.19.11.15.09,0,0a.11.11,0,0,1,0,.14v.05c-.17.51-1.06,1.08-1.16,1.15l-.07,0h0l-.29-.08-.14,0a.11.11,0,0,1-.08-.07.12.12,0,0,1,0-.11l.12-.14.23-.32.08-.11a1.32,1.32,0,0,0,.13-.21ZM29,27.37a4.43,4.43,0,0,1,0,.85v0a.11.11,0,0,1-.09.09h0a5,5,0,0,1-1,.12h-.05a.11.11,0,0,1-.09,0,.11.11,0,0,1,0-.11l0,0a3,3,0,0,0,.22-.77v0a.11.11,0,0,1,.09-.1l.51-.06.25-.07h0a.16.16,0,0,1,.1,0,.12.12,0,0,1,0,.09Zm-4.48-.91,0,0a.11.11,0,0,1,.15,0l0,0,0,0,0,0a2.65,2.65,0,0,0,.47.34,2.5,2.5,0,0,0,.44.22h0a.11.11,0,0,1,.06.13l-.05.16-.05.11-.1.21,0,0a.12.12,0,0,1-.07.06h0l-.06,0,0,0a4.52,4.52,0,0,1-1.09-.91l0,0a.11.11,0,0,1,0-.16l0,0Zm0-2.28.16-.14a.12.12,0,0,1,.15,0l0,0a3.79,3.79,0,0,0,.37.33l0,0a.11.11,0,0,1,0,.15l0,0-.13.19,0,0a.11.11,0,0,1-.08,0,.11.11,0,0,1-.09,0l0,0a1.62,1.62,0,0,1-.28-.31l-.07-.09,0,0h0l0,0A.11.11,0,0,1,24.56,24.17Zm1,2.19a3.88,3.88,0,0,1-.4-.3l0,0,0,0a.11.11,0,0,1,0-.15l.12-.16a.11.11,0,0,1,.09,0h.07a4.62,4.62,0,0,0,.71.29h0a.11.11,0,0,1,.07.13v0c0,.11-.06.22-.1.33v0a.11.11,0,0,1-.07.07h0l-.06,0,0,0A1.73,1.73,0,0,1,25.6,26.36Zm0-1.11a.12.12,0,0,1,0-.09l0,0,.16-.26v0a.11.11,0,0,1,.1-.06h0l0,0a3.38,3.38,0,0,0,.4.16h0a.13.13,0,0,1,.06.06.11.11,0,0,1,0,.09v0a1.58,1.58,0,0,0-.06.18l0,.18a.13.13,0,0,1-.06.07h-.13a4.07,4.07,0,0,1-.5-.25l0,0A.11.11,0,0,1,25.58,25.25ZM26,27.92l0,0,.12-.2.06-.11.11-.22a.12.12,0,0,1,.13-.06h0a4.06,4.06,0,0,0,.55.08l.25,0h.41a.11.11,0,0,1,.08,0,.1.1,0,0,1,0,.09v0a3.34,3.34,0,0,1-.27.77v0a.1.1,0,0,1-.1.06h0A4.88,4.88,0,0,1,26,28.1h0a.1.1,0,0,1-.06-.07A.1.1,0,0,1,26,27.92Zm-.51-4.82c-.9,0-1.63-.51-1.63-1.13s.73-1.13,1.63-1.13,1.63.51,1.63,1.13S26.34,23.1,25.45,23.1ZM24.06,25.7l.18.23v0a.11.11,0,0,1,0,.14l0,.05-.06.07-.09.1a.11.11,0,0,1-.09,0,.11.11,0,0,1-.09,0l0,0a4.65,4.65,0,0,1-.53-1.17v0a.11.11,0,0,1,.06-.13l.07,0h0a.1.1,0,0,1,.09,0l0,0A4.66,4.66,0,0,0,24.06,25.7Zm8-10.32a.11.11,0,0,1,0,.1l-.06,0h0l-.05,0c-.29-.12-.58-.24-.88-.34l-.14,0a.11.11,0,0,1-.07-.12.11.11,0,0,1,.1-.1H31l.16,0a4.59,4.59,0,0,1,.78,0h0a.11.11,0,0,1,.08,0,.12.12,0,0,1,0,.08v0a1.8,1.8,0,0,0,0,.35ZM14.49,28.56l0,.08a.11.11,0,0,1,0,.11l-.06,0-.06,0,0,0c-.72-.58-1.06-1.1-.94-1.42s.3-.28.6-.21h0a2.28,2.28,0,0,0,.32.19h0a.11.11,0,0,1,.07.1v0A6.21,6.21,0,0,0,14.49,28.56Zm1.66,4.58c-.24-.13-.76-.43-1.27-.75a14.45,14.45,0,0,1-1.28-2.25c.71.57,1.36,1.05,1.4,1.08a.12.12,0,0,0,.18,0,.13.13,0,0,0,0-.1.13.13,0,0,0-.05-.08l-.46-.35a.09.09,0,0,1,0-.05l-.16-.12c-.72-.51-1.15-1-1.06-1.33a.26.26,0,0,1,.28-.17,1.82,1.82,0,0,1,.8.29l.11.07.11.08a.13.13,0,0,1,.05.1,1.63,1.63,0,0,0,.18.63.13.13,0,0,0,.17.06.12.12,0,0,0,.05-.16l0-.1a.11.11,0,0,1,0-.13l.07,0,.06,0,.09.06.72.43a.13.13,0,0,1,.05.08c0,.09,0,.19.06.28a1.94,1.94,0,0,0,.22.7.15.15,0,0,0,.17,0,.13.13,0,0,0,0-.18,1.26,1.26,0,0,1-.15-.44l0-.07a.12.12,0,0,1,0-.11l.07,0,.06,0,.06,0c.34.19.67.35,1,.51a.11.11,0,0,1,.06.09.26.26,0,0,1,0,0l0,.16a4.88,4.88,0,0,0,.28,1.07l0,.08a.11.11,0,0,1,0,.13.1.1,0,0,1-.07,0H18l-.08,0c-.25-.12-.48-.24-.64-.34L17,32.23a.12.12,0,0,0-.16,0,.12.12,0,0,0,0,.1.12.12,0,0,0,.06.08l0,0,.2.13c.12.08.33.21.67.39s.64.33,1.09.52l.19.08a12,12,0,0,0,1.28.45c.44.14.92.25,1.42.36h0l.32.07h0l.37.06h0a14.31,14.31,0,0,0,1.62.18c.29,0,.57,0,.84,0h.08l0,0h1.25l.72-.06.25,0h0a.12.12,0,0,1,.1,0,.1.1,0,0,1,0,.1l0,.05a2.3,2.3,0,0,1-.31.52l-.2.3a.08.08,0,0,1-.06,0h-.05a17.45,17.45,0,0,1-1.9.1,21.2,21.2,0,0,1-4.36-.46.13.13,0,0,0-.16.08.13.13,0,0,0,0,.1.15.15,0,0,0,.07.06l.22.07.61.17a18.74,18.74,0,0,0,2.21.4,20.89,20.89,0,0,0,3.18.12c.63,0,1.3-.09,2-.18h.06a.11.11,0,0,1,.11.14v0a3,3,0,0,1-.24.67.12.12,0,0,1-.1.06c-.47.06-.91.11-1.31.14s-.9.07-1.23.07H25a.12.12,0,0,0-.12.1.13.13,0,0,0,.1.15l.16,0,.07,0a1.32,1.32,0,0,0,.38.06h.26a20.72,20.72,0,0,0,9.59-2l.31-.18c.12-.06.24-.15.36-.22a14.41,14.41,0,0,1-9.6,3.42,13.61,13.61,0,0,1-1.94-.17,14.43,14.43,0,0,1-9.31-5.55l.75.43a.13.13,0,1,0,.13-.22Z" transform="translate(-1.86 -3.37)"/></svg>